<?xml version="1.0" encoding="UTF-8" standalone="no"?>
<svg  width="1000" height="750" xmlns="http://www.w3.org/2000/svg" font-family="Liberation Sans,sans-serif" font-size="40" text-anchor="middle" fill="black">

<rect width="1000" height="750" x="0" y="0" fill="#f8f8f8"/>
<rect width="830" height="590" x="120" y="80" fill="white"/>

<text x="535" y="55" font-size="50">Road accident deaths</text>
<text transform="translate(42,445) rotate(-90)" font-size="35">Deaths per 100,000 inhabitants</text>

<path stroke="#ddd" stroke-width="2" d="
M110,80 h840
M110,125.385 h840
M110,170.769 h840
M110,216.154 h840
M110,261.538 h840
M110,306.923 h840
M110,352.308 h840
M110,397.692 h840
M110,443.077 h840
M110,488.462 h840
M110,533.846 h840
M110,579.231 h840
M110,624.615 h840
M110,670 h840
"/>

<g font-size="30" transform="translate(85,0)">
<text y="226">20</text>
<text y="453">10</text>
<text y="680">0</text>
</g>

<path stroke="black" stroke-width="0.25" d="
M120,80 v600
M212.22,80 v600
M304.44,80 v600
M396.67,80 v600
M488.89,80 v600
M581.11,80 v600
M673.33,80 v600
"/>

<g font-size="35" transform="translate(0,720)">
<text x="120">1990</text>
<text x="304">2000</text>
<text x="489">2010</text>
<text x="673">2020</text>
</g>

   <g stroke-width="5" fill="none" stroke-linecap="round" stroke-linejoin="round">

<!-- GERMANY -->
<path stroke="blue" d="
M193.8,396.5 L212.2,407.3 L230.7,427.4 L249.1,433.5 L267.6,454.5 L286,455.2 L304.4,462.9 L322.9,477.7 L341.3,481.8 L359.8,488.2 
L378.2,509.3 L396.7,522.5 L415.1,529.8 L433.6,533.5 L452,546.3 L470.4,555 L488.9,568.8 L507.3,556.7 L525.8,568.4 L544.2,576 
L562.7,575.4 L581.1,573.9 L599.6,581.7 L618,582.7 L636.4,580.4 L654.9,586.8 L673.3,595.8 L691.8,600.1 L710.2,594.8 
"/>

<!-- JAPAN -->
<path stroke="#f77" d="
M193.8,438.5 L212.2,440.8 L230.7,459.3 L249.1,467.4 L267.6,476 L286,484 L304.4,483.8 L322.9,490.3 L341.3,498.3 L359.8,511.1 
L378.2,517.7 L396.7,528 L415.1,539.8 L433.6,551.3 L452,562.3 L470.4,566.5 L488.9,566.7 L507.3,571.7 L525.8,576.5 L544.2,578 
L562.7,583.8 L581.1,582.8 L599.6,586.1 L618,590.8 L636.4,595.5 L654.9,599.8 L673.3,608.6 L691.8,612.1 L710.2,611.7 
"/>

<!-- UK -->
<path stroke="green" d="
M193.8,520.7 L212.2,522.7 L230.7,524.1 L249.1,524.4 L267.6,531.1 L286,532.2 L304.4,532.1 L322.9,531.9 L341.3,533.1 L359.8,530.8 
L378.2,542.6 L396.7,544.7 L415.1,547 L433.6,556.8 L452,572.9 L470.4,584.8 L488.9,601.1 L507.3,599.7 L525.8,605.8 L544.2,607.4 
L562.7,604.9 L581.1,607.1 L599.6,605.7 L618,606.2 L636.4,607.2 L654.9,608.6 L673.3,618.7 L691.8,615.6 L710.2,610.7 
"/>

<!-- US -->
<path stroke="blue" d="
M193.8,318.9 L212.2,313.6 L230.7,315.7 L249.1,320.3 L267.6,328.6 L286,330.7 L304.4,332.7 L322.9,334 L341.3,330.7 L359.8,334.6 
L378.2,338 L396.7,335.9 L415.1,345.2 L433.6,359.2 L452,390.7 L470.4,419.4 L488.9,427.9 L507.3,433.5 L525.8,425.8 L544.2,433.8 
L562.7,436.6 L581.1,419 L599.6,404.5 L618,408.5 L636.4,414.3 L654.9,418.7 L673.3,403 L691.8,376.5 
"/>

<!-- RUSSIA -->
<path stroke="red" d="
M193.8,125.7 L212.2,168.5 L230.7,218.7 L249.1,245.6 L267.6,224 L286,211.9 L304.4,211.9 L322.9,189.4 L341.3,150.8 L359.8,111.5 
L378.2,126.5 L396.7,133.1 L415.1,150.9 L433.6,140.7 L452,194.1 L470.4,230.4 L488.9,248 L507.3,226.3 L525.8,226.4 L544.2,242.7 
L562.7,244.6 L581.1,306 L599.6,350.7 L618,370.2 L636.4,383.9 L654.9,403.2 L673.3,415.6 
"/>

<!-- ITALY -->
<path stroke="green" d="
M193.8,386.4 L212.2,389.2 L230.7,403.1 L249.1,401.8 L267.6,396.9 L286,403.4 L304.4,388.6 L322.9,387.4 L341.3,392.4 L359.8,410.1 
L378.2,429.2 L396.7,442.3 L415.1,448.8 L433.6,470.8 L452,487.7 L470.4,507.3 L488.9,512.5 L507.3,522.5 L525.8,527 L544.2,541.9 
L562.7,543.8 L581.1,541.9 L599.6,547.1 L618,543.4 L636.4,545.1 L654.9,549.5 L673.3,578.6 L691.8,559.6 L710.2,548.2 
"/>

<!-- FRANCE -->
<path stroke="#d02" stroke-width="7" stroke-linecap="butt" stroke-dasharray="3,3" d="
M193.8,325 L212.2,331.2 L230.7,345.7 L249.1,350.5 L267.6,333.8 L286,351.7 L304.4,369.1 L322.9,368.3 L341.3,389 L359.8,449.2 
L378.2,467.6 L396.7,479 L415.1,502.1 L433.6,506.2 L452,519.3 L470.4,520.2 L488.9,530.7 L507.3,532.4 L525.8,543.8 L544.2,557.6 
L562.7,554.2 L581.1,552 L599.6,551.8 L618,553.1 L636.4,560.3 L654.9,560.8 L673.3,584.7 L691.8,571.4 L710.2,560.9 
"/>

<!-- AUSTRALIAoutline -->
<path stroke="black" stroke-width="6" d="
M193.8,424.3 L212.2,415.8 L230.7,424.7 L249.1,452.4 L267.6,456 L286,457.2 L304.4,453.3 L322.9,465.5 L341.3,470.4 L359.8,483.5 
L378.2,489.8 L396.7,487 L415.1,492.7 L433.6,495.3 L452,516.5 L470.4,514.1 L488.9,531.1 L507.3,540.3 L525.8,540.2 L544.2,553.8 
L562.7,558.8 L581.1,555.2 L599.6,548.5 L618,557.2 L636.4,566.8 L654.9,563.7 L673.3,573.2 L691.8,571.4 L710.2,566.2 
"/>

<!-- AUSTRALIA -->
<path stroke="orange" d="
M193.8,424.3 L212.2,415.8 L230.7,424.7 L249.1,452.4 L267.6,456 L286,457.2 L304.4,453.3 L322.9,465.5 L341.3,470.4 L359.8,483.5 
L378.2,489.8 L396.7,487 L415.1,492.7 L433.6,495.3 L452,516.5 L470.4,514.1 L488.9,531.1 L507.3,540.3 L525.8,540.2 L544.2,553.8 
L562.7,558.8 L581.1,555.2 L599.6,548.5 L618,557.2 L636.4,566.8 L654.9,563.7 L673.3,573.2 L691.8,571.4 L710.2,566.2 
"/>

<!-- CANADA -->
<path stroke="indigo" stroke-dasharray="10,14" d="
M193.8,417.3 L212.2,413.4 L230.7,430.2 L249.1,436.6 L267.6,450.3 L286,447.6 L304.4,455.2 L322.9,468.2 L341.3,458.6 L359.8,470.9 
L378.2,475.7 L396.7,466 L415.1,470 L433.6,480.1 L452,504.1 L470.4,520.5 L488.9,520.7 L507.3,536.3 L525.8,534.4 L544.2,543.8 
L562.7,552.1 L581.1,550.1 L599.6,550.6 L618,554.4 L636.4,551.3 L654.9,564 L673.3,565.8 L691.8,565 
"/>

   </g>

   <g text-anchor="start" font-size="35">
<text x="700" y="385" fill="blue">US</text>
<text x="585" y="295" fill="red">Russia</text>
<text x="500" y="515" fill="green">Italy</text>
<text x="130" y="370" fill="#d02">France</text>
<text x="725" y="570" fill="orange">Australia</text>
<text x="725" y="530" fill="indigo">Canada</text>
<text x="725" y="605" fill="blue">Germany</text>
<text x="130" y="475" fill="#f77">Japan</text>
<text x="460" y="610" fill="green" text-anchor="end">UK</text>
   </g>

<path stroke="indigo" stroke-width="6" stroke-linecap="round" stroke-dasharray="20,20" d="M650,518 h60"/>

         <!-- Cover edges of plot area -->
<rect width="830" height="590" x="120" y="80" stroke="#888888" stroke-width="1" fill="none"/>

</svg>
