<?xml version="1.0" encoding="utf-8" ?>
<svg baseProfile="full" height="440" version="1.1" width="720" xmlns="http://www.w3.org/2000/svg" xmlns:ev="http://www.w3.org/2001/xml-events" xmlns:xlink="http://www.w3.org/1999/xlink">
  <title>Ballistic-trajectories-planet2</title>
  <desc>Ballistic-trajectories-planet2.svg
https://commons.wikimedia.org/wiki/File:Ballistic-trajectories-planet2.svg
rights: Creative Commons Attribution-Share Alike 4.0 International license</desc>
  <defs>
    <radialGradient cx="0.5" cy="0.5" gradientUnits="objectBoundingBox" id="rgrad" r="0.5">
      <stop offset="0.93" stop-color="#ffffff"/>
      <stop offset="1" stop-color="#ddc099"/>
    </radialGradient>
    <linearGradient gradientUnits="objectBoundingBox" id="lgrad" x1="0" x2="0" y1="0" y2="1">
      <stop offset="1" stop-color="#ffffff"/>
      <stop offset="0" stop-color="#ddc099"/>
    </linearGradient>
  </defs>
  <rect fill="white" height="440" id="background" stroke="none" width="720" x="0" y="0"/>
  <g fill="none" transform="translate(72.0, 1720.0)">
    <rect fill="url(#lgrad)" height="105" stroke="none" width="720" x="-72" y="-1500"/>
    <path d="M -72.0,-1500.0 h 720.0" stroke="black" stroke-width="3"/>
    <circle cx="0" cy="0" fill="url(#rgrad)" r="1500" stroke="black" stroke-width="3"/>
    <path d="M 551.4,-1395.0 A 892.9,462.9 -79.2 1 1 0.0,-1500.0" stroke="#d95319" stroke-dasharray="5,9" stroke-width="5"/>
    <path d="M -72.0,-1417.2 Q -36.0,-1464.0 0.0,-1500.0 M 480.0,-1500.0 Q 564.0,-1416.0 648.0,-1273.2" stroke="#0072bd" stroke-dasharray="5,9" stroke-width="5"/>
    <path d="M 0.0,-1500.0 A 892.9,462.9 -79.2 0 1 551.4,-1395.0" stroke="#d95319" stroke-width="5"/>
    <path d="M 0.0,-1500.0 Q 240.0,-1740.0 480.0,-1500.0" stroke="#0072bd" stroke-width="5"/>
    <path d="M 0.0,0.0 V 110.0 M -13.0,88.0 L 0.0,110.0 L 13.0,88.0" fill="none" stroke="#777777" stroke-linecap="butt" stroke-width="7" transform="translate(0, -1500.0)"/>
    <path d="M 0.0,0.0 V 110.0 M -13.0,88.0 L 0.0,110.0 L 13.0,88.0" fill="none" stroke="#777777" stroke-linecap="butt" stroke-width="7" transform="translate(480.0, -1500.0)"/>
    <path d="M 0.0,0.0 V 110.0 M -13.0,88.0 L 0.0,110.0 L 13.0,88.0" fill="none" stroke="#777777" stroke-linecap="butt" stroke-width="7" transform="rotate(-338.43) translate(0, -1500.0)"/>
    <circle cx="0" cy="0" fill="black" r="6" stroke="none"/>
    <circle cx="0" cy="-1500" fill="black" r="6" stroke="none"/>
    <circle cx="480.0" cy="-1500" fill="black" r="6" stroke="none"/>
    <circle cx="551.4223194748364" cy="-1394.967177242888" fill="black" r="6" stroke="none"/>
    <text fill="black" font-family="Bitstream Vera Sans" font-size="30px" stroke="none" text-anchor="middle" transform="translate(19.0, -1432.5)">g</text>
    <text fill="black" font-family="Bitstream Vera Sans" font-size="30px" stroke="none" text-anchor="middle" transform="translate(499.0, -1432.5)">g</text>
    <text fill="black" font-family="Bitstream Vera Sans" font-size="30px" stroke="none" text-anchor="middle" transform="translate(550.0, -1322.0)">g'</text>
  </g>
  <g fill="none" transform="translate(510.0, 20.0)">
    <rect fill="white" height="100" stroke="black" stroke-width="3" width="190" x="0" y="0"/>
    <path d="M 20.0,30.0 h 40.0" stroke="#0072bd" stroke-width="5"/>
    <path d="M 20.0,70.0 h 40.0" stroke="#d95319" stroke-width="5"/>
    <text fill="black" font-family="Bitstream Vera Sans" font-size="30px" stroke="none" text-anchor="start" transform="translate(76.0, 39.0)">flat</text>
    <text fill="black" font-family="Bitstream Vera Sans" font-size="30px" stroke="none" text-anchor="start" transform="translate(76.0, 79.0)">planet</text>
  </g>
</svg>
