<?xml version="1.0" encoding="UTF-8" standalone="no"?>
<!-- Generator: Adobe Illustrator 15.0.0, SVG Export Plug-In . SVG Version: 6.00 Build 0)  -->

<svg
   xmlns:dc="http://purl.org/dc/elements/1.1/"
   xmlns:cc="http://creativecommons.org/ns#"
   xmlns:rdf="http://www.w3.org/1999/02/22-rdf-syntax-ns#"
   xmlns:svg="http://www.w3.org/2000/svg"
   xmlns="http://www.w3.org/2000/svg"
   xmlns:sodipodi="http://sodipodi.sourceforge.net/DTD/sodipodi-0.dtd"
   xmlns:inkscape="http://www.inkscape.org/namespaces/inkscape"
   version="1.1"
   id="svg2"
   x="0px"
   y="0px"
   width="351.94922"
   height="265.51233"
   viewBox="0 0 351.94923 265.51234"
   enable-background="new 0 0 351.973 265.012"
   xml:space="preserve"
   inkscape:version="0.47 r22583"
   sodipodi:docname="Angular_velocity.svg"><metadata
   id="metadata35"><rdf:RDF><cc:Work
       rdf:about=""><dc:format>image/svg+xml</dc:format><dc:type
         rdf:resource="http://purl.org/dc/dcmitype/StillImage" /></cc:Work></rdf:RDF></metadata><defs
   id="defs33"><inkscape:perspective
     sodipodi:type="inkscape:persp3d"
     inkscape:vp_x="0 : 132.506 : 1"
     inkscape:vp_y="0 : 1000 : 0"
     inkscape:vp_z="351.97299 : 132.506 : 1"
     inkscape:persp3d-origin="175.9865 : 88.337331 : 1"
     id="perspective37" /></defs><sodipodi:namedview
   pagecolor="#ffffff"
   bordercolor="#666666"
   borderopacity="1"
   objecttolerance="10"
   gridtolerance="10"
   guidetolerance="10"
   inkscape:pageopacity="0"
   inkscape:pageshadow="2"
   inkscape:window-width="1440"
   inkscape:window-height="844"
   id="namedview31"
   showgrid="false"
   inkscape:zoom="2.2447169"
   inkscape:cx="102.46868"
   inkscape:cy="132.75616"
   inkscape:window-x="-4"
   inkscape:window-y="-4"
   inkscape:window-maximized="1"
   inkscape:current-layer="svg2" />
<g
   id="layer1"
   transform="matrix(0.98,0,0,0.98,268.99327,-418.42932)">
	<path
   id="path4402"
   d="m 80.063,625.233 c 0.028,34.975 -78.289,63.336 -174.929,63.346 -96.639,0.011 -175.003,-28.333 -175.031,-63.308 0,-0.014 0,-0.025 0,-0.038 -0.029,-34.976 78.29,-63.335 174.928,-63.347 96.64,-0.011 175.003,28.334 175.032,63.31 0,0.012 0,0.025 0,0.037 z"
   style="fill:none;stroke:black;stroke-width:1.98877559;stroke-miterlimit:4;stroke-dasharray:none" />
	<g
   id="g4406">
		
		<path
   id="path2258_2_"
   d="m -93.929,432.34 h -2"
   style="fill:#0052d6" />
		<path
   id="path4412"
   d="m -103.792,453.715 8.839,-24.037 8.839,24.037 c -5.218,-3.84 -12.358,-3.818 -17.678,0 z"
   style="fill:#e30b26" />
		<path
   id="path4414"
   d="m 56.295,616.359 24.037,8.839 -24.037,8.839 c 3.84,-5.218 3.818,-12.359 0,-17.678 z"
   style="fill:#0052d6" />
		<path
   id="path2258_1_"
   d="M -94.929,432.34 V 625.247"
   style="fill:#0052d6;stroke:#e30b26;stroke-width:2.55102051;stroke-miterlimit:4;stroke-dasharray:none" />
	</g>
	<g
   id="g4424"
   transform="matrix(-0.08167648,0.9966589,-0.9966589,-0.08167648,318.76208,735.36858)">
		<path
   id="path4428"
   d="m -20.638,461.934 8.841,-24.037 8.838,24.037 c -5.219,-3.84 -12.359,-3.818 -17.679,0 z"
   style="fill:black;stroke:black" />
	</g>
	<g
   enable-background="new    "
   id="g13">
		<path
   d="m 35.48,621.366 3.277,-15.678 h 2.362 l -0.664,3.203 c 0.807,-1.211 1.596,-2.105 2.369,-2.687 0.772,-0.581 1.563,-0.871 2.369,-0.871 0.531,0 1.186,0.191 1.963,0.575 l -1.092,2.48 c -0.463,-0.334 -0.97,-0.502 -1.521,-0.502 -0.935,0 -1.896,0.521 -2.879,1.565 -0.984,1.043 -1.757,2.918 -2.317,5.624 l -1.329,6.289 H 35.48 z"
   id="path15"
   style="fill:#0052d6" />
	</g>
	<g
   id="g6411">
		<path
   id="path4440"
   d="m 34.166,599.34 v 1.5 h 11.125 v -1.5 H 34.166 z"
   style="fill:#0052d6" />
		<g
   id="g19">
			<path
   id="path6417"
   d="m 41.909,600.093 -3.6,3.6 12.6,-3.6 -12.6,-3.6 3.6,3.6 z"
   style="fill:#0052d6" />
		</g>
	</g>
	<g
   enable-background="new    "
   id="g22">
		<path
   d="m -84.72,468.865 h 2.672 c -2.845,4.183 -4.268,7.706 -4.268,10.569 0,1.221 0.242,2.092 0.725,2.613 0.481,0.522 1.033,0.782 1.652,0.782 0.66,0 1.324,-0.287 1.994,-0.863 0.668,-0.576 1.21,-1.358 1.623,-2.348 0.414,-0.988 0.891,-2.729 1.432,-5.218 l 0.34,-1.58 h 2.672 l -0.679,3.085 c -0.354,1.604 -0.531,2.845 -0.531,3.721 0,1.063 0.229,1.862 0.687,2.399 0.457,0.536 1.016,0.804 1.676,0.804 1.19,0 2.264,-0.839 3.218,-2.517 0.954,-1.678 1.433,-3.865 1.433,-6.563 0,-1.535 -0.232,-3.164 -0.694,-4.886 h 2.672 c 0.492,1.958 0.738,3.71 0.738,5.255 0,2.943 -0.726,5.475 -2.177,7.596 -1.453,2.121 -3.211,3.182 -5.278,3.182 -0.975,0 -1.833,-0.298 -2.576,-0.894 -0.743,-0.595 -1.263,-1.43 -1.558,-2.502 -0.6,1.093 -1.381,1.932 -2.34,2.517 -0.959,0.586 -1.926,0.879 -2.9,0.879 -1.358,0 -2.493,-0.489 -3.403,-1.469 -0.911,-0.979 -1.366,-2.404 -1.366,-4.274 0,-1.466 0.357,-3.109 1.07,-4.931 0.713,-1.819 1.768,-3.605 3.166,-5.357 z"
   id="path24"
   style="fill:#e30b26" />
	</g>
	<g
   id="g6403"
   transform="translate(0.01822111,0)">
		<path
   id="path5421"
   d="m -89.438,462.531 v 1.5 h 19.625 v -1.5 h -19.625 z"
   style="fill:#e30b26" />
		<g
   id="g28">
			<path
   id="path6409"
   d="m -73.186,463.271 -3.6,3.6 12.6,-3.6 -12.6,-3.6 3.6,3.6 z"
   style="fill:#e30b26" />
		</g>
	</g>
</g>
<path
   style="fill:#ffffff;stroke:#0052d6;stroke-width:2.5000001;stroke-linecap:butt;stroke-linejoin:miter;stroke-miterlimit:4;stroke-opacity:1;stroke-dasharray:none;fill-opacity:1"
   d="m 175.45815,193.5676 155.80684,0.56147 -1.96513,0"
   id="path3605"
   sodipodi:nodetypes="ccc" /></svg>