<?xml version="1.0" encoding="UTF-8" standalone="no"?>
<svg xmlns="http://www.w3.org/2000/svg" width="1000" height="750" font-family="Liberation Sans,sans-serif" text-anchor="middle" fill="black">

<rect width="1000" height="750" x="0" y="0" fill="#f8f8f8"/>
<rect width="830" height="550" x="120" y="80" stroke="none" fill="#f4fff4"/>

<switch><text x="535" y="52" font-size="50px" id="trsvg20-pt-br" systemLanguage="pt-br"><tspan id="trsvg1-pt-br">Velocidade média da bola de boliche</tspan></text><text x="535" y="52" font-size="50px" id="trsvg20"><tspan id="trsvg1">Average speed of bowling ball</tspan></text></switch>

<switch><text x="535" y="730" font-size="40px" id="trsvg21-pt-br" systemLanguage="pt-br"><tspan id="trsvg2-pt-br">Tempo de viagem: da linha até o pino</tspan></text><text x="535" y="730" font-size="40px" id="trsvg21"><tspan id="trsvg2">Travel time: foul line to headpin</tspan></text></switch>

<path stroke="#27b" stroke-width="1" d=" M110,80 h840 M110,112.353 h840 M110,144.706 h840 M110,177.059 h840 M110,209.412 h840 M110,241.765 h840 M110,274.118 h840 M110,306.471 h840 M110,338.824 h840 M110,371.176 h840 M110,403.529 h840 M110,435.882 h840 M110,468.235 h840 M110,500.588 h840 M110,532.941 h840 M110,565.294 h840 M110,597.647 h840 M110,630 h840"/>

<g font-size="40" transform="translate(60,0)">
<switch><text y="126" id="trsvg22-pt-br" systemLanguage="pt-br"><tspan id="trsvg3-pt-br">25</tspan></text><text y="126" id="trsvg22"><tspan id="trsvg3">25</tspan></text></switch>
   <g font-size="25" fill="black">
   <switch><text y="155" id="trsvg23-pt-br" systemLanguage="pt-br"><tspan id="trsvg4-pt-br">milhas</tspan></text><text y="155" id="trsvg23"><tspan id="trsvg4">Miles</tspan></text></switch>
   <switch><text y="180" id="trsvg24-pt-br" systemLanguage="pt-br"><tspan id="trsvg5-pt-br">por</tspan></text><text y="180" id="trsvg24"><tspan id="trsvg5">per</tspan></text></switch>
   <switch><text y="205" id="trsvg25-pt-br" systemLanguage="pt-br"><tspan id="trsvg6-pt-br">hora</tspan></text><text y="205" id="trsvg25"><tspan id="trsvg6">hour</tspan></text></switch>
   </g>
<switch><text y="288" id="trsvg26-pt-br" systemLanguage="pt-br"><tspan id="trsvg7-pt-br">20</tspan></text><text y="288" id="trsvg26"><tspan id="trsvg7">20</tspan></text></switch>
<switch><text y="450" id="trsvg27-pt-br" systemLanguage="pt-br"><tspan id="trsvg8-pt-br">15</tspan></text><text y="450" id="trsvg27"><tspan id="trsvg8">15</tspan></text></switch>
<switch><text y="612" id="trsvg28-pt-br" systemLanguage="pt-br"><tspan id="trsvg9-pt-br">10</tspan></text><text y="612" id="trsvg28"><tspan id="trsvg9">10</tspan></text></switch>
</g>

<path stroke="#27b" stroke-width="1" d=" M120,80 v560 M153.2,80 v560 M186.4,80 v560 M219.6,80 v560 M252.8,80 v560 M285,80 v560 M286,80 v560 M287,80 v560 M319.2,80 v560 M352.4,80 v560 M385.6,80 v560 M418.8,80 v560 M451,80 v560 M452,80 v560 M453,80 v560 M485.2,80 v560 M518.4,80 v560 M551.6,80 v560 M584.8,80 v560 M617,80 v560 M618,80 v560 M619,80 v560 M651.2,80 v560 M684.4,80 v560 M717.6,80 v560 M750.8,80 v560 M783,80 v560 M784,80 v560 M785,80 v560 M817.2,80 v560 M850.4,80 v560 M883.6,80 v560 M916.8,80 v560 M950,80 v560 "/>

<path stroke="none" fill="#ffecec" opacity="0.9" d=" M120,105 M146,80 L153,94 186,143 220,186 253,225 286,259 319,291 352,320 386,346 419,370 452,392 L485,412 518,431 552,448 585,465 618,480 651,494 684,508 718,520 751,532 784,543 L817,554 850,563 884,573 917,582 950,590 V80 H120 z "/>

<g font-size="35" transform="translate(0,680)">
<switch><text x="120" y="25" text-anchor="middle" font-size="25" id="trsvg29-pt-br" systemLanguage="pt-br"><tspan id="trsvg10-pt-br">segundos</tspan></text><text x="120" y="25" text-anchor="middle" font-size="25" id="trsvg29"><tspan id="trsvg10">seconds</tspan></text></switch>
<switch><text x="120" id="trsvg30-pt-br" systemLanguage="pt-br"><tspan id="trsvg11-pt-br">1,5</tspan></text><text x="120" id="trsvg30"><tspan id="trsvg11">1.5</tspan></text></switch>
<switch><text x="286" id="trsvg31-pt-br" systemLanguage="pt-br"><tspan id="trsvg12-pt-br">2</tspan></text><text x="286" id="trsvg31"><tspan id="trsvg12">2.0</tspan></text></switch>
<switch><text x="452" id="trsvg32-pt-br" systemLanguage="pt-br"><tspan id="trsvg13-pt-br">2,5</tspan></text><text x="452" id="trsvg32"><tspan id="trsvg13">2.5</tspan></text></switch>
<switch><text x="618" id="trsvg33-pt-br" systemLanguage="pt-br"><tspan id="trsvg14-pt-br">3</tspan></text><text x="618" id="trsvg33"><tspan id="trsvg14">3.0</tspan></text></switch>
<switch><text x="784" id="trsvg34-pt-br" systemLanguage="pt-br"><tspan id="trsvg15-pt-br">3,5</tspan></text><text x="784" id="trsvg34"><tspan id="trsvg15">3.5</tspan></text></switch>
<switch><text x="950" id="trsvg35-pt-br" systemLanguage="pt-br"><tspan id="trsvg16-pt-br">4</tspan></text><text x="950" id="trsvg35"><tspan id="trsvg16">4.0</tspan></text></switch>
</g>

<path stroke="#27b" stroke-width="4" fill="none" stroke-linecap="round" stroke-linejoin="round" d=" M146,80 L153,94 186,143 220,186 253,225 286,259 319,291 352,320 386,346 419,370 452,392 L485,412 518,431 552,448 585,465 618,480 651,494 684,508 718,520 751,532 784,543 L817,554 850,563 884,573 917,582 950,590 "/>

<g font-size="35px">
<switch><text x="340" y="300" text-anchor="start" id="trsvg36-pt-br" systemLanguage="pt-br"><tspan id="trsvg17-pt-br">▲ Acima da média no lançamento</tspan></text><text x="340" y="300" text-anchor="start" id="trsvg36"><tspan id="trsvg17">▲ Above average at release</tspan></text></switch>
<switch><text transform="translate(600,450) rotate(25.4)" fill="#27b" font-size="30" id="trsvg37-pt-br" systemLanguage="pt-br"><tspan id="trsvg18-pt-br">Média ao longo de um caminho de 60 pés</tspan></text><text transform="translate(600,450) rotate(25.4)" fill="#27b" font-size="30" id="trsvg37"><tspan id="trsvg18">Average along 60-foot path</tspan></text></switch>
<switch><text x="820" y="593" text-anchor="end" id="trsvg38-pt-br" systemLanguage="pt-br"><tspan id="trsvg19-pt-br">Abaixo da média nos pinos ▼</tspan></text><text x="820" y="593" text-anchor="end" id="trsvg38"><tspan id="trsvg19">Below average at pins ▼</tspan></text></switch>
</g>

</svg>
