<?xml version="1.0" encoding="UTF-8" standalone="no"?>
<!-- Created with Serif DrawPlus 11, 0, 3, 23 (Feb 25, 14:12:55) (http://www.serif.com) -->
<svg version="1.1" xmlns="http://www.w3.org/2000/svg" xmlns:xlink="http://www.w3.org/1999/xlink" xmlns:inkscape="http://www.inkscape.org/namespaces/inkscape" width="524.265" height="317.132">
	<g id="dp_group001" transform="matrix(1,0,0,1,122.749,-527.023)">
		<g id="dp_group002">
			<g id="dp_group003">
				<path id="dp_path004" fill="#02612b" fill-rule="evenodd" d="M 108.499,609.344 L 111.175,607.356 L 116.527,603.381 L 99.9,594.969 L 103.147,613.319 Z "/>
				<path id="dp_path005" fill="#02612b" d="M 152.436,662.916 L 111.176,607.356 L 108.499,609.343 L 149.759,664.903 Z "/>
			</g>
		</g>
		<g id="dp_group006">
			<g id="dp_group007">
				<path id="dp_path008" fill="#02612b" fill-rule="evenodd" d="M 106.781,708.663 L 106.059,711.916 L 104.613,718.425 L 122.691,713.903 L 108.227,702.155 Z "/>
				<path id="dp_path009" fill="#02612b" d="M 21.0973,693.053 L 106.059,711.917 L 106.781,708.664 L 21.82,689.8 Z "/>
			</g>
		</g>
		<text id="dp_text001" transform="matrix(1,9.4369e-016,-8.88178e-016,1,28.209,786.132)" xml:space="preserve" fill="black" font-family="Arial" font-size="31" font-weight="700" x="0" y="0">r</text>
		<text id="dp_text002" transform="matrix(1,9.4369e-016,-8.88178e-016,1,28.209,786.132)" xml:space="preserve" fill="black" font-family="Arial" font-size="31" font-weight="400" x="12.0693" y="0"> + </text>
		<text id="dp_text003" transform="matrix(1,9.4369e-016,-8.88178e-016,1,28.209,786.132)" xml:space="preserve" fill="black" font-family="Arial" font-size="31" font-weight="400" x="47.368" y="0">d</text>
		<text id="dp_text004" transform="matrix(1,9.4369e-016,-8.88178e-016,1,28.209,786.132)" xml:space="preserve" fill="black" font-family="Arial" font-size="31" font-weight="700" x="64.6453" y="0">r</text>
		<text id="dp_text005" transform="matrix(1,9.4369e-016,-8.88178e-016,1,28.209,786.132)" xml:space="preserve" fill="black" font-family="Arial" font-size="31" font-weight="700" x="76.7147" y="0"> </text>
		<text id="dp_text006" transform="matrix(1,9.4369e-016,-8.88178e-016,1,-52.1697,804.06)" xml:space="preserve" fill="black" font-family="Arial" font-size="31" font-weight="400" x="0" y="0">  </text>
		<g id="dp_group016">
			<g id="dp_group017">
				<path id="dp_path018" fill="#00b050" fill-rule="evenodd" d="M 18.328,703.259 L 20.6427,703.653 L 25.272,704.441 L 21.456,691.883 L 13.6987,702.471 Z "/>
				<path id="dp_path019" fill="#00b050" d="M -3.276,844.153 L 20.644,703.653 L 18.3293,703.259 L -5.59067,843.759 Z "/>
			</g>
		</g>
		<g id="dp_group020">
			<g id="dp_group021">
				<path id="dp_path022" fill="#00b050" fill-rule="evenodd" d="M 43.208,707.963 L 45.416,708.761 L 49.8333,710.359 L 48.3053,697.323 L 38.792,706.367 Z "/>
				<path id="dp_path023" fill="#00b050" d="M -3.32933,843.577 L 45.4173,708.761 L 43.2093,707.964 L -5.53733,842.78 Z "/>
			</g>
		</g>
		<text id="dp_text007" transform="matrix(1,9.4369e-016,-8.88178e-016,1,-15.9483,783.105)" xml:space="preserve" fill="black" font-family="Arial" font-size="31" font-weight="700" x="0" y="0">r </text>
		<g id="dp_group025">
			<g id="dp_group026">
				<path id="dp_path027" fill="#a8ed13" fill-rule="evenodd" d="M 391.723,639.725 L 390.613,641.793 L 388.393,645.932 L 401.513,646.309 L 393.943,635.587 Z "/>
				<path id="dp_path028" fill="#a8ed13" d="M -121.517,694.025 L -121.068,693.732 L -120.623,693.447 L -120.172,693.164 L -119.72,692.881 L -119.267,692.603 L -118.811,692.327 L -118.352,692.053 L -117.892,691.781 L -117.432,691.513 L -116.967,691.248 L -116.5,690.984 L -116.033,690.724 L -115.563,690.465 L -115.092,690.209 L -114.617,689.956 L -114.143,689.705 L -113.664,689.457 L -113.185,689.211 L -112.704,688.967 L -112.221,688.725 L -111.737,688.488 L -111.252,688.252 L -110.273,687.787 L -109.288,687.332 L -108.299,686.887 L -107.301,686.451 L -106.296,686.025 L -105.287,685.608 L -104.272,685.2 L -103.251,684.804 L -102.224,684.415 L -101.192,684.035 L -100.155,683.665 L -99.1133,683.305 L -98.0653,682.955 L -97.0133,682.612 L -95.956,682.277 L -94.896,681.955 L -93.832,681.639 L -92.764,681.332 L -91.6907,681.035 L -90.6147,680.745 L -89.5347,680.465 L -88.4507,680.192 L -87.3653,679.929 L -86.276,679.676 L -85.1827,679.429 L -84.0893,679.192 L -82.992,678.963 L -81.892,678.74 L -80.792,678.529 L -79.688,678.324 L -78.5827,678.128 L -77.4773,677.939 L -76.368,677.759 L -75.2587,677.587 L -74.148,677.421 L -73.0387,677.265 L -71.9267,677.117 L -70.8133,676.975 L -69.7013,676.841 L -68.5893,676.716 L -67.4747,676.597 L -66.3613,676.487 L -65.2493,676.384 L -64.1387,676.288 L -63.0253,676.199 L -61.916,676.117 L -60.8067,676.044 L -59.6973,675.977 L -58.5907,675.917 L -57.4853,675.864 L -56.3827,675.817 L -55.28,675.78 L -54.18,675.748 L -53.0827,675.723 L -51.9867,675.704 L -50.8947,675.692 L -49.8053,675.687 L -48.716,675.688 L -47.6333,675.696 L -46.552,675.711 L -45.4747,675.731 L -44.4027,675.759 L -43.332,675.791 L -42.2667,675.831 L -41.204,675.876 L -40.1467,675.928 L -39.0933,675.987 L -38.0453,676.049 L -37.0027,676.12 L -35.964,676.196 L -34.9293,676.276 L -33.9027,676.364 L -32.88,676.456 L -31.8627,676.556 L -30.852,676.659 L -29.848,676.768 L -28.8493,676.884 L -27.856,677.004 L -26.8707,677.129 L -25.892,677.26 L -24.9213,677.396 L -23.956,677.537 L -22.9973,677.683 L -22.048,677.836 L -21.104,677.992 L -20.1693,678.153 L -19.2413,678.319 L -18.324,678.489 L -17.4133,678.665 L -16.512,678.844 L -15.6187,679.029 L -14.7333,679.219 L -13.8573,679.412 L -12.992,679.609 L -12.1347,679.813 L -11.2867,680.019 L -10.4507,680.229 L -9.62267,680.445 L -8.804,680.664 L -7.996,680.887 L -7.2,681.113 L -6.41333,681.344 L -5.63867,681.579 L -4.87333,681.817 L -4.12133,682.059 L -3.37867,682.305 L -2.64667,682.555 L -1.928,682.807 L -1.22267,683.063 L -0.526667,683.323 L 0.156,683.585 L 0.826667,683.851 L 1.484,684.12 L 2.12933,684.392 L 2.76133,684.667 L 3.37867,684.944 L 3.99067,685.227 L 4.74933,685.58 L 5.524,685.935 L 6.31067,686.287 L 7.10667,686.635 L 7.91467,686.981 L 8.73067,687.325 L 9.55867,687.667 L 10.396,688.007 L 11.2427,688.343 L 12.096,688.677 L 12.9627,689.009 L 13.8373,689.337 L 14.7213,689.663 L 15.6133,689.987 L 16.5147,690.307 L 17.4227,690.624 L 18.3413,690.94 L 19.2653,691.252 L 20.2,691.561 L 21.1413,691.868 L 22.0893,692.171 L 23.0467,692.471 L 24.0093,692.768 L 24.98,693.063 L 25.9587,693.353 L 26.9427,693.64 L 27.932,693.924 L 28.928,694.205 L 29.932,694.484 L 30.9413,694.76 L 31.956,695.031 L 32.976,695.299 L 34.0027,695.564 L 35.0333,695.824 L 36.0707,696.081 L 37.112,696.335 L 38.1573,696.585 L 39.208,696.832 L 40.264,697.076 L 41.324,697.315 L 42.3867,697.551 L 43.4533,697.781 L 44.524,698.009 L 45.5987,698.235 L 46.676,698.455 L 47.7587,698.669 L 48.8413,698.883 L 49.9293,699.091 L 51.0173,699.295 L 52.1107,699.495 L 53.204,699.691 L 54.3013,699.881 L 55.3987,700.069 L 56.4987,700.252 L 57.6,700.432 L 58.704,700.605 L 59.808,700.776 L 60.9133,700.943 L 62.02,701.103 L 63.1267,701.26 L 64.2333,701.412 L 65.3413,701.56 L 66.4507,701.703 L 67.5587,701.84 L 68.44,701.947 L 69.32,702.048 L 70.196,702.145 L 71.0653,702.237 L 71.9347,702.327 L 72.7987,702.409 L 73.6587,702.488 L 74.516,702.564 L 75.368,702.633 L 76.2173,702.7 L 77.0627,702.763 L 77.904,702.82 L 78.7413,702.873 L 79.576,702.924 L 80.4053,702.969 L 81.232,703.011 L 82.0547,703.048 L 82.8733,703.083 L 83.6893,703.112 L 84.4987,703.139 L 85.3067,703.161 L 86.1093,703.18 L 86.9093,703.195 L 87.7053,703.205 L 88.4973,703.213 L 89.284,703.217 L 90.0693,703.219 L 90.8493,703.215 L 91.6253,703.209 L 92.3987,703.199 L 93.1667,703.187 L 93.932,703.171 L 94.6933,703.151 L 95.4507,703.128 L 96.204,703.101 L 96.9533,703.072 L 97.6987,703.04 L 98.44,703.005 L 99.1787,702.967 L 99.912,702.927 L 100.643,702.881 L 101.368,702.835 L 102.091,702.785 L 102.811,702.732 L 104.235,702.619 L 105.643,702.495 L 107.036,702.361 L 108.415,702.217 L 109.776,702.064 L 111.124,701.901 L 112.455,701.729 L 113.768,701.549 L 115.067,701.361 L 116.349,701.165 L 117.615,700.963 L 118.867,700.752 L 120.1,700.535 L 121.319,700.312 L 122.523,700.083 L 123.708,699.848 L 124.879,699.607 L 126.033,699.361 L 127.171,699.112 L 128.291,698.857 L 129.396,698.599 L 130.485,698.337 L 131.559,698.072 L 132.613,697.803 L 133.653,697.533 L 134.677,697.261 L 135.683,696.985 L 136.673,696.711 L 137.648,696.433 L 138.604,696.156 L 139.544,695.877 L 140.469,695.599 L 141.375,695.321 L 142.265,695.044 L 143.14,694.768 L 143.996,694.492 L 144.837,694.219 L 145.661,693.947 L 147.255,693.413 L 148.783,692.891 L 149.728,692.559 L 150.667,692.22 L 151.595,691.876 L 152.513,691.524 L 153.423,691.168 L 154.325,690.804 L 155.221,690.432 L 156.107,690.055 L 156.987,689.671 L 157.861,689.279 L 158.729,688.88 L 159.591,688.476 L 160.449,688.063 L 161.301,687.644 L 162.149,687.216 L 162.992,686.783 L 163.833,686.341 L 164.669,685.893 L 165.504,685.439 L 166.337,684.975 L 167.167,684.504 L 167.995,684.027 L 168.823,683.54 L 169.649,683.047 L 170.475,682.545 L 171.301,682.037 L 172.129,681.52 L 172.957,680.996 L 173.787,680.463 L 174.617,679.924 L 175.452,679.375 L 176.288,678.817 L 177.128,678.253 L 177.971,677.68 L 178.817,677.1 L 179.669,676.509 L 180.525,675.911 L 181.387,675.305 L 182.253,674.691 L 183.127,674.065 L 184.007,673.435 L 184.895,672.792 L 186.689,671.484 L 188.519,670.14 L 190.384,668.76 L 192.289,667.343 L 194.239,665.888 L 198.279,662.864 L 202.535,659.684 L 204.751,658.033 L 207.029,656.344 L 207.671,655.873 L 208.312,655.405 L 208.955,654.94 L 209.599,654.48 L 210.245,654.021 L 210.893,653.565 L 211.543,653.115 L 212.195,652.665 L 212.848,652.22 L 213.503,651.777 L 214.16,651.337 L 214.819,650.9 L 215.477,650.468 L 216.139,650.039 L 216.803,649.611 L 217.468,649.188 L 218.135,648.767 L 218.803,648.349 L 219.472,647.935 L 220.143,647.525 L 220.817,647.117 L 221.492,646.712 L 222.167,646.311 L 222.845,645.913 L 223.525,645.516 L 224.205,645.125 L 224.887,644.737 L 225.571,644.351 L 226.256,643.969 L 226.944,643.589 L 227.632,643.213 L 228.321,642.841 L 229.013,642.472 L 229.707,642.105 L 230.399,641.743 L 231.096,641.384 L 231.793,641.025 L 232.491,640.673 L 233.191,640.323 L 233.892,639.977 L 234.596,639.632 L 235.299,639.292 L 236.004,638.956 L 236.712,638.621 L 237.419,638.291 L 238.128,637.964 L 238.84,637.639 L 239.551,637.319 L 240.265,637.001 L 240.98,636.687 L 241.695,636.376 L 242.413,636.069 L 243.131,635.764 L 243.851,635.464 L 244.572,635.165 L 245.295,634.872 L 246.017,634.58 L 246.743,634.293 L 247.468,634.008 L 248.195,633.727 L 248.923,633.449 L 249.653,633.175 L 250.384,632.904 L 251.115,632.636 L 251.848,632.371 L 252.583,632.111 L 253.317,631.852 L 254.053,631.597 L 254.792,631.347 L 255.529,631.099 L 256.269,630.853 L 257.009,630.612 L 257.751,630.376 L 258.493,630.141 L 259.239,629.911 L 259.984,629.683 L 260.728,629.457 L 261.475,629.237 L 262.224,629.02 L 262.971,628.807 L 263.723,628.596 L 264.472,628.388 L 265.224,628.184 L 265.977,627.984 L 266.731,627.787 L 267.485,627.593 L 268.241,627.403 L 268.996,627.216 L 269.753,627.033 L 270.513,626.853 L 271.272,626.676 L 272.032,626.504 L 272.793,626.333 L 273.555,626.167 L 274.316,626.004 L 275.08,625.845 L 275.845,625.689 L 276.608,625.537 L 277.375,625.388 L 278.141,625.243 L 278.909,625.1 L 279.676,624.961 L 280.447,624.827 L 281.216,624.695 L 281.984,624.568 L 282.757,624.443 L 283.531,624.321 L 284.301,624.203 L 285.075,624.089 L 285.848,623.977 L 286.623,623.872 L 287.399,623.768 L 288.175,623.668 L 288.952,623.571 L 289.728,623.477 L 290.505,623.388 L 291.285,623.303 L 292.063,623.219 L 292.843,623.141 L 293.624,623.065 L 294.404,622.992 L 295.185,622.925 L 295.968,622.86 L 296.751,622.799 L 297.535,622.741 L 298.317,622.687 L 299.101,622.636 L 299.887,622.589 L 300.671,622.545 L 301.456,622.505 L 302.243,622.469 L 303.029,622.436 L 303.816,622.407 L 304.604,622.383 L 305.392,622.36 L 306.18,622.341 L 306.969,622.327 L 307.759,622.316 L 308.548,622.308 L 309.337,622.304 L 310.129,622.304 L 310.92,622.307 L 311.711,622.313 L 312.503,622.324 L 313.295,622.339 L 314.087,622.356 L 314.879,622.377 L 315.671,622.401 L 316.465,622.431 L 317.259,622.463 L 318.052,622.499 L 318.844,622.539 L 319.64,622.583 L 320.433,622.628 L 321.228,622.68 L 322.024,622.735 L 322.819,622.792 L 323.612,622.853 L 324.409,622.919 L 325.204,622.988 L 326,623.06 L 326.796,623.137 L 327.592,623.216 L 328.388,623.301 L 329.185,623.389 L 329.983,623.479 L 330.777,623.575 L 331.575,623.672 L 332.371,623.776 L 333.168,623.881 L 333.967,623.992 L 334.763,624.104 L 335.559,624.221 L 336.357,624.343 L 337.155,624.467 L 337.951,624.595 L 338.749,624.728 L 339.547,624.863 L 340.343,625.003 L 341.141,625.147 L 341.939,625.293 L 342.735,625.444 L 343.531,625.599 L 344.329,625.759 L 345.127,625.92 L 345.923,626.087 L 346.72,626.256 L 347.517,626.429 L 348.313,626.607 L 349.111,626.789 L 349.908,626.973 L 350.703,627.163 L 351.5,627.355 L 352.295,627.551 L 353.091,627.752 L 353.887,627.956 L 354.683,628.164 L 355.477,628.375 L 356.272,628.591 L 357.067,628.811 L 357.863,629.033 L 358.656,629.259 L 359.449,629.491 L 360.244,629.725 L 361.039,629.964 L 361.831,630.207 L 362.624,630.453 L 363.419,630.704 L 364.211,630.956 L 365.001,631.215 L 365.793,631.477 L 366.587,631.743 L 367.377,632.011 L 368.168,632.285 L 368.957,632.563 L 369.748,632.843 L 370.537,633.129 L 371.327,633.419 L 372.116,633.711 L 372.904,634.008 L 373.693,634.309 L 374.48,634.612 L 375.267,634.92 L 376.053,635.233 L 376.84,635.549 L 377.627,635.871 L 378.412,636.195 L 379.196,636.523 L 379.981,636.856 L 380.765,637.191 L 381.548,637.531 L 382.331,637.875 L 383.113,638.223 L 383.893,638.575 L 384.676,638.931 L 385.456,639.289 L 386.235,639.655 L 387.015,640.021 L 387.793,640.393 L 388.572,640.769 L 389.349,641.149 L 390.112,641.525 L 390.613,641.795 L 391.723,639.725 L 391.184,639.437 L 390.384,639.043 L 389.596,638.657 L 388.809,638.279 L 388.02,637.901 L 387.232,637.529 L 386.443,637.161 L 385.652,636.797 L 384.861,636.436 L 384.071,636.081 L 383.277,635.728 L 382.487,635.381 L 381.693,635.036 L 380.899,634.696 L 380.105,634.36 L 379.311,634.027 L 378.515,633.7 L 377.72,633.376 L 376.925,633.055 L 376.128,632.739 L 375.331,632.425 L 374.533,632.117 L 373.736,631.813 L 372.937,631.513 L 372.137,631.216 L 371.34,630.924 L 370.54,630.635 L 369.739,630.349 L 368.939,630.069 L 368.137,629.792 L 367.336,629.519 L 366.535,629.251 L 365.735,628.985 L 364.931,628.724 L 364.128,628.467 L 363.325,628.213 L 362.521,627.964 L 361.719,627.719 L 360.913,627.477 L 360.111,627.24 L 359.307,627.005 L 358.5,626.775 L 357.696,626.549 L 356.891,626.327 L 356.085,626.108 L 355.28,625.895 L 354.473,625.684 L 353.669,625.477 L 352.863,625.273 L 352.055,625.075 L 351.249,624.88 L 350.441,624.688 L 349.633,624.501 L 348.828,624.319 L 348.021,624.139 L 347.213,623.963 L 346.405,623.791 L 345.599,623.621 L 344.791,623.457 L 343.984,623.297 L 343.177,623.14 L 342.368,622.987 L 341.56,622.837 L 340.753,622.693 L 339.944,622.551 L 339.136,622.413 L 338.329,622.28 L 337.52,622.149 L 336.712,622.023 L 335.905,621.901 L 335.099,621.781 L 334.289,621.667 L 333.483,621.556 L 332.675,621.448 L 331.868,621.344 L 331.06,621.244 L 330.252,621.148 L 329.444,621.056 L 328.639,620.968 L 327.832,620.883 L 327.025,620.801 L 326.219,620.724 L 325.412,620.649 L 324.604,620.58 L 323.799,620.515 L 322.992,620.451 L 322.187,620.393 L 321.383,620.339 L 320.577,620.287 L 319.771,620.239 L 318.967,620.195 L 318.161,620.155 L 317.357,620.119 L 316.553,620.087 L 315.751,620.057 L 314.945,620.031 L 314.143,620.009 L 313.34,619.992 L 312.537,619.977 L 311.735,619.967 L 310.933,619.96 L 310.132,619.957 L 309.332,619.957 L 308.532,619.961 L 307.732,619.969 L 306.932,619.98 L 306.132,619.995 L 305.333,620.013 L 304.535,620.036 L 303.736,620.063 L 302.939,620.092 L 302.141,620.125 L 301.344,620.161 L 300.548,620.201 L 299.751,620.245 L 298.957,620.295 L 298.163,620.345 L 297.367,620.4 L 296.575,620.46 L 295.781,620.521 L 294.988,620.587 L 294.196,620.656 L 293.403,620.729 L 292.613,620.805 L 291.823,620.885 L 291.032,620.969 L 290.244,621.057 L 289.456,621.147 L 288.667,621.243 L 287.881,621.34 L 287.095,621.44 L 286.308,621.547 L 285.523,621.655 L 284.739,621.767 L 283.955,621.883 L 283.171,622.001 L 282.389,622.125 L 281.608,622.251 L 280.827,622.38 L 280.047,622.515 L 279.268,622.652 L 278.488,622.791 L 277.709,622.936 L 276.935,623.084 L 276.157,623.233 L 275.381,623.388 L 274.608,623.547 L 273.833,623.708 L 273.059,623.873 L 272.287,624.043 L 271.517,624.213 L 270.747,624.388 L 269.977,624.568 L 269.209,624.751 L 268.441,624.936 L 267.673,625.125 L 266.907,625.319 L 266.144,625.515 L 265.38,625.715 L 264.616,625.917 L 263.853,626.124 L 263.093,626.335 L 262.333,626.548 L 261.573,626.764 L 260.816,626.987 L 260.059,627.209 L 259.301,627.437 L 258.548,627.668 L 257.795,627.901 L 257.041,628.139 L 256.289,628.38 L 255.539,628.624 L 254.788,628.872 L 254.04,629.123 L 253.293,629.379 L 252.547,629.636 L 251.801,629.897 L 251.059,630.163 L 250.315,630.431 L 249.573,630.701 L 248.832,630.977 L 248.093,631.255 L 247.355,631.537 L 246.617,631.821 L 245.881,632.109 L 245.148,632.401 L 244.415,632.696 L 243.681,632.995 L 242.952,633.296 L 242.221,633.601 L 241.493,633.909 L 240.767,634.221 L 240.041,634.537 L 239.316,634.855 L 238.593,635.177 L 237.872,635.503 L 237.152,635.831 L 236.432,636.163 L 235.715,636.499 L 234.999,636.836 L 234.283,637.177 L 233.569,637.523 L 232.857,637.871 L 232.148,638.221 L 231.437,638.577 L 230.729,638.935 L 230.024,639.296 L 229.319,639.66 L 228.613,640.028 L 227.912,640.4 L 227.212,640.775 L 226.512,641.152 L 225.816,641.533 L 225.12,641.916 L 224.424,642.305 L 223.732,642.695 L 223.04,643.088 L 222.349,643.487 L 221.661,643.887 L 220.975,644.289 L 220.289,644.699 L 219.607,645.107 L 218.924,645.52 L 218.243,645.937 L 217.565,646.357 L 216.887,646.78 L 216.212,647.207 L 215.539,647.635 L 214.867,648.068 L 214.195,648.503 L 213.525,648.943 L 212.859,649.385 L 212.193,649.831 L 211.531,650.279 L 210.869,650.729 L 210.209,651.184 L 209.549,651.643 L 208.893,652.104 L 208.239,652.568 L 207.584,653.036 L 206.933,653.507 L 206.284,653.98 L 205.637,654.456 L 203.351,656.151 L 201.132,657.804 L 196.873,660.984 L 192.833,664.008 L 190.887,665.46 L 188.987,666.875 L 187.127,668.252 L 185.305,669.591 L 183.516,670.893 L 182.636,671.531 L 181.761,672.159 L 180.893,672.779 L 180.032,673.388 L 179.179,673.991 L 178.331,674.584 L 177.487,675.167 L 176.648,675.741 L 175.813,676.309 L 174.984,676.868 L 174.159,677.417 L 173.335,677.959 L 172.515,678.492 L 171.696,679.017 L 170.881,679.533 L 170.067,680.043 L 169.253,680.543 L 168.439,681.036 L 167.628,681.521 L 166.816,681.997 L 166.001,682.467 L 165.188,682.929 L 164.373,683.383 L 163.555,683.829 L 162.735,684.269 L 161.912,684.7 L 161.085,685.125 L 160.256,685.543 L 159.423,685.953 L 158.585,686.356 L 157.743,686.752 L 156.893,687.143 L 156.04,687.524 L 155.179,687.9 L 154.312,688.269 L 153.437,688.631 L 152.556,688.987 L 151.665,689.337 L 150.768,689.681 L 149.861,690.017 L 148.944,690.348 L 148.017,690.672 L 146.503,691.189 L 144.92,691.72 L 144.107,691.989 L 143.276,692.26 L 142.428,692.531 L 141.564,692.804 L 140.684,693.079 L 139.787,693.353 L 138.875,693.629 L 137.945,693.903 L 137,694.177 L 136.039,694.452 L 135.061,694.724 L 134.067,694.995 L 133.059,695.264 L 132.032,695.531 L 130.988,695.795 L 129.931,696.057 L 128.857,696.316 L 127.765,696.569 L 126.659,696.821 L 125.537,697.068 L 124.399,697.311 L 123.244,697.547 L 122.075,697.779 L 120.889,698.005 L 119.687,698.225 L 118.469,698.44 L 117.236,698.648 L 115.987,698.848 L 114.723,699.041 L 113.443,699.227 L 112.145,699.404 L 110.833,699.573 L 109.507,699.733 L 108.164,699.884 L 106.804,700.025 L 105.429,700.159 L 104.04,700.28 L 102.632,700.393 L 101.925,700.444 L 101.213,700.493 L 100.496,700.54 L 99.7787,700.583 L 99.0533,700.623 L 98.3253,700.661 L 97.5947,700.696 L 96.8573,700.728 L 96.1187,700.757 L 95.376,700.781 L 94.6293,700.804 L 93.8787,700.824 L 93.124,700.84 L 92.364,700.852 L 91.6013,700.863 L 90.836,700.868 L 90.0667,700.872 L 89.292,700.871 L 88.5133,700.867 L 87.732,700.859 L 86.9467,700.848 L 86.1573,700.833 L 85.3653,700.815 L 84.568,700.792 L 83.7667,700.768 L 82.964,700.739 L 82.156,700.704 L 81.344,700.667 L 80.528,700.625 L 79.7093,700.58 L 78.8853,700.532 L 78.0587,700.479 L 77.228,700.421 L 76.3933,700.361 L 75.5547,700.295 L 74.7133,700.225 L 73.8667,700.152 L 73.0173,700.073 L 72.164,699.991 L 71.308,699.904 L 70.4467,699.812 L 69.5813,699.717 L 68.7147,699.616 L 67.8413,699.512 L 66.744,699.375 L 65.6453,699.232 L 64.548,699.087 L 63.4493,698.935 L 62.3507,698.78 L 61.2547,698.62 L 60.16,698.456 L 59.064,698.288 L 57.9707,698.115 L 56.88,697.937 L 55.788,697.755 L 54.6987,697.569 L 53.612,697.379 L 52.5267,697.185 L 51.444,696.988 L 50.364,696.784 L 49.2867,696.579 L 48.212,696.368 L 47.14,696.153 L 46.0733,695.936 L 45.0067,695.713 L 43.9467,695.488 L 42.888,695.257 L 41.8333,695.024 L 40.784,694.788 L 39.7387,694.547 L 38.6987,694.303 L 37.6613,694.055 L 36.6307,693.804 L 35.604,693.547 L 34.5813,693.289 L 33.568,693.027 L 32.556,692.761 L 31.552,692.493 L 30.5533,692.223 L 29.56,691.947 L 28.5747,691.668 L 27.5933,691.387 L 26.62,691.103 L 25.6547,690.815 L 24.6947,690.523 L 23.7427,690.231 L 22.7987,689.933 L 21.8613,689.633 L 20.9307,689.332 L 20.0093,689.025 L 19.096,688.719 L 18.1907,688.408 L 17.2933,688.093 L 16.4053,687.779 L 15.5267,687.46 L 14.656,687.137 L 13.7947,686.815 L 12.944,686.488 L 12.1013,686.159 L 11.268,685.828 L 10.4467,685.496 L 9.63467,685.16 L 8.832,684.821 L 8.04,684.483 L 7.26,684.14 L 6.48933,683.796 L 5.73067,683.449 L 4.97733,683.099 L 4.352,682.808 L 3.708,682.52 L 3.052,682.235 L 2.38267,681.952 L 1.70133,681.675 L 1.00933,681.399 L 0.305333,681.128 L -0.412,680.86 L -1.14133,680.596 L -1.88133,680.336 L -2.632,680.081 L -3.39333,679.829 L -4.16667,679.58 L -4.95067,679.336 L -5.744,679.096 L -6.54933,678.86 L -7.364,678.628 L -8.19067,678.4 L -9.02533,678.176 L -9.86933,677.957 L -10.724,677.741 L -11.588,677.531 L -12.4613,677.324 L -13.3453,677.121 L -14.2373,676.925 L -15.136,676.733 L -16.0453,676.545 L -16.9627,676.361 L -17.8893,676.183 L -18.8227,676.009 L -19.764,675.841 L -20.7147,675.677 L -21.672,675.519 L -22.6373,675.365 L -23.6093,675.217 L -24.588,675.073 L -25.5747,674.935 L -26.5693,674.801 L -27.568,674.676 L -28.5747,674.553 L -29.5867,674.437 L -30.6067,674.325 L -31.6307,674.22 L -32.6613,674.12 L -33.6973,674.025 L -34.74,673.937 L -35.788,673.855 L -36.84,673.779 L -37.896,673.708 L -38.96,673.643 L -40.0267,673.584 L -41.0973,673.532 L -42.1733,673.487 L -43.252,673.447 L -44.336,673.412 L -45.424,673.384 L -46.5147,673.364 L -47.6093,673.349 L -48.708,673.341 L -49.808,673.34 L -50.9107,673.345 L -52.0187,673.357 L -53.128,673.376 L -54.2387,673.401 L -55.3547,673.433 L -56.4707,673.473 L -57.5893,673.52 L -58.708,673.573 L -59.8307,673.633 L -60.9533,673.703 L -62.0787,673.776 L -63.204,673.86 L -64.3307,673.949 L -65.4573,674.045 L -66.5853,674.151 L -67.7147,674.264 L -68.8427,674.383 L -69.9707,674.511 L -71.1013,674.647 L -72.228,674.789 L -73.356,674.94 L -74.484,675.099 L -75.6107,675.267 L -76.736,675.441 L -77.8613,675.624 L -78.9853,675.816 L -80.1067,676.015 L -81.2267,676.223 L -82.3453,676.439 L -83.464,676.664 L -84.5773,676.896 L -85.6893,677.139 L -86.7987,677.388 L -87.9067,677.647 L -89.0107,677.915 L -90.1133,678.191 L -91.212,678.476 L -92.3067,678.771 L -93.3987,679.073 L -94.488,679.385 L -95.5707,679.707 L -96.652,680.037 L -97.728,680.377 L -98.8013,680.725 L -99.868,681.084 L -100.931,681.452 L -101.989,681.829 L -103.043,682.217 L -104.091,682.612 L -105.133,683.019 L -106.172,683.435 L -107.203,683.86 L -108.227,684.296 L -109.248,684.74 L -110.261,685.196 L -111.268,685.661 L -112.268,686.137 L -112.767,686.379 L -113.264,686.624 L -113.757,686.871 L -114.252,687.12 L -114.741,687.372 L -115.231,687.625 L -115.719,687.884 L -116.204,688.143 L -116.688,688.407 L -117.169,688.671 L -117.649,688.939 L -118.127,689.208 L -118.603,689.481 L -119.079,689.757 L -119.549,690.035 L -120.019,690.316 L -120.488,690.6 L -120.955,690.887 L -121.417,691.175 L -121.879,691.465 L -122.34,691.761 L -122.795,692.055 Z "/>
			</g>
		</g>
		<g id="dp_group029">
			<g id="dp_group030">
				<path id="dp_path031" fill="#00b050" fill-rule="evenodd" d="M 263.867,588.809 L 265.559,590.437 L 268.943,593.693 L 272.853,581.164 L 260.483,585.553 Z "/>
				<path id="dp_path032" fill="#00b050" d="M 191.611,667.283 L 265.559,590.439 L 263.868,588.809 L 189.92,665.653 Z "/>
			</g>
		</g>
		<g id="dp_group033">
			<g id="dp_group034">
				<path id="dp_path035" fill="#00b050" fill-rule="evenodd" d="M 275.893,604.708 L 277.264,606.613 L 280.005,610.427 L 286.109,598.807 L 273.151,600.895 Z "/>
				<path id="dp_path036" fill="#00b050" d="M 176.511,679.079 L 277.264,606.615 L 275.893,604.708 L 175.14,677.172 Z "/>
			</g>
		</g>
		<g id="dp_group037">
			<g id="dp_group038">
				<path id="dp_path039" fill="#02612b" fill-rule="evenodd" d="M 37.3453,694.028 L 36.7973,696.312 L 35.7013,700.877 L 48.4867,697.908 L 38.44,689.461 Z "/>
				<path id="dp_path040" fill="#02612b" d="M 21.1853,692.568 L 36.7973,696.312 L 37.344,694.029 L 21.732,690.285 Z "/>
			</g>
		</g>
		<g id="dp_group041">
			<g id="dp_group042">
				<path id="dp_path043" fill="#02612b" fill-rule="evenodd" d="M 278.519,591.603 L 280.432,590.241 L 284.259,587.52 L 272.671,581.355 L 274.692,594.324 Z "/>
				<path id="dp_path044" fill="#02612b" d="M 287.315,599.917 L 280.433,590.241 L 278.519,591.601 L 285.4,601.277 Z "/>
			</g>
		</g>
		<text id="dp_text008" transform="matrix(1,0,0,1,22.708,681.065)" xml:space="preserve" fill="black" font-family="Arial" font-size="31" font-weight="400" x="0" y="0">d</text>
		<text id="dp_text009" transform="matrix(1,0,0,1,22.708,681.065)" xml:space="preserve" fill="black" font-family="Arial" font-size="31" font-weight="700" x="17.2773" y="0">r</text>
		<text id="dp_text010" transform="matrix(1,0,0,1,22.708,681.065)" xml:space="preserve" fill="black" font-family="Arial" font-size="31" font-weight="700" x="29.3467" y="0"> </text>
		<text id="dp_text011" transform="matrix(1,9.4369e-016,-8.88178e-016,1,162.268,592.284)" xml:space="preserve" fill="black" font-family="Arial" font-size="31" font-weight="700" x="0" y="0">v</text>
		<text id="dp_text012" transform="matrix(1,9.4369e-016,-8.88178e-016,1,162.268,592.284)" xml:space="preserve" fill="black" font-family="Arial" font-size="31" font-weight="400" x="17.2773" y="0"> + </text>
		<text id="dp_text013" transform="matrix(1,9.4369e-016,-8.88178e-016,1,162.268,592.284)" xml:space="preserve" fill="black" font-family="Arial" font-size="31" font-weight="400" x="52.576" y="0">d</text>
		<text id="dp_text014" transform="matrix(1,9.4369e-016,-8.88178e-016,1,162.268,592.284)" xml:space="preserve" fill="black" font-family="Arial" font-size="31" font-weight="700" x="69.8533" y="0">v</text>
		<text id="dp_text015" transform="matrix(1,9.4369e-016,-8.88178e-016,1,162.268,592.284)" xml:space="preserve" fill="black" font-family="Arial" font-size="31" font-weight="700" x="87.1307" y="0"> </text>
		<g id="dp_group053">
			<text id="dp_text016" transform="matrix(1,0,0,1,125.383,736.041)" xml:space="preserve" fill="black" font-family="Arial" font-size="31" font-weight="700" x="0" y="0">v</text>
			<text id="dp_text017" transform="matrix(1,0,0,1,125.383,736.041)" xml:space="preserve" fill="black" font-family="Arial" font-size="31" font-weight="400" x="17.2773" y="0"> =</text>
			<text id="dp_text018" transform="matrix(1,0,0,1,125.383,736.041)" xml:space="preserve" fill="black" font-family="Arial" font-size="31" font-weight="400" x="43.9787" y="0"> </text>
			<text id="dp_text019" transform="matrix(1,0,0,1,179.791,722.398)" xml:space="preserve" fill="black" font-family="Arial" font-size="31" font-weight="400" x="0" y="0">d</text>
			<text id="dp_text020" transform="matrix(1,0,0,1,179.791,722.398)" xml:space="preserve" fill="black" font-family="Arial" font-size="31" font-weight="700" x="17.2773" y="0">r</text>
			<text id="dp_text021" transform="matrix(1,0,0,1,179.791,722.398)" xml:space="preserve" fill="black" font-family="Arial" font-size="31" font-weight="700" x="29.3467" y="0"> </text>
			<path id="dp_path060" fill="none" fill-rule="evenodd" stroke="black" stroke-width="2" d="M 176.716,729.921 L 213.272,729.921"/>
			<text id="dp_text022" transform="matrix(1,0,0,1,179.791,757.398)" xml:space="preserve" fill="black" font-family="Arial" font-size="31" font-weight="400" x="0" y="0">d</text>
			<text id="dp_text023" transform="matrix(1,0,0,1,179.791,757.398)" xml:space="preserve" fill="black" font-family="Arial" font-size="31" font-weight="400" font-style="italic" x="17.2773" y="0">t</text>
			<text id="dp_text024" transform="matrix(1,0,0,1,179.791,757.398)" xml:space="preserve" fill="black" font-family="Arial" font-size="31" font-weight="700" x="25.8747" y="0"> </text>
		</g>
		<g id="dp_group064">
			<text id="dp_text025" transform="matrix(1,0,0,1,16.3667,571.666)" xml:space="preserve" fill="black" font-family="Arial" font-size="31" font-weight="700" x="0" y="0">a</text>
			<text id="dp_text026" transform="matrix(1,0,0,1,16.3667,571.666)" xml:space="preserve" fill="black" font-family="Arial" font-size="31" font-weight="400" x="17.2773" y="0"> =</text>
			<text id="dp_text027" transform="matrix(1,0,0,1,16.3667,571.666)" xml:space="preserve" fill="black" font-family="Arial" font-size="31" font-weight="400" x="43.9787" y="0"> </text>
			<text id="dp_text028" transform="matrix(1,0,0,1,70.7747,558.023)" xml:space="preserve" fill="black" font-family="Arial" font-size="31" font-weight="400" x="0" y="0">d</text>
			<text id="dp_text029" transform="matrix(1,0,0,1,70.7747,558.023)" xml:space="preserve" fill="black" font-family="Arial" font-size="31" font-weight="700" x="17.2773" y="0">v</text>
			<text id="dp_text030" transform="matrix(1,0,0,1,70.7747,558.023)" xml:space="preserve" fill="black" font-family="Arial" font-size="31" font-weight="700" x="34.5547" y="0"> </text>
			<path id="dp_path071" fill="none" fill-rule="evenodd" stroke="black" stroke-width="2" d="M 67.7,565.547 L 104.256,565.547"/>
			<text id="dp_text031" transform="matrix(1,0,0,1,70.7747,593.023)" xml:space="preserve" fill="black" font-family="Arial" font-size="31" font-weight="400" x="0" y="0">d</text>
			<text id="dp_text032" transform="matrix(1,0,0,1,70.7747,593.023)" xml:space="preserve" fill="black" font-family="Arial" font-size="31" font-weight="400" font-style="italic" x="17.2773" y="0">t</text>
			<text id="dp_text033" transform="matrix(1,0,0,1,70.7747,593.023)" xml:space="preserve" fill="black" font-family="Arial" font-size="31" font-weight="700" x="25.8747" y="0"> </text>
		</g>
		<g id="dp_group075">
			<path id="dp_path158" fill="#f6ac00" fill-rule="evenodd" stroke="none" stroke-width="1.33333" d="M 5.06,658.248 C 18.0627,661.997 25.5653,675.577 21.8173,688.588 C 18.0693,701.588 4.48933,709.087 -8.51333,705.337 C -21.516,701.588 -29.0187,688.008 -25.2707,675.008 C -21.5227,662.008 -7.94267,654.508 5.06,658.248 Z "/>
			<text id="dp_text034" transform="matrix(1,9.4369e-016,-8.88178e-016,1,-11.7097,690.883)" xml:space="preserve" fill="black" font-family="Arial" font-size="24" font-weight="400" font-style="italic" x="0" y="0">m </text>
		</g>
		<g id="dp_group077">
			<path id="dp_path158" fill="#f6ac00" fill-rule="evenodd" stroke="none" stroke-width="1.33333" d="M 171.868,659.167 C 184.871,662.916 192.373,676.496 188.625,689.507 C 184.877,702.507 171.297,710.005 158.295,706.256 C 145.292,702.507 137.789,688.927 141.537,675.927 C 145.285,662.927 158.865,655.427 171.868,659.167 Z "/>
			<text id="dp_text035" transform="matrix(1,9.4369e-016,-8.88178e-016,1,155.098,691.802)" xml:space="preserve" fill="black" font-family="Arial" font-size="24" font-weight="400" font-style="italic" x="0" y="0">m </text>
		</g>
		<text id="dp_text036" transform="matrix(1,9.4369e-016,-8.88178e-016,1,290.277,585.692)" xml:space="preserve" fill="black" font-family="Arial" font-size="31" font-weight="400" x="0" y="0">d</text>
		<text id="dp_text037" transform="matrix(1,9.4369e-016,-8.88178e-016,1,290.277,585.692)" xml:space="preserve" fill="black" font-family="Arial" font-size="31" font-weight="700" x="17.2773" y="0">v</text>
		<text id="dp_text038" transform="matrix(1,9.4369e-016,-8.88178e-016,1,290.277,585.692)" xml:space="preserve" fill="black" font-family="Arial" font-size="31" font-weight="700" x="34.5547" y="0"> </text>
		<text id="dp_text039" transform="matrix(1,9.4369e-016,-8.88178e-016,1,234.969,658.048)" xml:space="preserve" fill="black" font-family="Arial" font-size="31" font-weight="700" x="0" y="0">v </text>
	</g>
</svg>