<?xml version="1.0" encoding="utf-8"?>
<svg version="2.0" width="200" height="400"
   xmlns:dc="http://purl.org/dc/elements/1.1/"
   xmlns:cc="http://creativecommons.org/ns#"
   xmlns:rdf="http://www.w3.org/1999/02/22-rdf-syntax-ns#"
   xmlns:svg="http://www.w3.org/2000/svg"
   xmlns="http://www.w3.org/2000/svg"
   xmlns:sodipodi="http://sodipodi.sourceforge.net/DTD/sodipodi-0.dtd"
   xmlns:xlink="http://www.w3.org/1999/xlink">
<style type="text/css">
  .thin { stroke: black; stroke-width: 0.3 }
  .line { stroke: black; stroke-width: 1 }
  .text { font-size: 18px; font-weight: bold; text-anchor: left }
  .script { font-size: 14px; font-weight: medium; text-anchor: left }
</style>
<defs>
<g id="arrow">
<polygon points="-0.3,0 -2,-2 2,0 -2,2 -0.3,0"/>
</g>
</defs>

<g>
    <circle cx="10" cy="160" r="5" />
    <text x="10" y="150" class="text">O</text>

    <g class="line"><line x1="120" y1="10" x2="120" y2="68"/></g>
    <use xlink:href="#arrow" transform="translate(120,68) rotate(90)"/>
    <text x="127" y="47" class="text">v</text>
    <g class="line"><line x1="120" y1="10" x2="92.57" y2="47.4"/></g>
    <use xlink:href="#arrow" transform="translate(92.57,47.4) rotate(126.25)"/>
    <text x="82" y="36" class="text">v</text><text x="89" y="40" class="script">r</text>
    <g class="line"><line x1="120" y1="10" x2="147" y2="29.8"/></g>
    <use xlink:href="#arrow" transform="translate(147,29.8) rotate(36.25)"/>
    <text x="145" y="20" class="text">v</text><text x="152" y="24" class="script">t</text>
    <g class="thin"><line x1="10" y1="160" x2="120" y2="10"/></g>
    <line x1="120" y1="70" x2="91.39" y2="49.02" stroke="black" stroke-width="0.2" stroke-dasharray="2 1" />
    <line x1="120" y1="70" x2="148.61" y2="30.98" stroke="black" stroke-width="0.2" stroke-dasharray="2 1" />
    <g class="line"><line x1="120" y1="160" x2="120" y2="218"/></g>
    <text x="127" y="166" class="text">v</text><text x="134" y="170" class="script">r</text><text x="140" y="166" class="text">= 0</text>
    <use xlink:href="#arrow" transform="translate(120,218) rotate(90)"/>
    <text x="127" y="206" class="text">v = v</text><text x="164" y="210" class="script">t</text>
    <g class="line"><line x1="120" y1="160" x2="120" y2="218"/></g>
    <use xlink:href="#arrow" transform="translate(120,218) rotate(90)"/>
    <g class="thin"><line x1="10" y1="160" x2="120" y2="160"/></g>
    <g class="line"><line x1="120" y1="310" x2="120" y2="368"/></g>
    <use xlink:href="#arrow" transform="translate(120,368) rotate(90)"/>
    <text x="127" y="354" class="text">v</text>
    <g class="line"><line x1="120" y1="310" x2="147.43" y2="347.4"/></g>
    <use xlink:href="#arrow" transform="translate(147.43,347.4) rotate(53.75)"/>
    <text x="88" y="318" class="text">v</text><text x="95" y="322" class="script">t</text>
    <g class="line"><line x1="120" y1="310" x2="93" y2="329.8"/></g>
    <use xlink:href="#arrow" transform="translate(93,329.8) rotate(143.75)"/>
    <text x="145" y="334" class="text">v</text><text x="152" y="338" class="script">r</text>
    <g class="thin"><line x1="10" y1="160" x2="120" y2="310"/></g>
    <line x1="120" y1="370" x2="148.61" y2="349.02" stroke="black" stroke-width="0.2" stroke-dasharray="2 1" />
    <line x1="120" y1="370" x2="91.39" y2="330.98" stroke="black" stroke-width="0.2" stroke-dasharray="2 1" />
</g>
</svg>
