<svg width="210mm" height="147mm" version="1.0" viewBox="0 0 210 147" xmlns="http://www.w3.org/2000/svg" xmlns:xlink="http://www.w3.org/1999/xlink"><rect width="210" height="147" fill="#fff"/><path d="m8 130v-120m-5 68h198" fill="none" stroke="#000"/><path id="b" d="m3 94c53-197 55 132 97 0" fill="none" stroke="#f00" stroke-width="1.5"/><use transform="translate(97)" xlink:href="#b"/><path d="m197 75 11 3-11 3 3-3m-195-65l3-11 3 11-3-3"/>
 <g font-family="'Times New Roman'" font-size="19px">
 <g id="a"><path d="m37 20h89m5 8v-17m-97 0v17" fill="none" stroke="#000" stroke-width=".6"/><text x="74" y="17">λ</text><path d="m45 17-11 3 11 3-3-3m78-3 11 3-11 3 3-3"/></g>
 <use transform="translate(24 47)" xlink:href="#a"/><use transform="translate(47 117)" xlink:href="#a"/><text x="195" y="74" font-style="italic">x<tspan x="13" y="14">y</tspan></text></g></svg>