<?xml version="1.0" encoding="UTF-8" standalone="no"?>
<!-- Created with Inkscape (http://www.inkscape.org/) -->

<svg
   xmlns:dc="http://purl.org/dc/elements/1.1/"
   xmlns:cc="http://creativecommons.org/ns#"
   xmlns:rdf="http://www.w3.org/1999/02/22-rdf-syntax-ns#"
   xmlns:svg="http://www.w3.org/2000/svg"
   xmlns="http://www.w3.org/2000/svg"
   xmlns:sodipodi="http://sodipodi.sourceforge.net/DTD/sodipodi-0.dtd"
   xmlns:inkscape="http://www.inkscape.org/namespaces/inkscape"
   width="556.25397mm"
   height="264.42221mm"
   viewBox="0 0 556.25396 264.42221"
   version="1.1"
   id="svg8"
   inkscape:version="0.92.5 (2060ec1f9f, 2020-04-08)"
   sodipodi:docname="RLC Series Bode Magnitude Plot.svg">
  <defs
     id="defs2">
    <clipPath
       id="clipEmfPath1"
       clipPathUnits="userSpaceOnUse">
      <path
         id="path3713"
         d="m 631.01925,912.36283 h 2.61833 v 2.62174 h -2.61833 z"
         inkscape:connector-curvature="0" />
    </clipPath>
    <clipPath
       id="clipEmfPath2"
       clipPathUnits="userSpaceOnUse">
      <path
         id="path3716"
         d="m 1534.3407,372.28598 h 104.7329 v 26.21733 h -104.7329 z"
         inkscape:connector-curvature="0" />
    </clipPath>
    <clipPath
       id="clipEmfPath3"
       clipPathUnits="userSpaceOnUse">
      <path
         id="path3719"
         d="m 1534.3407,432.58583 h 104.7329 v 26.21732 h -104.7329 z"
         inkscape:connector-curvature="0" />
    </clipPath>
    <clipPath
       id="clipEmfPath4"
       clipPathUnits="userSpaceOnUse">
      <path
         id="path3722"
         d="m 1534.3407,492.88567 h 104.7329 v 26.21732 h -104.7329 z"
         inkscape:connector-curvature="0" />
    </clipPath>
    <clipPath
       id="clipEmfPath5"
       clipPathUnits="userSpaceOnUse">
      <path
         id="path3725"
         d="m 1534.3407,553.18551 h 104.7329 v 26.21732 h -104.7329 z"
         inkscape:connector-curvature="0" />
    </clipPath>
    <pattern
       y="0"
       x="0"
       height="6"
       width="6"
       patternUnits="userSpaceOnUse"
       id="EMFhbasepattern" />
  </defs>
  <sodipodi:namedview
     id="base"
     pagecolor="#ffffff"
     bordercolor="#666666"
     borderopacity="1.0"
     inkscape:pageopacity="0.0"
     inkscape:pageshadow="2"
     inkscape:zoom="0.77309901"
     inkscape:cx="813.8131"
     inkscape:cy="493.46847"
     inkscape:document-units="mm"
     inkscape:current-layer="layer1"
     showgrid="false"
     inkscape:window-width="1920"
     inkscape:window-height="986"
     inkscape:window-x="-11"
     inkscape:window-y="-11"
     inkscape:window-maximized="1"
     inkscape:snap-page="true" />
  <metadata
     id="metadata5">
    <rdf:RDF>
      <cc:Work
         rdf:about="">
        <dc:format>image/svg+xml</dc:format>
        <dc:type
           rdf:resource="http://purl.org/dc/dcmitype/StillImage" />
        <dc:title />
      </cc:Work>
    </rdf:RDF>
  </metadata>
  <g
     inkscape:groupmode="layer"
     id="layer2"
     inkscape:label="White Background"
     style="display:inline">
    <rect
       id="rect163"
       width="556.25385"
       height="264.42218"
       x="0.00015068054"
       y="2.2888184e-05"
       style="fill:#ffffff;stroke-width:0.26458332" />
  </g>
  <g
     inkscape:label="Plot"
     inkscape:groupmode="layer"
     id="layer1"
     transform="translate(160.78727,-20.949526)"
     style="display:inline">
    <path
       id="path3733"
       d="m -123.24007,157.29838 0.12989,-0.0434 0.0866,-0.0433 0.21649,-0.0867 0.47628,-0.17342 0.86595,-0.39018 1.77521,-0.78038 3.55042,-1.51739 7.7503,-3.33828 7.18743,-3.12149 7.057544,-3.07815 7.663709,-3.33827 7.144134,-3.1215 7.750304,-3.42498 7.620413,-3.33827 7.100837,-3.16486 7.707006,-3.42498 7.187436,-3.25156 7.01424,-3.16485 7.6637,-3.51169 7.14415,-3.29492 7.70699,-3.59839 7.5771198,-3.5984 7.10084,-3.38162 7.6637104,-3.771817 7.1874398,-3.55504 7.7503,-3.94523 7.62041,-3.94523 7.10084,-3.77181 7.707,-4.20535 7.18744,-3.98858 7.05754,-3.98859 7.66371,-4.422125 7.14413,-4.118645 7.75031,-4.422124 7.57711,-4.162002 0.12989,-0.08671 0.1299,-0.04335 0.21649,-0.130064 0.432973,-0.21677 0.86596,-0.476896 1.77521,-0.867084 3.55042,-1.734167 0.12988,-0.04335 0.12989,-0.04335 0.21649,-0.130064 0.47628,-0.216771 0.995854,-0.433541 1.9051,-0.780375 0.12989,-0.08671 0.1299,-0.04335 0.21649,-0.08671 0.47627,-0.173419 0.95255,-0.390186 1.94841,-0.693666 0.0866,-0.04335 0.12989,-0.04336 0.21649,-0.08671 0.43298,-0.173416 0.90925,-0.260125 0.1299,-0.04335 0.0866,-0.04335 0.25979,-0.08671 0.43298,-0.130062 0.90925,-0.260125 h 0.0866 l 0.12989,-0.04335 0.21649,-0.08671 0.43298,-0.08671 0.90925,-0.260125 h 0.12989 l 0.0866,-0.04335 0.21649,-0.04335 0.47627,-0.130062 0.90926,-0.173417 0.0866,-0.04335 h 0.1299 l 0.21649,-0.04335 0.43297,-0.08671 0.0866,-0.04335 h 0.12989 l 0.21649,-0.04335 0.43298,-0.08671 h 0.12989 l 0.0866,-0.04335 h 0.21649 l 0.43297,-0.08671 0.90926,-0.130063 h 0.0866 0.1299 l 0.21649,-0.04335 0.43297,-0.04335 h 0.1299 l 0.0866,-0.04335 h 0.21649 l 0.43297,-0.04336 h 0.12991 0.0866 l 0.25977,-0.04335 h 0.0866 0.12988 0.21651 l 0.0866,-0.04335 h 0.12988 0.21648 0.0866 0.12991 0.21648 l 0.12989,-0.04335 h 0.12988 0.0866 0.12991 0.12989 0.12988 0.0866 0.12991 0.12988 0.12989 0.0866 0.12991 0.12989 0.12988 0.0866 0.12991 0.12988 0.12989 0.0866 0.12991 0.12988 0.12988 0.0866 0.12991 0.12989 0.12988 l 0.0866,0.04335 h 0.12991 0.12988 0.12989 0.21651 0.12988 0.12988 l 0.21651,0.04335 h 0.12989 0.12988 l 0.21648,0.04335 h 0.12991 0.12989 l 0.21648,0.04336 0.47628,0.04335 h 0.12991 0.12988 l 0.21648,0.04335 0.47628,0.04335 h 0.12991 l 0.12988,0.04335 0.21649,0.04335 0.47627,0.04335 0.12991,0.04335 h 0.0866 l 0.25977,0.04335 0.43299,0.04335 0.86595,0.173417 0.12989,0.04335 h 0.12991 l 0.21648,0.04335 0.43296,0.08671 0.90927,0.216771 h 0.0866 l 0.12988,0.04335 0.21649,0.04335 0.43299,0.130063 0.90924,0.216771 1.77522,0.476896 0.12988,0.04335 0.0866,0.04335 0.25979,0.08671 0.47628,0.130063 0.95255,0.346833 1.9484,0.693667 3.85349,1.517396 0.12991,0.04335 0.0866,0.08671 0.25977,0.08671 0.43299,0.173416 0.90924,0.433544 1.77522,0.823727 3.63702,1.777521 7.05752,3.728458 7.66371,4.335418 7.14415,4.161999 7.7503,4.465484 7.6204,4.33541 7.10084,3.98859 7.70702,4.20535 7.18743,3.85852 7.05755,3.6851 7.66371,3.90188 7.10083,3.5984 0.12989,0.0433 0.12988,0.0867 0.25979,0.0867 0.47628,0.26012 0.99584,0.4769 1.9917,0.99714 0.12991,0.0867 0.12989,0.0434 0.25979,0.13006 0.47628,0.21678 0.99584,0.52025 0.12988,0.0434 0.12991,0.0434 0.25977,0.13006 0.47628,0.26012 0.12991,0.0433 0.12988,0.0867 0.2598,0.0867 0.12988,0.0867 0.12991,0.0434 0.12988,0.0867 0.0866,0.0434"
       style="fill:none;stroke:#000000;stroke-width:1.12574255px;stroke-linecap:square;stroke-linejoin:miter;stroke-miterlimit:3;stroke-dasharray:none;stroke-opacity:1"
       inkscape:connector-curvature="0" />
    <path
       id="path3735"
       d="m -123.80294,42.32313 h 0.69276 0.0866 0.21649 0.47628 0.86595 l 0.99585,-0.04335 v 1.127209 h -0.99585 -0.86595 -0.47628 -0.21649 -0.0866 l -0.69276,0.04335 z m 6.10499,-0.04335 h 1.55871 1.21234 v 1.083855 h -1.16904 l -1.60201,0.04335 z m 5.54211,-0.04335 h 2.77106 v 1.083854 l -2.77106,0.04336 z m 5.49882,-0.04335 h 2.77106 l 0.0433,1.083854 -2.77106,0.04335 z m 5.54211,-0.04335 h 2.771064 v 1.083854 l -2.727764,0.04335 z m 5.542122,-0.04335 h 1.428827 l 1.342231,-0.04335 v 1.127208 h -1.342231 l -1.428827,0.04335 z m 5.542116,-0.04335 2.771058,-0.04336 v 1.127209 h -2.771058 z m 5.542119,-0.08671 2.771058,-0.04335 v 1.127208 l -2.771058,0.04335 z m 5.498819,-0.04335 2.771058,-0.04335 0.0433,1.083854 -2.771058,0.04335 z m 5.542116,-0.08671 1.861804,-0.04335 h 0.909254 l 0.0433,1.127209 h -0.909253 -1.861807 z m 5.542116,-0.08671 2.771061,-0.04335 v 1.083854 l -2.727762,0.04336 z m 5.542119,-0.08671 2.771058,-0.04335 v 1.083854 l -2.771058,0.04335 z m 5.542116,-0.130062 2.771058,-0.04336 v 1.127209 l -2.771058,0.04335 z m 5.498819,-0.08671 2.16489,-0.04335 h -0.0433 l 0.649467,-0.04335 0.0433,1.127208 h -0.649467 l -2.121591,0.04335 z m 5.542121,-0.130062 2.77106,-0.08671 0.0433,1.127209 -2.77106,0.04335 z m 5.54211,-0.173417 2.77106,-0.04335 0.0433,1.083854 -2.77106,0.08671 z m 5.54212,-0.130062 2.77106,-0.08671 v 1.083854 l -2.77106,0.08671 z m 5.49882,-0.173417 1.8618,-0.08671 v 0 l 0.90926,-0.04336 0.0433,1.127209 -0.90926,0.04335 -1.8618,0.04335 z m 5.54212,-0.216771 2.77106,-0.08671 0.0433,1.083854 -2.77106,0.130062 z m 5.54211,-0.216771 2.77106,-0.130062 0.0433,1.127208 -2.77106,0.130063 z m 5.49882,-0.216771 h 0.17319 -0.0433 l 2.6411598,-0.130062 0.0433,1.083854 -2.5978698,0.130062 h -0.12989 z m 5.5421198,-0.260125 2.20819,-0.130062 v 0 l 0.56287,-0.04335 0.0433,1.127208 -0.56288,0.04335 -2.20818,0.08671 z m 5.54212,-0.303479 2.72776,-0.173416 0.0866,1.127208 -2.77106,0.130062 z m 5.4988204,-0.346833 2.77106,-0.173417 0.0866,1.127209 -2.77106,0.173416 z m 5.54211,-0.346833 h 0.34639 v 0 l 2.3813798,-0.173417 0.0866,1.083854 -2.3813798,0.173417 -0.38968,0.04335 z m 5.4988198,-0.390188 2.035,-0.130063 v 0 l 0.73606,-0.08671 0.0866,1.127209 -0.73607,0.04335 -2.03499,0.173416 z m 5.49882,-0.433542 2.77106,-0.216771 0.0866,1.083855 -2.72777,0.260125 z m 5.54212,-0.476895 2.72776,-0.260126 0.12989,1.127209 -2.77106,0.260125 z m 5.49882,-0.520251 0.86595,-0.04335 v 0 l 1.86181,-0.21677 0.12989,1.083854 -1.9051,0.216771 -0.86596,0.08671 z m 5.49882,-0.563604 2.46797,-0.260125 v 0 h 0.25979 l 0.12989,1.083854 -0.30308,0.04335 -2.42468,0.260125 z m 5.49882,-0.606958 2.72776,-0.303479 0.12989,1.083854 -2.72776,0.303479 z m 5.49882,-0.650313 2.72776,-0.346833 0.12989,1.083854 -2.72776,0.346834 z m 5.45552,-0.73702 0.90925,-0.08671 v 0 l 1.81851,-0.260125 0.17319,1.083854 -1.8618,0.260126 -0.86596,0.130062 z m 5.49882,-0.737021 2.46797,-0.346833 h -0.0433 l 0.30309,-0.04336 0.17319,1.083854 -0.30309,0.04336 -2.46797,0.346833 z m 5.45552,-0.823729 2.72776,-0.390188 0.17319,1.083854 -2.72776,0.390188 z m 5.49882,-0.823729 2.72776,-0.433542 0.17319,1.127208 -2.77106,0.390188 z m 5.45552,-0.82373 0.82266,-0.130062 0.12989,-0.04335 h 0.12989 l 0.21649,-0.04336 0.51958,-0.08671 0.90925,-0.130062 0.17319,1.083854 -0.95255,0.173417 -0.47628,0.04335 -0.21648,0.04335 h -0.1299 l -0.12989,0.04335 -0.82266,0.130063 z m 5.45552,-0.823729 2.77106,-0.433542 0.12989,1.127209 -2.72776,0.390187 z m 5.49882,-0.780375 1.42883,-0.173416 0.12989,-0.04335 h 0.12989 l 0.21649,-0.04335 0.47628,-0.04335 0.38968,-0.04335 0.12989,1.083854 -0.38968,0.04335 v 0 l -0.47627,0.08671 h -0.21649 l -0.1299,0.04336 h -0.12989 v 0 l -1.42883,0.173416 z m 5.54212,-0.650312 h 0.12989 l 0.476283,-0.04335 0.86595,-0.08671 h 0.12989 l 0.0866,-0.04335 h 0.25979 l 0.43298,-0.04335 0.34638,-0.04335 0.0866,1.127208 -0.34638,0.04335 v 0 l -0.43298,0.04335 h -0.21649 -0.12989 -0.0866 v 0 l -0.90925,0.08671 v 0 l -0.432983,0.04335 -0.17319,0.04335 z m 5.542113,-0.433542 h 0.38968 0.1299 0.0866 l 0.21649,-0.04335 h 0.47628 0.12989 0.0866 0.25978 l 0.1299,-0.04335 h 0.0866 0.25979 0.12989 0.1299 0.0866 0.12989 0.0433 v 1.127208 0 h -0.12989 -0.129958 -0.1299 -0.0866 -0.25979 -0.12989 -0.0866 -0.25979 -0.12989 l -0.0866,0.04335 v 0 h -0.47628 0.0433 -0.25979 -0.0866 -0.12989 l -0.38968,0.04335 z m 5.542124,-0.08671 h 0.0866 0.12989 0.12989 0.21649 0.12989 0.1299 l 0.25979,0.04335 h 0.0866 0.1299 0.25978 0.12989 0.0866 0.25979 l 0.12989,0.04335 h 0.12989 0.21649 0.1299 0.12989 0.0433 l -0.0866,1.127208 h -0.0433 -0.0866 -0.12989 l -0.25979,-0.04335 h -0.0866 -0.12989 -0.25979 -0.0866 -0.1299 l -0.25978,-0.04335 h -0.0866 -0.12989 -0.25979 -0.0866 -0.12989 -0.25978 -0.0866 -0.12989 -0.0866 z m 5.58542,0.346811 h 0.17319 l 0.47627,0.08671 0.86596,0.08671 0.12989,0.04335 h 0.12989 l 0.21649,0.04335 0.43298,0.08671 0.34638,0.04335 -0.17319,1.083855 -0.34638,-0.04335 v 0 l -0.43298,-0.08671 v 0 h -0.21649 v 0 l -0.12989,-0.04335 h -0.0866 v 0 l -0.90926,-0.130063 v 0 l -0.43298,-0.04335 v 0 l -0.17319,-0.04335 z m 5.49882,0.910437 0.12989,0.04336 0.43298,0.08671 0.86595,0.216771 0.1299,0.04335 h 0.0866 l 0.25979,0.08671 0.43298,0.130063 0.38968,0.08671 -0.30309,1.083854 -0.38968,-0.130062 v 0 l -0.43298,-0.08671 v 0 l -0.21649,-0.08671 v 0 h -0.12989 l -0.0866,-0.04335 v 0 l -0.86596,-0.216771 v 0 l -0.43298,-0.08671 v 0 l -0.0866,-0.04335 z m 5.41223,1.56075 1.34223,0.52025 0.12988,0.04336 0.12989,0.04335 0.25979,0.08671 0.47628,0.173417 0.25979,0.130062 -0.43299,1.0405 -0.25979,-0.130062 v 0 l -0.47628,-0.173417 v 0 l -0.21648,-0.08671 v 0 l -0.12988,-0.04335 -0.12989,-0.04335 h 0.0433 l -1.38552,-0.52025 z m 5.15242,2.124355 0.0866,0.04335 0.0866,0.04335 0.12991,0.08671 0.25977,0.08671 0.47628,0.260125 0.95255,0.476895 0.51959,0.30348 -0.56288,0.953791 -0.47627,-0.260125 v 0 l -0.95256,-0.476895 h 0.0433 l -0.51956,-0.260125 h 0.0433 l -0.25976,-0.08671 v 0 l -0.12991,-0.08671 -0.0866,-0.04335 v 0 h -0.0866 z m 4.93596,2.644604 0.77935,0.476896 1.55872,0.997146 -0.56288,0.953791 -1.55871,-0.997146 v 0 l -0.82264,-0.476896 z m 4.63285,3.078146 1.51543,1.0405 0.12988,0.08671 0.12991,0.08671 0.25977,0.173417 0.2598,0.216771 -0.64948,0.867083 -0.30308,-0.173416 v 0 l -0.21648,-0.173417 -0.12988,-0.08671 -0.12991,-0.08671 h 0.0433 l -1.51543,-1.0405 z m 4.50297,3.294916 0.90927,0.693667 1.25563,1.0405 -0.69276,0.867083 -1.25566,-1.0405 v 0 l -0.90924,-0.693666 z m 4.28649,3.511687 0.47628,0.390189 1.64531,1.430687 -0.73607,0.82373 -1.602,-1.430689 v 0.04335 l -0.47628,-0.390186 z m 4.15658,3.685104 2.0783,1.86423 -0.73607,0.82373 -2.07828,-1.86423 z m 4.1566,3.728461 1.99168,1.907582 -0.77936,0.82373 -1.99168,-1.907585 z m 3.98338,3.815164 1.99171,1.950937 -0.73607,0.780375 -1.99168,-1.907582 z m 3.98341,3.901877 1.9917,1.907582 -0.77935,0.82373 -1.99171,-1.950937 z m 3.9401,3.858519 1.9917,1.950941 -0.77936,0.82373 -1.9917,-1.950941 z m 3.94009,3.945231 1.94839,1.95094 -0.77935,0.78037 -1.94839,-1.95094 z m 3.89681,3.90187 1.55872,1.56076 0.43299,0.39018 -0.82267,0.82373 -0.38968,-0.43354 -1.55871,-1.56075 z m 3.9401,3.94523 1.94839,1.95094 -0.77936,0.78038 -1.94839,-1.95094 z m 3.89681,3.90188 1.47211,1.5174 v 0 l 0.47628,0.43354 -0.77936,0.82372 -0.47627,-0.47689 -1.47215,-1.5174 z m 3.94009,3.94523 1.94839,1.95094 -0.77935,0.78037 -1.94839,-1.95094 z m 3.89679,3.90187 1.25563,1.25727 v -0.0434 l 0.73607,0.73702 -0.77936,0.78038 -0.73607,-0.69367 -1.25563,-1.25727 z m 3.94009,3.90188 1.99171,1.90758 -0.77936,0.82373 -1.9917,-1.95094 z m 3.98341,3.85852 0.43299,0.47689 v 0 l 1.5154,1.47405 -0.77936,0.78037 -1.51542,-1.47404 -0.43297,-0.4769 z m 3.9401,3.858519 1.9917,1.95094 -0.77936,0.78037 -1.9917,-1.90758 z m 3.9834,3.85852 0.21649,0.21677 v 0 l 1.77522,1.73417 -0.77939,0.78037 -1.77519,-1.69081 -0.21648,-0.21677 z m 3.98338,3.85852 1.99171,1.90758 -0.73607,0.82373 -1.99168,-1.95093 z m 4.0267,3.81517 1.9917,1.90758 -0.77935,0.82373 -1.99171,-1.90758 z m 3.98341,3.81516 2.03499,1.90759 -0.77936,0.82373 -1.9917,-1.90759 z m 4.02669,3.81517 2.03499,1.90759 -0.73607,0.78037 -2.03499,-1.86423 z m 4.06998,3.77181 1.9917,1.90759 v 0 h 0.0433 l -0.77936,0.82373 v -0.0434 l -2.03502,-1.86423 z m 4.02669,3.77182 2.03502,1.90758 -0.73607,0.82373 -2.03499,-1.90758 z m 4.07001,3.77181 1.03915,0.95379 0.12988,0.13006 0.12989,0.0867 0.25979,0.26013 0.47628,0.43354 v 0.0434 l -0.73607,0.78038 v 0 l -0.51956,-0.43354 -0.21649,-0.26013 -0.12991,-0.0867 -0.12988,-0.13006 -1.03915,-0.95379 z m 4.06998,3.77181 0.95255,0.86708 0.12991,0.0867 0.12989,0.13007 0.25979,0.21677 0.47628,0.47689 0.12988,0.0867 -0.77936,0.82373 -0.0866,-0.0867 -0.51957,-0.4769 -0.2165,-0.21677 -0.12989,-0.13006 -0.12988,-0.13006 -0.95256,-0.82373 z m 4.11329,3.72846 0.0866,0.0867 0.21648,0.21677 0.12991,0.13006 0.12989,0.0867 0.12991,0.13006 0.51956,0.4769 -0.73607,0.82373 -0.51956,-0.4769 -0.12989,-0.13006 -0.12991,-0.0867 -0.12988,-0.13006 -0.21649,-0.21677 -0.0866,-0.0867 z"
       style="fill:#0000ff;fill-opacity:1;fill-rule:nonzero;stroke:#0000ff;stroke-width:0.69276464px;stroke-linecap:butt;stroke-linejoin:bevel;stroke-miterlimit:10;stroke-dasharray:none;stroke-opacity:1"
       inkscape:connector-curvature="0" />
    <path
       id="path3737"
       d="m -124.01943,251.46363 0.51957,-0.43354 0.12989,-0.13007 0.21649,-0.17341 0.0866,-0.0867 0.73607,0.86708 -0.0866,0.0867 -0.21649,0.17342 -0.1299,0.0867 -0.51957,0.47689 z m 3.07414,-2.60125 0.90925,-0.78038 1.16905,-1.0405 0.73606,0.86709 -1.16904,0.99714 -0.95255,0.78038 z m 4.19989,-3.5984 0.25978,-0.26012 0.25979,-0.21677 0.73606,0.86708 -0.25978,0.21677 -0.30309,0.21677 z m 2.59786,-2.25442 2.1216,-1.82087 0.73606,0.86708 -2.12159,1.77752 z m 4.24319,-3.59839 0.51957,-0.4769 0.69277,0.86709 -0.51958,0.43354 z m 2.59786,-2.25442 2.12159,-1.82087 0.73606,0.82373 -2.12159,1.82087 z m 4.19989,-3.64175 0.56287,-0.43354 0.69276,0.82373 -0.51957,0.4769 z m 2.64116,-2.25441 2.121594,-1.77753 0.692764,0.82373 -2.078294,1.82088 z m 4.199888,-3.5984 0.519573,-0.43354 0.736063,0.82373 -0.519575,0.47689 z m 2.641164,-2.25442 2.078294,-1.82087 0.736063,0.86708 -2.078294,1.77752 z m 4.199885,-3.59839 0.519575,-0.4769 0.736063,0.86708 -0.562872,0.43355 z m 2.597869,-2.25442 2.121591,-1.82087 0.736063,0.82373 -2.121593,1.82087 z m 4.199885,-3.64175 0.519573,-0.43354 0.736063,0.82373 -0.519573,0.47689 z m 2.641166,-2.25442 0.303083,-0.26012 1.775209,-1.56075 0.736062,0.86708 -1.775208,1.5174 -0.303086,0.26012 z m 4.199885,-3.64175 0.519573,-0.43354 0.736063,0.82373 -0.562872,0.4769 z m 2.597867,-2.25441 1.255636,-1.08386 0.865954,-0.73702 0.692767,0.86709 -0.822659,0.73702 -1.255635,1.08385 z m 4.199885,-3.5984 0.519575,-0.47689 0.73606,0.82372 -0.519573,0.4769 z m 2.641166,-2.29777 2.034995,-1.77752 0.0433,-0.0434 0.736063,0.86708 -0.0866,0.0434 -2.034998,1.77752 z m 4.156588,-3.59839 0.519573,-0.4769 0.736063,0.82373 -0.519573,0.4769 z m 2.641163,-2.29778 2.078294,-1.82087 0.736063,0.86708 -2.12159,1.77752 z m 4.156589,-3.64175 0.519572,-0.43354 0.736063,0.82373 -0.519572,0.4769 z m 2.597867,-2.25441 2.121593,-1.82088 0.692764,0.82373 -2.078294,1.82088 z m 4.199887,-3.64175 0.519573,-0.4769 0.736063,0.86709 -0.519573,0.43354 z m 2.597867,-2.29777 2.078292,-1.82088 0.73607,0.82373 -2.0783,1.82088 z m 4.156592,-3.64175 0.51957,-0.43354 0.73606,0.82372 -0.51957,0.43355 z m 2.59786,-2.29777 2.0783,-1.82088 0.73606,0.82373 -2.07829,1.86423 z m 4.19989,-3.64175 0.51957,-0.4769 0.69277,0.86708 -0.51958,0.43354 z m 2.59787,-2.29777 2.07829,-1.82088 0.69276,0.82373 -2.07829,1.82088 z m 4.11329,-3.64176 0.51957,-0.47689 0.73606,0.82373 -0.51957,0.47689 z m 2.59786,-2.29776 2.0783,-1.86424 0.73606,0.82373 -2.0783,1.86423 z m 4.15659,-3.68511 0.51958,-0.4769 0.73606,0.82373 -0.51958,0.4769 z m 2.59787,-2.29777 2.07829,-1.86423 0.73606,0.82373 -2.07829,1.86423 z m 4.11329,-3.68511 0.51957,-0.47689 0.73606,0.82373 -0.51957,0.47689 z m 2.59787,-2.34112 2.07829,-1.82087 0.7360598,0.82373 -2.0782898,1.86422 z m 4.1132798,-3.68511 0.51958,-0.47689 0.73606,0.82373 -0.51957,0.47689 z m 2.59787,-2.29776 0.34639,-0.34684 v 0 l 1.68861,-1.51739 0.73606,0.82373 -1.68861,1.51739 -0.34639,0.34683 z m 4.06999,-3.72846 0.51957999,-0.4769 0.73606,0.82373 -0.47627,0.4769 z m 2.59787,-2.34113 0.73606,-0.69366 v 0.0433 l 1.2989404,-1.21392 0.73606,0.82373 -1.29893,1.17056 -0.7360704,0.69367 z m 4.0699904,-3.72846 0.51958,-0.47689 0.73606,0.82373 -0.51957,0.47689 z m 2.55458,-2.34112 1.7752,-1.60411 v 0 l 0.25979,-0.26012 0.7793598,0.82373 -0.25979,0.26012 -1.7752098,1.60411 z m 4.1132798,-3.72846 0.47628,-0.4769 0.77936,0.82373 -0.51957,0.4769 z m 2.51128,-2.34113 2.03499,-1.90758 0.77936,0.82373 -2.03499,1.90758 z m 4.06999,-3.77181 0.51957,-0.47689 0.73606,0.82373 -0.47627,0.47689 z m 2.55457,-2.38448 1.9917,-1.86423 0.77936,0.82373 -2.035,1.86423 z m 4.02669,-3.77181 0.51958,-0.47689 0.73606,0.82373 -0.47628,0.47689 z m 2.51127,-2.38448 2.035,-1.86423 0.73606,0.78038 -1.9917,1.90758 z m 4.0267,-3.77181 0.51957,-0.4769 0.77936,0.78038 -0.51957,0.47689 z m 2.51127,-2.38448 2.035,-1.90758 0.73606,0.78037 -1.9917,1.90758 z m 4.02669,-3.85852 0.47628,-0.4769 0.77936,0.82373 -0.51957,0.4769 z m 2.46798,-2.38448 1.9917,-1.90758 0.77936,0.78037 -1.9917,1.90758 z m 3.9834,-3.85852 0.51957,-0.4769 0.77936,0.78038 -0.51957,0.52025 z m 2.51127,-2.384477 1.9484,-1.95094 0.77936,0.78038 -1.9484,1.95093 z m 3.9401,-3.90187 0.51957,-0.4769 0.73606,0.78037 -0.47627,0.4769 z m 2.46797,-2.42784 0.60617,-0.60696 v 0 l 1.38553,-1.34398 0.77936,0.78038 -1.38553,1.38733 -0.60617,0.56361 z m 3.9401,-3.90187 0.51957,-0.4769 0.73606,0.78038 -0.47627,0.47689 z m 2.46797,-2.42784 1.25564,-1.25727 v 0 l 0.69276,-0.69367 0.77936,0.78038 -0.69276,0.69367 -1.25564,1.25727 z m 3.9401,-3.90187 0.47628,-0.52025 0.77936,0.82373 -0.47628,0.47689 z m 2.42468,-2.47119 1.9484,-1.95094 0.77936,0.78038 -1.9484,1.95094 z m 3.8968,-3.90187 0.51957,-0.52025 0.77936,0.82372 -0.47627,0.4769 z m 2.46797,-2.47119 1.9484,-1.95094 0.77936,0.78037 -1.9484,1.95094 z m 3.8968,-3.90188 0.51958,-0.52025 0.77936,0.78038 -0.51958,0.52025 z m 2.46798,-2.47118 1.9484,-1.950942 0.77936,0.780372 -1.9484,1.95094 z m 3.9401,-3.901879 0.47627,-0.476898 0.77936,0.780375 -0.47627,0.476896 z m 2.46797,-2.427835 1.9917,-1.950937 0.77936,0.82373 -1.9917,1.907582 z m 3.9834,-3.858519 0.47627,-0.476896 0.77936,0.780373 -0.51957,0.476898 z m 2.51127,-2.427836 2.034993,-1.864227 0.73607,0.823727 -2.035,1.86423 z m 4.069993,-3.728458 0.47628,-0.476895 0.77936,0.82373 -0.51958,0.433541 z m 2.55457,-2.384478 2.121594,-1.777521 0.69277,0.867082 -2.121604,1.777521 z m 4.243184,-3.555042 0.51958,-0.433542 0.73606,0.867084 -0.51957,0.433541 z m 2.68447,-2.211062 0.69276,-0.606959 0.1299,-0.08671 0.0866,-0.08671 0.21649,-0.173417 0.47627,-0.346833 0.56288,-0.433542 0.69276,0.910438 -0.60617,0.433541 v 0 l -0.43298,0.346834 v 0 l -0.21649,0.173416 -0.12989,0.08671 -0.0866,0.08671 v -0.04335 l -0.69277,0.606958 z m 4.41637,-3.381625 0.0866,-0.04335 0.25978,-0.173417 0.25979,-0.173417 0.60617,0.910438 -0.25979,0.173416 v 0 l -0.21649,0.173413 -0.0866,0.04335 z m 2.90095,-1.950938 0.60617,-0.346833 0.0866,-0.08671 0.12989,-0.08671 0.21649,-0.130062 0.43298,-0.260125 0.90925,-0.563605 v 0 l 0.56287,0.953792 -0.0433,0.04335 0.0433,-0.04335 -0.90925,0.563604 h 0.0433 l -0.47628,0.260125 v 0 l -0.21649,0.130063 -0.0866,0.08671 -0.1299,0.04335 v 0 l -0.56287,0.390188 z m 4.80606,-2.818021 0.21649,-0.130062 0.38968,-0.216771 0.51957,0.997146 -0.38968,0.216771 v 0 l -0.21649,0.08671 z m 3.11744,-1.56075 0.25977,-0.130062 0.47628,-0.216771 0.95255,-0.390187 0.12991,-0.04336 0.12989,-0.08671 0.21648,-0.08671 0.43299,-0.173417 0.38968,1.0405 -0.38968,0.173417 v 0 l -0.2598,0.08671 v 0 l -0.0866,0.04335 -0.12989,0.04335 v 0 l -0.95255,0.433542 v 0 l -0.47628,0.216771 v 0 l -0.21648,0.08671 z m 5.19573,-2.081 0.3464,-0.08671 0.34636,-0.08671 0.30308,1.0405 -0.30308,0.08671 v 0 l -0.30308,0.130063 z m 3.37722,-0.953791 0.69276,-0.173417 0.12991,-0.04335 h 0.12989 l 0.21648,-0.08671 0.43299,-0.08671 0.90924,-0.173416 0.12991,-0.04335 h 0.0866 l 0.21648,1.083854 h -0.0866 l -0.12988,0.04336 v 0 l -0.86596,0.173416 v 0 l -0.47627,0.08671 h 0.0433 l -0.25979,0.08671 v 0 h -0.0866 l -0.12991,0.04335 v 0 l -0.69276,0.173417 z m 5.49884,-1.0405 0.60616,-0.08671 0.0866,-0.04335 0.12988,1.127208 h -0.0866 v 0 l -0.60616,0.08671 z m 3.46382,-0.390188 h 0.0866 0.12988 0.0866 l 0.25979,-0.04335 h 0.47628 0.12988 0.12989 l 0.25979,-0.04335 h 0.0866 0.12988 0.2598 0.12988 0.0866 l 0.12991,-0.04335 h 0.12989 0.12988 0.12991 0.0433 v 1.127208 h -0.0433 -0.0866 -0.12991 -0.12988 -0.12989 -0.0866 -0.12992 l -0.25976,0.04335 h -0.12991 -0.0866 -0.25979 -0.12991 -0.0866 v 0 l -0.47628,0.04335 v 0 h -0.25979 l -0.12991,0.04335 h -0.0866 -0.0866 z m 5.58541,-0.130062 h 0.0433 0.12988 0.0866 0.12988 0.0866 0.12989 0.0866 v 1.127208 h -0.0866 -0.12989 -0.12988 l -0.0866,-0.04335 h -0.12991 -0.0866 -0.0433 z m 3.46382,0.08671 0.43299,0.04335 h 0.12988 0.0866 l 0.21648,0.04335 h 0.47628 0.12991 l 0.0866,0.04335 h 0.21651 l 0.47627,0.04335 0.56288,0.04335 -0.0866,1.083854 -0.56287,-0.04335 v 0 h -0.433 l -0.25976,-0.04335 h -0.0866 -0.12991 l -0.43297,-0.04336 v 0 h -0.21648 -0.12991 -0.0866 l -0.43296,-0.04335 z m 5.54212,0.476896 0.69276,0.04335 -0.0866,1.127208 -0.69276,-0.08671 z m 3.46382,0.346833 1.25563,0.173417 h 0.0866 l 0.12991,0.04335 h 0.25977 l 0.47627,0.08671 0.56288,0.04335 -0.1732,1.127209 -0.56287,-0.08671 -0.47628,-0.04336 -0.21648,-0.04335 h -0.12989 l -0.12988,-0.04335 v 0 l -1.21235,-0.130063 z m 5.49883,0.737021 0.69276,0.130063 -0.1732,1.083854 -0.69276,-0.08671 z m 3.42051,0.52025 2.72777,0.390187 -0.12991,1.127209 -2.77106,-0.433542 z m 5.49883,0.823729 0.64945,0.08671 -0.12988,1.127208 -0.69276,-0.130063 z m 3.42051,0.52025 2.72778,0.433542 -0.1732,1.083854 -2.72775,-0.433542 z m 5.45552,0.823729 0.51959,0.08671 v 0 l 0.1732,0.04335 -0.1732,1.083854 h -0.12991 l -0.56285,-0.08671 z m 3.42054,0.52025 2.72775,0.390188 -0.12989,1.127208 -2.77106,-0.433542 z m 5.45552,0.780375 0.69276,0.08671 -0.12989,1.127208 -0.69275,-0.08671 z m 3.46382,0.476896 2.72777,0.346834 -0.17319,1.127208 -2.72778,-0.390188 z m 5.45552,0.693667 0.69276,0.08671 -0.12988,1.127208 -0.69276,-0.08671 z m 3.42054,0.433541 1.73191,0.216771 v 0 l 1.03915,0.08671 -0.12991,1.127208 -1.03916,-0.130063 -1.7319,-0.21677 z m 5.4988,0.606959 0.69276,0.08671 -0.12988,1.083854 -0.64947,-0.04335 z m 3.46382,0.390187 2.72778,0.260125 -0.0866,1.127209 -2.77106,-0.30348 z m 5.49884,0.52025 0.69276,0.08671 -0.12989,1.083854 -0.69278,-0.04335 z m 3.42051,0.346834 2.77106,0.21677 -0.0866,1.127209 -2.77106,-0.260125 z m 5.54212,0.476896 h 0.17319 v 0 l 0.47628,0.04335 -0.0866,1.083854 h -0.47627 l -0.21649,-0.04335 z m 3.42053,0.260124 2.77106,0.216771 -0.0866,1.083854 -2.77106,-0.21677 z m 5.49881,0.390188 0.34639,0.04335 h 0.34639 l -0.0433,1.127208 -0.34639,-0.04335 h -0.34637 z m 3.46382,0.260125 0.86595,0.04335 h 0.12991 0.12989 l 0.25979,0.04335 h 0.47628 l 0.12988,0.04335 h 0.12991 0.25977 0.12991 l 0.0866,0.04335 h 0.12988 l 0.60616,0.04335 -0.0866,1.083854 -0.56288,-0.04335 h -0.12988 -0.12989 -0.12991 l -0.25977,-0.04335 h -0.12991 -0.0866 l -0.51957,-0.04335 h -0.25979 -0.12988 -0.0866 l -0.90924,-0.08671 z"
       style="fill:#ff8000;fill-opacity:1;fill-rule:nonzero;stroke:#ff8000;stroke-width:0.69276464px;stroke-linecap:butt;stroke-linejoin:bevel;stroke-miterlimit:10;stroke-dasharray:none;stroke-opacity:1"
       inkscape:connector-curvature="0" />
    <path
       id="path3739"
       d="m -123.80294,42.756671 h 0.69276 0.0866 0.21649 0.25979 v 1.127208 h -0.25979 -0.21649 -0.0866 -0.69276 z m 4.02669,0.04335 h 0.0866 0.60617 v 1.083854 h -0.60617 -0.0866 z m 3.46382,0 h 0.21649 0.47628 v 1.127209 l -0.51958,-0.04335 h -0.17319 z m 3.46383,0 h 0.69276 v 1.127209 h -0.69276 z m 3.46382,0 h 0.69277 v 1.127209 h -0.69277 z m 3.46382,0.04336 h 0.69276 l -0.0433,1.083854 h -0.69276 z m 3.42053,0 h 0.69276 v 1.127208 h -0.69276 z m 3.463818,0 h 0.692766 v 1.127208 h -0.692766 z m 3.463824,0.04335 h 0.692764 v 1.083854 h -0.692764 z m 3.463822,0 h 0.692767 v 1.127208 h -0.692767 z m 3.463825,0.04335 h 0.692763 v 1.083854 h -0.692763 z m 3.463821,0 h 0.692767 v 1.127208 h -0.692767 z m 3.463825,0.04335 h 0.692764 v 1.083854 h -0.692764 z m 3.463822,0 h 0.692766 v 1.127208 h -0.692766 z m 3.463824,0.04335 h 0.692764 l -0.0433,1.083854 h -0.692767 z m 3.463822,0 h 0.692766 l -0.0433,1.127209 h -0.692763 z m 3.420525,0.04335 h 0.692767 v 1.127209 h -0.692767 z m 3.463825,0.04335 h 0.476276 0.216488 v 1.083855 h -0.216488 -0.476276 z m 3.463822,0 0.692766,0.04335 v 1.083854 h -0.692766 z m 3.463824,0.04335 h 0.649467 0.0433 v 1.127208 h -0.0433 -0.649467 z m 3.463822,0.04335 h 0.692766 v 1.127208 h -0.692766 z m 3.463824,0.04335 h 0.692764 v 1.127208 h -0.692764 z m 3.463822,0.04335 h 0.692767 l -0.0433,1.127208 h -0.649468 z m 3.463826,0.04335 h 0.69276 l -0.0433,1.127209 h -0.69277 z m 3.46382,0.04336 h 0.69277 l -0.0433,1.127208 h -0.69277 z m 3.46382,0.04335 0.69277,0.04335 -0.0433,1.083854 h -0.69276 z m 3.42053,0.08671 h 0.69276 v 1.127208 l -0.69276,-0.04335 z m 3.46382,0.04335 0.69277,0.04335 v 1.083854 h -0.69277 z m 3.46383,0.08671 h 0.69276 v 1.127208 l -0.69276,-0.04335 z m 3.46382,0.08671 h 0.69276 v 1.127208 l -0.69276,-0.04335 z m 3.46382,0.04335 0.25979,0.04335 h 0.43298 l -0.0433,1.083854 h -0.38968 -0.30309 z m 3.46382,0.08671 0.69277,0.04335 -0.0433,1.083855 h -0.69276 z m 3.46383,0.130063 h 0.0866 0.1299 0.12989 0.21649 0.12989 l -0.0433,1.127208 h -0.0866 l -0.25979,-0.04335 h -0.12989 -0.0866 -0.12989 z m 3.4638198,0.08671 h 0.43298 0.25979 l -0.0433,1.127208 h -0.25979 -0.43298 z m 3.46383,0.08671 0.69276,0.04335 -0.0433,1.127208 -0.69276,-0.04335 z m 3.42052,0.130062 0.69276,0.04335 -0.0433,1.083854 h -0.64947 z m 3.46382,0.130062 0.69277,0.04335 -0.0433,1.127208 -0.69276,-0.04335 z m 3.4638304,0.173417 h 0.69276 l -0.0433,1.127208 -0.69276,-0.04335 z m 3.46382,0.130063 0.69277,0.04335 -0.0433,1.127208 -0.69277,-0.04335 z m 3.4638198,0.173416 h 0.0433 l 0.64947,0.04335 -0.0433,1.127207 -0.64947,-0.04335 h -0.0433 z m 3.46383,0.216771 0.69276,0.04335 -0.0866,1.083853 -0.69277,-0.04335 z m 3.46382,0.173417 0.43298,0.04335 h 0.25978 l -0.0866,1.127209 h -0.21649 l -0.47628,-0.04335 z m 3.42052,0.260125 0.69277,0.04335 -0.0433,1.083855 -0.69276,-0.04335 z m 3.46383,0.216771 0.34638,0.04335 0.34638,0.04335 -0.0866,1.083855 -0.34638,-0.04336 h -0.34639 z m 3.46382,0.303478 0.69277,0.04336 -0.0866,1.127207 -0.69276,-0.08671 z m 3.46382,0.30348 h 0.0866 0.12989 l 0.0866,0.04336 h 0.21649 0.17319 l -0.1299,1.127207 h -0.12989 l -0.21649,-0.04335 h -0.12989 -0.0866 v 0 l -0.12989,-0.04335 z m 3.42053,0.346834 h 0.21649 0.12989 l 0.0866,0.04335 h 0.25978 v 0 l -0.12989,1.12721 v 0 l -0.21649,-0.04335 h -0.12989 -0.0866 l -0.21649,-0.04335 z m 3.46382,0.346832 0.34638,0.04336 0.0866,0.04335 h 0.12989 0.1299 l -0.1299,1.127207 -0.12989,-0.04335 h -0.12989 -0.0866 v 0 l -0.34638,-0.04335 z m 3.42053,0.433541 0.69276,0.08671 -0.12989,1.12721 -0.69277,-0.08671 z m 3.46382,0.476898 0.64947,0.08671 -0.12989,1.12721 -0.69277,-0.130064 z m 3.42053,0.520248 0.69276,0.130064 -0.21649,1.083855 -0.64947,-0.130064 z m 3.42052,0.606959 0.69277,0.130064 -0.21649,1.083853 -0.69277,-0.130062 z m 3.42053,0.650312 0.64946,0.173418 -0.21648,1.083853 -0.69277,-0.173416 z m 3.37723,0.780375 h 0.0866 l 0.56287,0.130064 -0.25979,1.083852 -0.56287,-0.130061 v 0 h -0.0866 z m 3.37722,0.82373 0.38968,0.130064 0.25979,0.04335 -0.30309,1.083855 -0.25978,-0.08671 v 0 l -0.38968,-0.08671 z m 3.33393,0.953791 0.64947,0.216771 -0.30309,1.083855 -0.69276,-0.216771 z m 3.29064,1.083855 0.43297,0.173416 0.25979,0.08671 -0.38968,1.040501 -0.25979,-0.08671 v 0 l -0.38968,-0.130062 z m 3.29063,1.257271 h 0.0866 l 0.21649,0.130061 0.34638,0.130064 -0.43297,0.997146 -0.34639,-0.130064 v 0 l -0.21649,-0.08671 -0.0866,-0.04335 z m 3.16073,1.387332 0.25979,0.08671 0.1299,0.08671 0.12989,0.04335 0.12989,0.04335 -0.47627,1.040501 -0.1299,-0.08671 v 0 l -0.12989,-0.04335 -0.0866,-0.04335 v 0 l -0.25978,-0.130064 z m 3.16074,1.560751 0.60617,0.30348 -0.51957,0.997145 -0.60617,-0.346834 z m 3.03085,1.734166 0.60617,0.346835 -0.60617,0.953791 -0.60617,-0.390186 z m 2.90095,1.907585 0.56287,0.390187 -0.64946,0.910436 -0.56288,-0.390186 z m 2.77106,2.124353 h 0.0866 l 0.0866,0.130064 0.12989,0.08671 0.25979,0.21677 v 0 l -0.69276,0.867085 -0.0433,-0.04336 h 0.0433 l -0.25979,-0.173416 v 0 l -0.12989,-0.08671 -0.0866,-0.130061 v 0.04335 l -0.0433,-0.04335 z m 2.68446,2.297772 0.47628,0.476892 -0.73607,0.82373 -0.51957,-0.47689 z m 2.467983,2.471192 0.47627,0.47689 -0.82266,0.78038 -0.47627,-0.52025 z m 2.29478,2.60125 0.0433,0.0433 0.12989,0.13006 0.0866,0.13006 0.21649,0.26013 -0.86595,0.69367 -0.17319,-0.21678 v 0 l -0.1299,-0.13006 v 0 l -0.12989,-0.17342 0.0433,0.0433 -0.0433,-0.0433 z m 2.16489,2.77466 0.38968,0.56361 -0.90926,0.65031 -0.38968,-0.56361 z m 1.9917,2.86138 0.346384,0.60696 -0.909264,0.60695 -0.38967,-0.60695 z m 1.818504,2.99143 0.0866,0.17342 0.25979,0.43354 -0.99585,0.56361 -0.21649,-0.4769 v 0 l -0.0866,-0.13002 z m 1.64532,3.07815 0.12989,0.21677 0.21649,0.39019 -0.99585,0.52025 -0.21649,-0.43354 v 0 l -0.0866,-0.17342 z m 1.55872,3.1215 0.25979,0.60696 0.0433,0.0434 -1.03914,0.43354 v -0.0434 0 l -0.25979,-0.56361 z m 1.38553,3.20821 0.25979,0.65031 -1.03915,0.43354 -0.25979,-0.65031 z m 1.29893,3.20821 0.25979,0.65031 -1.03915,0.39019 -0.25978,-0.65032 z m 1.16904,3.29491 0.1299,0.34684 0.12989,0.30348 -1.03915,0.34683 -0.12989,-0.30348 v 0 l -0.12989,-0.34683 z m 1.12575,3.29492 0.17319,0.69367 -1.03915,0.30347 -0.21649,-0.65031 z m 0.99585,3.338267 0.0433,0.21677 0.1299,0.4769 -1.03915,0.30348 -0.12989,-0.4769 v 0 l -0.0866,-0.21677 z m 0.90925,3.38163 0.17319,0.65031 -1.08244,0.30348 -0.1732,-0.69367 z m 0.86595,3.38162 0.0866,0.34684 0.0433,0.30347 -1.08245,0.26013 -0.0433,-0.30348 v 0 l -0.0866,-0.39019 z m 0.77937,3.38163 0.12989,0.65031 -1.08245,0.26012 -0.12989,-0.69366 z m 0.69276,3.38162 0.12989,0.69367 -1.08244,0.21677 -0.1299,-0.69367 z m 0.64947,3.42498 0.12989,0.69367 -1.08245,0.17342 -0.12989,-0.65032 z m 0.64946,3.42498 0.0866,0.69367 -1.08245,0.17341 -0.12989,-0.69366 z m 0.56287,3.42498 0.0866,0.60696 v 0.0867 l -1.08245,0.17341 v -0.0867 0 l -0.12989,-0.60696 z m 0.51958,3.42498 v 0.0867 l 0.0866,0.60695 -1.08244,0.17342 -0.0866,-0.60696 v 0 l -0.0433,-0.0867 z m 0.47627,3.46833 0.0866,0.60696 v 0.0434 l -1.08245,0.17341 -0.0433,-0.0867 -0.0866,-0.60695 z m 0.43298,3.42498 0.0866,0.69367 -1.08245,0.13006 -0.0866,-0.69367 z m 0.43298,3.46834 0.0433,0.65031 -1.08245,0.13006 -0.0866,-0.69367 z m 0.34638,3.42497 0.0866,0.56361 v 0.13006 l -1.08245,0.13006 -0.0433,-0.17341 v 0.0434 l -0.0433,-0.5636 z m 0.34638,3.46834 0.0866,0.69367 -1.12574,0.0867 -0.0433,-0.69366 z m 0.34639,3.46833 0.0433,0.43354 v 0.26013 l -1.08243,0.0867 -0.0433,-0.26012 v 0 l -0.0433,-0.43354 z m 0.30308,3.42498 0.0433,0.69367 -1.08246,0.0867 -0.0866,-0.69367 z m 0.25979,3.46833 0.0433,0.69367 -1.08244,0.0867 -0.0433,-0.69367 z m 0.25977,3.46834 0.0433,0.69366 -1.08244,0.0867 -0.0433,-0.69366 z m 0.2598,3.46833 0.0433,0.69367 -1.12575,0.0867 -0.0433,-0.69366 z m 0.21648,3.46833 0.0433,0.69367 -1.12575,0.0434 -0.0433,-0.69366 z m 0.21651,3.46834 v 0.69366 l -1.08247,0.0434 -0.0433,-0.69367 z m 0.17319,3.46833 0.0433,0.69367 -1.12575,0.0434 -0.0433,-0.69367 z m 0.17317,3.46833 0.0433,0.69367 -1.12574,0.0434 -0.0433,-0.69366 z m 0.1732,3.46834 0.0433,0.69366 -1.12575,0.0434 -0.0433,-0.69367 z m 0.12988,3.46833 0.0433,0.69367 -1.12574,0.0434 v -0.69367 z m 0.12991,3.46833 0.0433,0.69367 -1.12572,0.0433 v -0.69366 z m 0.12989,3.42498 0.0433,0.39019 v 0.34683 h -1.12575 v -0.30348 0 -0.39018 z m 0.12991,3.46834 0.0433,0.43354 v 0.30348 h -1.12575 v -0.26013 -0.43354 z m 0.12988,3.46833 v 0.69367 l -1.08244,0.0434 -0.0433,-0.69367 z m 0.0866,3.46833 0.0433,0.69367 -1.12573,0.0434 v -0.69366 z m 0.0866,3.46834 0.0433,0.69366 -1.12575,0.0434 v -0.69367 z m 0.0866,3.51168 0.0433,0.65031 -1.12575,0.0434 v -0.69367 z m 0.0866,3.42498 0.0433,0.60696 v 0.13006 h -1.12575 v -0.0867 -0.60696 z m 0.0866,3.46833 v 0.69367 l -1.08244,0.0434 -0.0433,-0.69367 z m 0.0866,3.51169 v 0.69367 h -1.12572 v -0.69367 z m 0.0433,3.42498 v 0.69367 l -1.08247,0.0434 -0.0433,-0.69366 z m 0.0433,3.51169 0.0433,0.69367 h -1.12575 v -0.69367 z m 0.0866,3.46833 v 0.69367 h -1.12575 v -0.69367 z m 0.0433,3.46834 v 0.69366 h -1.08246 l -0.0433,-0.69366 z m 0.0433,3.46833 v 0.69367 h -1.08244 l -0.0433,-0.69367 z m 0.0433,3.46833 v 0.69367 h -1.08243 l -0.0433,-0.69367 z m 0.0433,3.46834 v 0.69366 h -1.08244 l -0.0433,-0.69366 z m 0.0433,3.46833 v 0.69367 h -1.12572 v -0.69367 z m 0.0433,3.46833 v 0.69367 h -1.12574 v -0.69367 z"
       style="fill:#ff0000;fill-opacity:1;fill-rule:nonzero;stroke:#ff0000;stroke-width:0.69276464px;stroke-linecap:butt;stroke-linejoin:bevel;stroke-miterlimit:10;stroke-dasharray:none;stroke-opacity:1"
       inkscape:connector-curvature="0" />
    <path
       id="path3741"
       d="m 122.1285,254.36836 v -1.21392 h 1.08244 v 1.25727 z m 0.0433,-4.03194 v -0.69367 l 1.08244,0.0434 v 0.69366 z m 0,-3.46833 0.0433,-0.65032 h 1.08243 v 0.69367 z m 0.0433,-3.42498 v -0.69367 h 1.12575 v 0.69367 z m 0.0433,-3.51169 v -0.69367 l 1.12575,0.0434 v 0.69366 z m 0.0433,-3.46834 v -0.69366 l 1.12575,0.0434 v 0.69367 z m 0.0433,-3.46833 v -0.69366 l 1.12575,0.0434 v 0.69367 z m 0.0433,-3.46833 0.0433,-0.69367 1.08246,0.0434 v 0.69366 z m 0.0866,-3.46833 v -0.69367 l 1.12575,0.0434 -0.0433,0.69367 z m 0.0433,-3.46834 v -0.69366 l 1.12575,0.0434 v 0.69367 z m 0.0866,-3.46833 v -0.69367 l 1.08243,0.0434 v 0.69366 z m 0.0433,-3.46834 0.0433,-0.69366 1.08244,0.0434 v 0.69367 z m 0.0866,-3.46833 v -0.69366 l 1.12575,0.0434 v 0.69367 z m 0.0866,-3.46833 v -0.69367 l 1.12575,0.0434 -0.0433,0.69366 z m 0.0866,-3.46833 v -0.69367 l 1.12575,0.0434 -0.0433,0.69367 z m 0.0866,-3.46834 0.0433,-0.69366 1.08243,0.0434 v 0.69367 z m 0.0866,-3.46833 0.0433,-0.69367 1.08243,0.0434 v 0.69366 z m 0.12989,-3.46833 0.0433,-0.69367 1.08244,0.0434 v 0.69367 z m 0.12991,-3.46834 v -0.69366 l 1.12575,0.0434 -0.0433,0.69367 z m 0.12988,-3.46833 v -0.65031 l 1.12575,0.0434 -0.0433,0.69367 z m 0.12991,-3.42498 0.0433,-0.69367 1.08243,0.0434 -0.0433,0.69366 z m 0.12989,-3.46833 0.0433,-0.69367 1.12575,0.0434 -0.0433,0.69367 z m 0.17319,-3.46834 V 177.328 l 0.0433,-0.47689 1.08243,0.0434 v 0.4769 0 0.21677 z m 0.17317,-3.46833 0.0433,-0.69367 1.12575,0.0434 -0.0433,0.69366 z m 0.21651,-3.46833 0.0433,-0.69367 1.08243,0.0434 -0.0433,0.69367 z m 0.1732,-3.46834 0.0433,-0.60695 v -0.0867 l 1.12575,0.0434 v 0.0867 l -0.0433,0.60696 z m 0.21648,-3.46833 0.0866,-0.69367 1.08243,0.0867 -0.0433,0.69367 z m 0.25979,-3.46833 0.0433,-0.69367 1.12575,0.0867 -0.0866,0.69367 z m 0.25977,-3.46834 0.0433,-0.69366 1.12573,0.0867 -0.0866,0.69367 z m 0.2598,-3.46833 0.0866,-0.69367 1.08244,0.13007 -0.0433,0.69366 z m 0.30308,-3.42498 0.0866,-0.60696 v -0.0867 l 1.08244,0.0867 v 0.0867 0 l -0.0433,0.60696 z m 0.34639,-3.46833 0.0433,-0.69367 1.12575,0.0867 -0.0866,0.69367 z m 0.34636,-3.46834 0.0866,-0.69366 1.08247,0.13006 -0.0866,0.69367 z m 0.38968,-3.42497 0.0433,-0.65032 0.0433,-0.0433 1.08246,0.13006 v 0.0434 l -0.0866,0.60695 z m 0.38968,-3.46834 0.0433,-0.17342 0.0433,-0.52025 1.12575,0.13007 -0.0866,0.5636 v 0 0.13006 z m 0.43299,-3.42498 0.0866,-0.39018 0.0433,-0.30348 1.08246,0.13006 -0.0433,0.30348 v 0 l -0.0433,0.39019 z m 0.51956,-3.46833 v -0.0867 l 0.0866,-0.60696 1.08246,0.17342 -0.0866,0.5636 v 0 0.13007 z m 0.51959,-3.42498 0.0866,-0.69367 1.12572,0.17342 -0.12988,0.69367 z m 0.56288,-3.42498 0.12988,-0.69367 1.08244,0.17342 -0.12989,0.69367 z m 0.60616,-3.42498 0.0866,-0.5636 0.0433,-0.13007 1.08246,0.21677 -0.0433,0.13007 v 0 l -0.0866,0.5636 z m 0.64947,-3.42498 0.12988,-0.69366 1.08244,0.26012 -0.12988,0.65031 z m 0.73604,-3.38162 0.0433,-0.30348 0.0866,-0.39019 1.08244,0.26012 -0.0866,0.39019 v -0.0434 l -0.0433,0.30348 z m 0.77939,-3.42498 0.12988,-0.65031 1.08244,0.26012 -0.12989,0.65031 z m 0.82264,-3.33827 0.1732,-0.69367 1.08243,0.30348 -0.17319,0.65031 z m 0.90927,-3.38163 0.21648,-0.65031 1.03915,0.30348 -0.1732,0.65031 z m 1.03915,-3.338267 0.0866,-0.26012 0.0866,-0.39019 1.08246,0.34683 -0.12991,0.34683 v 0 l -0.0866,0.30348 z m 1.08243,-3.29491 0.21649,-0.65032 1.03915,0.34684 -0.21648,0.65031 z m 1.16904,-3.29492 v 0 l 0.25979,-0.60696 v -0.0434 l 1.03916,0.43354 h -0.0433 v 0 l -0.21648,0.60696 v 0 0 z m 1.29895,-3.20821 0.25976,-0.65031 1.03915,0.43354 -0.25979,0.65031 z m 1.38551,-3.20821 0.30308,-0.60696 0.99587,0.4769 -0.30311,0.60696 z m 1.55872,-3.1215 0.34639,-0.60696 0.95255,0.52025 -0.30308,0.60696 z m 1.64531,-3.07814 0.17319,-0.21678 0.21651,-0.39018 0.95253,0.5636 -0.21648,0.39019 v 0 l -0.12994,0.21677 z m 1.86182,-2.99144 0.38968,-0.56361 0.90924,0.60696 -0.38968,0.60696 z m 1.94839,-2.86138 0.43299,-0.5636 0.86595,0.65031 -0.38967,0.56361 z m 2.1649,-2.77466 0.43296,-0.52025 0.86596,0.69366 -0.43297,0.56361 z m 2.29478,-2.60125 0.47628,-0.52025 h 0.0433 l 0.77935,0.78037 h -0.0433 0.0433 l -0.47627,0.4769 z m 2.51127,-2.471191 v -0.04335 l 0.21648,-0.173416 0.2598,-0.260125 0.77935,0.823732 -0.30308,0.26012 v 0 l -0.21648,0.17342 v 0 0 z m 2.64118,-2.297772 0.51956,-0.433541 0.69276,0.867082 -0.51957,0.433544 z m 2.77103,-2.124353 0.56287,-0.390189 0.64948,0.910437 -0.60616,0.390189 z m 2.90097,-1.950939 0.60616,-0.346832 0.56288,0.953791 -0.56288,0.346835 z m 3.03083,-1.734167 0.1732,-0.08671 0.47627,-0.216773 0.47628,0.997145 -0.43297,0.216774 v 0 l -0.17319,0.08671 z m 3.16074,-1.517396 0.1732,-0.130061 0.12991,-0.04336 0.12988,-0.04335 0.1732,-0.08671 0.47627,0.997146 -0.21651,0.08671 v 0 l -0.0866,0.08671 -0.12991,0.04335 v 0 l -0.17319,0.08671 z m 3.20405,-1.387332 0.60616,-0.260125 h 0.0433 l 0.38968,1.040501 h -0.0433 v 0 l -0.60616,0.260125 z m 3.24734,-1.257271 0.64944,-0.21677 0.3464,1.0405 -0.64948,0.260125 z m 3.29062,-1.083855 0.69276,-0.173416 0.30308,1.040501 -0.64945,0.21677 z m 3.37722,-0.953791 0.38968,-0.08671 0.25979,-0.08671 0.2598,1.083853 -0.21648,0.04335 v 0 l -0.43299,0.130064 z m 3.33394,-0.82373 0.69275,-0.173416 0.2598,1.083855 -0.69276,0.173416 z m 3.42053,-0.780375 0.25979,-0.04335 0.38968,-0.08671 0.25977,1.083855 -0.43296,0.08671 v 0 l -0.2598,0.04336 z m 3.37722,-0.650312 0.47628,-0.08671 0.21648,-0.04335 0.21651,1.083853 -0.2598,0.04335 v 0 l -0.43299,0.08671 z m 3.42053,-0.606959 h 0.1732 l 0.51956,-0.08671 v 0 l 0.1732,1.083853 v 0 0 l -0.51959,0.08671 h -0.12988 z m 3.46382,-0.520248 h 0.0866 l 0.12989,-0.04335 h 0.12991 l 0.25976,-0.04335 h 0.0433 l 0.17317,1.083855 h -0.0866 l -0.2165,0.04335 -0.12989,0.04336 h -0.12988 v 0 h -0.12991 z m 3.42054,-0.476898 0.56284,-0.04335 0.0866,-0.04335 h 0.0433 l 0.12988,1.083852 -0.0433,0.04335 h -0.0866 v 0 l -0.56288,0.08671 z m 3.4205,-0.433541 0.69279,-0.04335 0.12988,1.083855 -0.69276,0.08671 z m 3.46382,-0.346832 0.69279,-0.08671 0.12988,1.127207 -0.69276,0.04336 z m 3.46385,-0.346834 0.69276,-0.08671 0.0866,1.12721 -0.69278,0.04335 z m 3.42051,-0.30348 0.69278,-0.08671 0.0866,1.127209 -0.64944,0.04335 z m 3.46381,-0.303478 0.69279,-0.04335 0.0866,1.127209 -0.69279,0.04335 z m 3.46385,-0.216771 0.69276,-0.04335 0.0866,1.083854 -0.69279,0.04335 z m 3.46382,-0.260125 h 0.0866 l 0.60616,-0.04335 0.0433,1.127208 -0.56284,0.04336 h -0.12992 z m 3.42051,-0.173417 0.69278,-0.04335 0.0866,1.083855 -0.69279,0.04335 z m 3.46384,-0.216771 h 0.56285 l 0.12991,-0.04335 0.0866,1.127208 h -0.1732 l -0.51959,0.04335 z m 3.46382,-0.173416 h 0.0866 l 0.60616,-0.04335 0.0433,1.127209 -0.60617,0.04335 h -0.0866 z"
       style="fill:#ff0000;fill-opacity:1;fill-rule:nonzero;stroke:#ff0000;stroke-width:0.69276464px;stroke-linecap:butt;stroke-linejoin:bevel;stroke-miterlimit:10;stroke-dasharray:none;stroke-opacity:1"
       inkscape:connector-curvature="0" />
    <path
       id="path3743"
       d="m 630.03738,912.36283 v 31.46079 h 2.61833 v -31.46079 z"
       clip-path="url(#clipEmfPath1)"
       style="fill:#ffffff;fill-opacity:1;fill-rule:evenodd;stroke:none"
       inkscape:connector-curvature="0"
       transform="matrix(0.26458333,0,0,0.26458333,-145.97231,19.562192)" />
    <path
       id="path3745"
       d="M 246.95603,258.53036 H -130.77389"
       style="fill:none;stroke:#666666;stroke-width:0.34638232px;stroke-linecap:square;stroke-linejoin:miter;stroke-miterlimit:3;stroke-dasharray:none;stroke-opacity:1"
       inkscape:connector-curvature="0" />
    <path
       id="path3747"
       d="M -130.77389,258.53036 V 24.417859"
       style="fill:none;stroke:#666666;stroke-width:0.34638232px;stroke-linecap:square;stroke-linejoin:miter;stroke-miterlimit:3;stroke-dasharray:none;stroke-opacity:1"
       inkscape:connector-curvature="0" />
    <path
       id="path3749"
       d="M -130.77389,24.417859 H 246.95603"
       style="fill:none;stroke:#666666;stroke-width:0.34638232px;stroke-linecap:square;stroke-linejoin:miter;stroke-miterlimit:3;stroke-dasharray:none;stroke-opacity:1"
       inkscape:connector-curvature="0" />
    <path
       id="path3751"
       d="M 246.95603,24.417859 V 258.53036"
       style="fill:none;stroke:#666666;stroke-width:0.34638232px;stroke-linecap:square;stroke-linejoin:miter;stroke-miterlimit:3;stroke-dasharray:none;stroke-opacity:1"
       inkscape:connector-curvature="0" />
    <path
       id="path3753"
       d="m -123.24007,258.53036 v -2.77467"
       style="fill:none;stroke:#666666;stroke-width:0.34638232px;stroke-linecap:butt;stroke-linejoin:miter;stroke-miterlimit:3;stroke-dasharray:none;stroke-opacity:1"
       inkscape:connector-curvature="0" />
    <text
       id="text3759"
       y="267.2012"
       x="-128.6523"
       style="font-style:normal;font-variant:normal;font-weight:400;font-size:9.01237011px;line-height:125%;font-family:Arial;text-align:start;letter-spacing:0px;word-spacing:0px;text-anchor:start;fill:#000000;fill-opacity:1;stroke:none;stroke-width:0.26458332"
       xml:space="preserve"><tspan
         id="tspan3757"
         y="267.2012"
         x="-128.6523"
         sodipodi:role="line"
         style="stroke-width:0.26458332"><tspan
           id="tspan3755"
           style="font-style:normal;font-variant:normal;font-weight:400;font-size:9.01237011px;font-family:Arial;fill:#666666;stroke-width:0.26458332"
           dy="0"
           dx="0">0.1</tspan></tspan></text>
    <path
       id="path3761"
       d="m -128.6523,267.20119 m 250.91068,-8.67083 v -2.77467"
       style="fill:none;stroke:#666666;stroke-width:0.34638232px;stroke-linecap:butt;stroke-linejoin:miter;stroke-miterlimit:3;stroke-dasharray:none;stroke-opacity:1"
       inkscape:connector-curvature="0" />
    <text
       id="text3767"
       y="267.2012"
       x="120.05021"
       style="font-style:normal;font-variant:normal;font-weight:400;font-size:9.01237011px;line-height:125%;font-family:Arial;text-align:start;letter-spacing:0px;word-spacing:0px;text-anchor:start;fill:#000000;fill-opacity:1;stroke:none;stroke-width:0.26458332"
       xml:space="preserve"><tspan
         id="tspan3765"
         y="267.2012"
         x="120.05021"
         sodipodi:role="line"
         style="stroke-width:0.26458332"><tspan
           id="tspan3763"
           style="font-style:normal;font-variant:normal;font-weight:400;font-size:9.01237011px;font-family:Arial;fill:#666666;stroke-width:0.26458332"
           dy="0"
           dx="0">1</tspan></tspan></text>
    <path
       id="path3769"
       d="m 120.0502,267.20119 m -169.380949,-8.67083 v -1.43069"
       style="fill:none;stroke:#666666;stroke-width:0.38968012px;stroke-linecap:butt;stroke-linejoin:miter;stroke-miterlimit:3;stroke-dasharray:none;stroke-opacity:1"
       inkscape:connector-curvature="0" />
    <path
       id="path3771"
       d="m -6.1195572,258.53036 v -1.43069"
       style="fill:none;stroke:#666666;stroke-width:0.38968012px;stroke-linecap:butt;stroke-linejoin:miter;stroke-miterlimit:3;stroke-dasharray:none;stroke-opacity:1"
       inkscape:connector-curvature="0" />
    <path
       id="path3773"
       d="m 24.578573,258.53036 v -1.43069"
       style="fill:none;stroke:#666666;stroke-width:0.38968012px;stroke-linecap:butt;stroke-linejoin:miter;stroke-miterlimit:3;stroke-dasharray:none;stroke-opacity:1"
       inkscape:connector-curvature="0" />
    <path
       id="path3775"
       d="m 48.349063,258.53036 v -1.43069"
       style="fill:none;stroke:#666666;stroke-width:0.38968012px;stroke-linecap:butt;stroke-linejoin:miter;stroke-miterlimit:3;stroke-dasharray:none;stroke-opacity:1"
       inkscape:connector-curvature="0" />
    <path
       id="path3777"
       d="m 67.789773,258.53036 v -1.43069"
       style="fill:none;stroke:#666666;stroke-width:0.38968012px;stroke-linecap:butt;stroke-linejoin:miter;stroke-miterlimit:3;stroke-dasharray:none;stroke-opacity:1"
       inkscape:connector-curvature="0" />
    <path
       id="path3779"
       d="m 84.242933,258.53036 v -1.43069"
       style="fill:none;stroke:#666666;stroke-width:0.38968012px;stroke-linecap:butt;stroke-linejoin:miter;stroke-miterlimit:3;stroke-dasharray:none;stroke-opacity:1"
       inkscape:connector-curvature="0" />
    <path
       id="path3781"
       d="m 98.487906,258.53036 v -1.43069"
       style="fill:none;stroke:#666666;stroke-width:0.38968012px;stroke-linecap:butt;stroke-linejoin:miter;stroke-miterlimit:3;stroke-dasharray:none;stroke-opacity:1"
       inkscape:connector-curvature="0" />
    <path
       id="path3783"
       d="m 111.04427,258.53036 v -1.43069"
       style="fill:none;stroke:#666666;stroke-width:0.38968012px;stroke-linecap:butt;stroke-linejoin:miter;stroke-miterlimit:3;stroke-dasharray:none;stroke-opacity:1"
       inkscape:connector-curvature="0" />
    <path
       id="path3785"
       d="m -130.77389,251.85382 h 2.77106"
       style="fill:none;stroke:#666666;stroke-width:0.34638232px;stroke-linecap:butt;stroke-linejoin:miter;stroke-miterlimit:3;stroke-dasharray:none;stroke-opacity:1"
       inkscape:connector-curvature="0" />
    <path
       id="path3787"
       d="m -145.32194,252.02723 v 0.52025 h 2.94425 v -0.52025 z"
       style="fill:#666666;fill-opacity:1;fill-rule:evenodd;stroke:none;stroke-width:0.26458332"
       inkscape:connector-curvature="0" />
    <text
       id="text3793"
       y="254.02155"
       x="-141.12207"
       style="font-style:normal;font-variant:normal;font-weight:400;font-size:9.01237011px;line-height:125%;font-family:Arial;text-align:start;letter-spacing:0px;word-spacing:0px;text-anchor:start;fill:#000000;fill-opacity:1;stroke:none;stroke-width:0.26458332"
       xml:space="preserve"><tspan
         id="tspan3791"
         y="254.02155"
         x="-141.12207"
         sodipodi:role="line"
         style="stroke-width:0.26458332"><tspan
           id="tspan3789"
           style="font-style:normal;font-variant:normal;font-weight:400;font-size:9.01237011px;font-family:Arial;fill:#666666;stroke-width:0.26458332"
           dy="0"
           dx="0">40</tspan></tspan></text>
    <path
       id="path3795"
       d="m -141.12206,254.02152 m 10.34817,-54.36612 h 2.77106"
       style="fill:none;stroke:#666666;stroke-width:0.34638232px;stroke-linecap:butt;stroke-linejoin:miter;stroke-miterlimit:3;stroke-dasharray:none;stroke-opacity:1"
       inkscape:connector-curvature="0" />
    <path
       id="path3797"
       d="m -145.32194,199.87217 v 0.52025 h 2.94425 v -0.52025 z"
       style="fill:#666666;fill-opacity:1;fill-rule:evenodd;stroke:none;stroke-width:0.26458332"
       inkscape:connector-curvature="0" />
    <text
       id="text3803"
       y="201.99652"
       x="-141.12207"
       style="font-style:normal;font-variant:normal;font-weight:400;font-size:9.01237011px;line-height:125%;font-family:Arial;text-align:start;letter-spacing:0px;word-spacing:0px;text-anchor:start;fill:#000000;fill-opacity:1;stroke:none;stroke-width:0.26458332"
       xml:space="preserve"><tspan
         id="tspan3801"
         y="201.99652"
         x="-141.12207"
         sodipodi:role="line"
         style="stroke-width:0.26458332"><tspan
           id="tspan3799"
           style="font-style:normal;font-variant:normal;font-weight:400;font-size:9.01237011px;font-family:Arial;fill:#666666;stroke-width:0.26458332"
           dy="0"
           dx="0">30</tspan></tspan></text>
    <path
       id="path3805"
       d="m -141.12206,201.99652 m 10.34817,-54.49618 h 2.77106"
       style="fill:none;stroke:#666666;stroke-width:0.34638232px;stroke-linecap:butt;stroke-linejoin:miter;stroke-miterlimit:3;stroke-dasharray:none;stroke-opacity:1"
       inkscape:connector-curvature="0" />
    <path
       id="path3807"
       d="m -145.32194,147.71711 v 0.52025 h 2.94425 v -0.52025 z"
       style="fill:#666666;fill-opacity:1;fill-rule:evenodd;stroke:none;stroke-width:0.26458332"
       inkscape:connector-curvature="0" />
    <text
       id="text3813"
       y="149.27786"
       x="-141.12207"
       style="font-style:normal;font-variant:normal;font-weight:400;font-size:9.01237011px;line-height:125%;font-family:Arial;text-align:start;letter-spacing:0px;word-spacing:0px;text-anchor:start;fill:#000000;fill-opacity:1;stroke:none;stroke-width:0.26458332"
       xml:space="preserve"><tspan
         id="tspan3811"
         y="149.27786"
         x="-141.12207"
         sodipodi:role="line"
         style="stroke-width:0.26458332"><tspan
           id="tspan3809"
           style="font-style:normal;font-variant:normal;font-weight:400;font-size:9.01237011px;font-family:Arial;fill:#666666;stroke-width:0.26458332"
           dy="0"
           dx="0">20</tspan></tspan></text>
    <path
       id="path3815"
       d="m -141.12206,149.27786 m 10.34817,-53.932587 h 2.77106"
       style="fill:none;stroke:#666666;stroke-width:0.34638232px;stroke-linecap:butt;stroke-linejoin:miter;stroke-miterlimit:3;stroke-dasharray:none;stroke-opacity:1"
       inkscape:connector-curvature="0" />
    <path
       id="path3817"
       d="m -145.32194,95.562043 v 0.4769 h 2.94425 v -0.4769 z"
       style="fill:#666666;fill-opacity:1;fill-rule:evenodd;stroke:none;stroke-width:0.26458332"
       inkscape:connector-curvature="0" />
    <text
       id="text3823"
       y="97.252861"
       x="-141.12207"
       style="font-style:normal;font-variant:normal;font-weight:400;font-size:9.01237011px;line-height:125%;font-family:Arial;text-align:start;letter-spacing:0px;word-spacing:0px;text-anchor:start;fill:#000000;fill-opacity:1;stroke:none;stroke-width:0.26458332"
       xml:space="preserve"><tspan
         id="tspan3821"
         y="97.252861"
         x="-141.12207"
         sodipodi:role="line"
         style="stroke-width:0.26458332"><tspan
           id="tspan3819"
           style="font-style:normal;font-variant:normal;font-weight:400;font-size:9.01237011px;font-family:Arial;fill:#666666;stroke-width:0.26458332"
           dy="0"
           dx="0">10</tspan></tspan></text>
    <path
       id="path3825"
       d="m -141.12206,97.252863 m 10.34817,-54.06265 h 2.77106"
       style="fill:none;stroke:#666666;stroke-width:0.34638232px;stroke-linecap:butt;stroke-linejoin:miter;stroke-miterlimit:3;stroke-dasharray:none;stroke-opacity:1"
       inkscape:connector-curvature="0" />
    <text
       id="text3831"
       y="45.227856"
       x="-136.96547"
       style="font-style:normal;font-variant:normal;font-weight:400;font-size:9.01237011px;line-height:125%;font-family:Arial;text-align:start;letter-spacing:0px;word-spacing:0px;text-anchor:start;fill:#000000;fill-opacity:1;stroke:none;stroke-width:0.26458332"
       xml:space="preserve"><tspan
         id="tspan3829"
         y="45.227856"
         x="-136.96547"
         sodipodi:role="line"
         style="stroke-width:0.26458332"><tspan
           id="tspan3827"
           style="font-style:normal;font-variant:normal;font-weight:400;font-size:9.01237011px;font-family:Arial;fill:#666666;stroke-width:0.26458332"
           dy="0"
           dx="0">0</tspan></tspan></text>
    <path
       id="path3833"
       d="m -136.96547,45.227859 m 6.19158,206.625961 h 1.86181"
       style="fill:none;stroke:#666666;stroke-width:0.08659558px;stroke-linecap:butt;stroke-linejoin:miter;stroke-miterlimit:3;stroke-dasharray:none;stroke-opacity:1"
       inkscape:connector-curvature="0" />
    <path
       id="path3835"
       d="m -130.77389,251.85382 h 1.86181"
       style="fill:none;stroke:#666666;stroke-width:0.08659558px;stroke-linecap:butt;stroke-linejoin:miter;stroke-miterlimit:3;stroke-dasharray:none;stroke-opacity:1"
       inkscape:connector-curvature="0" />
    <path
       id="path3837"
       d="m -130.77389,241.40546 h 1.86181"
       style="fill:none;stroke:#666666;stroke-width:0.08659558px;stroke-linecap:butt;stroke-linejoin:miter;stroke-miterlimit:3;stroke-dasharray:none;stroke-opacity:1"
       inkscape:connector-curvature="0" />
    <path
       id="path3839"
       d="m -130.77389,230.95711 h 1.86181"
       style="fill:none;stroke:#666666;stroke-width:0.08659558px;stroke-linecap:butt;stroke-linejoin:miter;stroke-miterlimit:3;stroke-dasharray:none;stroke-opacity:1"
       inkscape:connector-curvature="0" />
    <path
       id="path3841"
       d="m -130.77389,220.55211 h 1.86181"
       style="fill:none;stroke:#666666;stroke-width:0.08659558px;stroke-linecap:butt;stroke-linejoin:miter;stroke-miterlimit:3;stroke-dasharray:none;stroke-opacity:1"
       inkscape:connector-curvature="0" />
    <path
       id="path3843"
       d="m -130.77389,210.10375 h 1.86181"
       style="fill:none;stroke:#666666;stroke-width:0.08659558px;stroke-linecap:butt;stroke-linejoin:miter;stroke-miterlimit:3;stroke-dasharray:none;stroke-opacity:1"
       inkscape:connector-curvature="0" />
    <path
       id="path3845"
       d="m -130.77389,199.6554 h 1.86181"
       style="fill:none;stroke:#666666;stroke-width:0.08659558px;stroke-linecap:butt;stroke-linejoin:miter;stroke-miterlimit:3;stroke-dasharray:none;stroke-opacity:1"
       inkscape:connector-curvature="0" />
    <path
       id="path3847"
       d="m -130.77389,199.6554 h 1.86181"
       style="fill:none;stroke:#666666;stroke-width:0.08659558px;stroke-linecap:butt;stroke-linejoin:miter;stroke-miterlimit:3;stroke-dasharray:none;stroke-opacity:1"
       inkscape:connector-curvature="0" />
    <path
       id="path3849"
       d="m -130.77389,189.2504 h 1.86181"
       style="fill:none;stroke:#666666;stroke-width:0.08659558px;stroke-linecap:butt;stroke-linejoin:miter;stroke-miterlimit:3;stroke-dasharray:none;stroke-opacity:1"
       inkscape:connector-curvature="0" />
    <path
       id="path3851"
       d="m -130.77389,178.80204 h 1.86181"
       style="fill:none;stroke:#666666;stroke-width:0.08659558px;stroke-linecap:butt;stroke-linejoin:miter;stroke-miterlimit:3;stroke-dasharray:none;stroke-opacity:1"
       inkscape:connector-curvature="0" />
    <path
       id="path3853"
       d="m -130.77389,168.39704 h 1.86181"
       style="fill:none;stroke:#666666;stroke-width:0.08659558px;stroke-linecap:butt;stroke-linejoin:miter;stroke-miterlimit:3;stroke-dasharray:none;stroke-opacity:1"
       inkscape:connector-curvature="0" />
    <path
       id="path3855"
       d="m -130.77389,157.94869 h 1.86181"
       style="fill:none;stroke:#666666;stroke-width:0.08659558px;stroke-linecap:butt;stroke-linejoin:miter;stroke-miterlimit:3;stroke-dasharray:none;stroke-opacity:1"
       inkscape:connector-curvature="0" />
    <path
       id="path3857"
       d="m -130.77389,147.50034 h 1.86181"
       style="fill:none;stroke:#666666;stroke-width:0.08659558px;stroke-linecap:butt;stroke-linejoin:miter;stroke-miterlimit:3;stroke-dasharray:none;stroke-opacity:1"
       inkscape:connector-curvature="0" />
    <path
       id="path3859"
       d="m -130.77389,147.50034 h 1.86181"
       style="fill:none;stroke:#666666;stroke-width:0.08659558px;stroke-linecap:butt;stroke-linejoin:miter;stroke-miterlimit:3;stroke-dasharray:none;stroke-opacity:1"
       inkscape:connector-curvature="0" />
    <path
       id="path3861"
       d="m -130.77389,137.09533 h 1.86181"
       style="fill:none;stroke:#666666;stroke-width:0.08659558px;stroke-linecap:butt;stroke-linejoin:miter;stroke-miterlimit:3;stroke-dasharray:none;stroke-opacity:1"
       inkscape:connector-curvature="0" />
    <path
       id="path3863"
       d="m -130.77389,126.64698 h 1.86181"
       style="fill:none;stroke:#666666;stroke-width:0.08659558px;stroke-linecap:butt;stroke-linejoin:miter;stroke-miterlimit:3;stroke-dasharray:none;stroke-opacity:1"
       inkscape:connector-curvature="0" />
    <path
       id="path3865"
       d="m -130.77389,116.19863 h 1.86181"
       style="fill:none;stroke:#666666;stroke-width:0.08659558px;stroke-linecap:butt;stroke-linejoin:miter;stroke-miterlimit:3;stroke-dasharray:none;stroke-opacity:1"
       inkscape:connector-curvature="0" />
    <path
       id="path3867"
       d="m -130.77389,105.79363 h 1.86181"
       style="fill:none;stroke:#666666;stroke-width:0.08659558px;stroke-linecap:butt;stroke-linejoin:miter;stroke-miterlimit:3;stroke-dasharray:none;stroke-opacity:1"
       inkscape:connector-curvature="0" />
    <path
       id="path3869"
       d="m -130.77389,95.345273 h 1.86181"
       style="fill:none;stroke:#666666;stroke-width:0.08659558px;stroke-linecap:butt;stroke-linejoin:miter;stroke-miterlimit:3;stroke-dasharray:none;stroke-opacity:1"
       inkscape:connector-curvature="0" />
    <path
       id="path3871"
       d="m -130.77389,95.345273 h 1.86181"
       style="fill:none;stroke:#666666;stroke-width:0.08659558px;stroke-linecap:butt;stroke-linejoin:miter;stroke-miterlimit:3;stroke-dasharray:none;stroke-opacity:1"
       inkscape:connector-curvature="0" />
    <path
       id="path3873"
       d="m -130.77389,84.896923 h 1.86181"
       style="fill:none;stroke:#666666;stroke-width:0.08659558px;stroke-linecap:butt;stroke-linejoin:miter;stroke-miterlimit:3;stroke-dasharray:none;stroke-opacity:1"
       inkscape:connector-curvature="0" />
    <path
       id="path3875"
       d="m -130.77389,74.491923 h 1.86181"
       style="fill:none;stroke:#666666;stroke-width:0.08659558px;stroke-linecap:butt;stroke-linejoin:miter;stroke-miterlimit:3;stroke-dasharray:none;stroke-opacity:1"
       inkscape:connector-curvature="0" />
    <path
       id="path3877"
       d="m -130.77389,64.043566 h 1.86181"
       style="fill:none;stroke:#666666;stroke-width:0.08659558px;stroke-linecap:butt;stroke-linejoin:miter;stroke-miterlimit:3;stroke-dasharray:none;stroke-opacity:1"
       inkscape:connector-curvature="0" />
    <path
       id="path3879"
       d="m -130.77389,53.595213 h 1.86181"
       style="fill:none;stroke:#666666;stroke-width:0.08659558px;stroke-linecap:butt;stroke-linejoin:miter;stroke-miterlimit:3;stroke-dasharray:none;stroke-opacity:1"
       inkscape:connector-curvature="0" />
    <path
       id="path3881"
       d="m -130.77389,43.190213 h 1.86181"
       style="fill:none;stroke:#666666;stroke-width:0.08659558px;stroke-linecap:butt;stroke-linejoin:miter;stroke-miterlimit:3;stroke-dasharray:none;stroke-opacity:1"
       inkscape:connector-curvature="0" />
    <path
       id="path3883"
       d="m -130.77389,43.190213 h 1.86181"
       style="fill:none;stroke:#666666;stroke-width:0.08659558px;stroke-linecap:butt;stroke-linejoin:miter;stroke-miterlimit:3;stroke-dasharray:none;stroke-opacity:1"
       inkscape:connector-curvature="0" />
    <path
       id="path3885"
       d="m -130.77389,32.741859 h 1.86181"
       style="fill:none;stroke:#666666;stroke-width:0.08659558px;stroke-linecap:butt;stroke-linejoin:miter;stroke-miterlimit:3;stroke-dasharray:none;stroke-opacity:1"
       inkscape:connector-curvature="0" />
    <path
       id="path3887"
       d="m -123.24007,24.417859 v 2.774667"
       style="fill:none;stroke:#666666;stroke-width:0.34638232px;stroke-linecap:butt;stroke-linejoin:miter;stroke-miterlimit:3;stroke-dasharray:none;stroke-opacity:1"
       inkscape:connector-curvature="0" />
    <path
       id="path3889"
       d="m 122.25838,24.417859 v 2.774667"
       style="fill:none;stroke:#666666;stroke-width:0.34638232px;stroke-linecap:butt;stroke-linejoin:miter;stroke-miterlimit:3;stroke-dasharray:none;stroke-opacity:1"
       inkscape:connector-curvature="0" />
    <path
       id="path3891"
       d="m -49.330749,24.417859 v 1.430688"
       style="fill:none;stroke:#666666;stroke-width:0.38968012px;stroke-linecap:butt;stroke-linejoin:miter;stroke-miterlimit:3;stroke-dasharray:none;stroke-opacity:1"
       inkscape:connector-curvature="0" />
    <path
       id="path3893"
       d="m -6.1195572,24.417859 v 1.430688"
       style="fill:none;stroke:#666666;stroke-width:0.38968012px;stroke-linecap:butt;stroke-linejoin:miter;stroke-miterlimit:3;stroke-dasharray:none;stroke-opacity:1"
       inkscape:connector-curvature="0" />
    <path
       id="path3895"
       d="m 24.578573,24.417859 v 1.430688"
       style="fill:none;stroke:#666666;stroke-width:0.38968012px;stroke-linecap:butt;stroke-linejoin:miter;stroke-miterlimit:3;stroke-dasharray:none;stroke-opacity:1"
       inkscape:connector-curvature="0" />
    <path
       id="path3897"
       d="m 48.349063,24.417859 v 1.430688"
       style="fill:none;stroke:#666666;stroke-width:0.38968012px;stroke-linecap:butt;stroke-linejoin:miter;stroke-miterlimit:3;stroke-dasharray:none;stroke-opacity:1"
       inkscape:connector-curvature="0" />
    <path
       id="path3899"
       d="m 67.789773,24.417859 v 1.430688"
       style="fill:none;stroke:#666666;stroke-width:0.38968012px;stroke-linecap:butt;stroke-linejoin:miter;stroke-miterlimit:3;stroke-dasharray:none;stroke-opacity:1"
       inkscape:connector-curvature="0" />
    <path
       id="path3901"
       d="m 84.242933,24.417859 v 1.430688"
       style="fill:none;stroke:#666666;stroke-width:0.38968012px;stroke-linecap:butt;stroke-linejoin:miter;stroke-miterlimit:3;stroke-dasharray:none;stroke-opacity:1"
       inkscape:connector-curvature="0" />
    <path
       id="path3903"
       d="m 98.487906,24.417859 v 1.430688"
       style="fill:none;stroke:#666666;stroke-width:0.38968012px;stroke-linecap:butt;stroke-linejoin:miter;stroke-miterlimit:3;stroke-dasharray:none;stroke-opacity:1"
       inkscape:connector-curvature="0" />
    <path
       id="path3905"
       d="m 111.04427,24.417859 v 1.430688"
       style="fill:none;stroke:#666666;stroke-width:0.38968012px;stroke-linecap:butt;stroke-linejoin:miter;stroke-miterlimit:3;stroke-dasharray:none;stroke-opacity:1"
       inkscape:connector-curvature="0" />
    <path
       id="path3907"
       d="m 246.95603,251.85382 h -2.77106"
       style="fill:none;stroke:#666666;stroke-width:0.34638232px;stroke-linecap:butt;stroke-linejoin:miter;stroke-miterlimit:3;stroke-dasharray:none;stroke-opacity:1"
       inkscape:connector-curvature="0" />
    <path
       id="path3909"
       d="m 246.95603,199.6554 h -2.77106"
       style="fill:none;stroke:#666666;stroke-width:0.34638232px;stroke-linecap:butt;stroke-linejoin:miter;stroke-miterlimit:3;stroke-dasharray:none;stroke-opacity:1"
       inkscape:connector-curvature="0" />
    <path
       id="path3911"
       d="m 246.95603,147.50034 h -2.77106"
       style="fill:none;stroke:#666666;stroke-width:0.34638232px;stroke-linecap:butt;stroke-linejoin:miter;stroke-miterlimit:3;stroke-dasharray:none;stroke-opacity:1"
       inkscape:connector-curvature="0" />
    <path
       id="path3913"
       d="m 246.95603,95.345273 h -2.77106"
       style="fill:none;stroke:#666666;stroke-width:0.34638232px;stroke-linecap:butt;stroke-linejoin:miter;stroke-miterlimit:3;stroke-dasharray:none;stroke-opacity:1"
       inkscape:connector-curvature="0" />
    <path
       id="path3915"
       d="m 246.95603,43.190213 h -2.77106"
       style="fill:none;stroke:#666666;stroke-width:0.34638232px;stroke-linecap:butt;stroke-linejoin:miter;stroke-miterlimit:3;stroke-dasharray:none;stroke-opacity:1"
       inkscape:connector-curvature="0" />
    <path
       id="path3917"
       d="m 246.95603,251.85382 h -1.9051"
       style="fill:none;stroke:#666666;stroke-width:0.08659558px;stroke-linecap:butt;stroke-linejoin:miter;stroke-miterlimit:3;stroke-dasharray:none;stroke-opacity:1"
       inkscape:connector-curvature="0" />
    <path
       id="path3919"
       d="m 246.95603,251.85382 h -1.9051"
       style="fill:none;stroke:#666666;stroke-width:0.08659558px;stroke-linecap:butt;stroke-linejoin:miter;stroke-miterlimit:3;stroke-dasharray:none;stroke-opacity:1"
       inkscape:connector-curvature="0" />
    <path
       id="path3921"
       d="m 246.95603,241.40546 h -1.9051"
       style="fill:none;stroke:#666666;stroke-width:0.08659558px;stroke-linecap:butt;stroke-linejoin:miter;stroke-miterlimit:3;stroke-dasharray:none;stroke-opacity:1"
       inkscape:connector-curvature="0" />
    <path
       id="path3923"
       d="m 246.95603,230.95711 h -1.9051"
       style="fill:none;stroke:#666666;stroke-width:0.08659558px;stroke-linecap:butt;stroke-linejoin:miter;stroke-miterlimit:3;stroke-dasharray:none;stroke-opacity:1"
       inkscape:connector-curvature="0" />
    <path
       id="path3925"
       d="m 246.95603,220.55211 h -1.9051"
       style="fill:none;stroke:#666666;stroke-width:0.08659558px;stroke-linecap:butt;stroke-linejoin:miter;stroke-miterlimit:3;stroke-dasharray:none;stroke-opacity:1"
       inkscape:connector-curvature="0" />
    <path
       id="path3927"
       d="m 246.95603,210.10375 h -1.9051"
       style="fill:none;stroke:#666666;stroke-width:0.08659558px;stroke-linecap:butt;stroke-linejoin:miter;stroke-miterlimit:3;stroke-dasharray:none;stroke-opacity:1"
       inkscape:connector-curvature="0" />
    <path
       id="path3929"
       d="m 246.95603,199.6554 h -1.9051"
       style="fill:none;stroke:#666666;stroke-width:0.08659558px;stroke-linecap:butt;stroke-linejoin:miter;stroke-miterlimit:3;stroke-dasharray:none;stroke-opacity:1"
       inkscape:connector-curvature="0" />
    <path
       id="path3931"
       d="m 246.95603,199.6554 h -1.9051"
       style="fill:none;stroke:#666666;stroke-width:0.08659558px;stroke-linecap:butt;stroke-linejoin:miter;stroke-miterlimit:3;stroke-dasharray:none;stroke-opacity:1"
       inkscape:connector-curvature="0" />
    <path
       id="path3933"
       d="m 246.95603,189.2504 h -1.9051"
       style="fill:none;stroke:#666666;stroke-width:0.08659558px;stroke-linecap:butt;stroke-linejoin:miter;stroke-miterlimit:3;stroke-dasharray:none;stroke-opacity:1"
       inkscape:connector-curvature="0" />
    <path
       id="path3935"
       d="m 246.95603,178.80204 h -1.9051"
       style="fill:none;stroke:#666666;stroke-width:0.08659558px;stroke-linecap:butt;stroke-linejoin:miter;stroke-miterlimit:3;stroke-dasharray:none;stroke-opacity:1"
       inkscape:connector-curvature="0" />
    <path
       id="path3937"
       d="m 246.95603,168.39704 h -1.9051"
       style="fill:none;stroke:#666666;stroke-width:0.08659558px;stroke-linecap:butt;stroke-linejoin:miter;stroke-miterlimit:3;stroke-dasharray:none;stroke-opacity:1"
       inkscape:connector-curvature="0" />
    <path
       id="path3939"
       d="m 246.95603,157.94869 h -1.9051"
       style="fill:none;stroke:#666666;stroke-width:0.08659558px;stroke-linecap:butt;stroke-linejoin:miter;stroke-miterlimit:3;stroke-dasharray:none;stroke-opacity:1"
       inkscape:connector-curvature="0" />
    <path
       id="path3941"
       d="m 246.95603,147.50034 h -1.9051"
       style="fill:none;stroke:#666666;stroke-width:0.08659558px;stroke-linecap:butt;stroke-linejoin:miter;stroke-miterlimit:3;stroke-dasharray:none;stroke-opacity:1"
       inkscape:connector-curvature="0" />
    <path
       id="path3943"
       d="m 246.95603,147.50034 h -1.9051"
       style="fill:none;stroke:#666666;stroke-width:0.08659558px;stroke-linecap:butt;stroke-linejoin:miter;stroke-miterlimit:3;stroke-dasharray:none;stroke-opacity:1"
       inkscape:connector-curvature="0" />
    <path
       id="path3945"
       d="m 246.95603,137.09533 h -1.9051"
       style="fill:none;stroke:#666666;stroke-width:0.08659558px;stroke-linecap:butt;stroke-linejoin:miter;stroke-miterlimit:3;stroke-dasharray:none;stroke-opacity:1"
       inkscape:connector-curvature="0" />
    <path
       id="path3947"
       d="m 246.95603,126.64698 h -1.9051"
       style="fill:none;stroke:#666666;stroke-width:0.08659558px;stroke-linecap:butt;stroke-linejoin:miter;stroke-miterlimit:3;stroke-dasharray:none;stroke-opacity:1"
       inkscape:connector-curvature="0" />
    <path
       id="path3949"
       d="m 246.95603,116.19863 h -1.9051"
       style="fill:none;stroke:#666666;stroke-width:0.08659558px;stroke-linecap:butt;stroke-linejoin:miter;stroke-miterlimit:3;stroke-dasharray:none;stroke-opacity:1"
       inkscape:connector-curvature="0" />
    <path
       id="path3951"
       d="m 246.95603,105.79363 h -1.9051"
       style="fill:none;stroke:#666666;stroke-width:0.08659558px;stroke-linecap:butt;stroke-linejoin:miter;stroke-miterlimit:3;stroke-dasharray:none;stroke-opacity:1"
       inkscape:connector-curvature="0" />
    <path
       id="path3953"
       d="m 246.95603,95.345273 h -1.9051"
       style="fill:none;stroke:#666666;stroke-width:0.08659558px;stroke-linecap:butt;stroke-linejoin:miter;stroke-miterlimit:3;stroke-dasharray:none;stroke-opacity:1"
       inkscape:connector-curvature="0" />
    <path
       id="path3955"
       d="m 246.95603,95.345273 h -1.9051"
       style="fill:none;stroke:#666666;stroke-width:0.08659558px;stroke-linecap:butt;stroke-linejoin:miter;stroke-miterlimit:3;stroke-dasharray:none;stroke-opacity:1"
       inkscape:connector-curvature="0" />
    <path
       id="path3957"
       d="m 246.95603,84.896923 h -1.9051"
       style="fill:none;stroke:#666666;stroke-width:0.08659558px;stroke-linecap:butt;stroke-linejoin:miter;stroke-miterlimit:3;stroke-dasharray:none;stroke-opacity:1"
       inkscape:connector-curvature="0" />
    <path
       id="path3959"
       d="m 246.95603,74.491923 h -1.9051"
       style="fill:none;stroke:#666666;stroke-width:0.08659558px;stroke-linecap:butt;stroke-linejoin:miter;stroke-miterlimit:3;stroke-dasharray:none;stroke-opacity:1"
       inkscape:connector-curvature="0" />
    <path
       id="path3961"
       d="m 246.95603,64.043566 h -1.9051"
       style="fill:none;stroke:#666666;stroke-width:0.08659558px;stroke-linecap:butt;stroke-linejoin:miter;stroke-miterlimit:3;stroke-dasharray:none;stroke-opacity:1"
       inkscape:connector-curvature="0" />
    <path
       id="path3963"
       d="m 246.95603,53.595213 h -1.9051"
       style="fill:none;stroke:#666666;stroke-width:0.08659558px;stroke-linecap:butt;stroke-linejoin:miter;stroke-miterlimit:3;stroke-dasharray:none;stroke-opacity:1"
       inkscape:connector-curvature="0" />
    <path
       id="path3965"
       d="m 246.95603,43.190213 h -1.9051"
       style="fill:none;stroke:#666666;stroke-width:0.08659558px;stroke-linecap:butt;stroke-linejoin:miter;stroke-miterlimit:3;stroke-dasharray:none;stroke-opacity:1"
       inkscape:connector-curvature="0" />
    <path
       id="path3967"
       d="m 246.95603,43.190213 h -1.9051"
       style="fill:none;stroke:#666666;stroke-width:0.08659558px;stroke-linecap:butt;stroke-linejoin:miter;stroke-miterlimit:3;stroke-dasharray:none;stroke-opacity:1"
       inkscape:connector-curvature="0" />
    <path
       id="path3969"
       d="m 246.95603,32.741859 h -1.9051"
       style="fill:none;stroke:#666666;stroke-width:0.08659558px;stroke-linecap:butt;stroke-linejoin:miter;stroke-miterlimit:3;stroke-dasharray:none;stroke-opacity:1"
       inkscape:connector-curvature="0" />
    <path
       id="path3971"
       d="m 1536.7954,384.08378 h 97.8598"
       clip-path="url(#clipEmfPath2)"
       style="fill:none;stroke:#000000;stroke-width:4.25477505px;stroke-linecap:square;stroke-linejoin:miter;stroke-miterlimit:3;stroke-dasharray:none;stroke-opacity:1"
       inkscape:connector-curvature="0"
       transform="matrix(0.26458333,0,0,0.26458333,-145.97231,19.562192)" />
    <text
       id="text3977"
       y="124.30585"
       x="293.24139"
       style="font-style:normal;font-variant:normal;font-weight:700;font-size:11.07942677px;line-height:125%;font-family:Arial;text-align:start;letter-spacing:0px;word-spacing:0px;text-anchor:start;fill:#000000;fill-opacity:1;stroke:none;stroke-width:0.26458332"
       xml:space="preserve"><tspan
         id="tspan3975"
         y="124.30585"
         x="293.24139"
         sodipodi:role="line"
         style="stroke-width:0.26458332"><tspan
           id="tspan3973"
           style="font-style:normal;font-variant:normal;font-weight:700;font-size:11.07942677px;font-family:Arial;fill:#000000;stroke-width:0.26458332"
           dy="0"
           dx="0">Resistor</tspan></tspan></text>
    <path
       id="path3979"
       d="m 1534.668,442.41732 h 12.6007 v 4.09646 h -12.6007 z m 23.074,0 h 10.4732 v 4.09646 h -10.4732 z m 20.9465,0 h 10.4733 v 4.09646 h -10.4733 z m 20.9466,0 h 10.4733 v 4.09646 h -10.4733 z m 20.9466,0 h 10.3097 v 4.09646 h -10.3097 z"
       clip-path="url(#clipEmfPath3)"
       style="fill:#0000ff;fill-opacity:1;fill-rule:nonzero;stroke:#0000ff;stroke-width:2.61832309px;stroke-linecap:butt;stroke-linejoin:bevel;stroke-miterlimit:4;stroke-dasharray:none;stroke-opacity:1"
       inkscape:connector-curvature="0"
       transform="matrix(0.26458333,0,0,0.26458333,-145.97231,19.562192)" />
    <text
       id="text3985"
       y="140.26019"
       x="293.24139"
       style="font-style:normal;font-variant:normal;font-weight:700;font-size:11.07942677px;line-height:125%;font-family:Arial;text-align:start;letter-spacing:0px;word-spacing:0px;text-anchor:start;fill:#000000;fill-opacity:1;stroke:none;stroke-width:0.26458332"
       xml:space="preserve"><tspan
         id="tspan3983"
         y="140.26019"
         x="293.24139"
         sodipodi:role="line"
         style="stroke-width:0.26458332"><tspan
           id="tspan3981"
           style="font-style:normal;font-variant:normal;font-weight:700;font-size:11.07942677px;font-family:Arial;fill:#000000;stroke-width:0.26458332"
           dy="0"
           dx="0">Capacitor</tspan></tspan></text>
    <path
       id="path3987"
       d="m 1534.668,502.71717 h 4.7457 v 4.09645 h -4.7457 z m 15.219,0 h 10.4733 v 4.09645 h -10.4733 z m 20.9466,0 h 2.6183 v 4.09645 h -2.6183 z m 13.0916,0 h 10.4733 v 4.09645 h -10.4733 z m 20.9466,0 h 2.6183 v 4.09645 h -2.6183 z m 13.0916,0 h 10.3096 v 4.09645 h -10.3096 z"
       clip-path="url(#clipEmfPath4)"
       style="fill:#ff8000;fill-opacity:1;fill-rule:nonzero;stroke:#ff8000;stroke-width:2.61832309px;stroke-linecap:butt;stroke-linejoin:bevel;stroke-miterlimit:4;stroke-dasharray:none;stroke-opacity:1"
       inkscape:connector-curvature="0"
       transform="matrix(0.26458333,0,0,0.26458333,-145.97231,19.562192)" />
    <text
       id="text3993"
       y="156.21452"
       x="293.24139"
       style="font-style:normal;font-variant:normal;font-weight:700;font-size:11.07942677px;line-height:125%;font-family:Arial;text-align:start;letter-spacing:0px;word-spacing:0px;text-anchor:start;fill:#000000;fill-opacity:1;stroke:none;stroke-width:0.26458332"
       xml:space="preserve"><tspan
         id="tspan3991"
         y="156.21452"
         x="293.24139"
         sodipodi:role="line"
         style="stroke-width:0.26458332"><tspan
           id="tspan3989"
           style="font-style:normal;font-variant:normal;font-weight:700;font-size:11.07942677px;font-family:Arial;fill:#000000;stroke-width:0.26458332"
           dy="0"
           dx="0">Inductor</tspan></tspan></text>
    <path
       id="path3995"
       d="m 1534.668,563.01701 h 4.7457 v 4.09645 h -4.7457 z m 15.219,0 h 2.6183 v 4.09645 h -2.6183 z m 13.0916,0 h 2.6183 v 4.09645 h -2.6183 z m 13.0916,0 h 2.6183 v 4.09645 h -2.6183 z m 13.0916,0 h 2.6184 v 4.09645 h -2.6184 z m 13.0916,0 h 2.6184 v 4.09645 h -2.6184 z m 13.0917,0 h 2.6183 v 4.09645 h -2.6183 z m 12.9279,0 h 2.6184 v 4.09645 h -2.6184 z"
       clip-path="url(#clipEmfPath5)"
       style="fill:#ff0000;fill-opacity:1;fill-rule:nonzero;stroke:#ff0000;stroke-width:2.61832309px;stroke-linecap:butt;stroke-linejoin:bevel;stroke-miterlimit:4;stroke-dasharray:none;stroke-opacity:1"
       inkscape:connector-curvature="0"
       transform="matrix(0.26458333,0,0,0.26458333,-145.97231,19.562192)" />
    <text
       id="text4001"
       y="172.16887"
       x="293.24139"
       style="font-style:normal;font-variant:normal;font-weight:700;font-size:11.07942677px;line-height:125%;font-family:Arial;text-align:start;letter-spacing:0px;word-spacing:0px;text-anchor:start;fill:#000000;fill-opacity:1;stroke:none;stroke-width:0.26458332"
       xml:space="preserve"><tspan
         id="tspan3999"
         y="172.16887"
         x="293.24139"
         sodipodi:role="line"
         style="stroke-width:0.26458332"><tspan
           id="tspan3997"
           style="font-style:normal;font-variant:normal;font-weight:700;font-size:11.07942677px;font-family:Arial;fill:#000000;stroke-width:0.26458332"
           dy="0"
           dx="0">Capacitor</tspan></tspan></text>
    <path
       id="path4003"
       d="m 300.64975,172.16886 m 49.57596,-2.081 h -1.6886 v 1.69081 h -1.12575 v -1.69081 h -1.68862 v -1.17057 h 1.68862 v -1.69081 h 1.12575 v 1.69081 h 1.6886 z"
       style="fill:#000000;fill-opacity:1;fill-rule:evenodd;stroke:none;stroke-width:0.26458332"
       inkscape:connector-curvature="0" />
    <text
       id="text4009"
       y="172.16887"
       x="350.98126"
       style="font-style:normal;font-variant:normal;font-weight:700;font-size:11.07942677px;line-height:125%;font-family:Arial;text-align:start;letter-spacing:0px;word-spacing:0px;text-anchor:start;fill:#000000;fill-opacity:1;stroke:none;stroke-width:0.26458332"
       xml:space="preserve"><tspan
         id="tspan4007"
         y="172.16887"
         x="350.98126"
         sodipodi:role="line"
         style="stroke-width:0.26458332"><tspan
           id="tspan4005"
           style="font-style:normal;font-variant:normal;font-weight:700;font-size:11.07942677px;font-family:Arial;fill:#000000;stroke-width:0.26458332"
           dy="0"
           dx="0">Inductor</tspan></tspan></text>
    <text
       xml:space="preserve"
       style="font-style:normal;font-variant:normal;font-weight:700;font-size:11.07942677px;line-height:125%;font-family:Arial;text-align:start;letter-spacing:0px;word-spacing:0px;text-anchor:start;fill:#000000;fill-opacity:1;stroke:none;stroke-width:0.26458332"
       x="-5.1007271"
       y="283.04007"
       id="text303"><tspan
         style="stroke-width:0.26458332"
         sodipodi:role="line"
         x="-5.1007271"
         y="283.04007"
         id="tspan301"><tspan
           style="font-style:normal;font-variant:normal;font-weight:700;font-size:11.07942677px;font-family:Arial;fill:#000000;stroke-width:0.26458332"
           id="tspan299">Angular frequency (rad/s)</tspan></tspan></text>
    <text
       id="text309"
       y="-152.72115"
       x="-188.6183"
       style="font-style:normal;font-variant:normal;font-weight:700;font-size:11.07942677px;line-height:125%;font-family:Arial;text-align:start;letter-spacing:0px;word-spacing:0px;text-anchor:start;fill:#000000;fill-opacity:1;stroke:none;stroke-width:0.26458332"
       xml:space="preserve"
       transform="rotate(-90)"><tspan
         id="tspan307"
         y="-152.72115"
         x="-188.6183"
         sodipodi:role="line"
         style="stroke-width:0.26458332"><tspan
           id="tspan305"
           style="font-style:normal;font-variant:normal;font-weight:700;font-size:11.07942677px;font-family:Arial;fill:#000000;stroke-width:0.26458332">Magnitude (dB)</tspan></tspan></text>
  </g>
</svg>
