<?xml version="1.0" encoding="UTF-8"?>
<!-- Generator: wikimedia.svg.chart, 2013-07-22 -->
<!-- modify viewBox (x,y,dx,dy) for position (x,y) and size (dx,dy) -->
<svg id="head" xmlns="http://www.w3.org/2000/svg" xmlns:xlink="http://www.w3.org/1999/xlink" version="1.1" viewBox="-3990,-15415,28140,19195" width="750" height="510" font-family="Helvetica, Arial">

<!-- also a workaround for librsvg: a <rect> must be placed somewhere before text for a good display of text -->
<rect id="imagebackground" x="-3990" y="-15415" width="28140" height="19195" stroke-width="21" stroke="none" fill="white"/>

<title>Gravity Acceleration of Earth</title>
<desc>
  This svg graphic is to edit with an text editor.
  Please do not overwrite this file by saving with an image editor.
  ----------------
Source of PREM: http://geophysics.ou.edu/solid_earth/prem.html
  Linear density: line with constant rise
  Source of constant density: copied from http://commons.wikimedia.org/wiki/File:EarthGravityPREM.jpg; the base source or calculation is not stated there
  Space: g1 * r1^2 = g0 * r0^2
</desc>

<style id="styles" type="text/css"> <![CDATA[
  .graphgeneral {         /*-- general look of graphs and markers, e.g. in legend --*/
    stroke-width:    147;
    fill:            none;
    stroke-linejoin: round;
    stroke-linecap:  round;
  }
  .graphgeneralstretch {  /*-- general look of graphs and markers on a stretched chart --*/
    stroke-width:    80;
    fill:            none;
    stroke-linejoin: round;
    stroke-linecap:  round;
  }
  .graph1lineblank { /*-- look of graph 1 --*/
    stroke:          rgb(00%, 00%, 60%);
  }
  .graph1line {
    stroke:          rgb(00%, 00%, 60%);
  }
  .graph2lineblank { /*-- look of graph 2 --*/
    stroke:          lightgreen;
  }
  .graph2line {
    stroke:          lightgreen;
  }
  .graph3lineblank { /*-- look of graph 3 --*/
    stroke:          rgb(00%, 60%, 00%);
  }
  .graph3line {
    stroke:          rgb(00%, 60%, 00%);
  }
  .graph4line {
    stroke:          rgb(00%, 60%, 60%);
  }
  .axisline {
    stroke:         black;
    stroke-width:   74;
    stroke-linecap: round;
  }
  .titletext {
    font-size:    1386px;
  }
  .axistext {
    font-size:    1200px;
  }
  .axistext-number {
    font-size:    1100px;
  }
  .charttext {
    font-size:    756px;
    text-anchor:  middle;
  }
  .axismark-main {
    stroke:       black;
    stroke-width: 51;
  }
  .legendtext {
    font-size:    1008px;
    text-anchor:  start;
  }
  .gridline {
    stroke:       black;
    stroke-width: 37;
  }
]]></style>

<defs>
  <!--== axis dashes definitions ==-->
  <!-- x-axis mark, modify "height" -->
  <pattern id="x-axismark-main" x="0" width="3000" height="420" patternUnits="userSpaceOnUse">
    <line x1="0" y1="-1" x2="0" y2="420" class="axismark-main"/>
  </pattern>


  <!-- x-axis gridline vertical, modify "width" -->
  <pattern id="x-gridline" height="26000" width="3000" patternUnits="userSpaceOnUse">
    <line x1="0" x2="0" y1="0" y2="26000" class="gridline"/>
  </pattern>


  <!-- y-axis gridline horizontal, modify "height" -->
  <pattern id="y-gridline" width="28000" height="2000" patternUnits="userSpaceOnUse">
    <line x1="0" x2="28000" y1="0" y2="0" class="gridline"/>
  </pattern>

  <!-- y-axis mark, modify "width" -->
  <pattern id="y-axismark-main" width="420" height="2000" patternUnits="userSpaceOnUse">
    <line x1="-1" y1="0" x2="420" y2="0" class="axismark-main"/>
  </pattern>

  <!-- y-axis2 mark, modify "width" -->
  <pattern id="y-axis2mark-main" width="210" height="10" patternUnits="userSpaceOnUse">
    <line x1="-1" y1="0" x2="11" y2="0" class="axismark-main"/>
  </pattern>
</defs>

<!-- Background SVG -->
<g transform="scale(1.5, -1)">
<defs>
   <linearGradient id="space-fill" x1="0" x2="1" y1="1" y2="1">
     <stop stop-color="rgb(254, 254, 254)" offset="0"/>
     <stop stop-color="rgb(233, 233, 233)" offset="1"/>
   </linearGradient>
 </defs>
 <rect x="0" y="0" width="1221.5" height="13000" fill="rgb(255, 212, 125)"/>
 <rect x="1221.5" y="0" width="2258.5" height="13000" fill="rgb(255, 227, 146)"/>
 <rect x="3480" y="0" width="2221" height="13000" fill="rgb(255, 239, 187)"/>
 <rect x="5701" y="0" width="670" height="13000" fill="rgb(255, 250, 214)"/>
 <rect x="6371" y="0" width="7629" height="13000" fill="url(#space-fill)"/>
 <g class="axismark-main" style="stroke:rgb(45%,45%,45%)">
   <line x1="6371" x2="6371" y1="0" y2="11100"/>
   <line x1="6371" x2="6371" y1="11700" y2="12100"/>
   <line x1="6371" x2="6371" y1="12700" y2="13000"/>
 </g>
</g>

<g transform="scale(1, -1)">

  <rect id="x-gridline-area" x="0.3" y="0" width="21420" height="13000" fill="url(#x-gridline)"/>

  <rect id="y-gridline-area" x="0" y="0.3" width="21000" height="13260" fill="url(#y-gridline)"/>

  <!-- x axis, modify "x2" and "width" -->
  <rect id="x-axismark" x="-105" y="-367.5" width="21420" height="367.5" fill="url(#x-axismark-main)"/>
  <line id="x-axis" x1="0" y1="0" x2="21000" y2="0" class="axisline"/>

  <!-- y axis, modify "height" -->
  <rect id="y-axismark" x="-367.5" y="-105 " width="367.5" height="13001" fill="url(#y-axismark-main)"/>
  <line id="y-axis" x1="0" y1="0" x2="0" y2="13000" class="axisline"/>
</g>

<!-- x axis text, modify each value -->
<g id="axistext-x" class="axistext-number" transform="translate(0, 1512)" text-anchor="middle">
  <text x="0">0</text>
  <text x="3000">2</text>
  <text x="6000">4</text>
  <text x="9000">6</text>
  <text x="12000">8</text>
  <text x="15000">10</text>
  <text x="18000">12</text>
  <text x="21000">14</text>
  <switch>
    <text systemLanguage="en" id="title-x" class="axistext" x="10500" y="1474.2">radius in 1000 km</text>
    <text systemLanguage="ca" id="title-x" class="axistext-x" x="10500" y="1474.2">Radi [1000 km]</text>
    <text systemLanguage="de" id="title-x" class="axistext" x="10500" y="1474.2">Radius [1000 km]</text>
    <text systemLanguage="es" id="title-x" class="axistext" x="10500" y="1474.2">Radio [1000 km]</text>
	<text systemLanguage="fr" id="title-x" class="axistext" x="10500" y="1474.2">Rayon en milliers de kilomètres</text>
  </switch>
</g>

<!-- y axis text, modify each value -->
<g id="axistext-y" class="axistext-number" text-anchor="end" transform="translate(-630, 315)">
  <text y="-0">0</text>
  <text y="-2000">2</text>
  <text y="-4000">4</text>
  <text y="-6000">6</text>
  <text y="-8000">8</text>
  <text y="-10000">10</text>
  <text y="-12000">12</text>
  <switch>
    <text systemLanguage="en" id="title-y" class="axistext" x="6500" y="-1938.5" transform="rotate(-90)" text-anchor="middle">acceleration in m/s<tspan dy="-1ex" font-size="70%">2</tspan></text>
    <text systemLanguage="ca" id="title-y" x="6500" y="-2290.9" transform="rotate(-90)" text-anchor="middle">Acceleració [m/s<tspan dy="-1ex" font-size="70%">2</tspan><tspan dy="1ex" font-size="70%">​</tspan>]</text>
    <text systemLanguage="de" id="title-y" class="axistext" x="6500" y="-1938.5" transform="rotate(-90)" text-anchor="middle">Beschleunigung [m/s<tspan dy="-1ex" font-size="70%">2</tspan><tspan dy="1ex" font-size="70%">​</tspan>]</text><!-- &#x200B; zero width space -->
    <text systemLanguage="es" id="title-y" class="axistext" x="6500" y="-1938.5" transform="rotate(-90)" text-anchor="middle">Aceleración [m/s<tspan dy="-1ex" font-size="70%">2</tspan><tspan dy="1ex" font-size="70%">​</tspan>]</text>
	<text systemLanguage="fr" id="title-y" class="axistext" x="6500" y="-1938.5" transform="rotate(-90)" text-anchor="middle">m/s²<!--<tspan dy="-1ex" font-size="70%">2</tspan><tspan dy="1ex" font-size="70%">​</tspan>]--></text>
  </switch>
</g>

<!-- legend -->
<g id="legend" class="legendtext" transform="translate(13650, -10270)">
  <g id="legend-background" class="axismark-main">
    <rect x="0" y="0" fill="white" width="9996" height="3830.4"/>
  </g>
  <g class="graphgeneral"><g class="graph1line">
    <polyline id="legend-line1" points="420 776.16 1470 776.16" marker-start="none" marker-end="none"/>
  </g></g>
  <g class="graphgeneral"><g class="graph2line">
    <polyline id="legend-line2" points="420 1884.96 1470 1884.96" marker-start="none" marker-end="none"/>
  </g></g>
  <g class="graphgeneral"><g class="graph3line">
    <polyline id="legend-line3" points="420 2993.76 1470 2993.76" marker-start="none" marker-end="none"/>
  </g></g>
  <switch>
    <g systemLanguage="en">
      <text id="legend-text1" x="1890" y="1075.54">PREM</text>
      <text id="legend-text2" x="1890" y="2184.34">Linear density</text>
      <text id="legend-text3" x="1890" y="3293.14">Constant density</text>
    </g>
    <g systemLanguage="ca">
      <text id="legend-text1" x="1890" y="1075.54">PREM</text>
      <text id="legend-text2" x="1890" y="2184.34">Densitat lineal</text>
      <text id="legend-text3" x="1890" y="3293.14">Densitat constant</text>
    </g>
    <g systemLanguage="de">
      <text id="legend-text1" x="1890" y="1075.54">PREM</text>
      <text id="legend-text2" x="1890" y="2184.34">Lineare Dichte</text>
      <text id="legend-text3" x="1890" y="3293.14">Konstante Dichte</text>
    </g>
    <g systemLanguage="es">
      <text id="legend-text1" x="1890" y="1075.54">PREM</text>
      <text id="legend-text2" x="1890" y="2184.34">Densidad lineal</text>
      <text id="legend-text3" x="1890" y="3293.14">Densidad constante</text>
    </g>
    <g systemLanguage="fr">
      <text id="legend-text1" x="1890" y="1075.54">PREM</text>
      <text id="legend-text2" x="1890" y="2184.34">Densité linéaire</text>
      <text id="legend-text3" x="1890" y="3293.14">Densité constante</text>
    </g>
  </switch>
</g>

<!-- additional text -->
<switch>
  <text systemLanguage="en" id="title" class="titletext" text-anchor="middle" x="10500" y="-13910">Free-fall acceleration of Earth</text>
  <text systemLanguage="ca" id="title" class="titletext" text-anchor="middle" x="10500" y="-13910">Acceleració de la gravetat a la Terra</text>
  <text systemLanguage="de" id="title" class="titletext" text-anchor="middle" x="10500" y="-13910">Fallbeschleunigung der Erde</text>
  <text systemLanguage="es" id="title" class="titletext" text-anchor="middle" x="10500" y="-13910">Aceleración de la gravedad en la tierra</text>
  <text systemLanguage="fr" id="title" class="titletext" text-anchor="middle" x="10500" y="-13910">Gravité depuis le centre de la Terre</text>
  </switch>

<!--====== graph data with origin values, you can manually copy or attach the values here ======-->
<!-- modify displacement "translate" -->
<defs>
<g id="graphs">
  <!-- Constant density -->
  <polyline id="graph3" points="     0     0     6371  9816   "/>
  <!-- Linear density -->
  <polyline id="graph2" points="     0     0      127   454      255   898      382  1333      510  1758      637  2165      765  2553      892  2957     1019  3365     1147  3743     1274  4084     1402  4433     1529  4773     1656  5121     1784  5426     1911  5740     2039  6050     2166  6324     2294  6617     2421  6882     2548  7118     2676  7373     2803  7619     2931  7846     3058  8045     3186  8253     3313  8442     3440  8631     3568  8791     3695  8965     3823  9103     3950  9245     4077  9380     4205  9491     4332  9595     4460  9689     4587  9774     4715  9850     4842  9922     4969  9965     5097 10011     5224 10049     5352 10064     5479 10071     5606 10057     5734 10049     5861 10030     5989  9986     6116  9935     6244  9878     6371  9830   "/>
</g>
<g id="graph1">
  <!-- PREM -->
  <polyline id="graph1-line" stroke-width="98" points="     0     0      200   731      400  1460      600  2186      800  2907     1000  3620     1200  4325     1222  4400     1222  4400     1400  4941     1600  5555     1800  6167     2000  6772     2200  7365     2400  7943     2600  8502     2800  9041     3000  9557     3200 10046     3400 10507     3480 10682     3480 10682     3600 10520     3630 10484     3630 10484     3800 10310     4000 10158     4200 10054     4400  9986     4600  9947     4800  9931     5000  9933     5200  9947     5400  9970     5600  9999     5600  9999     5701 10014     5701 10014     5771 10004     5771 10004     5871  9988     5971  9969     5971  9969     6061  9936     6151  9905     6151  9905     6221  9878     6291  9855     6291  9855     6347  9839     6347  9839     6356  9833     6356  9833     6368  9822     6368  9822     6371  9816     6371  9816     6498  9434     6626  9075     6753  8736     6881  8415     7008  8112     7136  7825     7263  7553     7390  7295     7518  7049     7645  6816     7773  6595     7900  6384     8027  6183     8155  5991     8282  5808     8410  5633     8537  5466     8665  5307     8792  5154     8919  5008     9047  4868     9174  4734     9302  4605     9429  4481     9557  4362     9684  4248     9811  4139     9939  4033    10066  3932    10194  3834    10321  3740    10448  3649    10576  3562    10703  3478    10831  3396    10958  3318    11086  3242    11213  3169    11340  3098    11468  3030    11595  2963    11723  2899    11850  2837    11977  2777    12105  2719    12232  2663    12360  2608    12487  2555    12615  2504    12742  2454    12869  2406    12997  2359    13124  2313    13252  2269    13379  2226    13507  2184    13634  2143    13761  2104    13889  2065    14000  2033   "/>
</g>
</defs>
<g class="graphgeneralstretch" transform="scale(1.5, -1) translate(-0, -0)">
  <!-- graph 3 -->
  <use id="graphuse3-1" transform="translate(0, 0)" class="graph3line" xlink:href="#graph3"/>
  <!-- graph 2 -->
  <use id="graphuse2p2" transform="translate(0, 20)" class="graph2lineblank" xlink:href="#graph2"/>
  <use id="graphuse2m2" transform="translate(0, -20)" class="graph2lineblank" xlink:href="#graph2"/>
  <!-- graph 1 -->
  <use id="graphuse1p2" transform="translate(0, 20)" class="graph1lineblank" xlink:href="#graph1"/>
  <use id="graphuse1m2" transform="translate(0, -20)" class="graph1lineblank" xlink:href="#graph1"/>
</g>

<!-- chart text -->
<g id="charttext" class="charttext" transform="translate(0, 0)">
<switch>
  <g systemLanguage="en">
    <text x="922.5" y="-12200">Inner<tspan x="920" y="-11200">Core</tspan></text>
    <text x="3525" y="-12200">Outer<tspan x="3526.1" y="-11200">Core</tspan></text>
    <text x="6600" y="-12200">Lower<tspan x="6600" y="-11200">Mantle</tspan></text>
    <text x="9300" y="-12200">Upper<tspan x="9300" y="-11200">Mantle</tspan></text>
    <text x="15277.5" y="-12200">Space</text>
  </g>
  <g systemLanguage="ca">
    <text x="922.5" y="-12200">Nucli<tspan x="920" y="-11200">Intern</tspan></text>
    <text x="3525" y="-12200">Nucli<tspan x="3526.1" y="-11200">Extern</tspan></text>
    <text x="6600" y="-12200">Mantell<tspan x="6600" y="-11200">Intern</tspan></text>
    <text x="9300" y="-12200">Mantell<tspan x="9300" y="-11200">Extern</tspan></text>
    <text x="15277.5" y="-12200">Espai</text>
  </g>
  <g systemLanguage="de">
    <text x="922.5" y="-12200">Inn.<tspan x="920" y="-11200">Kern</tspan></text>
    <text x="3525" y="-12200">Äußer.<tspan x="3526.1" y="-11200">Kern</tspan></text>
    <text x="6600" y="-12200">Unter.<tspan x="6600" y="-11200">Mantel</tspan></text>
    <text x="9300" y="-12200">Ober.<tspan x="9300" y="-11200">Mantel</tspan></text>
    <text x="15277.5" y="-12200">Hülle</text>
  </g>
  <g systemLanguage="es">
    <text x="922.5" y="-12200">Núcleo<tspan x="920" y="-11200">Interno</tspan></text>
    <text x="3525" y="-12200">Núcleo<tspan x="3526.1" y="-11200">Externo</tspan></text>
    <text x="6600" y="-12200">Manto<tspan x="6600" y="-11200">Inferior</tspan></text>
    <text x="9300" y="-12200">Manto<tspan x="9300" y="-11200">Superior</tspan></text>
    <text x="15277.5" y="-12200">Espacio</text>
  </g>
  <g systemLanguage="fr">
    <text x="922.5" y="-12200">Noyau<tspan x="920" y="-11200">Interne</tspan></text>
    <text x="3525" y="-12200">Noyau<tspan x="3526.1" y="-11200">Externe</tspan></text>
    <text x="6600" y="-12200">  Manteau <tspan x="6600" y="-11200">Inférieur</tspan></text>
    <text x="9300" y="-12200"><tspan x="9300" y="-11200"/></text>
    <text x="15277.5" y="-12200">Espace</text>
  </g>
</switch>
</g>
</svg>