
<svg viewBox="0 0 320 283" xmlns="http://www.w3.org/2000/svg">

<linearGradient id="a" x1="20" x2="250" gradientUnits="userSpaceOnUse">
<stop stop-color="#eee"/>
<stop stop-color="#bbb" offset="1"/>
</linearGradient>

<path d="m72 241c8 29 6 39 41 35 34-4 48-21 31-30s-1-19 9-23c12-4 25-8 34-3 8 7-9 16 0 28 11 10 50-12 63-19 14-6 1-27-7-40-9-15-19-16-28-4-8 12-16 5-23-9-5-15 3-20 14-13 10 5 30-2 10-32-21-30-20-2-52 0-34 4 0-30-50-19-49 9 17 28-18 34-34 4-58 2-45 15 11 12 17 29 6 34-12 7-47-15-39 26 7 44 45-10 54 20z" fill="url(#a)" stroke="#555"/>

<g transform="matrix(.1 0 0 .1 178 97)">
<path d="m-721 774 327 327h26v-275l222 222h13v-378c0-13 0-26 13-39 13 0 26 0 13-13-13-14-26 0-26 0-40 0-79 13-118 26 13 0 13 13 26 13 26 0 39 0 39 26 0 78 13 170 13 248-65-65-130-131-195-209-26-26 13-39 26-39s0-26 0-26l-196 39c0 13 13 26 26 13 26 0 52 26 65 39l53 52-14 196-208-222" fill="#eee"/>

<path d="m460.2-885.8c32 0 58 26 58 58s-26 58-58 58-57-26-57-58 25-58 57-58zm345 217c-121-4-182 49-221 143h28c18-38 47-57 88-57h59c-57 247-120 371-188 371-35-13-38-40-30-69h-28c-11 48-17 79-17 93 0 41 22 61 65 61 64 0 121-73 170-218 13-40 34-119 62-238h157c-19 119-68 239-87 371-9 68 58 90 112 84 69-9 118-70 147-182h-28c-2 9-4 18-7 27-24 76-55 114-92 114-23 0-35-12-35-38 0-16 5-48 16-96l73-280c57 0 94-3 110-9 28-12 49-45 64-99h-22c-8 20-25 31-52 31zm-530 43v23c26-4 43-7 52-7 57 13 23 78 15 108l-75 257c-9 33-26 81 1 107 36 27 85 4 113-17 35-27 66-61 92-100l-20-14c-23 32-45 57-66 74-19 14-35 10-39-12 34-142 82-302 125-451zm-262 1286c-115 92-249 185-389 186-148-11-249-113-251-248 0-26 3-58 8-96 157-18 279-43 366-75 165-68 370-182 373-369-9-130-146-168-241-168-117 0-226 35-332 101-210 147-371 389-374 634 15 213 151 339 341 342 166 0 340-91 524-273zm-177-712c69-1 117 48 118 109-16 160-163 265-285 321-72 32-165 54-279 67 41-164 106-288 194-371s170-125 252-126z"/>
</g>

</svg>
