<?xml version="1.0" encoding="UTF-8" standalone="no"?>
<!DOCTYPE svg PUBLIC "-//W3C//DTD SVG 1.1//EN" "http://www.w3.org/Graphics/SVG/1.1/DTD/svg11.dtd">
<!-- Generated by Microsoft Visio, SVG Export Aharonov–Bohm effect apparatus.svg Page-1 -->
<svg xmlns="http://www.w3.org/2000/svg" xmlns:xlink="http://www.w3.org/1999/xlink" xmlns:ev="http://www.w3.org/2001/xml-events"
		xmlns:v="http://schemas.microsoft.com/visio/2003/SVGExtensions/" width="6.51042in" height="6.01042in"
		viewBox="0 0 468.75 432.75" xml:space="preserve" color-interpolation-filters="sRGB" class="st17">
	<v:documentProperties v:langID="1033" v:viewMarkup="false"/>

	<style type="text/css">
	<![CDATA[
		.st1 {fill:#f5fbfc;stroke:none;stroke-linecap:round;stroke-linejoin:round;stroke-width:0.75}
		.st2 {fill:#c4d6a0;stroke:none;stroke-linecap:round;stroke-linejoin:round;stroke-width:0.75}
		.st3 {fill:#fbd7bb}
		.st4 {stroke:none;stroke-linecap:round;stroke-linejoin:round;stroke-width:0.24}
		.st5 {fill:#a5a5a5;stroke:none;stroke-linecap:round;stroke-linejoin:round;stroke-width:0.24}
		.st6 {marker-start:url(#mrkr7-19);stroke:#ff0000;stroke-dasharray:7,5;stroke-linecap:round;stroke-linejoin:round;stroke-width:1}
		.st7 {fill:#ff0000;fill-opacity:1;stroke:#ff0000;stroke-opacity:1;stroke-width:0.28409090909091}
		.st8 {stroke:#ff0000;stroke-dasharray:7,5;stroke-linecap:round;stroke-linejoin:round;stroke-width:1}
		.st9 {marker-end:url(#mrkr5-44);stroke:#000000;stroke-linecap:round;stroke-linejoin:round;stroke-width:0.75}
		.st10 {fill:#000000;fill-opacity:1;stroke:#000000;stroke-opacity:1;stroke-width:0.22935779816514}
		.st11 {stroke:#000000;stroke-linecap:round;stroke-linejoin:round;stroke-width:0.75}
		.st12 {fill:#ffffff;stroke:none;stroke-linecap:round;stroke-linejoin:round;stroke-width:0.24}
		.st13 {fill:none;stroke:none;stroke-linecap:round;stroke-linejoin:round;stroke-width:0.75}
		.st14 {fill:#000000;font-family:Tahoma;font-size:1.00001em}
		.st15 {baseline-shift:-32.4941%;font-size:0.649882em}
		.st16 {fill:#7f7f7f;stroke:none;stroke-linecap:round;stroke-linejoin:round;stroke-width:0.75}
		.st17 {fill:none;fill-rule:evenodd;font-size:12px;overflow:visible;stroke-linecap:square;stroke-miterlimit:3}
	]]>
	</style>

	<defs id="Markers">
		<g id="lend7">
			<path
					d="M 1.84309 -0.959456 C 1.43792 -0.380801 0.784503 -0.0260255 0.078527 -0.00137091 L 0.0785229 0.00137043 C 0.784499 0.0260231 1.43791 0.380798 1.84309 0.959452 "
					style="stroke-linecap:round;stroke-linejoin:round;fill:none"/>
		</g>
		<marker id="mrkr7-19" class="st7" v:arrowType="7" v:arrowSize="2" orient="auto" markerUnits="strokeWidth"
				overflow="visible">
			<use xlink:href="#lend7" transform="scale(3.52) "/>
		</marker>
		<g id="lend5">
			<path d="M 2 1 L 0 0 L 1.98117 -0.993387 C 1.67173 -0.364515 1.67301 0.372641 1.98465 1.00043 " style="stroke:none"/>
		</g>
		<marker id="mrkr5-44" class="st10" v:arrowType="5" v:arrowSize="2" v:setback="7.63" refX="-7.63" orient="auto"
				markerUnits="strokeWidth" overflow="visible">
			<use xlink:href="#lend5" transform="scale(-4.36,-4.36) "/>
		</marker>
	</defs>
	<g v:mID="0" v:index="1" v:groupContext="foregroundPage">
		<title>Page-1</title>
		<v:pageProperties v:drawingScale="1" v:pageScale="1" v:drawingUnits="19" v:shadowOffsetX="9" v:shadowOffsetY="-9"/>
		<g id="group1132-1" transform="translate(0.375,-0.375)" v:mID="1132" v:groupContext="group">
			<title>Sheet.1132</title>
			<g id="shape1131-2" v:mID="1131" v:groupContext="shape">
				<title>Sheet.1131</title>
				<rect x="0" y="0.75" width="468" height="432" class="st1"/>
			</g>
			<g id="shape1128-4" v:mID="1128" v:groupContext="shape" transform="translate(414,-36)">
				<title>Sheet.1128</title>
				<rect x="0" y="72.75" width="9" height="360" class="st2"/>
			</g>
			<g id="shape1028-6" v:mID="1028" v:groupContext="shape" transform="translate(801.75,144.75) rotate(90)">
				<title>Sheet.1028</title>
				<path d="M0 387.75 L5.76 387.75 L0 387.75 L0 387.75 ZM17.94 387.75 L17.91 387.78 L18.24 387.78 L20.08 389.27 L23.47
							 391.97 L25.88 393.27 L27.29 393.58 L27.98 393.68 L28.93 393.58 L30.59 392.91 L33.19 391.16 L35.39 388.73
							 L36.03 387.92 L36.08 387.97 L38.65 391.28 L40.31 393.36 L42.29 395.52 L43.36 396.64 L44.86 397.35 L45.87
							 397.57 L46.27 397.57 L46.81 397.51 L48.16 397 L50.13 395.06 L51.92 392.43 L53.52 388.48 L53.76 387.77
							 L36.14 387.77 L36.16 387.75 L17.94 387.75 L17.94 387.75 ZM53.77 387.75 L53.76 387.77 L54.12 387.77 L55.22
							 390.63 L56.94 395.56 L60.55 407.76 L64.16 419.37 L66.04 424.82 L67.61 428.07 L68.45 429.92 L69.49 431.2
							 L70.43 432.01 L71.22 432.63 L71.91 432.75 L72.47 432.75 L73.16 432.63 L74.04 432.07 L74.92 431.11 L76.05
							 429.47 L77.18 427.52 L79.06 422.34 L81.57 415.05 L85.96 400.5 L90.07 388.24 L90.2 388.56 L91.23 391.13
							 L92.49 393.28 L93.55 395 L94.59 396.14 L95.44 396.95 L96.56 397.51 L97.1 397.63 L97.95 397.63 L98.67
							 397.41 L99.45 396.95 L101.08 395.93 L102.59 394.32 L106.2 389.83 L107.83 387.76 L90.23 387.76 L90.23
							 387.75 L53.77 387.75 ZM107.84 387.75 L107.83 387.76 L108.12 387.76 L109.55 389.35 L111 390.91 L112.16
							 391.98 L113.63 392.89 L114.98 393.37 L115.95 393.48 L117.02 393.53 L118.59 393.17 L119.97 392.46 L121.73
							 391.36 L123.76 389.74 L125.8 387.96 L125.92 387.86 L126.75 388.53 L129.73 390.65 L131.61 391.53 L132.96
							 391.89 L133.65 391.99 L134.43 391.99 L135.37 391.89 L137.41 391.27 L139.36 390.38 L141.68 389.1 L144
							 387.75 L138.24 387.75 L126.06 387.76 L107.84 387.75 ZM17.91 387.78 L0 387.78 L2.51 389.33 L5.65 390.96
							 L6.9 391.44 L8.28 391.84 L9.54 391.9 L10.51 391.84 L11.98 391.42 L14.05 390.57 L16.25 389.1 L17.91 387.78
							 Z" class="st3"/>
				<path d="M0 387.75 L5.76 387.75 L0 387.75M17.94 387.75 L17.91 387.78 L18.24 387.78 L20.08 389.27 L23.47 391.97 L25.88
							 393.27 L27.29 393.58 L27.98 393.68 L28.93 393.58 L30.59 392.91 L33.19 391.16 L35.39 388.73 L36.03 387.92
							 L36.08 387.97 L38.65 391.28 L40.31 393.36 L42.29 395.52 L43.36 396.64 L44.86 397.35 L45.87 397.57 L46.27
							 397.57 L46.81 397.51 L48.16 397 L50.13 395.06 L51.92 392.43 L53.52 388.48 L53.76 387.77 L36.14 387.77
							 L36.16 387.75 L17.94 387.75M53.77 387.75 L53.76 387.77 L54.12 387.77 L55.22 390.63 L56.94 395.56 L60.55
							 407.76 L64.16 419.37 L66.04 424.82 L67.61 428.07 L68.45 429.92 L69.49 431.2 L70.43 432.01 L71.22 432.63
							 L71.91 432.75 L72.47 432.75 L73.16 432.63 L74.04 432.07 L74.92 431.11 L76.05 429.47 L77.18 427.52 L79.06
							 422.34 L81.57 415.05 L85.96 400.5 L90.07 388.24 L90.2 388.56 L91.23 391.13 L92.49 393.28 L93.55 395
							 L94.59 396.14 L95.44 396.95 L96.56 397.51 L97.1 397.63 L97.95 397.63 L98.67 397.41 L99.45 396.95 L101.08
							 395.93 L102.59 394.32 L106.2 389.83 L107.83 387.76 L90.23 387.76 L90.23 387.75 L53.77 387.75M107.84
							 387.75 L107.83 387.76 L108.12 387.76 L109.55 389.35 L111 390.91 L112.16 391.98 L113.63 392.89 L114.98
							 393.37 L115.95 393.48 L117.02 393.53 L118.59 393.17 L119.97 392.46 L121.73 391.36 L123.76 389.74 L125.8
							 387.96 L125.92 387.86 L126.75 388.53 L129.73 390.65 L131.61 391.53 L132.96 391.89 L133.65 391.99 L134.43
							 391.99 L135.37 391.89 L137.41 391.27 L139.36 390.38 L141.68 389.1 L144 387.75 L138.24 387.75 L126.06
							 387.76 L107.84 387.75M17.91 387.78 L0 387.78 L2.51 389.33 L5.65 390.96 L6.9 391.44 L8.28 391.84 L9.54
							 391.9 L10.51 391.84 L11.98 391.42 L14.05 390.57 L16.25 389.1 L17.91 387.78" class="st4"/>
			</g>
			<g id="shape1108-9" v:mID="1108" v:groupContext="shape" transform="translate(129.11,-165.6)">
				<title>Sheet.1108</title>
				<path d="M3.73 382.35 A46.6667 46.6667 0 0 1 97.07 382.35 A46.6667 46.6667 0 0 1 3.73 382.35 ZM0 382.35 A50.4 50.4
							 -180 0 0 100.8 382.35 A50.4 50.4 -180 0 0 0 382.35 Z" class="st5"/>
			</g>
			<g id="shape10-11" v:mID="10" v:groupContext="shape" transform="translate(131.4,-167.4)">
				<title>Circle</title>
				<v:userDefs>
					<v:ud v:nameU="visVersion" v:val="VT0(15):26"/>
				</v:userDefs>
				<path d="M0 384.15 A48.6 48.6 0 0 1 97.2 384.15 A48.6 48.6 0 1 1 0 384.15 Z" class="st5"/>
			</g>
			<g id="group1017-13" transform="translate(108,-144)" v:mID="1017" v:groupContext="group">
				<title>Sheet.1017</title>
				<g id="shape1009-14" v:mID="1009" v:groupContext="shape" transform="translate(107.327,803.862) rotate(-175.269)">
					<title>Sheet.1009</title>
					<path d="M-0 432.75 A72 72 10.25 0 1 143.51 432.75" class="st6"/>
				</g>
				<g id="shape1010-20" v:mID="1010" v:groupContext="shape" transform="translate(-35.6935,-70.5255) rotate(-4.73116)">
					<title>Sheet.1010</title>
					<path d="M-0 432.75 A72 72 14.64 0 1 143.51 432.75" class="st8"/>
				</g>
				<g id="shape1012-23" v:mID="1012" v:groupContext="shape" transform="translate(98.4494,802.383) rotate(-175.269)">
					<title>Sheet.1012</title>
					<path d="M-0 432.75 A63 63 45 0 1 125.57 432.75" class="st6"/>
				</g>
				<g id="shape1013-28" v:mID="1013" v:groupContext="shape" transform="translate(-26.6935,-70.5255) rotate(-4.73116)">
					<title>Sheet.1013</title>
					<path d="M-0 432.75 A63 63 62.16 0 1 125.57 432.75" class="st8"/>
				</g>
				<g id="shape1015-31" v:mID="1015" v:groupContext="shape" transform="translate(90.1576,800.951) rotate(-175.347)">
					<title>Sheet.1015</title>
					<path d="M0 432.75 A54.901 54 0 0 1 109.43 432.75" class="st6"/>
				</g>
				<g id="shape1016-36" v:mID="1016" v:groupContext="shape" transform="translate(-18.9096,-70.5736) rotate(-4.65334)">
					<title>Sheet.1016</title>
					<path d="M-0 432.75 A54.901 54 0 0 1 109.43 432.75" class="st8"/>
				</g>
			</g>
			<g id="shape1018-39" v:mID="1018" v:groupContext="shape" transform="translate(394.436,-240.536) rotate(16.5571)">
				<title>Sheet.1018</title>
				<path d="M0 432.75 L63.58 432.75" class="st9"/>
			</g>
			<g id="shape1020-45" v:mID="1020" v:groupContext="shape" transform="translate(204.321,-297.057) rotate(16.5571)">
				<title>Sheet.1020</title>
				<path d="M0 432.75 L347.4 432.75" class="st11"/>
			</g>
			<g id="shape1021-48" v:mID="1021" v:groupContext="shape" transform="translate(-41.2966,-99.3611) rotate(-16.5571)">
				<title>Sheet.1021</title>
				<path d="M0 432.75 L346.34 432.75" class="st11"/>
			</g>
			<g id="group1101-51" transform="translate(136.641,-167.4)" v:mID="1101" v:groupContext="group">
				<title>Sheet.1101</title>
				<g id="shape1029-52" v:mID="1029" v:groupContext="shape" transform="translate(39.2695,-45)">
					<title>Circle.1029</title>
					<v:userDefs>
						<v:ud v:nameU="visVersion" v:val="VT0(15):26"/>
					</v:userDefs>
					<path d="M0 429.15 A3.6 3.6 0 0 1 7.2 429.15 A3.6 3.6 0 1 1 0 429.15 Z" class="st12"/>
				</g>
				<g id="shape1030-54" v:mID="1030" v:groupContext="shape" transform="translate(52.3593,-45)">
					<title>Circle.1030</title>
					<v:userDefs>
						<v:ud v:nameU="visVersion" v:val="VT0(15):26"/>
					</v:userDefs>
					<path d="M0 429.15 A3.6 3.6 0 0 1 7.2 429.15 A3.6 3.6 0 1 1 0 429.15 Z" class="st12"/>
				</g>
				<g id="shape1031-56" v:mID="1031" v:groupContext="shape" transform="translate(65.4491,-45)">
					<title>Circle.1031</title>
					<v:userDefs>
						<v:ud v:nameU="visVersion" v:val="VT0(15):26"/>
					</v:userDefs>
					<path d="M0 429.15 A3.6 3.6 0 0 1 7.2 429.15 A3.6 3.6 0 1 1 0 429.15 Z" class="st12"/>
				</g>
				<g id="shape1032-58" v:mID="1032" v:groupContext="shape" transform="translate(26.1796,-45)">
					<title>Circle.1032</title>
					<v:userDefs>
						<v:ud v:nameU="visVersion" v:val="VT0(15):26"/>
					</v:userDefs>
					<path d="M0 429.15 A3.6 3.6 0 0 1 7.2 429.15 A3.6 3.6 0 1 1 0 429.15 Z" class="st12"/>
				</g>
				<g id="shape1033-60" v:mID="1033" v:groupContext="shape" transform="translate(13.0898,-45)">
					<title>Circle.1033</title>
					<v:userDefs>
						<v:ud v:nameU="visVersion" v:val="VT0(15):26"/>
					</v:userDefs>
					<path d="M0 429.15 A3.6 3.6 0 0 1 7.2 429.15 A3.6 3.6 0 1 1 0 429.15 Z" class="st12"/>
				</g>
				<g id="shape1034-62" v:mID="1034" v:groupContext="shape" transform="translate(-1.29896E-14,-45)">
					<title>Circle.1034</title>
					<v:userDefs>
						<v:ud v:nameU="visVersion" v:val="VT0(15):26"/>
					</v:userDefs>
					<path d="M0 429.15 A3.6 3.6 0 0 1 7.2 429.15 A3.6 3.6 0 1 1 0 429.15 Z" class="st12"/>
				</g>
				<g id="shape1035-64" v:mID="1035" v:groupContext="shape" transform="translate(78.5389,-45)">
					<title>Circle.1035</title>
					<v:userDefs>
						<v:ud v:nameU="visVersion" v:val="VT0(15):26"/>
					</v:userDefs>
					<path d="M0 429.15 A3.6 3.6 0 0 1 7.2 429.15 A3.6 3.6 0 1 1 0 429.15 Z" class="st12"/>
				</g>
				<g id="shape1038-66" v:mID="1038" v:groupContext="shape" transform="translate(46.3898,-53.1)">
					<title>Circle.1038</title>
					<v:userDefs>
						<v:ud v:nameU="visVersion" v:val="VT0(15):26"/>
					</v:userDefs>
					<path d="M0 429.15 A3.6 3.6 0 0 1 7.2 429.15 A3.6 3.6 0 1 1 0 429.15 Z" class="st12"/>
				</g>
				<g id="shape1039-68" v:mID="1039" v:groupContext="shape" transform="translate(59.4796,-53.1)">
					<title>Circle.1039</title>
					<v:userDefs>
						<v:ud v:nameU="visVersion" v:val="VT0(15):26"/>
					</v:userDefs>
					<path d="M0 429.15 A3.6 3.6 0 0 1 7.2 429.15 A3.6 3.6 0 1 1 0 429.15 Z" class="st12"/>
				</g>
				<g id="shape1040-70" v:mID="1040" v:groupContext="shape" transform="translate(72.5695,-53.1)">
					<title>Circle.1040</title>
					<v:userDefs>
						<v:ud v:nameU="visVersion" v:val="VT0(15):26"/>
					</v:userDefs>
					<path d="M0 429.15 A3.6 3.6 0 0 1 7.2 429.15 A3.6 3.6 0 1 1 0 429.15 Z" class="st12"/>
				</g>
				<g id="shape1041-72" v:mID="1041" v:groupContext="shape" transform="translate(33.3,-53.1)">
					<title>Circle.1041</title>
					<v:userDefs>
						<v:ud v:nameU="visVersion" v:val="VT0(15):26"/>
					</v:userDefs>
					<path d="M0 429.15 A3.6 3.6 0 0 1 7.2 429.15 A3.6 3.6 0 1 1 0 429.15 Z" class="st12"/>
				</g>
				<g id="shape1042-74" v:mID="1042" v:groupContext="shape" transform="translate(20.2102,-53.1)">
					<title>Circle.1042</title>
					<v:userDefs>
						<v:ud v:nameU="visVersion" v:val="VT0(15):26"/>
					</v:userDefs>
					<path d="M0 429.15 A3.6 3.6 0 0 1 7.2 429.15 A3.6 3.6 0 1 1 0 429.15 Z" class="st12"/>
				</g>
				<g id="shape1043-76" v:mID="1043" v:groupContext="shape" transform="translate(7.12036,-53.1)">
					<title>Circle.1043</title>
					<v:userDefs>
						<v:ud v:nameU="visVersion" v:val="VT0(15):26"/>
					</v:userDefs>
					<path d="M0 429.15 A3.6 3.6 0 0 1 7.2 429.15 A3.6 3.6 0 1 1 0 429.15 Z" class="st12"/>
				</g>
				<g id="shape1046-78" v:mID="1046" v:groupContext="shape" transform="translate(39.2695,-62.1)">
					<title>Circle.1046</title>
					<v:userDefs>
						<v:ud v:nameU="visVersion" v:val="VT0(15):26"/>
					</v:userDefs>
					<path d="M0 429.15 A3.6 3.6 0 0 1 7.2 429.15 A3.6 3.6 0 1 1 0 429.15 Z" class="st12"/>
				</g>
				<g id="shape1047-80" v:mID="1047" v:groupContext="shape" transform="translate(52.3593,-62.1)">
					<title>Circle.1047</title>
					<v:userDefs>
						<v:ud v:nameU="visVersion" v:val="VT0(15):26"/>
					</v:userDefs>
					<path d="M0 429.15 A3.6 3.6 0 0 1 7.2 429.15 A3.6 3.6 0 1 1 0 429.15 Z" class="st12"/>
				</g>
				<g id="shape1048-82" v:mID="1048" v:groupContext="shape" transform="translate(65.4491,-62.1)">
					<title>Circle.1048</title>
					<v:userDefs>
						<v:ud v:nameU="visVersion" v:val="VT0(15):26"/>
					</v:userDefs>
					<path d="M0 429.15 A3.6 3.6 0 0 1 7.2 429.15 A3.6 3.6 0 1 1 0 429.15 Z" class="st12"/>
				</g>
				<g id="shape1049-84" v:mID="1049" v:groupContext="shape" transform="translate(26.1796,-62.1)">
					<title>Circle.1049</title>
					<v:userDefs>
						<v:ud v:nameU="visVersion" v:val="VT0(15):26"/>
					</v:userDefs>
					<path d="M0 429.15 A3.6 3.6 0 0 1 7.2 429.15 A3.6 3.6 0 1 1 0 429.15 Z" class="st12"/>
				</g>
				<g id="shape1050-86" v:mID="1050" v:groupContext="shape" transform="translate(13.0898,-62.1)">
					<title>Circle.1050</title>
					<v:userDefs>
						<v:ud v:nameU="visVersion" v:val="VT0(15):26"/>
					</v:userDefs>
					<path d="M0 429.15 A3.6 3.6 0 0 1 7.2 429.15 A3.6 3.6 0 1 1 0 429.15 Z" class="st12"/>
				</g>
				<g id="shape1051-88" v:mID="1051" v:groupContext="shape" transform="translate(-1.29896E-14,-62.1)">
					<title>Circle.1051</title>
					<v:userDefs>
						<v:ud v:nameU="visVersion" v:val="VT0(15):26"/>
					</v:userDefs>
					<path d="M0 429.15 A3.6 3.6 0 0 1 7.2 429.15 A3.6 3.6 0 1 1 0 429.15 Z" class="st12"/>
				</g>
				<g id="shape1052-90" v:mID="1052" v:groupContext="shape" transform="translate(78.5389,-62.1)">
					<title>Circle.1052</title>
					<v:userDefs>
						<v:ud v:nameU="visVersion" v:val="VT0(15):26"/>
					</v:userDefs>
					<path d="M0 429.15 A3.6 3.6 0 0 1 7.2 429.15 A3.6 3.6 0 1 1 0 429.15 Z" class="st12"/>
				</g>
				<g id="shape1054-92" v:mID="1054" v:groupContext="shape" transform="translate(46.3898,-71.1)">
					<title>Circle.1054</title>
					<v:userDefs>
						<v:ud v:nameU="visVersion" v:val="VT0(15):26"/>
					</v:userDefs>
					<path d="M0 429.15 A3.6 3.6 0 0 1 7.2 429.15 A3.6 3.6 0 1 1 0 429.15 Z" class="st12"/>
				</g>
				<g id="shape1055-94" v:mID="1055" v:groupContext="shape" transform="translate(59.4796,-71.1)">
					<title>Circle.1055</title>
					<v:userDefs>
						<v:ud v:nameU="visVersion" v:val="VT0(15):26"/>
					</v:userDefs>
					<path d="M0 429.15 A3.6 3.6 0 0 1 7.2 429.15 A3.6 3.6 0 1 1 0 429.15 Z" class="st12"/>
				</g>
				<g id="shape1056-96" v:mID="1056" v:groupContext="shape" transform="translate(72.5695,-71.1)">
					<title>Circle.1056</title>
					<v:userDefs>
						<v:ud v:nameU="visVersion" v:val="VT0(15):26"/>
					</v:userDefs>
					<path d="M0 429.15 A3.6 3.6 0 0 1 7.2 429.15 A3.6 3.6 0 1 1 0 429.15 Z" class="st12"/>
				</g>
				<g id="shape1057-98" v:mID="1057" v:groupContext="shape" transform="translate(33.3,-71.1)">
					<title>Circle.1057</title>
					<v:userDefs>
						<v:ud v:nameU="visVersion" v:val="VT0(15):26"/>
					</v:userDefs>
					<path d="M0 429.15 A3.6 3.6 0 0 1 7.2 429.15 A3.6 3.6 0 1 1 0 429.15 Z" class="st12"/>
				</g>
				<g id="shape1058-100" v:mID="1058" v:groupContext="shape" transform="translate(20.2102,-71.1)">
					<title>Circle.1058</title>
					<v:userDefs>
						<v:ud v:nameU="visVersion" v:val="VT0(15):26"/>
					</v:userDefs>
					<path d="M0 429.15 A3.6 3.6 0 0 1 7.2 429.15 A3.6 3.6 0 1 1 0 429.15 Z" class="st12"/>
				</g>
				<g id="shape1059-102" v:mID="1059" v:groupContext="shape" transform="translate(7.12036,-71.1)">
					<title>Circle.1059</title>
					<v:userDefs>
						<v:ud v:nameU="visVersion" v:val="VT0(15):26"/>
					</v:userDefs>
					<path d="M0 429.15 A3.6 3.6 0 0 1 7.2 429.15 A3.6 3.6 0 1 1 0 429.15 Z" class="st12"/>
				</g>
				<g id="shape1062-104" v:mID="1062" v:groupContext="shape" transform="translate(53.2593,-80.1)">
					<title>Circle.1062</title>
					<v:userDefs>
						<v:ud v:nameU="visVersion" v:val="VT0(15):26"/>
					</v:userDefs>
					<path d="M0 429.15 A3.6 3.6 0 0 1 7.2 429.15 A3.6 3.6 0 1 1 0 429.15 Z" class="st12"/>
				</g>
				<g id="shape1063-106" v:mID="1063" v:groupContext="shape" transform="translate(66.3491,-80.1)">
					<title>Circle.1063</title>
					<v:userDefs>
						<v:ud v:nameU="visVersion" v:val="VT0(15):26"/>
					</v:userDefs>
					<path d="M0 429.15 A3.6 3.6 0 0 1 7.2 429.15 A3.6 3.6 0 1 1 0 429.15 Z" class="st12"/>
				</g>
				<g id="shape1065-108" v:mID="1065" v:groupContext="shape" transform="translate(40.1695,-80.1)">
					<title>Circle.1065</title>
					<v:userDefs>
						<v:ud v:nameU="visVersion" v:val="VT0(15):26"/>
					</v:userDefs>
					<path d="M0 429.15 A3.6 3.6 0 0 1 7.2 429.15 A3.6 3.6 0 1 1 0 429.15 Z" class="st12"/>
				</g>
				<g id="shape1066-110" v:mID="1066" v:groupContext="shape" transform="translate(27.0796,-80.1)">
					<title>Circle.1066</title>
					<v:userDefs>
						<v:ud v:nameU="visVersion" v:val="VT0(15):26"/>
					</v:userDefs>
					<path d="M0 429.15 A3.6 3.6 0 0 1 7.2 429.15 A3.6 3.6 0 1 1 0 429.15 Z" class="st12"/>
				</g>
				<g id="shape1067-112" v:mID="1067" v:groupContext="shape" transform="translate(13.9898,-80.1)">
					<title>Circle.1067</title>
					<v:userDefs>
						<v:ud v:nameU="visVersion" v:val="VT0(15):26"/>
					</v:userDefs>
					<path d="M0 429.15 A3.6 3.6 0 0 1 7.2 429.15 A3.6 3.6 0 1 1 0 429.15 Z" class="st12"/>
				</g>
				<g id="shape1070-114" v:mID="1070" v:groupContext="shape" transform="translate(46.3898,-36.9)">
					<title>Circle.1070</title>
					<v:userDefs>
						<v:ud v:nameU="visVersion" v:val="VT0(15):26"/>
					</v:userDefs>
					<path d="M0 429.15 A3.6 3.6 0 0 1 7.2 429.15 A3.6 3.6 0 1 1 0 429.15 Z" class="st12"/>
				</g>
				<g id="shape1071-116" v:mID="1071" v:groupContext="shape" transform="translate(59.4796,-36.9)">
					<title>Circle.1071</title>
					<v:userDefs>
						<v:ud v:nameU="visVersion" v:val="VT0(15):26"/>
					</v:userDefs>
					<path d="M0 429.15 A3.6 3.6 0 0 1 7.2 429.15 A3.6 3.6 0 1 1 0 429.15 Z" class="st12"/>
				</g>
				<g id="shape1072-118" v:mID="1072" v:groupContext="shape" transform="translate(72.5695,-36.9)">
					<title>Circle.1072</title>
					<v:userDefs>
						<v:ud v:nameU="visVersion" v:val="VT0(15):26"/>
					</v:userDefs>
					<path d="M0 429.15 A3.6 3.6 0 0 1 7.2 429.15 A3.6 3.6 0 1 1 0 429.15 Z" class="st12"/>
				</g>
				<g id="shape1073-120" v:mID="1073" v:groupContext="shape" transform="translate(33.3,-36.9)">
					<title>Circle.1073</title>
					<v:userDefs>
						<v:ud v:nameU="visVersion" v:val="VT0(15):26"/>
					</v:userDefs>
					<path d="M0 429.15 A3.6 3.6 0 0 1 7.2 429.15 A3.6 3.6 0 1 1 0 429.15 Z" class="st12"/>
				</g>
				<g id="shape1074-122" v:mID="1074" v:groupContext="shape" transform="translate(20.2102,-36.9)">
					<title>Circle.1074</title>
					<v:userDefs>
						<v:ud v:nameU="visVersion" v:val="VT0(15):26"/>
					</v:userDefs>
					<path d="M0 429.15 A3.6 3.6 0 0 1 7.2 429.15 A3.6 3.6 0 1 1 0 429.15 Z" class="st12"/>
				</g>
				<g id="shape1075-124" v:mID="1075" v:groupContext="shape" transform="translate(7.12036,-36.9)">
					<title>Circle.1075</title>
					<v:userDefs>
						<v:ud v:nameU="visVersion" v:val="VT0(15):26"/>
					</v:userDefs>
					<path d="M0 429.15 A3.6 3.6 0 0 1 7.2 429.15 A3.6 3.6 0 1 1 0 429.15 Z" class="st12"/>
				</g>
				<g id="shape1078-126" v:mID="1078" v:groupContext="shape" transform="translate(39.2695,-27.9)">
					<title>Circle.1078</title>
					<v:userDefs>
						<v:ud v:nameU="visVersion" v:val="VT0(15):26"/>
					</v:userDefs>
					<path d="M0 429.15 A3.6 3.6 0 0 1 7.2 429.15 A3.6 3.6 0 1 1 0 429.15 Z" class="st12"/>
				</g>
				<g id="shape1079-128" v:mID="1079" v:groupContext="shape" transform="translate(52.3593,-27.9)">
					<title>Circle.1079</title>
					<v:userDefs>
						<v:ud v:nameU="visVersion" v:val="VT0(15):26"/>
					</v:userDefs>
					<path d="M0 429.15 A3.6 3.6 0 0 1 7.2 429.15 A3.6 3.6 0 1 1 0 429.15 Z" class="st12"/>
				</g>
				<g id="shape1080-130" v:mID="1080" v:groupContext="shape" transform="translate(65.4491,-27.9)">
					<title>Circle.1080</title>
					<v:userDefs>
						<v:ud v:nameU="visVersion" v:val="VT0(15):26"/>
					</v:userDefs>
					<path d="M0 429.15 A3.6 3.6 0 0 1 7.2 429.15 A3.6 3.6 0 1 1 0 429.15 Z" class="st12"/>
				</g>
				<g id="shape1081-132" v:mID="1081" v:groupContext="shape" transform="translate(26.1796,-27.9)">
					<title>Circle.1081</title>
					<v:userDefs>
						<v:ud v:nameU="visVersion" v:val="VT0(15):26"/>
					</v:userDefs>
					<path d="M0 429.15 A3.6 3.6 0 0 1 7.2 429.15 A3.6 3.6 0 1 1 0 429.15 Z" class="st12"/>
				</g>
				<g id="shape1082-134" v:mID="1082" v:groupContext="shape" transform="translate(13.0898,-27.9)">
					<title>Circle.1082</title>
					<v:userDefs>
						<v:ud v:nameU="visVersion" v:val="VT0(15):26"/>
					</v:userDefs>
					<path d="M0 429.15 A3.6 3.6 0 0 1 7.2 429.15 A3.6 3.6 0 1 1 0 429.15 Z" class="st12"/>
				</g>
				<g id="shape1083-136" v:mID="1083" v:groupContext="shape" transform="translate(-1.29896E-14,-27.9)">
					<title>Circle.1083</title>
					<v:userDefs>
						<v:ud v:nameU="visVersion" v:val="VT0(15):26"/>
					</v:userDefs>
					<path d="M0 429.15 A3.6 3.6 0 0 1 7.2 429.15 A3.6 3.6 0 1 1 0 429.15 Z" class="st12"/>
				</g>
				<g id="shape1084-138" v:mID="1084" v:groupContext="shape" transform="translate(78.5389,-27.9)">
					<title>Circle.1084</title>
					<v:userDefs>
						<v:ud v:nameU="visVersion" v:val="VT0(15):26"/>
					</v:userDefs>
					<path d="M0 429.15 A3.6 3.6 0 0 1 7.2 429.15 A3.6 3.6 0 1 1 0 429.15 Z" class="st12"/>
				</g>
				<g id="shape1086-140" v:mID="1086" v:groupContext="shape" transform="translate(46.6287,-18.9)">
					<title>Circle.1086</title>
					<v:userDefs>
						<v:ud v:nameU="visVersion" v:val="VT0(15):26"/>
					</v:userDefs>
					<path d="M0 429.15 A3.6 3.6 0 0 1 7.2 429.15 A3.6 3.6 0 1 1 0 429.15 Z" class="st12"/>
				</g>
				<g id="shape1087-142" v:mID="1087" v:groupContext="shape" transform="translate(59.7185,-18.9)">
					<title>Circle.1087</title>
					<v:userDefs>
						<v:ud v:nameU="visVersion" v:val="VT0(15):26"/>
					</v:userDefs>
					<path d="M0 429.15 A3.6 3.6 0 0 1 7.2 429.15 A3.6 3.6 0 1 1 0 429.15 Z" class="st12"/>
				</g>
				<g id="shape1088-144" v:mID="1088" v:groupContext="shape" transform="translate(72.8084,-18.9)">
					<title>Circle.1088</title>
					<v:userDefs>
						<v:ud v:nameU="visVersion" v:val="VT0(15):26"/>
					</v:userDefs>
					<path d="M0 429.15 A3.6 3.6 0 0 1 7.2 429.15 A3.6 3.6 0 1 1 0 429.15 Z" class="st12"/>
				</g>
				<g id="shape1089-146" v:mID="1089" v:groupContext="shape" transform="translate(33.5389,-18.9)">
					<title>Circle.1089</title>
					<v:userDefs>
						<v:ud v:nameU="visVersion" v:val="VT0(15):26"/>
					</v:userDefs>
					<path d="M0 429.15 A3.6 3.6 0 0 1 7.2 429.15 A3.6 3.6 0 1 1 0 429.15 Z" class="st12"/>
				</g>
				<g id="shape1090-148" v:mID="1090" v:groupContext="shape" transform="translate(20.4491,-18.9)">
					<title>Circle.1090</title>
					<v:userDefs>
						<v:ud v:nameU="visVersion" v:val="VT0(15):26"/>
					</v:userDefs>
					<path d="M0 429.15 A3.6 3.6 0 0 1 7.2 429.15 A3.6 3.6 0 1 1 0 429.15 Z" class="st12"/>
				</g>
				<g id="shape1091-150" v:mID="1091" v:groupContext="shape" transform="translate(7.35927,-18.9)">
					<title>Circle.1091</title>
					<v:userDefs>
						<v:ud v:nameU="visVersion" v:val="VT0(15):26"/>
					</v:userDefs>
					<path d="M0 429.15 A3.6 3.6 0 0 1 7.2 429.15 A3.6 3.6 0 1 1 0 429.15 Z" class="st12"/>
				</g>
				<g id="shape1094-152" v:mID="1094" v:groupContext="shape" transform="translate(53.2593,-9)">
					<title>Circle.1094</title>
					<v:userDefs>
						<v:ud v:nameU="visVersion" v:val="VT0(15):26"/>
					</v:userDefs>
					<path d="M0 429.15 A3.6 3.6 0 0 1 7.2 429.15 A3.6 3.6 0 1 1 0 429.15 Z" class="st12"/>
				</g>
				<g id="shape1095-154" v:mID="1095" v:groupContext="shape" transform="translate(66.3491,-9)">
					<title>Circle.1095</title>
					<v:userDefs>
						<v:ud v:nameU="visVersion" v:val="VT0(15):26"/>
					</v:userDefs>
					<path d="M0 429.15 A3.6 3.6 0 0 1 7.2 429.15 A3.6 3.6 0 1 1 0 429.15 Z" class="st12"/>
				</g>
				<g id="shape1097-156" v:mID="1097" v:groupContext="shape" transform="translate(40.1695,-9)">
					<title>Circle.1097</title>
					<v:userDefs>
						<v:ud v:nameU="visVersion" v:val="VT0(15):26"/>
					</v:userDefs>
					<path d="M0 429.15 A3.6 3.6 0 0 1 7.2 429.15 A3.6 3.6 0 1 1 0 429.15 Z" class="st12"/>
				</g>
				<g id="shape1098-158" v:mID="1098" v:groupContext="shape" transform="translate(27.0796,-9)">
					<title>Circle.1098</title>
					<v:userDefs>
						<v:ud v:nameU="visVersion" v:val="VT0(15):26"/>
					</v:userDefs>
					<path d="M0 429.15 A3.6 3.6 0 0 1 7.2 429.15 A3.6 3.6 0 1 1 0 429.15 Z" class="st12"/>
				</g>
				<g id="shape1099-160" v:mID="1099" v:groupContext="shape" transform="translate(13.9898,-9)">
					<title>Circle.1099</title>
					<v:userDefs>
						<v:ud v:nameU="visVersion" v:val="VT0(15):26"/>
					</v:userDefs>
					<path d="M0 429.15 A3.6 3.6 0 0 1 7.2 429.15 A3.6 3.6 0 1 1 0 429.15 Z" class="st12"/>
				</g>
				<g id="shape1102-162" v:mID="1102" v:groupContext="shape" transform="translate(33.9093,-90)">
					<title>Circle.1102</title>
					<v:userDefs>
						<v:ud v:nameU="visVersion" v:val="VT0(15):26"/>
					</v:userDefs>
					<path d="M0 429.15 A3.6 3.6 0 0 1 7.2 429.15 A3.6 3.6 0 1 1 0 429.15 Z" class="st12"/>
				</g>
				<g id="shape1103-164" v:mID="1103" v:groupContext="shape" transform="translate(46.5093,-90)">
					<title>Circle.1103</title>
					<v:userDefs>
						<v:ud v:nameU="visVersion" v:val="VT0(15):26"/>
					</v:userDefs>
					<path d="M0 429.15 A3.6 3.6 0 0 1 7.2 429.15 A3.6 3.6 0 1 1 0 429.15 Z" class="st12"/>
				</g>
				<g id="shape1104-166" v:mID="1104" v:groupContext="shape" transform="translate(33.9093,0)">
					<title>Circle.1104</title>
					<v:userDefs>
						<v:ud v:nameU="visVersion" v:val="VT0(15):26"/>
					</v:userDefs>
					<path d="M0 429.15 A3.6 3.6 0 0 1 7.2 429.15 A3.6 3.6 0 1 1 0 429.15 Z" class="st12"/>
				</g>
				<g id="shape1105-168" v:mID="1105" v:groupContext="shape" transform="translate(46.5093,5.68434E-14)">
					<title>Circle.1105</title>
					<v:userDefs>
						<v:ud v:nameU="visVersion" v:val="VT0(15):26"/>
					</v:userDefs>
					<path d="M0 429.15 A3.6 3.6 0 0 1 7.2 429.15 A3.6 3.6 0 1 1 0 429.15 Z" class="st12"/>
				</g>
			</g>
			<g id="shape1109-170" v:mID="1109" v:groupContext="shape" transform="translate(158.438,-158.742) rotate(-16.5571)">
				<title>Sheet.1109</title>
				<path d="M0 432.75 L63.58 432.75" class="st9"/>
			</g>
			<g id="shape1110-175" v:mID="1110" v:groupContext="shape" transform="translate(233.02,-209.25)">
				<title>Sheet.1110</title>
				<desc>A</desc>
				<v:textBlock v:margins="rect(4,4,4,4)"/>
				<v:textRect cx="9" cy="426" width="18" height="13.5"/>
				<rect x="0" y="419.25" width="18" height="13.5" class="st13"/>
				<text x="5.4" y="429.6" class="st14" v:langID="1033"><v:paragraph v:horizAlign="1"/><v:tabList/>A</text>			</g>
			<g id="shape1111-178" v:mID="1111" v:groupContext="shape" transform="translate(234,-292.5)">
				<title>Sheet.1111</title>
				<desc>B</desc>
				<v:textBlock v:margins="rect(4,4,4,4)"/>
				<v:textRect cx="11.25" cy="419.25" width="22.5" height="27"/>
				<rect x="0" y="405.75" width="22.5" height="27" class="st13"/>
				<text x="7.71" y="422.85" class="st14" v:langID="1033"><v:paragraph v:horizAlign="1"/><v:tabList/>B</text>			</g>
			<g id="shape1112-181" v:mID="1112" v:groupContext="shape" transform="translate(382.5,-235.125)">
				<title>Sheet.1112</title>
				<desc>I</desc>
				<v:textBlock v:margins="rect(4,4,4,4)"/>
				<v:textRect cx="7.875" cy="420.375" width="15.75" height="24.75"/>
				<rect x="0" y="408" width="15.75" height="24.75" class="st13"/>
				<text x="5.64" y="423.98" class="st14" v:langID="1033"><v:paragraph v:horizAlign="1"/><v:tabList/>I</text>			</g>
			<g id="shape1113-184" v:mID="1113" v:groupContext="shape" transform="translate(108,-136.125)">
				<title>Sheet.1113</title>
				<desc>W</desc>
				<v:textBlock v:margins="rect(4,4,4,4)"/>
				<v:textRect cx="7.875" cy="420.375" width="15.75" height="24.75"/>
				<rect x="0" y="408" width="15.75" height="24.75" class="st13"/>
				<text x="4" y="423.98" class="st14" v:langID="1033"><v:paragraph v:horizAlign="1"/><v:tabList/>W</text>			</g>
			<g id="shape1114-187" v:mID="1114" v:groupContext="shape" transform="translate(288,-162)">
				<title>Sheet.1114</title>
				<desc>e2</desc>
				<v:textBlock v:margins="rect(4,4,4,4)"/>
				<v:textRect cx="15.1875" cy="420.375" width="30.38" height="24.75"/>
				<rect x="0" y="408" width="30.375" height="24.75" class="st13"/>
				<text x="9.9" y="423.98" class="st14" v:langID="1033"><v:paragraph v:horizAlign="1"/><v:tabList/>e<tspan
							dy="-0.279em" class="st15" v:baseFontSize="12">2</tspan></text>			</g>
			<g id="shape1115-191" v:mID="1115" v:groupContext="shape" transform="translate(279,-248.625)">
				<title>Sheet.1115</title>
				<desc>e1</desc>
				<v:textBlock v:margins="rect(4,4,4,4)"/>
				<v:textRect cx="15.1875" cy="420.375" width="30.38" height="24.75"/>
				<rect x="0" y="408" width="30.375" height="24.75" class="st13"/>
				<text x="9.9" y="423.98" class="st14" v:langID="1033"><v:paragraph v:horizAlign="1"/><v:tabList/>e<tspan
							dy="-0.279em" class="st15" v:baseFontSize="12">1</tspan></text>			</g>
			<g id="shape1116-195" v:mID="1116" v:groupContext="shape" transform="translate(52.3125,-301.5)">
				<title>Sheet.1116</title>
				<desc>S1</desc>
				<v:textBlock v:margins="rect(4,4,4,4)"/>
				<v:textRect cx="15.1875" cy="420.375" width="30.38" height="24.75"/>
				<rect x="0" y="408" width="30.375" height="24.75" class="st13"/>
				<text x="9.72" y="423.98" class="st14" v:langID="1033"><v:paragraph v:horizAlign="1"/><v:tabList/>S<tspan
							dy="-0.279em" class="st15" v:baseFontSize="12">1</tspan></text>			</g>
			<g id="shape1117-199" v:mID="1117" v:groupContext="shape" transform="translate(50.625,-109.125)">
				<title>Sheet.1117</title>
				<desc>S2</desc>
				<v:textBlock v:margins="rect(4,4,4,4)"/>
				<v:textRect cx="15.1875" cy="420.375" width="30.38" height="24.75"/>
				<rect x="0" y="408" width="30.375" height="24.75" class="st13"/>
				<text x="9.72" y="423.98" class="st14" v:langID="1033"><v:paragraph v:horizAlign="1"/><v:tabList/>S<tspan
							dy="-0.279em" class="st15" v:baseFontSize="12">2</tspan></text>			</g>
			<g id="shape1118-203" v:mID="1118" v:groupContext="shape" transform="translate(571.332,402.321) rotate(128.784)">
				<title>Sheet.1118</title>
				<path d="M0 432.75 L64.66 432.75" class="st11"/>
			</g>
			<g id="shape1119-206" v:mID="1119" v:groupContext="shape" transform="translate(451.631,557.12) rotate(135)">
				<title>Sheet.1119</title>
				<path d="M0 432.75 L35.98 432.75" class="st11"/>
			</g>
			<g id="shape1120-209" v:mID="1120" v:groupContext="shape" transform="translate(400.5,-303.75)">
				<title>Sheet.1120</title>
				<desc>P</desc>
				<v:textBlock v:margins="rect(4,4,4,4)"/>
				<v:textRect cx="7.875" cy="420.375" width="15.75" height="24.75"/>
				<rect x="0" y="408" width="15.75" height="24.75" class="st13"/>
				<text x="4.57" y="423.98" class="st14" v:langID="1033"><v:paragraph v:horizAlign="1"/><v:tabList/>P</text>			</g>
			<g id="shape1126-212" v:mID="1126" v:groupContext="shape" transform="translate(74.25,-36)">
				<title>Sheet.1126</title>
				<path d="M9 432.75 L9 360.75 L0 360.75 L0 432.75 L9 432.75 ZM9 336.75 L9 168.75 L0 168.75 L0 336.75 L9 336.75 ZM0
							 72.75 L0 144.75 L9 144.75 L9 72.75 L0 72.75 Z" class="st16"/>
			</g>
			<g id="shape1129-214" v:mID="1129" v:groupContext="shape" transform="translate(770.437,-19.2459) rotate(61.1219)">
				<title>Sheet.1129</title>
				<path d="M0 432.75 L19.83 432.75" class="st11"/>
			</g>
			<g id="shape1130-217" v:mID="1130" v:groupContext="shape" transform="translate(82.125,-344.25)">
				<title>Sheet.1130</title>
				<desc>X</desc>
				<v:textBlock v:margins="rect(4,4,4,4)"/>
				<v:textRect cx="7.875" cy="420.375" width="15.75" height="24.75"/>
				<rect x="0" y="408" width="15.75" height="24.75" class="st13"/>
				<text x="4.39" y="423.98" class="st14" v:langID="1033"><v:paragraph v:horizAlign="1"/><v:tabList/>X</text>			</g>
		</g>
	</g>
</svg>
