<svg width="206mm" height="208mm" version="1.1" viewBox="0 0 206 208" xmlns="http://www.w3.org/2000/svg" xmlns:xlink="http://www.w3.org/1999/xlink"><rect width="206" height="208" fill="#fff"/><path d="m12 199 0-191m-4 187l190 0" fill="none" stroke="#000"/><path id="c" d="m12 171h180m-180-24h180m-180-24h180m-180-24h180m-180-24h180m-180-24h180m-180-24h180" stroke="#000" stroke-dasharray=" 1" stroke-width=".5"/><use transform="rotate(90 102 105)" xlink:href="#c"/><path id="b" d="m180 195v4m-24-4v4m-24-4v4m-24-4v4m-24-4v4m-24-4v4m-24-4v4" stroke="#000" stroke-width=".5"/><use transform="rotate(90 108 99)" xlink:href="#b"/><path id="a" d="m61 146c23 22 55 26.6 79.3 30.3 17 2.5 34.4 4.4 51.7 5.7m-71-96c3 3 5.8 5.3 9 8 18 15.3 39.8 25.8 62 34m-82-31c22 21.7 52.3 36.3 82 45m-95-32c15.8 15.7 36.7 27.7 58 35 12.3 4.4 24.2 7.3 37 10m-111-29.1c7.6 7.7 15.2 13 25 18 26 13.4 57 20 86 24m-131-22c3 3 7.3 6.5 11 9 20.3 13.6 44.3 17.6 68.3 21.3 17 2.5 34.4 4.4 51.7 5.7m-145-22c12 12 29 17 46 20 32.4 5.4 66.3 6.6 99 8" fill="none" stroke="#00f"/><use transform="matrix(0-1-1 0 207 207)" xlink:href="#a"/><path d="m9 11 3-9 3 9-3-2zm186.5 181l9 3-9 3 2-3z"/>
 <g font-family="Times" font-size="11px" text-anchor="middle" font-style="italic"><text x="197" y="207">V</text><text x="6" y="12">p</text><text x="51" y="159">T<tspan dy="2" font-size="8px" font-style="normal">1</tspan></text><text x="66" y="144">T<tspan dy="2" font-size="8px" font-style="normal">2</tspan></text><text x="97" y="135">T<tspan dy="2" font-size="8px" font-style="normal">3</tspan></text><text x="114" y="120">T<tspan dy="2" font-size="8px" font-style="normal">4</tspan></text><text x="141" y="117">T<tspan dy="2" font-size="8px" font-style="normal">5</tspan></text><text x="164" y="112">T<tspan dy="2" font-size="8px" font-style="normal">6</tspan></text><text x="105" y="12">T<tspan dy="2" font-size="8px" font-style="normal">1</tspan><tspan dy="-2">&lt;T</tspan><tspan dy="2" font-size="8px" font-style="normal">2</tspan><tspan dy="-2">&lt;T</tspan><tspan dy="2" font-size="8px" font-style="normal">3</tspan><tspan dy="-2">&lt;T</tspan><tspan dy="2" font-size="8px" font-style="normal">4</tspan><tspan dy="-2">&lt;T</tspan><tspan dy="2" font-size="8px" font-style="normal">5</tspan><tspan dy="-2">&lt;T</tspan><tspan dy="2" font-size="8px" font-style="normal">6</tspan></text></g></svg>