<?xml version="1.0" encoding="UTF-8"?>
<svg width="600" height="800" version="1.1" xmlns="http://www.w3.org/2000/svg" xmlns:xlink="http://www.w3.org/1999/xlink">
 <defs>
  <radialGradient id="g" cx="143" cy="387" r="10" gradientUnits="userSpaceOnUse">
   <stop stop-color="#969696" offset="0"/>
   <stop stop-color="#beffff" offset="1"/>
  </radialGradient>
  <linearGradient id="h" x1="302" x2="455" y1="327" y2="480" gradientUnits="userSpaceOnUse">
   <stop stop-color="#c0c0c0" offset="0"/>
   <stop stop-color="#f4f4f4" offset=".4"/>
   <stop stop-color="#f4f4f4" offset=".6"/>
   <stop stop-color="#c0c0c0" offset="1"/>
  </linearGradient>
  <radialGradient id="e" cx="120" cy="126" r="10" gradientUnits="userSpaceOnUse">
   <stop stop-color="#f00" offset="0"/>
   <stop stop-color="#800000" offset="1"/>
  </radialGradient>
  <radialGradient id="c" cx="131" cy="114" r="10" gradientUnits="userSpaceOnUse">
   <stop stop-color="#00f" offset="0"/>
   <stop stop-color="#000080" offset="1"/>
  </radialGradient>
 </defs>
 <path d="m345 255 63 67v197l-63-67z" fill="url(#h)" stroke="#000"/>
 <g stroke="#000">
  <path d="m345 3 63 67v197l-63-67z" fill="#fff"/>
  <g stroke-linejoin="round">
   <path d="m409 798-63-67v-197l63 67" fill="#0094ff"/>
   <path d="m409 601-63-67h95l63 67" fill="#00c8ff"/>
   <path d="m409 601h95v197h-95z" fill="#00c8ff"/>
  </g>
  <circle cx="135" cy="382" r="10" fill="url(#g)"/>
  <circle id="d" cx="135" cy="119" r="10" fill="url(#c)" stroke="#000"/>
  <circle id="f" cx="124" cy="130" r="10" fill="url(#e)" stroke="#000"/>
 </g>
 <use transform="translate(21)" xlink:href="#f"/>
 <use transform="translate(0,19)" xlink:href="#d"/>
 <g font-family="DejaVu Sans" font-size="70">
  <text x="2" y="145">α</text>
  <text x="2" y="400">β</text>
  <text x="2" y="680">γ</text>
 </g>
 <g id="k" transform="translate(-23,20)" fill="none" stroke="#000">
  <g id="a">
   <g id="b" fill="none" stroke="#000">
    <g id="l">
     <path id="i" d="m113 603c0-4 3-7 7-7s7 3 7 7" fill="none" stroke="#000"/>
     <use transform="matrix(1,0,0,-1,14,1206)" xlink:href="#i"/>
    </g>
    <use transform="translate(28)" xlink:href="#l"/>
   </g>
   <use transform="translate(56)" xlink:href="#b"/>
  </g>
  <use transform="translate(112)" xlink:href="#a"/>
  <use transform="translate(224)" xlink:href="#b"/>
 </g>
 <g id="j" transform="translate(-23 85)">
  <use transform="translate(23 -53)" xlink:href="#k"/>
  <use transform="translate(280 -33)" xlink:href="#a"/>
 </g>
 <g transform="translate(-23 147)" fill="none" stroke="#000">
  <use transform="translate(23 -115)" xlink:href="#j"/>
  <use transform="translate(392 -63)" xlink:href="#a"/>
 </g>
 <g id="m" stroke="#000">
  <path d="m364 125 13 5-13 5c2-3 2-7 0-10z" stroke-linejoin="round"/>
  <path d="m370 130h-205" fill="#f00" fill-rule="evenodd"/>
 </g>
 <use transform="translate(0,252)" xlink:href="#m"/>
</svg>
