<svg width="228mm" height="134mm" version="1.1" viewBox="0 0 228 134" xmlns="http://www.w3.org/2000/svg" xmlns:xlink="http://www.w3.org/1999/xlink">
 <rect width="228" height="134" fill="#fff"/><path d="m215 125 10.6 3.5-10.6 3.5 2.1-3.5"/><path d="m219 128.5h-215" fill="none" stroke="#000"/>
 <g id="b"><path d="m3 1 54 54-55 55" fill="none" stroke="#000"/><path d="m34 83-10 5 5-10 1 4m-2-61 5 10-10-5 4-1"/></g>
 <use transform="matrix(-1 0 0 1 226 0)" xlink:href="#b"/><path d="m57 55c14-37 14 37 28 0 14-37 14 37 28 0 14-37 14 37 28 0 14-37 14 37 28 0" fill="none" stroke="#00f"/>
 <g style="font-family:'Times New Roman';-inkscape-font-specification:'Times New Roman'" font-size="12px" text-anchor="middle"><text x="110" y="40" fill="#00f">γ</text>
 <g id="a"><text x="31" y="18">e<tspan baseline-shift="super" font-size="8px">+</tspan></text><text x="31" y="99">e<tspan baseline-shift="super" font-size="10px">-</tspan></text></g>
 <use transform="translate(163)" xlink:href="#a"/><text x="218" y="122">t</text></g></svg>