<?xml version="1.0" encoding="UTF-8" standalone="no"?>
<!-- Created with Inkscape (http://www.inkscape.org/) -->
<svg xmlns:dc="http://purl.org/dc/elements/1.1/" xmlns:cc="http://creativecommons.org/ns#" xmlns:rdf="http://www.w3.org/1999/02/22-rdf-syntax-ns#" xmlns:svg="http://www.w3.org/2000/svg" xmlns="http://www.w3.org/2000/svg" xmlns:sodipodi="http://sodipodi.sourceforge.net/DTD/sodipodi-0.dtd" xmlns:inkscape="http://www.inkscape.org/namespaces/inkscape" id="svg2" version="1.1" inkscape:version="0.48.1 " width="503.02032" height="304.04395" sodipodi:docname="atomic orbital energy levels.png">
  <metadata id="metadata8">
    <rdf:RDF>
      <cc:Work rdf:about="">
        <dc:format>image/svg+xml</dc:format>
        <dc:type rdf:resource="http://purl.org/dc/dcmitype/StillImage"/>
        <dc:title/>
      </cc:Work>
    </rdf:RDF>
  </metadata>
  <defs id="defs6">
    <marker inkscape:stockid="Arrow2Lend" orient="auto" refY="0" refX="0" id="Arrow2Lend" style="overflow:visible">
      <path id="path3787" style="font-size:12px;fill-rule:evenodd;stroke-width:0.625;stroke-linejoin:round" d="M 8.7185878,4.0337352 -2.2072895,0.01601326 8.7185884,-4.0017078 c -1.7454984,2.3720609 -1.7354408,5.6174519 -6e-7,8.035443 z" transform="matrix(-1.1,0,0,-1.1,-1.1,0)" inkscape:connector-curvature="0"/>
    </marker>
    <marker inkscape:stockid="Arrow1Lend" orient="auto" refY="0" refX="0" id="Arrow1Lend" style="overflow:visible">
      <path id="path3769" d="M 0,0 5,-5 -12.5,0 5,5 0,0 z" style="fill-rule:evenodd;stroke:#000000;stroke-width:1pt;marker-start:none" transform="matrix(-0.8,0,0,-0.8,-10,0)" inkscape:connector-curvature="0"/>
    </marker>
  </defs>
  <sodipodi:namedview pagecolor="#ffffff" bordercolor="#666666" borderopacity="1" objecttolerance="10" gridtolerance="10" guidetolerance="10" inkscape:pageopacity="0" inkscape:pageshadow="2" inkscape:window-width="640" inkscape:window-height="480" id="namedview4" showgrid="false" showguides="true" inkscape:guide-bbox="true" fit-margin-top="5" fit-margin-bottom="5" fit-margin-right="5" fit-margin-left="5" inkscape:zoom="1.6466877" inkscape:cx="99.669174" inkscape:cy="161.67331" inkscape:window-x="414" inkscape:window-y="114" inkscape:window-maximized="0" inkscape:current-layer="svg2"/>
  <svg:switch style="font-size:20px;font-style:normal;font-weight:normal;text-align:center;line-height:125%;letter-spacing:0px;word-spacing:0px;text-anchor:middle;fill:#000000;fill-opacity:1;stroke:none;font-family:Sans;-inkscape-font-specification:Sans"><svg:text xml:space="preserve" style="font-size:20px;font-style:normal;font-weight:normal;text-align:center;line-height:125%;letter-spacing:0px;word-spacing:0px;text-anchor:middle;fill:#000000;fill-opacity:1;stroke:none;font-family:Sans;-inkscape-font-specification:Sans" x="462.16095" y="147.01845" id="text2987-ca" sodipodi:linespacing="125%" systemLanguage="ca"><svg:tspan sodipodi:role="line" id="tspan2989-ca" x="462.16095" y="147.01845" style="font-size:16px">Més</svg:tspan><svg:tspan sodipodi:role="line" x="462.16095" y="167.01845" id="tspan2991-ca" style="font-size:16px">energia</svg:tspan></svg:text><svg:text xml:space="preserve" style="font-size:20px;font-style:normal;font-weight:normal;text-align:center;line-height:125%;letter-spacing:0px;word-spacing:0px;text-anchor:middle;fill:#000000;fill-opacity:1;stroke:none;font-family:Sans;-inkscape-font-specification:Sans" x="462.16095" y="147.01845" id="text2987-pt" sodipodi:linespacing="125%" systemLanguage="pt"><svg:tspan sodipodi:role="line" id="tspan2989-pt" x="462.16095" y="147.01845" style="font-size:16px">Aumento</svg:tspan><svg:tspan sodipodi:role="line" x="462.16095" y="167.01845" id="tspan2991-pt" style="font-size:16px">de Energia</svg:tspan></svg:text><svg:text xml:space="preserve" style="font-size:20px;font-style:normal;font-weight:normal;text-align:center;line-height:125%;letter-spacing:0px;word-spacing:0px;text-anchor:middle;fill:#000000;fill-opacity:1;stroke:none;font-family:Sans;-inkscape-font-specification:Sans" x="462.16095" y="147.01845" id="text2987-es" sodipodi:linespacing="125%" systemLanguage="es"><svg:tspan sodipodi:role="line" id="tspan2989-es" x="462.16095" y="147.01845" style="font-size:16px">Más</svg:tspan><svg:tspan sodipodi:role="line" x="462.16095" y="167.01845" id="tspan2991-es" style="font-size:16px">energía</svg:tspan></svg:text><svg:text xml:space="preserve" style="font-size:20px;font-style:normal;font-weight:normal;text-align:center;line-height:125%;letter-spacing:0px;word-spacing:0px;text-anchor:middle;fill:#000000;fill-opacity:1;stroke:none;font-family:Sans;-inkscape-font-specification:Sans" x="462.16095" y="147.01845" id="text2987-ar" sodipodi:linespacing="125%" systemLanguage="ar"><svg:tspan sodipodi:role="line" id="tspan2989-ar" x="462.16095" y="147.01845" style="font-size:16px">زيادة</svg:tspan><svg:tspan sodipodi:role="line" x="462.16095" y="167.01845" id="tspan2991-ar" style="font-size:16px">الطاقة</svg:tspan></svg:text><svg:text xml:space="preserve" style="font-size:20px;font-style:normal;font-weight:normal;text-align:center;line-height:125%;letter-spacing:0px;word-spacing:0px;text-anchor:middle;fill:#000000;fill-opacity:1;stroke:none;font-family:Sans;-inkscape-font-specification:Sans" x="462.16095" y="147.01845" id="text2987" sodipodi:linespacing="125%"><svg:tspan sodipodi:role="line" id="tspan2989" x="462.16095" y="147.01845" style="font-size:16px">Increasing</svg:tspan><svg:tspan sodipodi:role="line" x="462.16095" y="167.01845" id="tspan2991" style="font-size:16px">Energy</svg:tspan></svg:text></svg:switch>
  <path style="fill:none;stroke:#000000;stroke-width:1.89999998;stroke-linecap:butt;stroke-linejoin:miter;stroke-miterlimit:4;stroke-opacity:1;stroke-dasharray:none;marker-end:url(#Arrow2Lend)" d="m 415.05885,286.19935 0,-266.965317" id="path2993" inkscape:connector-curvature="0"/>
  <svg:switch style="font-size:16px;font-style:normal;font-weight:normal;text-align:center;line-height:125%;letter-spacing:0px;word-spacing:0px;text-anchor:middle;fill:#000000;fill-opacity:1;stroke:none;font-family:Sans;-inkscape-font-specification:Sans"><svg:text xml:space="preserve" style="font-size:16px;font-style:normal;font-weight:normal;text-align:center;line-height:125%;letter-spacing:0px;word-spacing:0px;text-anchor:middle;fill:#000000;fill-opacity:1;stroke:none;font-family:Sans;-inkscape-font-specification:Sans" x="372.29788" y="291.21262" id="text4757" sodipodi:linespacing="125%"><svg:tspan sodipodi:role="line" id="tspan4759" x="372.29788" y="291.21262">1s</svg:tspan></svg:text></svg:switch>
  <svg:switch style="font-size:16px;font-style:normal;font-weight:normal;text-align:center;line-height:125%;letter-spacing:0px;word-spacing:0px;text-anchor:middle;fill:#000000;fill-opacity:1;stroke:none;font-family:Sans;-inkscape-font-specification:Sans"><svg:text xml:space="preserve" style="font-size:16px;font-style:normal;font-weight:normal;text-align:center;line-height:125%;letter-spacing:0px;word-spacing:0px;text-anchor:middle;fill:#000000;fill-opacity:1;stroke:none;font-family:Sans;-inkscape-font-specification:Sans" x="373.80081" y="241.18616" id="text4761" sodipodi:linespacing="125%"><svg:tspan sodipodi:role="line" id="tspan4763" x="373.80081" y="241.18616">2s</svg:tspan></svg:text></svg:switch>
  <svg:switch style="font-size:16px;font-style:normal;font-weight:normal;text-align:center;line-height:125%;letter-spacing:0px;word-spacing:0px;text-anchor:middle;fill:#000000;fill-opacity:1;stroke:none;font-family:Sans;-inkscape-font-specification:Sans"><svg:text xml:space="preserve" style="font-size:16px;font-style:normal;font-weight:normal;text-align:center;line-height:125%;letter-spacing:0px;word-spacing:0px;text-anchor:middle;fill:#000000;fill-opacity:1;stroke:none;font-family:Sans;-inkscape-font-specification:Sans" x="374.71329" y="221.54057" id="text4765" sodipodi:linespacing="125%"><svg:tspan sodipodi:role="line" id="tspan4767" x="374.71329" y="221.54057">2p</svg:tspan></svg:text></svg:switch>
  <svg:switch style="font-size:16px;font-style:normal;font-weight:normal;text-align:center;line-height:125%;letter-spacing:0px;word-spacing:0px;text-anchor:middle;fill:#000000;fill-opacity:1;stroke:none;font-family:Sans;-inkscape-font-specification:Sans"><svg:text xml:space="preserve" style="font-size:16px;font-style:normal;font-weight:normal;text-align:center;line-height:125%;letter-spacing:0px;word-spacing:0px;text-anchor:middle;fill:#000000;fill-opacity:1;stroke:none;font-family:Sans;-inkscape-font-specification:Sans" x="374.82068" y="174.3053" id="text4769" sodipodi:linespacing="125%"><svg:tspan sodipodi:role="line" id="tspan4771" x="374.82068" y="174.3053">3s</svg:tspan></svg:text></svg:switch>
  <svg:switch style="font-size:16px;font-style:normal;font-weight:normal;text-align:center;line-height:125%;letter-spacing:0px;word-spacing:0px;text-anchor:middle;fill:#000000;fill-opacity:1;stroke:none;font-family:Sans;-inkscape-font-specification:Sans"><svg:text xml:space="preserve" style="font-size:16px;font-style:normal;font-weight:normal;text-align:center;line-height:125%;letter-spacing:0px;word-spacing:0px;text-anchor:middle;fill:#000000;fill-opacity:1;stroke:none;font-family:Sans;-inkscape-font-specification:Sans" x="376.10892" y="152.67369" id="text4773" sodipodi:linespacing="125%"><svg:tspan sodipodi:role="line" id="tspan4775" x="376.10892" y="152.67369">3p</svg:tspan></svg:text></svg:switch>
  <svg:switch style="font-size:16px;font-style:normal;font-weight:normal;text-align:center;line-height:125%;letter-spacing:0px;word-spacing:0px;text-anchor:middle;fill:#000000;fill-opacity:1;stroke:none;font-family:Sans;-inkscape-font-specification:Sans"><svg:text xml:space="preserve" style="font-size:16px;font-style:normal;font-weight:normal;text-align:center;line-height:125%;letter-spacing:0px;word-spacing:0px;text-anchor:middle;fill:#000000;fill-opacity:1;stroke:none;font-family:Sans;-inkscape-font-specification:Sans" x="375.78683" y="120.78988" id="text4777" sodipodi:linespacing="125%"><svg:tspan sodipodi:role="line" id="tspan4779" x="375.78683" y="120.78988">4s</svg:tspan></svg:text></svg:switch>
  <svg:switch style="font-size:16px;font-style:normal;font-weight:normal;text-align:center;line-height:125%;letter-spacing:0px;word-spacing:0px;text-anchor:middle;fill:#000000;fill-opacity:1;stroke:none;font-family:Sans;-inkscape-font-specification:Sans"><svg:text xml:space="preserve" style="font-size:16px;font-style:normal;font-weight:normal;text-align:center;line-height:125%;letter-spacing:0px;word-spacing:0px;text-anchor:middle;fill:#000000;fill-opacity:1;stroke:none;font-family:Sans;-inkscape-font-specification:Sans" x="374.82065" y="101.94943" id="text4781" sodipodi:linespacing="125%"><svg:tspan sodipodi:role="line" id="tspan4783" x="374.82065" y="101.94943">3d</svg:tspan></svg:text></svg:switch>
  <svg:switch style="font-size:16px;font-style:normal;font-weight:normal;text-align:center;line-height:125%;letter-spacing:0px;word-spacing:0px;text-anchor:middle;fill:#000000;fill-opacity:1;stroke:none;font-family:Sans;-inkscape-font-specification:Sans"><svg:text xml:space="preserve" style="font-size:16px;font-style:normal;font-weight:normal;text-align:center;line-height:125%;letter-spacing:0px;word-spacing:0px;text-anchor:middle;fill:#000000;fill-opacity:1;stroke:none;font-family:Sans;-inkscape-font-specification:Sans" x="374.44492" y="77.419304" id="text4785" sodipodi:linespacing="125%"><svg:tspan sodipodi:role="line" id="tspan4787" x="374.44492" y="77.419304">4p</svg:tspan></svg:text></svg:switch>
  <svg:switch style="font-size:16px;font-style:normal;font-weight:normal;text-align:center;line-height:125%;letter-spacing:0px;word-spacing:0px;text-anchor:middle;fill:#000000;fill-opacity:1;stroke:none;font-family:Sans;-inkscape-font-specification:Sans"><svg:text xml:space="preserve" style="font-size:16px;font-style:normal;font-weight:normal;text-align:center;line-height:125%;letter-spacing:0px;word-spacing:0px;text-anchor:middle;fill:#000000;fill-opacity:1;stroke:none;font-family:Sans;-inkscape-font-specification:Sans" x="374.06921" y="45.320786" id="text4789" sodipodi:linespacing="125%"><svg:tspan sodipodi:role="line" id="tspan4791" x="374.06921" y="45.320786">5s</svg:tspan></svg:text></svg:switch>
  <svg:switch style="font-size:16px;font-style:normal;font-weight:normal;text-align:center;line-height:125%;letter-spacing:0px;word-spacing:0px;text-anchor:middle;fill:#000000;fill-opacity:1;stroke:none;font-family:Sans;-inkscape-font-specification:Sans"><svg:text xml:space="preserve" style="font-size:16px;font-style:normal;font-weight:normal;text-align:center;line-height:125%;letter-spacing:0px;word-spacing:0px;text-anchor:middle;fill:#000000;fill-opacity:1;stroke:none;font-family:Sans;-inkscape-font-specification:Sans" x="374.06918" y="21.810505" id="text4793" sodipodi:linespacing="125%"><svg:tspan sodipodi:role="line" id="tspan4795" x="374.06918" y="21.810505">4d</svg:tspan></svg:text></svg:switch>
  <path style="fill:none;stroke:#000000;stroke-width:1;stroke-linecap:butt;stroke-linejoin:miter;stroke-miterlimit:4;stroke-opacity:1;stroke-dasharray:none" d="m 362.63611,286.79771 -339.302292,0" id="path4799" inkscape:connector-curvature="0"/>
  <path style="fill:none;stroke:#000000;stroke-width:1px;stroke-linecap:butt;stroke-linejoin:miter;stroke-opacity:1" d="m 362.63611,236.81152 -353.2983865,0" id="path4801" inkscape:connector-curvature="0"/>
  <path style="fill:none;stroke:#000000;stroke-width:1px;stroke-linecap:butt;stroke-linejoin:miter;stroke-opacity:1" d="m 362.63611,216.7902 -251.20578,0" id="path4803" inkscape:connector-curvature="0"/>
  <path style="fill:none;stroke:#000000;stroke-width:1px;stroke-linecap:butt;stroke-linejoin:miter;stroke-opacity:1" d="m 362.63611,168.84371 -340.093979,0" id="path4805" inkscape:connector-curvature="0"/>
  <path style="fill:none;stroke:#000000;stroke-width:1px;stroke-linecap:butt;stroke-linejoin:miter;stroke-opacity:1" d="m 362.63611,148.80232 -249.59549,0" id="path4807" inkscape:connector-curvature="0"/>
  <path style="fill:none;stroke:#000000;stroke-width:1px;stroke-linecap:butt;stroke-linejoin:miter;stroke-opacity:1" d="m 362.63611,115.8248 -339.690167,0" id="path4809" inkscape:connector-curvature="0"/>
  <path style="fill:none;stroke:#000000;stroke-width:1px;stroke-linecap:butt;stroke-linejoin:miter;stroke-opacity:1" d="m 362.63611,97.790821 -102.39562,0" id="path4811" inkscape:connector-curvature="0"/>
  <path style="fill:none;stroke:#000000;stroke-width:1px;stroke-linecap:butt;stroke-linejoin:miter;stroke-opacity:1" d="m 362.63611,72.797468 -243.81588,0" id="path4813" inkscape:connector-curvature="0"/>
  <path style="fill:none;stroke:#000000;stroke-width:1;stroke-linecap:butt;stroke-linejoin:miter;stroke-miterlimit:4;stroke-opacity:1;stroke-dasharray:none" d="m 362.63611,40.801419 -332.923435,0" id="path4815" inkscape:connector-curvature="0"/>
  <path style="fill:none;stroke:#000000;stroke-width:1px;stroke-linecap:butt;stroke-linejoin:miter;stroke-opacity:1" d="m 362.63611,18.825485 -99.20741,0" id="path4817" inkscape:connector-curvature="0"/>
  <path sodipodi:type="arc" style="fill:#ff0000;fill-opacity:1;stroke:#000000;stroke-width:1.5;stroke-linecap:butt;stroke-linejoin:miter;stroke-miterlimit:4;stroke-opacity:1;stroke-dasharray:none;stroke-dashoffset:0" id="path4821" sodipodi:cx="34.918583" sodipodi:cy="291.79788" sodipodi:rx="12.373323" sodipodi:ry="12.373323" d="m 47.291906,291.79788 a 12.373323,12.373323 0 1 1 -24.746647,0 12.373323,12.373323 0 1 1 24.746647,0 z" transform="translate(-16.795259,-5.8772527)"/>
  <path sodipodi:type="arc" style="fill:#ff6600;fill-opacity:1;stroke:#000000;stroke-width:1.5;stroke-linecap:butt;stroke-linejoin:miter;stroke-miterlimit:4;stroke-opacity:1;stroke-dasharray:none;stroke-dashoffset:0" id="path4821-1" sodipodi:cx="34.918583" sodipodi:cy="291.79788" sodipodi:rx="12.373323" sodipodi:ry="12.373323" d="m 47.291906,291.79788 a 12.373323,12.373323 0 1 1 -24.746647,0 12.373323,12.373323 0 1 1 24.746647,0 z" transform="translate(-16.795259,-54.902054)"/>
  <path sodipodi:type="arc" style="fill:#ff6600;fill-opacity:1;stroke:#000000;stroke-width:1.5;stroke-linecap:butt;stroke-linejoin:miter;stroke-miterlimit:4;stroke-opacity:1;stroke-dasharray:none;stroke-dashoffset:0" id="path4821-6" sodipodi:cx="34.918583" sodipodi:cy="291.79788" sodipodi:rx="12.373323" sodipodi:ry="12.373323" d="m 47.291906,291.79788 a 12.373323,12.373323 0 1 1 -24.746647,0 12.373323,12.373323 0 1 1 24.746647,0 z" transform="translate(15.430857,-75.511608)"/>
  <path sodipodi:type="arc" style="fill:#ff6600;fill-opacity:1;stroke:#000000;stroke-width:1.5;stroke-linecap:butt;stroke-linejoin:miter;stroke-miterlimit:4;stroke-opacity:1;stroke-dasharray:none;stroke-dashoffset:0" id="path4821-5" sodipodi:cx="34.918583" sodipodi:cy="291.79788" sodipodi:rx="12.373323" sodipodi:ry="12.373323" d="m 47.291906,291.79788 a 12.373323,12.373323 0 1 1 -24.746647,0 12.373323,12.373323 0 1 1 24.746647,0 z" transform="translate(42.644574,-75.511608)"/>
  <path sodipodi:type="arc" style="fill:#ff6600;fill-opacity:1;stroke:#000000;stroke-width:1.5;stroke-linecap:butt;stroke-linejoin:miter;stroke-miterlimit:4;stroke-opacity:1;stroke-dasharray:none;stroke-dashoffset:0" id="path4821-10" sodipodi:cx="34.918583" sodipodi:cy="291.79788" sodipodi:rx="12.373323" sodipodi:ry="12.373323" d="m 47.291906,291.79788 a 12.373323,12.373323 0 1 1 -24.746647,0 12.373323,12.373323 0 1 1 24.746647,0 z" transform="translate(69.858299,-75.511608)"/>
  <path sodipodi:type="arc" style="fill:#ffff00;fill-opacity:1;stroke:#000000;stroke-width:1.5;stroke-linecap:butt;stroke-linejoin:miter;stroke-miterlimit:4;stroke-opacity:1;stroke-dasharray:none;stroke-dashoffset:0" id="path4821-7" sodipodi:cx="34.918583" sodipodi:cy="291.79788" sodipodi:rx="12.373323" sodipodi:ry="12.373323" d="m 47.291906,291.79788 a 12.373323,12.373323 0 1 1 -24.746647,0 12.373323,12.373323 0 1 1 24.746647,0 z" transform="translate(-16.795259,-122.43082)"/>
  <g id="g5036" transform="translate(-25.176231,-5.7124086)">
    <path transform="translate(46.454913,-137.38384)" d="m 47.291906,291.79788 c 0,6.8336 -5.539725,12.37333 -12.373323,12.37333 -6.833598,0 -12.373324,-5.53973 -12.373324,-12.37333 0,-6.8336 5.539726,-12.37332 12.373324,-12.37332 6.833598,0 12.373323,5.53972 12.373323,12.37332 z" sodipodi:ry="12.373323" sodipodi:rx="12.373323" sodipodi:cy="291.79788" sodipodi:cx="34.918583" id="path4821-0" style="fill:#ffff00;fill-opacity:1;stroke:#000000;stroke-width:1.5;stroke-linecap:butt;stroke-linejoin:miter;stroke-miterlimit:4;stroke-opacity:1;stroke-dasharray:none;stroke-dashoffset:0" sodipodi:type="arc"/>
    <path transform="translate(73.668866,-137.38384)" d="m 47.291906,291.79788 c 0,6.8336 -5.539725,12.37333 -12.373323,12.37333 -6.833598,0 -12.373324,-5.53973 -12.373324,-12.37333 0,-6.8336 5.539726,-12.37332 12.373324,-12.37332 6.833598,0 12.373323,5.53972 12.373323,12.37332 z" sodipodi:ry="12.373323" sodipodi:rx="12.373323" sodipodi:cy="291.79788" sodipodi:cx="34.918583" id="path4821-57" style="fill:#ffff00;fill-opacity:1;stroke:#000000;stroke-width:1.5;stroke-linecap:butt;stroke-linejoin:miter;stroke-miterlimit:4;stroke-opacity:1;stroke-dasharray:none;stroke-dashoffset:0" sodipodi:type="arc"/>
    <path transform="translate(100.88283,-137.38384)" d="m 47.291906,291.79788 c 0,6.8336 -5.539725,12.37333 -12.373323,12.37333 -6.833598,0 -12.373324,-5.53973 -12.373324,-12.37333 0,-6.8336 5.539726,-12.37332 12.373324,-12.37332 6.833598,0 12.373323,5.53972 12.373323,12.37332 z" sodipodi:ry="12.373323" sodipodi:rx="12.373323" sodipodi:cy="291.79788" sodipodi:cx="34.918583" id="path4821-68" style="fill:#ffff00;fill-opacity:1;stroke:#000000;stroke-width:1.5;stroke-linecap:butt;stroke-linejoin:miter;stroke-miterlimit:4;stroke-opacity:1;stroke-dasharray:none;stroke-dashoffset:0" sodipodi:type="arc"/>
  </g>
  <path sodipodi:type="arc" style="fill:#008000;fill-opacity:1;stroke:#000000;stroke-width:1.5;stroke-linecap:butt;stroke-linejoin:miter;stroke-miterlimit:4;stroke-opacity:1;stroke-dasharray:none;stroke-dashoffset:0" id="path4821-9" sodipodi:cx="34.918583" sodipodi:cy="291.79788" sodipodi:rx="12.373323" sodipodi:ry="12.373323" d="m 47.291906,291.79788 a 12.373323,12.373323 0 1 1 -24.746647,0 12.373323,12.373323 0 1 1 24.746647,0 z" transform="translate(-16.795259,-175.78521)"/>
  <g id="g5017" transform="translate(-24.771981,-5.7124086)">
    <path transform="translate(135.12841,-188.91323)" d="m 47.291906,291.79788 c 0,6.8336 -5.539725,12.37333 -12.373323,12.37333 -6.833598,0 -12.373324,-5.53973 -12.373324,-12.37333 0,-6.8336 5.539726,-12.37332 12.373324,-12.37332 6.833598,0 12.373323,5.53972 12.373323,12.37332 z" sodipodi:ry="12.373323" sodipodi:rx="12.373323" sodipodi:cy="291.79788" sodipodi:cx="34.918583" id="path4821-68-2" style="fill:#ffff00;fill-opacity:1;stroke:#000000;stroke-width:1.5;stroke-linecap:butt;stroke-linejoin:miter;stroke-miterlimit:4;stroke-opacity:1;stroke-dasharray:none;stroke-dashoffset:0" sodipodi:type="arc"/>
    <path transform="translate(162.5034,-188.91323)" d="m 47.291906,291.79788 c 0,6.8336 -5.539725,12.37333 -12.373323,12.37333 -6.833598,0 -12.373324,-5.53973 -12.373324,-12.37333 0,-6.8336 5.539726,-12.37332 12.373324,-12.37332 6.833598,0 12.373323,5.53972 12.373323,12.37332 z" sodipodi:ry="12.373323" sodipodi:rx="12.373323" sodipodi:cy="291.79788" sodipodi:cx="34.918583" id="path4821-68-8" style="fill:#ffff00;fill-opacity:1;stroke:#000000;stroke-width:1.5;stroke-linecap:butt;stroke-linejoin:miter;stroke-miterlimit:4;stroke-opacity:1;stroke-dasharray:none;stroke-dashoffset:0" sodipodi:type="arc"/>
    <path transform="translate(189.87839,-188.91323)" d="m 47.291906,291.79788 c 0,6.8336 -5.539725,12.37333 -12.373323,12.37333 -6.833598,0 -12.373324,-5.53973 -12.373324,-12.37333 0,-6.8336 5.539726,-12.37332 12.373324,-12.37332 6.833598,0 12.373323,5.53972 12.373323,12.37332 z" sodipodi:ry="12.373323" sodipodi:rx="12.373323" sodipodi:cy="291.79788" sodipodi:cx="34.918583" id="path4821-68-5" style="fill:#ffff00;fill-opacity:1;stroke:#000000;stroke-width:1.5;stroke-linecap:butt;stroke-linejoin:miter;stroke-miterlimit:4;stroke-opacity:1;stroke-dasharray:none;stroke-dashoffset:0" sodipodi:type="arc"/>
    <path transform="translate(217.25337,-188.91323)" d="m 47.291906,291.79788 c 0,6.8336 -5.539725,12.37333 -12.373323,12.37333 -6.833598,0 -12.373324,-5.53973 -12.373324,-12.37333 0,-6.8336 5.539726,-12.37332 12.373324,-12.37332 6.833598,0 12.373323,5.53972 12.373323,12.37332 z" sodipodi:ry="12.373323" sodipodi:rx="12.373323" sodipodi:cy="291.79788" sodipodi:cx="34.918583" id="path4821-68-0" style="fill:#ffff00;fill-opacity:1;stroke:#000000;stroke-width:1.5;stroke-linecap:butt;stroke-linejoin:miter;stroke-miterlimit:4;stroke-opacity:1;stroke-dasharray:none;stroke-dashoffset:0" sodipodi:type="arc"/>
    <path transform="translate(244.62836,-188.91323)" d="m 47.291906,291.79788 c 0,6.8336 -5.539725,12.37333 -12.373323,12.37333 -6.833598,0 -12.373324,-5.53973 -12.373324,-12.37333 0,-6.8336 5.539726,-12.37332 12.373324,-12.37332 6.833598,0 12.373323,5.53972 12.373323,12.37332 z" sodipodi:ry="12.373323" sodipodi:rx="12.373323" sodipodi:cy="291.79788" sodipodi:cx="34.918583" id="path4821-68-1" style="fill:#ffff00;fill-opacity:1;stroke:#000000;stroke-width:1.5;stroke-linecap:butt;stroke-linejoin:miter;stroke-miterlimit:4;stroke-opacity:1;stroke-dasharray:none;stroke-dashoffset:0" sodipodi:type="arc"/>
  </g>
  <g id="g5031" transform="translate(-27.913731,-5.7124086)">
    <path transform="translate(49.031383,-213.01396)" d="m 47.291906,291.79788 c 0,6.8336 -5.539725,12.37333 -12.373323,12.37333 -6.833598,0 -12.373324,-5.53973 -12.373324,-12.37333 0,-6.8336 5.539726,-12.37332 12.373324,-12.37332 6.833598,0 12.373323,5.53972 12.373323,12.37332 z" sodipodi:ry="12.373323" sodipodi:rx="12.373323" sodipodi:cy="291.79788" sodipodi:cx="34.918583" id="path4821-9-5" style="fill:#008000;fill-opacity:1;stroke:#000000;stroke-width:1.5;stroke-linecap:butt;stroke-linejoin:miter;stroke-miterlimit:4;stroke-opacity:1;stroke-dasharray:none;stroke-dashoffset:0" sodipodi:type="arc"/>
    <path transform="translate(76.325856,-213.01396)" d="m 47.291906,291.79788 c 0,6.8336 -5.539725,12.37333 -12.373323,12.37333 -6.833598,0 -12.373324,-5.53973 -12.373324,-12.37333 0,-6.8336 5.539726,-12.37332 12.373324,-12.37332 6.833598,0 12.373323,5.53972 12.373323,12.37332 z" sodipodi:ry="12.373323" sodipodi:rx="12.373323" sodipodi:cy="291.79788" sodipodi:cx="34.918583" id="path4821-9-53" style="fill:#008000;fill-opacity:1;stroke:#000000;stroke-width:1.5;stroke-linecap:butt;stroke-linejoin:miter;stroke-miterlimit:4;stroke-opacity:1;stroke-dasharray:none;stroke-dashoffset:0" sodipodi:type="arc"/>
    <path transform="translate(103.62033,-213.01396)" d="m 47.291906,291.79788 c 0,6.8336 -5.539725,12.37333 -12.373323,12.37333 -6.833598,0 -12.373324,-5.53973 -12.373324,-12.37333 0,-6.8336 5.539726,-12.37332 12.373324,-12.37332 6.833598,0 12.373323,5.53972 12.373323,12.37332 z" sodipodi:ry="12.373323" sodipodi:rx="12.373323" sodipodi:cy="291.79788" sodipodi:cx="34.918583" id="path4821-9-4" style="fill:#008000;fill-opacity:1;stroke:#000000;stroke-width:1.5;stroke-linecap:butt;stroke-linejoin:miter;stroke-miterlimit:4;stroke-opacity:1;stroke-dasharray:none;stroke-dashoffset:0" sodipodi:type="arc"/>
  </g>
  <path sodipodi:type="arc" style="fill:#0000ff;fill-opacity:1;stroke:#000000;stroke-width:1.5;stroke-linecap:butt;stroke-linejoin:miter;stroke-miterlimit:4;stroke-opacity:1;stroke-dasharray:none;stroke-dashoffset:0" id="path4821-9-7" sodipodi:cx="34.918583" sodipodi:cy="291.79788" sodipodi:rx="12.373323" sodipodi:ry="12.373323" d="m 47.291906,291.79788 a 12.373323,12.373323 0 1 1 -24.746647,0 12.373323,12.373323 0 1 1 24.746647,0 z" transform="translate(-16.795259,-250.64702)"/>
  <g id="g5024" transform="translate(-27.913731,-5.7124086)">
    <path transform="translate(138.61159,-267.96215)" d="m 47.291906,291.79788 c 0,6.8336 -5.539725,12.37333 -12.373323,12.37333 -6.833598,0 -12.373324,-5.53973 -12.373324,-12.37333 0,-6.8336 5.539726,-12.37332 12.373324,-12.37332 6.833598,0 12.373323,5.53972 12.373323,12.37332 z" sodipodi:ry="12.373323" sodipodi:rx="12.373323" sodipodi:cy="291.79788" sodipodi:cx="34.918583" id="path4821-9-8" style="fill:#008000;fill-opacity:1;stroke:#000000;stroke-width:1.5;stroke-linecap:butt;stroke-linejoin:miter;stroke-miterlimit:4;stroke-opacity:1;stroke-dasharray:none;stroke-dashoffset:0" sodipodi:type="arc"/>
    <path transform="translate(165.90121,-267.96215)" d="m 47.291906,291.79788 c 0,6.8336 -5.539725,12.37333 -12.373323,12.37333 -6.833598,0 -12.373324,-5.53973 -12.373324,-12.37333 0,-6.8336 5.539726,-12.37332 12.373324,-12.37332 6.833598,0 12.373323,5.53972 12.373323,12.37332 z" sodipodi:ry="12.373323" sodipodi:rx="12.373323" sodipodi:cy="291.79788" sodipodi:cx="34.918583" id="path4821-9-81" style="fill:#008000;fill-opacity:1;stroke:#000000;stroke-width:1.5;stroke-linecap:butt;stroke-linejoin:miter;stroke-miterlimit:4;stroke-opacity:1;stroke-dasharray:none;stroke-dashoffset:0" sodipodi:type="arc"/>
    <path transform="translate(193.19084,-267.96215)" d="m 47.291906,291.79788 c 0,6.8336 -5.539725,12.37333 -12.373323,12.37333 -6.833598,0 -12.373324,-5.53973 -12.373324,-12.37333 0,-6.8336 5.539726,-12.37332 12.373324,-12.37332 6.833598,0 12.373323,5.53972 12.373323,12.37332 z" sodipodi:ry="12.373323" sodipodi:rx="12.373323" sodipodi:cy="291.79788" sodipodi:cx="34.918583" id="path4821-9-9" style="fill:#008000;fill-opacity:1;stroke:#000000;stroke-width:1.5;stroke-linecap:butt;stroke-linejoin:miter;stroke-miterlimit:4;stroke-opacity:1;stroke-dasharray:none;stroke-dashoffset:0" sodipodi:type="arc"/>
    <path transform="translate(220.48048,-267.96215)" d="m 47.291906,291.79788 c 0,6.8336 -5.539725,12.37333 -12.373323,12.37333 -6.833598,0 -12.373324,-5.53973 -12.373324,-12.37333 0,-6.8336 5.539726,-12.37332 12.373324,-12.37332 6.833598,0 12.373323,5.53972 12.373323,12.37332 z" sodipodi:ry="12.373323" sodipodi:rx="12.373323" sodipodi:cy="291.79788" sodipodi:cx="34.918583" id="path4821-9-88" style="fill:#008000;fill-opacity:1;stroke:#000000;stroke-width:1.5;stroke-linecap:butt;stroke-linejoin:miter;stroke-miterlimit:4;stroke-opacity:1;stroke-dasharray:none;stroke-dashoffset:0" sodipodi:type="arc"/>
    <path transform="translate(247.77011,-267.96215)" d="m 47.291906,291.79788 c 0,6.8336 -5.539725,12.37333 -12.373323,12.37333 -6.833598,0 -12.373324,-5.53973 -12.373324,-12.37333 0,-6.8336 5.539726,-12.37332 12.373324,-12.37332 6.833598,0 12.373323,5.53972 12.373323,12.37332 z" sodipodi:ry="12.373323" sodipodi:rx="12.373323" sodipodi:cy="291.79788" sodipodi:cx="34.918583" id="path4821-9-94" style="fill:#008000;fill-opacity:1;stroke:#000000;stroke-width:1.5;stroke-linecap:butt;stroke-linejoin:miter;stroke-miterlimit:4;stroke-opacity:1;stroke-dasharray:none;stroke-dashoffset:0" sodipodi:type="arc"/>
  </g>
</svg>
