<?xml version="1.0" encoding="UTF-8" standalone="no"?>
<svg
   width="3623"
   height="2677"
   xml:space="preserve"
   overflow="hidden"
   version="1.1"
   id="svg211"
   sodipodi:docname="Binding_energy_curve_of_common_isotopes.svg"
   inkscape:version="1.4.3 (0d15f75, 2025-12-25)"
   xmlns:inkscape="http://www.inkscape.org/namespaces/inkscape"
   xmlns:sodipodi="http://sodipodi.sourceforge.net/DTD/sodipodi-0.dtd"
   xmlns="http://www.w3.org/2000/svg"
   xmlns:svg="http://www.w3.org/2000/svg"><defs
     id="defs211" /><sodipodi:namedview
     id="namedview211"
     pagecolor="#ffffff"
     bordercolor="#000000"
     borderopacity="0.25"
     inkscape:showpageshadow="2"
     inkscape:pageopacity="0.0"
     inkscape:pagecheckerboard="0"
     inkscape:deskcolor="#d1d1d1"
     inkscape:zoom="0.70489354"
     inkscape:cx="1810.9118"
     inkscape:cy="1338.5"
     inkscape:window-width="3840"
     inkscape:window-height="2089"
     inkscape:window-x="-8"
     inkscape:window-y="-8"
     inkscape:window-maximized="1"
     inkscape:current-layer="g211" /><g
     transform="translate(1 1)"
     id="g211"><rect
       x="0"
       y="0"
       width="3620"
       height="2674"
       fill="#FFFFFF"
       id="rect1" /><g
       id="g1"><path
         d="M260.5 2167.57 3531.5 2167.57M260.5 1903.56 3531.5 1903.56M260.5 1639.55 3531.5 1639.55M260.5 1374.55 3531.5 1374.55M260.5 1110.54 3531.5 1110.54M260.5 846.528 3531.5 846.528M260.5 582.519 3531.5 582.519M260.5 317.511 3531.5 317.511M260.5 53.5001 3531.5 53.5001"
         stroke="#D9D9D9"
         stroke-width="3.4375"
         stroke-linejoin="round"
         stroke-miterlimit="10"
         fill="none"
         id="path1" /></g><g
       id="g2"><path
         d="M532.518 53.5001 532.518 2431.5M805.527 53.5001 805.527 2431.5M1077.54 53.5001 1077.54 2431.5M1350.54 53.5001 1350.54 2431.5M1623.55 53.5001 1623.55 2431.5M1895.56 53.5001 1895.56 2431.5M2168.57 53.5001 2168.57 2431.5M2440.58 53.5001 2440.58 2431.5M2713.59 53.5001 2713.59 2431.5M2985.6 53.5001 2985.6 2431.5M3258.61 53.5001 3258.61 2431.5M3531.5 53.5001 3531.5 2431.5"
         stroke="#D9D9D9"
         stroke-width="3.4375"
         stroke-linejoin="round"
         stroke-miterlimit="10"
         fill="none"
         id="path2" /></g><g
       id="g3"><path
         d="M0 0 0.000360892 2378"
         stroke="#BFBFBF"
         stroke-width="3.4375"
         stroke-linejoin="round"
         stroke-miterlimit="10"
         fill="none"
         fill-rule="evenodd"
         transform="matrix(1 0 0 -1 260.5 2431.5)"
         id="path3" /></g><g
       id="g4"><path
         d="M260.5 2431.5 3531.5 2431.5"
         stroke="#BFBFBF"
         stroke-width="3.4375"
         stroke-linejoin="round"
         stroke-miterlimit="10"
         fill="none"
         fill-rule="evenodd"
         id="path4" /></g><g
       id="g5"><path
         d="M273.5 2431.5 287.51 2137.57 301.51 1684.56 301.51 1751.56 314.51 562.519 341.511 1022.53 355.512 950.531 382.513 724.524 396.513 720.524 410.514 601.52 423.514 402.513 437.515 457.515 450.515 456.515 478.516 324.511 519.517 376.513 532.518 309.51 573.519 288.51 587.519 248.508 628.521 230.508 641.521 199.507 682.523 190.506 696.523 187.506 737.524 180.506 764.525 167.506 791.526 170.506 805.527 160.505 805.527 172.506 873.529 154.505 914.53 126.504 955.531 121.504 968.532 112.504 1009.53 115.504 1023.53 109.5 1050.53 124.504 1064.54 114.504 1077.54 111.504 1118.54 119.504 1132.54 123.504 1146.54 117.504 1159.54 117.504 1186.54 118.504 1186.54 132.505 1214.54 127.504 1227.54 128.504 1241.54 124.504 1268.54 126.504 1282.54 132.505 1323.54 128.504 1336.54 136.505 1350.54 130.504 1364.54 134.505 1404.55 128.504 1418.55 133.505 1432.55 129.504 1445.55 130.504 1459.55 124.504 1486.55 130.504 1527.55 142.505 1541.55 141.505 1554.55 146.505 1568.55 145.505 1595.55 150.505 1595.55 156.505 1650.55 157.505 1663.55 163.506 1691.56 167.506 1704.56 164.506 1718.56 171.506 1732.56 168.506 1745.56 173.506 1786.56 173.506 1813.56 177.506 1827.56 181.506 1868.56 181.506 1895.56 184.506 1909.56 190.506 1936.56 193.507 1991.57 200.507 2004.57 199.507 2018.57 204.507 2031.57 204.507 2045.57 205.507 2059.57 204.507 2072.57 209.507 2140.57 214.507 2154.57 218.507 2168.57 218.507 2181.57 224.508 2195.57 226.508 2222.57 231.508 2236.57 237.508 2318.58 254.509 2331.58 253.508 2345.58 257.509 2359.58 257.509 2386.58 261.509 2413.58 264.509 2427.58 267.509 2440.58 269.509 2468.58 272.509 2481.58 275.509 2495.58 275.509 2508.58 279.509 2522.58 280.509 2536.58 283.509 2549.58 283.509 2563.58 287.51 2604.59 292.51 2645.59 299.51 2686.59 304.51 2713.59 308.51 2727.59 311.51 2740.59 313.51 2767.59 316.511 2781.59 320.511 2795.59 320.511 2808.59 323.511 2849.59 327.511 2863.59 331.511 2876.59 331.511 2890.6 334.511 2904.6 334.511 2917.6 337.511 2931.6 337.511 2945.6 340.511 2985.6 342.511 3013.6 345.512 3026.6 348.512 3054.6 350.512 3067.6 350.512 3094.6 353.512 3108.6 358.512 3108.6 361.512 3122.6 367.512 3285.61 398.513 3299.61 401.513 3340.61 407.514 3353.61 410.514 3408.61 418.514 3422.61 419.514 3462.61 425.514 3503.5 431.514"
         stroke="#156082"
         stroke-width="6.875"
         stroke-linecap="round"
         stroke-linejoin="round"
         stroke-miterlimit="10"
         fill="none"
         id="path5" /></g><g
       id="g149"><path
         d="M285.5 2430.5C285.5 2437.68 279.68 2443.5 272.5 2443.5 265.321 2443.5 259.501 2437.68 259.501 2430.5 259.501 2423.32 265.321 2417.5 272.5 2417.5 279.68 2417.5 285.5 2423.32 285.5 2430.5Z"
         stroke="#000000"
         stroke-width="3.4375"
         stroke-linejoin="round"
         stroke-miterlimit="10"
         fill="none"
         id="path6" /><path
         d="M299.5 2137.5C299.5 2144.68 293.68 2150.5 286.5 2150.5 279.321 2150.5 273.5 2144.68 273.5 2137.5 273.5 2130.32 279.321 2124.5 286.5 2124.5 293.68 2124.5 299.5 2130.32 299.5 2137.5Z"
         stroke="#000000"
         stroke-width="3.4375"
         stroke-linejoin="round"
         stroke-miterlimit="10"
         fill="none"
         id="path7" /><path
         d="M313.5 1683.5C313.5 1690.68 307.68 1696.5 300.5 1696.5 293.321 1696.5 287.501 1690.68 287.501 1683.5 287.501 1676.32 293.321 1670.5 300.5 1670.5 307.68 1670.5 313.5 1676.32 313.5 1683.5Z"
         stroke="#000000"
         stroke-width="3.4375"
         stroke-linejoin="round"
         stroke-miterlimit="10"
         fill="none"
         id="path8" /><path
         d="M313.5 1750.5C313.5 1757.68 307.68 1763.5 300.5 1763.5 293.321 1763.5 287.501 1757.68 287.501 1750.5 287.501 1743.32 293.321 1737.5 300.5 1737.5 307.68 1737.5 313.5 1743.32 313.5 1750.5Z"
         stroke="#000000"
         stroke-width="3.4375"
         stroke-linejoin="round"
         stroke-miterlimit="10"
         fill="none"
         id="path9" /><path
         d="M326.5 561.5C326.5 568.679 320.68 574.5 313.5 574.5 306.321 574.5 300.501 568.679 300.501 561.5 300.501 554.32 306.321 548.5 313.5 548.5 320.68 548.5 326.5 554.32 326.5 561.5Z"
         stroke="#000000"
         stroke-width="3.4375"
         stroke-linejoin="round"
         stroke-miterlimit="10"
         fill="none"
         id="path10" /><path
         d="M353.5 1021.5C353.5 1028.68 347.68 1034.5 340.501 1034.5 333.321 1034.5 327.501 1028.68 327.501 1021.5 327.501 1014.32 333.321 1008.5 340.501 1008.5 347.68 1008.5 353.5 1014.32 353.5 1021.5Z"
         stroke="#000000"
         stroke-width="3.4375"
         stroke-linejoin="round"
         stroke-miterlimit="10"
         fill="none"
         id="path11" /><path
         d="M367.5 949.5C367.5 956.68 361.68 962.5 354.5 962.5 347.321 962.5 341.501 956.68 341.501 949.5 341.501 942.32 347.321 936.5 354.5 936.5 361.68 936.5 367.5 942.32 367.5 949.5Z"
         stroke="#000000"
         stroke-width="3.4375"
         stroke-linejoin="round"
         stroke-miterlimit="10"
         fill="none"
         id="path12" /><path
         d="M394.5 723.5C394.5 730.68 388.68 736.5 381.5 736.5 374.321 736.5 368.501 730.68 368.501 723.5 368.501 716.321 374.321 710.5 381.5 710.5 388.68 710.5 394.5 716.321 394.5 723.5Z"
         stroke="#000000"
         stroke-width="3.4375"
         stroke-linejoin="round"
         stroke-miterlimit="10"
         fill="none"
         id="path13" /><path
         d="M408.5 719.5C408.5 726.68 402.68 732.5 395.501 732.5 388.321 732.5 382.501 726.68 382.501 719.5 382.501 712.32 388.321 706.5 395.501 706.5 402.68 706.5 408.5 712.32 408.5 719.5Z"
         stroke="#000000"
         stroke-width="3.4375"
         stroke-linejoin="round"
         stroke-miterlimit="10"
         fill="none"
         id="path14" /><path
         d="M422.5 600.5C422.5 607.68 416.68 613.5 409.5 613.5 402.321 613.5 396.501 607.68 396.501 600.5 396.501 593.32 402.321 587.5 409.5 587.5 416.68 587.5 422.5 593.32 422.5 600.5Z"
         stroke="#000000"
         stroke-width="3.4375"
         stroke-linejoin="round"
         stroke-miterlimit="10"
         fill="none"
         id="path15" /><path
         d="M435.5 401.5C435.5 408.68 429.68 414.5 422.5 414.5 415.321 414.5 409.501 408.68 409.501 401.5 409.501 394.32 415.321 388.5 422.5 388.5 429.68 388.5 435.5 394.32 435.5 401.5Z"
         stroke="#000000"
         stroke-width="3.4375"
         stroke-linejoin="round"
         stroke-miterlimit="10"
         fill="none"
         id="path16" /><path
         d="M449.5 456.5C449.5 463.68 443.68 469.5 436.5 469.5 429.321 469.5 423.501 463.68 423.501 456.5 423.501 449.32 429.321 443.5 436.5 443.5 443.68 443.5 449.5 449.32 449.5 456.5Z"
         stroke="#000000"
         stroke-width="3.4375"
         stroke-linejoin="round"
         stroke-miterlimit="10"
         fill="none"
         id="path17" /><path
         d="M462.5 455.5C462.5 462.68 456.68 468.5 449.5 468.5 442.321 468.5 436.501 462.68 436.501 455.5 436.501 448.32 442.321 442.5 449.5 442.5 456.68 442.5 462.5 448.32 462.5 455.5Z"
         stroke="#000000"
         stroke-width="3.4375"
         stroke-linejoin="round"
         stroke-miterlimit="10"
         fill="none"
         id="path18" /><path
         d="M490.5 323.5C490.5 330.68 484.68 336.5 477.5 336.5 470.321 336.5 464.501 330.68 464.501 323.5 464.501 316.32 470.321 310.5 477.5 310.5 484.68 310.5 490.5 316.32 490.5 323.5Z"
         stroke="#000000"
         stroke-width="3.4375"
         stroke-linejoin="round"
         stroke-miterlimit="10"
         fill="none"
         id="path19" /><path
         d="M531.5 375.5C531.5 382.679 525.68 388.5 518.5 388.5 511.321 388.5 505.501 382.679 505.501 375.5 505.501 368.32 511.321 362.5 518.5 362.5 525.68 362.5 531.5 368.32 531.5 375.5Z"
         stroke="#000000"
         stroke-width="3.4375"
         stroke-linejoin="round"
         stroke-miterlimit="10"
         fill="none"
         id="path20" /><path
         d="M544.5 308.5C544.5 315.679 538.68 321.5 531.5 321.5 524.321 321.5 518.501 315.679 518.501 308.5 518.501 301.32 524.321 295.5 531.5 295.5 538.68 295.5 544.5 301.32 544.5 308.5Z"
         stroke="#000000"
         stroke-width="3.4375"
         stroke-linejoin="round"
         stroke-miterlimit="10"
         fill="none"
         id="path21" /><path
         d="M585.5 287.5C585.5 294.679 579.68 300.5 572.5 300.5 565.321 300.5 559.5 294.679 559.5 287.5 559.5 280.32 565.321 274.5 572.5 274.5 579.68 274.5 585.5 280.32 585.5 287.5Z"
         stroke="#000000"
         stroke-width="3.4375"
         stroke-linejoin="round"
         stroke-miterlimit="10"
         fill="none"
         id="path22" /><path
         d="M599.5 247.5C599.5 254.68 593.68 260.5 586.5 260.5 579.321 260.5 573.501 254.68 573.501 247.5 573.501 240.32 579.321 234.5 586.5 234.5 593.68 234.5 599.5 240.32 599.5 247.5Z"
         stroke="#000000"
         stroke-width="3.4375"
         stroke-linejoin="round"
         stroke-miterlimit="10"
         fill="none"
         id="path23" /><path
         d="M640.5 229.5C640.5 236.68 634.68 242.5 627.5 242.5 620.321 242.5 614.5 236.68 614.5 229.5 614.5 222.321 620.321 216.5 627.5 216.5 634.68 216.5 640.5 222.321 640.5 229.5Z"
         stroke="#000000"
         stroke-width="3.4375"
         stroke-linejoin="round"
         stroke-miterlimit="10"
         fill="none"
         id="path24" /><path
         d="M653.5 198.5C653.5 205.679 647.68 211.5 640.5 211.5 633.321 211.5 627.501 205.679 627.501 198.5 627.501 191.32 633.321 185.5 640.5 185.5 647.68 185.5 653.5 191.32 653.5 198.5Z"
         stroke="#000000"
         stroke-width="3.4375"
         stroke-linejoin="round"
         stroke-miterlimit="10"
         fill="none"
         id="path25" /><path
         d="M694.5 189.5C694.5 196.679 688.68 202.5 681.5 202.5 674.321 202.5 668.501 196.679 668.501 189.5 668.501 182.32 674.321 176.5 681.5 176.5 688.68 176.5 694.5 182.32 694.5 189.5Z"
         stroke="#000000"
         stroke-width="3.4375"
         stroke-linejoin="round"
         stroke-miterlimit="10"
         fill="none"
         id="path26" /><path
         d="M708.5 186.5C708.5 193.68 702.68 199.5 695.5 199.5 688.321 199.5 682.501 193.68 682.501 186.5 682.501 179.321 688.321 173.5 695.5 173.5 702.68 173.5 708.5 179.321 708.5 186.5Z"
         stroke="#000000"
         stroke-width="3.4375"
         stroke-linejoin="round"
         stroke-miterlimit="10"
         fill="none"
         id="path27" /><path
         d="M749.5 179.5C749.5 186.679 743.68 192.5 736.5 192.5 729.321 192.5 723.501 186.679 723.501 179.5 723.501 172.32 729.321 166.5 736.5 166.5 743.68 166.5 749.5 172.32 749.5 179.5Z"
         stroke="#000000"
         stroke-width="3.4375"
         stroke-linejoin="round"
         stroke-miterlimit="10"
         fill="none"
         id="path28" /><path
         d="M776.5 166.5C776.5 173.679 770.68 179.5 763.5 179.5 756.321 179.5 750.501 173.679 750.501 166.5 750.501 159.32 756.321 153.5 763.5 153.5 770.68 153.5 776.5 159.32 776.5 166.5Z"
         stroke="#000000"
         stroke-width="3.4375"
         stroke-linejoin="round"
         stroke-miterlimit="10"
         fill="none"
         id="path29" /><path
         d="M803.5 169.5C803.5 176.68 797.68 182.5 790.5 182.5 783.321 182.5 777.501 176.68 777.501 169.5 777.501 162.32 783.321 156.5 790.5 156.5 797.68 156.5 803.5 162.32 803.5 169.5Z"
         stroke="#000000"
         stroke-width="3.4375"
         stroke-linejoin="round"
         stroke-miterlimit="10"
         fill="none"
         id="path30" /><path
         d="M817.5 159.5C817.5 166.68 811.68 172.5 804.5 172.5 797.321 172.5 791.5 166.68 791.5 159.5 791.5 152.32 797.321 146.5 804.5 146.5 811.68 146.5 817.5 152.32 817.5 159.5Z"
         stroke="#000000"
         stroke-width="3.4375"
         stroke-linejoin="round"
         stroke-miterlimit="10"
         fill="none"
         id="path31" /><path
         d="M817.5 171.5C817.5 178.68 811.68 184.5 804.5 184.5 797.321 184.5 791.5 178.68 791.5 171.5 791.5 164.32 797.321 158.5 804.5 158.5 811.68 158.5 817.5 164.32 817.5 171.5Z"
         stroke="#000000"
         stroke-width="3.4375"
         stroke-linejoin="round"
         stroke-miterlimit="10"
         fill="none"
         id="path32" /><path
         d="M885.5 153.5C885.5 160.68 879.68 166.5 872.5 166.5 865.321 166.5 859.501 160.68 859.501 153.5 859.501 146.321 865.321 140.5 872.5 140.5 879.68 140.5 885.5 146.321 885.5 153.5Z"
         stroke="#000000"
         stroke-width="3.4375"
         stroke-linejoin="round"
         stroke-miterlimit="10"
         fill="none"
         id="path33" /><path
         d="M926.5 125.5C926.5 132.68 920.68 138.5 913.5 138.5 906.321 138.5 900.5 132.68 900.5 125.5 900.5 118.32 906.321 112.5 913.5 112.5 920.68 112.5 926.5 118.32 926.5 125.5Z"
         stroke="#000000"
         stroke-width="3.4375"
         stroke-linejoin="round"
         stroke-miterlimit="10"
         fill="none"
         id="path34" /><path
         d="M967.5 120.5C967.5 127.68 961.68 133.5 954.5 133.5 947.321 133.5 941.501 127.68 941.501 120.5 941.501 113.321 947.321 107.5 954.5 107.5 961.68 107.5 967.5 113.321 967.5 120.5Z"
         stroke="#000000"
         stroke-width="3.4375"
         stroke-linejoin="round"
         stroke-miterlimit="10"
         fill="none"
         id="path35" /><path
         d="M980.5 111.5C980.5 118.679 974.68 124.5 967.5 124.5 960.321 124.5 954.501 118.679 954.501 111.5 954.501 104.32 960.321 98.5002 967.5 98.5002 974.68 98.5002 980.5 104.32 980.5 111.5Z"
         stroke="#000000"
         stroke-width="3.4375"
         stroke-linejoin="round"
         stroke-miterlimit="10"
         fill="none"
         id="path36" /><path
         d="M1021.5 114.5C1021.5 121.68 1015.68 127.5 1008.5 127.5 1001.32 127.5 995.501 121.68 995.501 114.5 995.501 107.32 1001.32 101.5 1008.5 101.5 1015.68 101.5 1021.5 107.32 1021.5 114.5Z"
         stroke="#000000"
         stroke-width="3.4375"
         stroke-linejoin="round"
         stroke-miterlimit="10"
         fill="none"
         id="path37" /><path
         d="M1035.5 108.5C1035.5 115.68 1029.68 121.5 1022.5 121.5 1015.32 121.5 1009.5 115.68 1009.5 108.5 1009.5 101.321 1015.32 95.5004 1022.5 95.5004 1029.68 95.5004 1035.5 101.321 1035.5 108.5Z"
         stroke="#000000"
         stroke-width="3.4375"
         stroke-linejoin="round"
         stroke-miterlimit="10"
         fill="none"
         id="path38" /><path
         d="M1062.5 123.5C1062.5 130.679 1056.68 136.5 1049.5 136.5 1042.32 136.5 1036.5 130.679 1036.5 123.5 1036.5 116.32 1042.32 110.5 1049.5 110.5 1056.68 110.5 1062.5 116.32 1062.5 123.5Z"
         stroke="#000000"
         stroke-width="3.4375"
         stroke-linejoin="round"
         stroke-miterlimit="10"
         fill="none"
         id="path39" /><path
         d="M1076.5 113.5C1076.5 120.679 1070.68 126.5 1063.5 126.5 1056.32 126.5 1050.5 120.679 1050.5 113.5 1050.5 106.32 1056.32 100.5 1063.5 100.5 1070.68 100.5 1076.5 106.32 1076.5 113.5Z"
         stroke="#000000"
         stroke-width="3.4375"
         stroke-linejoin="round"
         stroke-miterlimit="10"
         fill="none"
         id="path40" /><path
         d="M1089.5 110.5C1089.5 117.679 1083.68 123.5 1076.5 123.5 1069.32 123.5 1063.5 117.679 1063.5 110.5 1063.5 103.32 1069.32 97.5001 1076.5 97.5001 1083.68 97.5001 1089.5 103.32 1089.5 110.5Z"
         stroke="#000000"
         stroke-width="3.4375"
         stroke-linejoin="round"
         stroke-miterlimit="10"
         fill="none"
         id="path41" /><path
         d="M1130.5 118.5C1130.5 125.68 1124.68 131.5 1117.5 131.5 1110.32 131.5 1104.5 125.68 1104.5 118.5 1104.5 111.321 1110.32 105.5 1117.5 105.5 1124.68 105.5 1130.5 111.321 1130.5 118.5Z"
         stroke="#000000"
         stroke-width="3.4375"
         stroke-linejoin="round"
         stroke-miterlimit="10"
         fill="none"
         id="path42" /><path
         d="M1144.5 122.5C1144.5 129.679 1138.68 135.5 1131.5 135.5 1124.32 135.5 1118.5 129.679 1118.5 122.5 1118.5 115.32 1124.32 109.5 1131.5 109.5 1138.68 109.5 1144.5 115.32 1144.5 122.5Z"
         stroke="#000000"
         stroke-width="3.4375"
         stroke-linejoin="round"
         stroke-miterlimit="10"
         fill="none"
         id="path43" /><path
         d="M1158.5 116.5C1158.5 123.68 1152.68 129.5 1145.5 129.5 1138.32 129.5 1132.5 123.68 1132.5 116.5 1132.5 109.32 1138.32 103.5 1145.5 103.5 1152.68 103.5 1158.5 109.32 1158.5 116.5Z"
         stroke="#000000"
         stroke-width="3.4375"
         stroke-linejoin="round"
         stroke-miterlimit="10"
         fill="none"
         id="path44" /><path
         d="M1171.5 116.5C1171.5 123.68 1165.68 129.5 1158.5 129.5 1151.32 129.5 1145.5 123.68 1145.5 116.5 1145.5 109.32 1151.32 103.5 1158.5 103.5 1165.68 103.5 1171.5 109.32 1171.5 116.5Z"
         stroke="#000000"
         stroke-width="3.4375"
         stroke-linejoin="round"
         stroke-miterlimit="10"
         fill="none"
         id="path45" /><path
         d="M1198.5 117.5C1198.5 124.68 1192.68 130.5 1185.5 130.5 1178.32 130.5 1172.5 124.68 1172.5 117.5 1172.5 110.321 1178.32 104.5 1185.5 104.5 1192.68 104.5 1198.5 110.321 1198.5 117.5Z"
         stroke="#000000"
         stroke-width="3.4375"
         stroke-linejoin="round"
         stroke-miterlimit="10"
         fill="none"
         id="path46" /><path
         d="M1198.5 131.5C1198.5 138.68 1192.68 144.5 1185.5 144.5 1178.32 144.5 1172.5 138.68 1172.5 131.5 1172.5 124.321 1178.32 118.5 1185.5 118.5 1192.68 118.5 1198.5 124.321 1198.5 131.5Z"
         stroke="#000000"
         stroke-width="3.4375"
         stroke-linejoin="round"
         stroke-miterlimit="10"
         fill="none"
         id="path47" /><path
         d="M1226.5 126.5C1226.5 133.68 1220.68 139.5 1213.5 139.5 1206.32 139.5 1200.5 133.68 1200.5 126.5 1200.5 119.32 1206.32 113.5 1213.5 113.5 1220.68 113.5 1226.5 119.32 1226.5 126.5Z"
         stroke="#000000"
         stroke-width="3.4375"
         stroke-linejoin="round"
         stroke-miterlimit="10"
         fill="none"
         id="path48" /><path
         d="M1239.5 127.5C1239.5 134.68 1233.68 140.5 1226.5 140.5 1219.32 140.5 1213.5 134.68 1213.5 127.5 1213.5 120.32 1219.32 114.5 1226.5 114.5 1233.68 114.5 1239.5 120.32 1239.5 127.5Z"
         stroke="#000000"
         stroke-width="3.4375"
         stroke-linejoin="round"
         stroke-miterlimit="10"
         fill="none"
         id="path49" /><path
         d="M1253.5 123.5C1253.5 130.679 1247.68 136.5 1240.5 136.5 1233.32 136.5 1227.5 130.679 1227.5 123.5 1227.5 116.32 1233.32 110.5 1240.5 110.5 1247.68 110.5 1253.5 116.32 1253.5 123.5Z"
         stroke="#000000"
         stroke-width="3.4375"
         stroke-linejoin="round"
         stroke-miterlimit="10"
         fill="none"
         id="path50" /><path
         d="M1280.5 125.5C1280.5 132.68 1274.68 138.5 1267.5 138.5 1260.32 138.5 1254.5 132.68 1254.5 125.5 1254.5 118.32 1260.32 112.5 1267.5 112.5 1274.68 112.5 1280.5 118.32 1280.5 125.5Z"
         stroke="#000000"
         stroke-width="3.4375"
         stroke-linejoin="round"
         stroke-miterlimit="10"
         fill="none"
         id="path51" /><path
         d="M1294.5 131.5C1294.5 138.68 1288.68 144.5 1281.5 144.5 1274.32 144.5 1268.5 138.68 1268.5 131.5 1268.5 124.321 1274.32 118.5 1281.5 118.5 1288.68 118.5 1294.5 124.321 1294.5 131.5Z"
         stroke="#000000"
         stroke-width="3.4375"
         stroke-linejoin="round"
         stroke-miterlimit="10"
         fill="none"
         id="path52" /><path
         d="M1335.5 127.5C1335.5 134.68 1329.68 140.5 1322.5 140.5 1315.32 140.5 1309.5 134.68 1309.5 127.5 1309.5 120.32 1315.32 114.5 1322.5 114.5 1329.68 114.5 1335.5 120.32 1335.5 127.5Z"
         stroke="#000000"
         stroke-width="3.4375"
         stroke-linejoin="round"
         stroke-miterlimit="10"
         fill="none"
         id="path53" /><path
         d="M1348.5 135.5C1348.5 142.679 1342.68 148.5 1335.5 148.5 1328.32 148.5 1322.5 142.679 1322.5 135.5 1322.5 128.32 1328.32 122.5 1335.5 122.5 1342.68 122.5 1348.5 128.32 1348.5 135.5Z"
         stroke="#000000"
         stroke-width="3.4375"
         stroke-linejoin="round"
         stroke-miterlimit="10"
         fill="none"
         id="path54" /><path
         d="M1362.5 129.5C1362.5 136.68 1356.68 142.5 1349.5 142.5 1342.32 142.5 1336.5 136.68 1336.5 129.5 1336.5 122.321 1342.32 116.5 1349.5 116.5 1356.68 116.5 1362.5 122.321 1362.5 129.5Z"
         stroke="#000000"
         stroke-width="3.4375"
         stroke-linejoin="round"
         stroke-miterlimit="10"
         fill="none"
         id="path55" /><path
         d="M1376.5 133.5C1376.5 140.679 1370.68 146.5 1363.5 146.5 1356.32 146.5 1350.5 140.679 1350.5 133.5 1350.5 126.32 1356.32 120.5 1363.5 120.5 1370.68 120.5 1376.5 126.32 1376.5 133.5Z"
         stroke="#000000"
         stroke-width="3.4375"
         stroke-linejoin="round"
         stroke-miterlimit="10"
         fill="none"
         id="path56" /><path
         d="M1417.5 127.5C1417.5 134.68 1411.68 140.5 1404.5 140.5 1397.32 140.5 1391.5 134.68 1391.5 127.5 1391.5 120.32 1397.32 114.5 1404.5 114.5 1411.68 114.5 1417.5 120.32 1417.5 127.5Z"
         stroke="#000000"
         stroke-width="3.4375"
         stroke-linejoin="round"
         stroke-miterlimit="10"
         fill="none"
         id="path57" /><path
         d="M1430.5 132.5C1430.5 139.679 1424.68 145.5 1417.5 145.5 1410.32 145.5 1404.5 139.679 1404.5 132.5 1404.5 125.32 1410.32 119.5 1417.5 119.5 1424.68 119.5 1430.5 125.32 1430.5 132.5Z"
         stroke="#000000"
         stroke-width="3.4375"
         stroke-linejoin="round"
         stroke-miterlimit="10"
         fill="none"
         id="path58" /><path
         d="M1444.5 128.5C1444.5 135.68 1438.68 141.5 1431.5 141.5 1424.32 141.5 1418.5 135.68 1418.5 128.5 1418.5 121.321 1424.32 115.5 1431.5 115.5 1438.68 115.5 1444.5 121.321 1444.5 128.5Z"
         stroke="#000000"
         stroke-width="3.4375"
         stroke-linejoin="round"
         stroke-miterlimit="10"
         fill="none"
         id="path59" /><path
         d="M1457.5 129.5C1457.5 136.68 1451.68 142.5 1444.5 142.5 1437.32 142.5 1431.5 136.68 1431.5 129.5 1431.5 122.321 1437.32 116.5 1444.5 116.5 1451.68 116.5 1457.5 122.321 1457.5 129.5Z"
         stroke="#000000"
         stroke-width="3.4375"
         stroke-linejoin="round"
         stroke-miterlimit="10"
         fill="none"
         id="path60" /><path
         d="M1471.5 123.5C1471.5 130.679 1465.68 136.5 1458.5 136.5 1451.32 136.5 1445.5 130.679 1445.5 123.5 1445.5 116.32 1451.32 110.5 1458.5 110.5 1465.68 110.5 1471.5 116.32 1471.5 123.5Z"
         stroke="#000000"
         stroke-width="3.4375"
         stroke-linejoin="round"
         stroke-miterlimit="10"
         fill="none"
         id="path61" /><path
         d="M1498.5 129.5C1498.5 136.68 1492.68 142.5 1485.5 142.5 1478.32 142.5 1472.5 136.68 1472.5 129.5 1472.5 122.321 1478.32 116.5 1485.5 116.5 1492.68 116.5 1498.5 122.321 1498.5 129.5Z"
         stroke="#000000"
         stroke-width="3.4375"
         stroke-linejoin="round"
         stroke-miterlimit="10"
         fill="none"
         id="path62" /><path
         d="M1539.5 141.5C1539.5 148.68 1533.68 154.5 1526.5 154.5 1519.32 154.5 1513.5 148.68 1513.5 141.5 1513.5 134.321 1519.32 128.5 1526.5 128.5 1533.68 128.5 1539.5 134.321 1539.5 141.5Z"
         stroke="#000000"
         stroke-width="3.4375"
         stroke-linejoin="round"
         stroke-miterlimit="10"
         fill="none"
         id="path63" /><path
         d="M1553.5 140.5C1553.5 147.68 1547.68 153.5 1540.5 153.5 1533.32 153.5 1527.5 147.68 1527.5 140.5 1527.5 133.321 1533.32 127.5 1540.5 127.5 1547.68 127.5 1553.5 133.321 1553.5 140.5Z"
         stroke="#000000"
         stroke-width="3.4375"
         stroke-linejoin="round"
         stroke-miterlimit="10"
         fill="none"
         id="path64" /><path
         d="M1566.5 145.5C1566.5 152.679 1560.68 158.5 1553.5 158.5 1546.32 158.5 1540.5 152.679 1540.5 145.5 1540.5 138.32 1546.32 132.5 1553.5 132.5 1560.68 132.5 1566.5 138.32 1566.5 145.5Z"
         stroke="#000000"
         stroke-width="3.4375"
         stroke-linejoin="round"
         stroke-miterlimit="10"
         fill="none"
         id="path65" /><path
         d="M1580.5 144.5C1580.5 151.679 1574.68 157.5 1567.5 157.5 1560.32 157.5 1554.5 151.679 1554.5 144.5 1554.5 137.32 1560.32 131.5 1567.5 131.5 1574.68 131.5 1580.5 137.32 1580.5 144.5Z"
         stroke="#000000"
         stroke-width="3.4375"
         stroke-linejoin="round"
         stroke-miterlimit="10"
         fill="none"
         id="path66" /><path
         d="M1607.5 149.5C1607.5 156.68 1601.68 162.5 1594.5 162.5 1587.32 162.5 1581.5 156.68 1581.5 149.5 1581.5 142.32 1587.32 136.5 1594.5 136.5 1601.68 136.5 1607.5 142.32 1607.5 149.5Z"
         stroke="#000000"
         stroke-width="3.4375"
         stroke-linejoin="round"
         stroke-miterlimit="10"
         fill="none"
         id="path67" /><path
         d="M1607.5 155.5C1607.5 162.679 1601.68 168.5 1594.5 168.5 1587.32 168.5 1581.5 162.679 1581.5 155.5 1581.5 148.32 1587.32 142.5 1594.5 142.5 1601.68 142.5 1607.5 148.32 1607.5 155.5Z"
         stroke="#000000"
         stroke-width="3.4375"
         stroke-linejoin="round"
         stroke-miterlimit="10"
         fill="none"
         id="path68" /><path
         d="M1662.5 156.5C1662.5 163.679 1656.68 169.5 1649.5 169.5 1642.32 169.5 1636.5 163.679 1636.5 156.5 1636.5 149.32 1642.32 143.5 1649.5 143.5 1656.68 143.5 1662.5 149.32 1662.5 156.5Z"
         stroke="#000000"
         stroke-width="3.4375"
         stroke-linejoin="round"
         stroke-miterlimit="10"
         fill="none"
         id="path69" /><path
         d="M1676.5 162.5C1676.5 169.68 1670.68 175.5 1663.5 175.5 1656.32 175.5 1650.5 169.68 1650.5 162.5 1650.5 155.321 1656.32 149.5 1663.5 149.5 1670.68 149.5 1676.5 155.321 1676.5 162.5Z"
         stroke="#000000"
         stroke-width="3.4375"
         stroke-linejoin="round"
         stroke-miterlimit="10"
         fill="none"
         id="path70" /><path
         d="M1703.5 166.5C1703.5 173.679 1697.68 179.5 1690.5 179.5 1683.32 179.5 1677.5 173.679 1677.5 166.5 1677.5 159.32 1683.32 153.5 1690.5 153.5 1697.68 153.5 1703.5 159.32 1703.5 166.5Z"
         stroke="#000000"
         stroke-width="3.4375"
         stroke-linejoin="round"
         stroke-miterlimit="10"
         fill="none"
         id="path71" /><path
         d="M1716.5 163.5C1716.5 170.68 1710.68 176.5 1703.5 176.5 1696.32 176.5 1690.5 170.68 1690.5 163.5 1690.5 156.321 1696.32 150.5 1703.5 150.5 1710.68 150.5 1716.5 156.321 1716.5 163.5Z"
         stroke="#000000"
         stroke-width="3.4375"
         stroke-linejoin="round"
         stroke-miterlimit="10"
         fill="none"
         id="path72" /><path
         d="M1730.5 170.5C1730.5 177.68 1724.68 183.5 1717.5 183.5 1710.32 183.5 1704.5 177.68 1704.5 170.5 1704.5 163.32 1710.32 157.5 1717.5 157.5 1724.68 157.5 1730.5 163.32 1730.5 170.5Z"
         stroke="#000000"
         stroke-width="3.4375"
         stroke-linejoin="round"
         stroke-miterlimit="10"
         fill="none"
         id="path73" /><path
         d="M1744.5 167.5C1744.5 174.679 1738.68 180.5 1731.5 180.5 1724.32 180.5 1718.5 174.679 1718.5 167.5 1718.5 160.32 1724.32 154.5 1731.5 154.5 1738.68 154.5 1744.5 160.32 1744.5 167.5Z"
         stroke="#000000"
         stroke-width="3.4375"
         stroke-linejoin="round"
         stroke-miterlimit="10"
         fill="none"
         id="path74" /><path
         d="M1757.5 172.5C1757.5 179.68 1751.68 185.5 1744.5 185.5 1737.32 185.5 1731.5 179.68 1731.5 172.5 1731.5 165.321 1737.32 159.5 1744.5 159.5 1751.68 159.5 1757.5 165.321 1757.5 172.5Z"
         stroke="#000000"
         stroke-width="3.4375"
         stroke-linejoin="round"
         stroke-miterlimit="10"
         fill="none"
         id="path75" /><path
         d="M1798.5 172.5C1798.5 179.68 1792.68 185.5 1785.5 185.5 1778.32 185.5 1772.5 179.68 1772.5 172.5 1772.5 165.321 1778.32 159.5 1785.5 159.5 1792.68 159.5 1798.5 165.321 1798.5 172.5Z"
         stroke="#000000"
         stroke-width="3.4375"
         stroke-linejoin="round"
         stroke-miterlimit="10"
         fill="none"
         id="path76" /><path
         d="M1825.5 176.5C1825.5 183.679 1819.68 189.5 1812.5 189.5 1805.32 189.5 1799.5 183.679 1799.5 176.5 1799.5 169.32 1805.32 163.5 1812.5 163.5 1819.68 163.5 1825.5 169.32 1825.5 176.5Z"
         stroke="#000000"
         stroke-width="3.4375"
         stroke-linejoin="round"
         stroke-miterlimit="10"
         fill="none"
         id="path77" /><path
         d="M1839.5 180.5C1839.5 187.68 1833.68 193.5 1826.5 193.5 1819.32 193.5 1813.5 187.68 1813.5 180.5 1813.5 173.32 1819.32 167.5 1826.5 167.5 1833.68 167.5 1839.5 173.32 1839.5 180.5Z"
         stroke="#000000"
         stroke-width="3.4375"
         stroke-linejoin="round"
         stroke-miterlimit="10"
         fill="none"
         id="path78" /><path
         d="M1880.5 180.5C1880.5 187.68 1874.68 193.5 1867.5 193.5 1860.32 193.5 1854.5 187.68 1854.5 180.5 1854.5 173.32 1860.32 167.5 1867.5 167.5 1874.68 167.5 1880.5 173.32 1880.5 180.5Z"
         stroke="#000000"
         stroke-width="3.4375"
         stroke-linejoin="round"
         stroke-miterlimit="10"
         fill="none"
         id="path79" /><path
         d="M1907.5 183.5C1907.5 190.68 1901.68 196.5 1894.5 196.5 1887.32 196.5 1881.5 190.68 1881.5 183.5 1881.5 176.321 1887.32 170.5 1894.5 170.5 1901.68 170.5 1907.5 176.321 1907.5 183.5Z"
         stroke="#000000"
         stroke-width="3.4375"
         stroke-linejoin="round"
         stroke-miterlimit="10"
         fill="none"
         id="path80" /><path
         d="M1921.5 189.5C1921.5 196.679 1915.68 202.5 1908.5 202.5 1901.32 202.5 1895.5 196.679 1895.5 189.5 1895.5 182.32 1901.32 176.5 1908.5 176.5 1915.68 176.5 1921.5 182.32 1921.5 189.5Z"
         stroke="#000000"
         stroke-width="3.4375"
         stroke-linejoin="round"
         stroke-miterlimit="10"
         fill="none"
         id="path81" /><path
         d="M1948.5 192.5C1948.5 199.68 1942.68 205.5 1935.5 205.5 1928.32 205.5 1922.5 199.68 1922.5 192.5 1922.5 185.32 1928.32 179.5 1935.5 179.5 1942.68 179.5 1948.5 185.32 1948.5 192.5Z"
         stroke="#000000"
         stroke-width="3.4375"
         stroke-linejoin="round"
         stroke-miterlimit="10"
         fill="none"
         id="path82" /><path
         d="M2003.5 199.5C2003.5 206.679 1997.68 212.5 1990.5 212.5 1983.32 212.5 1977.5 206.679 1977.5 199.5 1977.5 192.32 1983.32 186.5 1990.5 186.5 1997.68 186.5 2003.5 192.32 2003.5 199.5Z"
         stroke="#000000"
         stroke-width="3.4375"
         stroke-linejoin="round"
         stroke-miterlimit="10"
         fill="none"
         id="path83" /><path
         d="M2016.5 198.5C2016.5 205.679 2010.68 211.5 2003.5 211.5 1996.32 211.5 1990.5 205.679 1990.5 198.5 1990.5 191.32 1996.32 185.5 2003.5 185.5 2010.68 185.5 2016.5 191.32 2016.5 198.5Z"
         stroke="#000000"
         stroke-width="3.4375"
         stroke-linejoin="round"
         stroke-miterlimit="10"
         fill="none"
         id="path84" /><path
         d="M2030.5 203.5C2030.5 210.68 2024.68 216.5 2017.5 216.5 2010.32 216.5 2004.5 210.68 2004.5 203.5 2004.5 196.32 2010.32 190.5 2017.5 190.5 2024.68 190.5 2030.5 196.32 2030.5 203.5Z"
         stroke="#000000"
         stroke-width="3.4375"
         stroke-linejoin="round"
         stroke-miterlimit="10"
         fill="none"
         id="path85" /><path
         d="M2043.5 203.5C2043.5 210.68 2037.68 216.5 2030.5 216.5 2023.32 216.5 2017.5 210.68 2017.5 203.5 2017.5 196.32 2023.32 190.5 2030.5 190.5 2037.68 190.5 2043.5 196.32 2043.5 203.5Z"
         stroke="#000000"
         stroke-width="3.4375"
         stroke-linejoin="round"
         stroke-miterlimit="10"
         fill="none"
         id="path86" /><path
         d="M2057.5 204.5C2057.5 211.68 2051.68 217.5 2044.5 217.5 2037.32 217.5 2031.5 211.68 2031.5 204.5 2031.5 197.32 2037.32 191.5 2044.5 191.5 2051.68 191.5 2057.5 197.32 2057.5 204.5Z"
         stroke="#000000"
         stroke-width="3.4375"
         stroke-linejoin="round"
         stroke-miterlimit="10"
         fill="none"
         id="path87" /><path
         d="M2071.5 203.5C2071.5 210.68 2065.68 216.5 2058.5 216.5 2051.32 216.5 2045.5 210.68 2045.5 203.5 2045.5 196.32 2051.32 190.5 2058.5 190.5 2065.68 190.5 2071.5 196.32 2071.5 203.5Z"
         stroke="#000000"
         stroke-width="3.4375"
         stroke-linejoin="round"
         stroke-miterlimit="10"
         fill="none"
         id="path88" /><path
         d="M2084.5 208.5C2084.5 215.68 2078.68 221.5 2071.5 221.5 2064.32 221.5 2058.5 215.68 2058.5 208.5 2058.5 201.321 2064.32 195.5 2071.5 195.5 2078.68 195.5 2084.5 201.321 2084.5 208.5Z"
         stroke="#000000"
         stroke-width="3.4375"
         stroke-linejoin="round"
         stroke-miterlimit="10"
         fill="none"
         id="path89" /><path
         d="M2153.5 213.5C2153.5 220.68 2147.68 226.5 2140.5 226.5 2133.32 226.5 2127.5 220.68 2127.5 213.5 2127.5 206.32 2133.32 200.5 2140.5 200.5 2147.68 200.5 2153.5 206.32 2153.5 213.5Z"
         stroke="#000000"
         stroke-width="3.4375"
         stroke-linejoin="round"
         stroke-miterlimit="10"
         fill="none"
         id="path90" /><path
         d="M2166.5 217.5C2166.5 224.68 2160.68 230.5 2153.5 230.5 2146.32 230.5 2140.5 224.68 2140.5 217.5 2140.5 210.321 2146.32 204.5 2153.5 204.5 2160.68 204.5 2166.5 210.321 2166.5 217.5Z"
         stroke="#000000"
         stroke-width="3.4375"
         stroke-linejoin="round"
         stroke-miterlimit="10"
         fill="none"
         id="path91" /><path
         d="M2180.5 217.5C2180.5 224.68 2174.68 230.5 2167.5 230.5 2160.32 230.5 2154.5 224.68 2154.5 217.5 2154.5 210.321 2160.32 204.5 2167.5 204.5 2174.68 204.5 2180.5 210.321 2180.5 217.5Z"
         stroke="#000000"
         stroke-width="3.4375"
         stroke-linejoin="round"
         stroke-miterlimit="10"
         fill="none"
         id="path92" /><path
         d="M2193.5 223.5C2193.5 230.679 2187.68 236.5 2180.5 236.5 2173.32 236.5 2167.5 230.679 2167.5 223.5 2167.5 216.32 2173.32 210.5 2180.5 210.5 2187.68 210.5 2193.5 216.32 2193.5 223.5Z"
         stroke="#000000"
         stroke-width="3.4375"
         stroke-linejoin="round"
         stroke-miterlimit="10"
         fill="none"
         id="path93" /><path
         d="M2207.5 225.5C2207.5 232.68 2201.68 238.5 2194.5 238.5 2187.32 238.5 2181.5 232.68 2181.5 225.5 2181.5 218.32 2187.32 212.5 2194.5 212.5 2201.68 212.5 2207.5 218.32 2207.5 225.5Z"
         stroke="#000000"
         stroke-width="3.4375"
         stroke-linejoin="round"
         stroke-miterlimit="10"
         fill="none"
         id="path94" /><path
         d="M2234.5 230.5C2234.5 237.68 2228.68 243.5 2221.5 243.5 2214.32 243.5 2208.5 237.68 2208.5 230.5 2208.5 223.321 2214.32 217.5 2221.5 217.5 2228.68 217.5 2234.5 223.321 2234.5 230.5Z"
         stroke="#000000"
         stroke-width="3.4375"
         stroke-linejoin="round"
         stroke-miterlimit="10"
         fill="none"
         id="path95" /><path
         d="M2248.5 236.5C2248.5 243.68 2242.68 249.5 2235.5 249.5 2228.32 249.5 2222.5 243.68 2222.5 236.5 2222.5 229.32 2228.32 223.5 2235.5 223.5 2242.68 223.5 2248.5 229.32 2248.5 236.5Z"
         stroke="#000000"
         stroke-width="3.4375"
         stroke-linejoin="round"
         stroke-miterlimit="10"
         fill="none"
         id="path96" /><path
         d="M2330.5 253.5C2330.5 260.679 2324.68 266.5 2317.5 266.5 2310.32 266.5 2304.5 260.679 2304.5 253.5 2304.5 246.32 2310.32 240.5 2317.5 240.5 2324.68 240.5 2330.5 246.32 2330.5 253.5Z"
         stroke="#000000"
         stroke-width="3.4375"
         stroke-linejoin="round"
         stroke-miterlimit="10"
         fill="none"
         id="path97" /><path
         d="M2343.5 252.5C2343.5 259.68 2337.68 265.5 2330.5 265.5 2323.32 265.5 2317.5 259.68 2317.5 252.5 2317.5 245.321 2323.32 239.5 2330.5 239.5 2337.68 239.5 2343.5 245.321 2343.5 252.5Z"
         stroke="#000000"
         stroke-width="3.4375"
         stroke-linejoin="round"
         stroke-miterlimit="10"
         fill="none"
         id="path98" /><path
         d="M2357.5 256.5C2357.5 263.679 2351.68 269.5 2344.5 269.5 2337.32 269.5 2331.5 263.679 2331.5 256.5 2331.5 249.32 2337.32 243.5 2344.5 243.5 2351.68 243.5 2357.5 249.32 2357.5 256.5Z"
         stroke="#000000"
         stroke-width="3.4375"
         stroke-linejoin="round"
         stroke-miterlimit="10"
         fill="none"
         id="path99" /><path
         d="M2371.5 256.5C2371.5 263.679 2365.68 269.5 2358.5 269.5 2351.32 269.5 2345.5 263.679 2345.5 256.5 2345.5 249.32 2351.32 243.5 2358.5 243.5 2365.68 243.5 2371.5 249.32 2371.5 256.5Z"
         stroke="#000000"
         stroke-width="3.4375"
         stroke-linejoin="round"
         stroke-miterlimit="10"
         fill="none"
         id="path100" /><path
         d="M2398.5 260.5C2398.5 267.68 2392.68 273.5 2385.5 273.5 2378.32 273.5 2372.5 267.68 2372.5 260.5 2372.5 253.321 2378.32 247.5 2385.5 247.5 2392.68 247.5 2398.5 253.321 2398.5 260.5Z"
         stroke="#000000"
         stroke-width="3.4375"
         stroke-linejoin="round"
         stroke-miterlimit="10"
         fill="none"
         id="path101" /><path
         d="M2425.5 263.5C2425.5 270.68 2419.68 276.5 2412.5 276.5 2405.32 276.5 2399.5 270.68 2399.5 263.5 2399.5 256.321 2405.32 250.5 2412.5 250.5 2419.68 250.5 2425.5 256.321 2425.5 263.5Z"
         stroke="#000000"
         stroke-width="3.4375"
         stroke-linejoin="round"
         stroke-miterlimit="10"
         fill="none"
         id="path102" /><path
         d="M2439.5 266.5C2439.5 273.679 2433.68 279.5 2426.5 279.5 2419.32 279.5 2413.5 273.679 2413.5 266.5 2413.5 259.32 2419.32 253.5 2426.5 253.5 2433.68 253.5 2439.5 259.32 2439.5 266.5Z"
         stroke="#000000"
         stroke-width="3.4375"
         stroke-linejoin="round"
         stroke-miterlimit="10"
         fill="none"
         id="path103" /><path
         d="M2452.5 268.5C2452.5 275.68 2446.68 281.5 2439.5 281.5 2432.32 281.5 2426.5 275.68 2426.5 268.5 2426.5 261.32 2432.32 255.5 2439.5 255.5 2446.68 255.5 2452.5 261.32 2452.5 268.5Z"
         stroke="#000000"
         stroke-width="3.4375"
         stroke-linejoin="round"
         stroke-miterlimit="10"
         fill="none"
         id="path104" /><path
         d="M2480.5 271.5C2480.5 278.68 2474.68 284.5 2467.5 284.5 2460.32 284.5 2454.5 278.68 2454.5 271.5 2454.5 264.321 2460.32 258.5 2467.5 258.5 2474.68 258.5 2480.5 264.321 2480.5 271.5Z"
         stroke="#000000"
         stroke-width="3.4375"
         stroke-linejoin="round"
         stroke-miterlimit="10"
         fill="none"
         id="path105" /><path
         d="M2493.5 274.5C2493.5 281.68 2487.68 287.5 2480.5 287.5 2473.32 287.5 2467.5 281.68 2467.5 274.5 2467.5 267.321 2473.32 261.5 2480.5 261.5 2487.68 261.5 2493.5 267.321 2493.5 274.5Z"
         stroke="#000000"
         stroke-width="3.4375"
         stroke-linejoin="round"
         stroke-miterlimit="10"
         fill="none"
         id="path106" /><path
         d="M2507.5 274.5C2507.5 281.68 2501.68 287.5 2494.5 287.5 2487.32 287.5 2481.5 281.68 2481.5 274.5 2481.5 267.321 2487.32 261.5 2494.5 261.5 2501.68 261.5 2507.5 267.321 2507.5 274.5Z"
         stroke="#000000"
         stroke-width="3.4375"
         stroke-linejoin="round"
         stroke-miterlimit="10"
         fill="none"
         id="path107" /><path
         d="M2521.5 278.5C2521.5 285.679 2515.68 291.5 2508.5 291.5 2501.32 291.5 2495.5 285.679 2495.5 278.5 2495.5 271.32 2501.32 265.5 2508.5 265.5 2515.68 265.5 2521.5 271.32 2521.5 278.5Z"
         stroke="#000000"
         stroke-width="3.4375"
         stroke-linejoin="round"
         stroke-miterlimit="10"
         fill="none"
         id="path108" /><path
         d="M2534.5 279.5C2534.5 286.68 2528.68 292.5 2521.5 292.5 2514.32 292.5 2508.5 286.68 2508.5 279.5 2508.5 272.32 2514.32 266.5 2521.5 266.5 2528.68 266.5 2534.5 272.32 2534.5 279.5Z"
         stroke="#000000"
         stroke-width="3.4375"
         stroke-linejoin="round"
         stroke-miterlimit="10"
         fill="none"
         id="path109" /><path
         d="M2548.5 282.5C2548.5 289.68 2542.68 295.5 2535.5 295.5 2528.32 295.5 2522.5 289.68 2522.5 282.5 2522.5 275.321 2528.32 269.5 2535.5 269.5 2542.68 269.5 2548.5 275.321 2548.5 282.5Z"
         stroke="#000000"
         stroke-width="3.4375"
         stroke-linejoin="round"
         stroke-miterlimit="10"
         fill="none"
         id="path110" /><path
         d="M2561.5 282.5C2561.5 289.68 2555.68 295.5 2548.5 295.5 2541.32 295.5 2535.5 289.68 2535.5 282.5 2535.5 275.321 2541.32 269.5 2548.5 269.5 2555.68 269.5 2561.5 275.321 2561.5 282.5Z"
         stroke="#000000"
         stroke-width="3.4375"
         stroke-linejoin="round"
         stroke-miterlimit="10"
         fill="none"
         id="path111" /><path
         d="M2575.5 286.5C2575.5 293.679 2569.68 299.5 2562.5 299.5 2555.32 299.5 2549.5 293.679 2549.5 286.5 2549.5 279.32 2555.32 273.5 2562.5 273.5 2569.68 273.5 2575.5 279.32 2575.5 286.5Z"
         stroke="#000000"
         stroke-width="3.4375"
         stroke-linejoin="round"
         stroke-miterlimit="10"
         fill="none"
         id="path112" /><path
         d="M2616.5 291.5C2616.5 298.68 2610.68 304.5 2603.5 304.5 2596.32 304.5 2590.5 298.68 2590.5 291.5 2590.5 284.32 2596.32 278.5 2603.5 278.5 2610.68 278.5 2616.5 284.32 2616.5 291.5Z"
         stroke="#000000"
         stroke-width="3.4375"
         stroke-linejoin="round"
         stroke-miterlimit="10"
         fill="none"
         id="path113" /><path
         d="M2657.5 298.5C2657.5 305.679 2651.68 311.5 2644.5 311.5 2637.32 311.5 2631.5 305.679 2631.5 298.5 2631.5 291.32 2637.32 285.5 2644.5 285.5 2651.68 285.5 2657.5 291.32 2657.5 298.5Z"
         stroke="#000000"
         stroke-width="3.4375"
         stroke-linejoin="round"
         stroke-miterlimit="10"
         fill="none"
         id="path114" /><path
         d="M2698.5 303.5C2698.5 310.68 2692.68 316.5 2685.5 316.5 2678.32 316.5 2672.5 310.68 2672.5 303.5 2672.5 296.32 2678.32 290.5 2685.5 290.5 2692.68 290.5 2698.5 296.32 2698.5 303.5Z"
         stroke="#000000"
         stroke-width="3.4375"
         stroke-linejoin="round"
         stroke-miterlimit="10"
         fill="none"
         id="path115" /><path
         d="M2725.5 307.5C2725.5 314.68 2719.68 320.5 2712.5 320.5 2705.32 320.5 2699.5 314.68 2699.5 307.5 2699.5 300.321 2705.32 294.5 2712.5 294.5 2719.68 294.5 2725.5 300.321 2725.5 307.5Z"
         stroke="#000000"
         stroke-width="3.4375"
         stroke-linejoin="round"
         stroke-miterlimit="10"
         fill="none"
         id="path116" /><path
         d="M2739.5 310.5C2739.5 317.679 2733.68 323.5 2726.5 323.5 2719.32 323.5 2713.5 317.679 2713.5 310.5 2713.5 303.32 2719.32 297.5 2726.5 297.5 2733.68 297.5 2739.5 303.32 2739.5 310.5Z"
         stroke="#000000"
         stroke-width="3.4375"
         stroke-linejoin="round"
         stroke-miterlimit="10"
         fill="none"
         id="path117" /><path
         d="M2752.5 312.5C2752.5 319.68 2746.68 325.5 2739.5 325.5 2732.32 325.5 2726.5 319.68 2726.5 312.5 2726.5 305.32 2732.32 299.5 2739.5 299.5 2746.68 299.5 2752.5 305.32 2752.5 312.5Z"
         stroke="#000000"
         stroke-width="3.4375"
         stroke-linejoin="round"
         stroke-miterlimit="10"
         fill="none"
         id="path118" /><path
         d="M2779.5 315.5C2779.5 322.68 2773.68 328.5 2766.5 328.5 2759.32 328.5 2753.5 322.68 2753.5 315.5 2753.5 308.321 2759.32 302.5 2766.5 302.5 2773.68 302.5 2779.5 308.321 2779.5 315.5Z"
         stroke="#000000"
         stroke-width="3.4375"
         stroke-linejoin="round"
         stroke-miterlimit="10"
         fill="none"
         id="path119" /><path
         d="M2793.5 319.5C2793.5 326.679 2787.68 332.5 2780.5 332.5 2773.32 332.5 2767.5 326.679 2767.5 319.5 2767.5 312.32 2773.32 306.5 2780.5 306.5 2787.68 306.5 2793.5 312.32 2793.5 319.5Z"
         stroke="#000000"
         stroke-width="3.4375"
         stroke-linejoin="round"
         stroke-miterlimit="10"
         fill="none"
         id="path120" /><path
         d="M2807.5 319.5C2807.5 326.679 2801.68 332.5 2794.5 332.5 2787.32 332.5 2781.5 326.679 2781.5 319.5 2781.5 312.32 2787.32 306.5 2794.5 306.5 2801.68 306.5 2807.5 312.32 2807.5 319.5Z"
         stroke="#000000"
         stroke-width="3.4375"
         stroke-linejoin="round"
         stroke-miterlimit="10"
         fill="none"
         id="path121" /><path
         d="M2820.5 322.5C2820.5 329.679 2814.68 335.5 2807.5 335.5 2800.32 335.5 2794.5 329.679 2794.5 322.5 2794.5 315.32 2800.32 309.5 2807.5 309.5 2814.68 309.5 2820.5 315.32 2820.5 322.5Z"
         stroke="#000000"
         stroke-width="3.4375"
         stroke-linejoin="round"
         stroke-miterlimit="10"
         fill="none"
         id="path122" /><path
         d="M2861.5 326.5C2861.5 333.68 2855.68 339.5 2848.5 339.5 2841.32 339.5 2835.5 333.68 2835.5 326.5 2835.5 319.321 2841.32 313.5 2848.5 313.5 2855.68 313.5 2861.5 319.321 2861.5 326.5Z"
         stroke="#000000"
         stroke-width="3.4375"
         stroke-linejoin="round"
         stroke-miterlimit="10"
         fill="none"
         id="path123" /><path
         d="M2875.5 330.5C2875.5 337.679 2869.68 343.5 2862.5 343.5 2855.32 343.5 2849.5 337.679 2849.5 330.5 2849.5 323.32 2855.32 317.5 2862.5 317.5 2869.68 317.5 2875.5 323.32 2875.5 330.5Z"
         stroke="#000000"
         stroke-width="3.4375"
         stroke-linejoin="round"
         stroke-miterlimit="10"
         fill="none"
         id="path124" /><path
         d="M2875.5 330.5C2875.5 337.679 2869.68 343.5 2862.5 343.5 2855.32 343.5 2849.5 337.679 2849.5 330.5 2849.5 323.32 2855.32 317.5 2862.5 317.5 2869.68 317.5 2875.5 323.32 2875.5 330.5Z"
         stroke="#000000"
         stroke-width="3.4375"
         stroke-linejoin="round"
         stroke-miterlimit="10"
         fill="none"
         id="path125" /><path
         d="M2889.5 330.5C2889.5 337.679 2883.68 343.5 2876.5 343.5 2869.32 343.5 2863.5 337.679 2863.5 330.5 2863.5 323.32 2869.32 317.5 2876.5 317.5 2883.68 317.5 2889.5 323.32 2889.5 330.5Z"
         stroke="#000000"
         stroke-width="3.4375"
         stroke-linejoin="round"
         stroke-miterlimit="10"
         fill="none"
         id="path126" /><path
         d="M2902.5 333.5C2902.5 340.679 2896.68 346.5 2889.5 346.5 2882.32 346.5 2876.5 340.679 2876.5 333.5 2876.5 326.32 2882.32 320.5 2889.5 320.5 2896.68 320.5 2902.5 326.32 2902.5 333.5Z"
         stroke="#000000"
         stroke-width="3.4375"
         stroke-linejoin="round"
         stroke-miterlimit="10"
         fill="none"
         id="path127" /><path
         d="M2902.5 333.5C2902.5 340.679 2896.68 346.5 2889.5 346.5 2882.32 346.5 2876.5 340.679 2876.5 333.5 2876.5 326.32 2882.32 320.5 2889.5 320.5 2896.68 320.5 2902.5 326.32 2902.5 333.5Z"
         stroke="#000000"
         stroke-width="3.4375"
         stroke-linejoin="round"
         stroke-miterlimit="10"
         fill="none"
         id="path128" /><path
         d="M2916.5 333.5C2916.5 340.679 2910.68 346.5 2903.5 346.5 2896.32 346.5 2890.5 340.679 2890.5 333.5 2890.5 326.32 2896.32 320.5 2903.5 320.5 2910.68 320.5 2916.5 326.32 2916.5 333.5Z"
         stroke="#000000"
         stroke-width="3.4375"
         stroke-linejoin="round"
         stroke-miterlimit="10"
         fill="none"
         id="path129" /><path
         d="M2929.5 336.5C2929.5 343.68 2923.68 349.5 2916.5 349.5 2909.32 349.5 2903.5 343.68 2903.5 336.5 2903.5 329.32 2909.32 323.5 2916.5 323.5 2923.68 323.5 2929.5 329.32 2929.5 336.5Z"
         stroke="#000000"
         stroke-width="3.4375"
         stroke-linejoin="round"
         stroke-miterlimit="10"
         fill="none"
         id="path130" /><path
         d="M2943.5 336.5C2943.5 343.68 2937.68 349.5 2930.5 349.5 2923.32 349.5 2917.5 343.68 2917.5 336.5 2917.5 329.32 2923.32 323.5 2930.5 323.5 2937.68 323.5 2943.5 329.32 2943.5 336.5Z"
         stroke="#000000"
         stroke-width="3.4375"
         stroke-linejoin="round"
         stroke-miterlimit="10"
         fill="none"
         id="path131" /><path
         d="M2957.5 339.5C2957.5 346.68 2951.68 352.5 2944.5 352.5 2937.32 352.5 2931.5 346.68 2931.5 339.5 2931.5 332.321 2937.32 326.5 2944.5 326.5 2951.68 326.5 2957.5 332.321 2957.5 339.5Z"
         stroke="#000000"
         stroke-width="3.4375"
         stroke-linejoin="round"
         stroke-miterlimit="10"
         fill="none"
         id="path132" /><path
         d="M2998.5 341.5C2998.5 348.679 2992.68 354.5 2985.5 354.5 2978.32 354.5 2972.5 348.679 2972.5 341.5 2972.5 334.32 2978.32 328.5 2985.5 328.5 2992.68 328.5 2998.5 334.32 2998.5 341.5Z"
         stroke="#000000"
         stroke-width="3.4375"
         stroke-linejoin="round"
         stroke-miterlimit="10"
         fill="none"
         id="path133" /><path
         d="M3025.5 344.5C3025.5 351.679 3019.68 357.5 3012.5 357.5 3005.32 357.5 2999.5 351.679 2999.5 344.5 2999.5 337.32 3005.32 331.5 3012.5 331.5 3019.68 331.5 3025.5 337.32 3025.5 344.5Z"
         stroke="#000000"
         stroke-width="3.4375"
         stroke-linejoin="round"
         stroke-miterlimit="10"
         fill="none"
         id="path134" /><path
         d="M3038.5 347.5C3038.5 354.68 3032.68 360.5 3025.5 360.5 3018.32 360.5 3012.5 354.68 3012.5 347.5 3012.5 340.32 3018.32 334.5 3025.5 334.5 3032.68 334.5 3038.5 340.32 3038.5 347.5Z"
         stroke="#000000"
         stroke-width="3.4375"
         stroke-linejoin="round"
         stroke-miterlimit="10"
         fill="none"
         id="path135" /><path
         d="M3066.5 349.5C3066.5 356.68 3060.68 362.5 3053.5 362.5 3046.32 362.5 3040.5 356.68 3040.5 349.5 3040.5 342.321 3046.32 336.5 3053.5 336.5 3060.68 336.5 3066.5 342.321 3066.5 349.5Z"
         stroke="#000000"
         stroke-width="3.4375"
         stroke-linejoin="round"
         stroke-miterlimit="10"
         fill="none"
         id="path136" /><path
         d="M3079.5 349.5C3079.5 356.68 3073.68 362.5 3066.5 362.5 3059.32 362.5 3053.5 356.68 3053.5 349.5 3053.5 342.321 3059.32 336.5 3066.5 336.5 3073.68 336.5 3079.5 342.321 3079.5 349.5Z"
         stroke="#000000"
         stroke-width="3.4375"
         stroke-linejoin="round"
         stroke-miterlimit="10"
         fill="none"
         id="path137" /><path
         d="M3107.5 352.5C3107.5 359.679 3101.68 365.5 3094.5 365.5 3087.32 365.5 3081.5 359.679 3081.5 352.5 3081.5 345.32 3087.32 339.5 3094.5 339.5 3101.68 339.5 3107.5 345.32 3107.5 352.5Z"
         stroke="#000000"
         stroke-width="3.4375"
         stroke-linejoin="round"
         stroke-miterlimit="10"
         fill="none"
         id="path138" /><path
         d="M3120.5 357.5C3120.5 364.68 3114.68 370.5 3107.5 370.5 3100.32 370.5 3094.5 364.68 3094.5 357.5 3094.5 350.32 3100.32 344.5 3107.5 344.5 3114.68 344.5 3120.5 350.32 3120.5 357.5Z"
         stroke="#000000"
         stroke-width="3.4375"
         stroke-linejoin="round"
         stroke-miterlimit="10"
         fill="none"
         id="path139" /><path
         d="M3120.5 360.5C3120.5 367.68 3114.68 373.5 3107.5 373.5 3100.32 373.5 3094.5 367.68 3094.5 360.5 3094.5 353.321 3100.32 347.5 3107.5 347.5 3114.68 347.5 3120.5 353.321 3120.5 360.5Z"
         stroke="#000000"
         stroke-width="3.4375"
         stroke-linejoin="round"
         stroke-miterlimit="10"
         fill="none"
         id="path140" /><path
         d="M3134.5 366.5C3134.5 373.679 3128.68 379.5 3121.5 379.5 3114.32 379.5 3108.5 373.679 3108.5 366.5 3108.5 359.32 3114.32 353.5 3121.5 353.5 3128.68 353.5 3134.5 359.32 3134.5 366.5Z"
         stroke="#000000"
         stroke-width="3.4375"
         stroke-linejoin="round"
         stroke-miterlimit="10"
         fill="none"
         id="path141" /><path
         d="M3297.5 397.5C3297.5 404.679 3291.68 410.5 3284.5 410.5 3277.32 410.5 3271.5 404.679 3271.5 397.5 3271.5 390.32 3277.32 384.5 3284.5 384.5 3291.68 384.5 3297.5 390.32 3297.5 397.5Z"
         stroke="#000000"
         stroke-width="3.4375"
         stroke-linejoin="round"
         stroke-miterlimit="10"
         fill="none"
         id="path142" /><path
         d="M3311.5 400.5C3311.5 407.68 3305.68 413.5 3298.5 413.5 3291.32 413.5 3285.5 407.68 3285.5 400.5 3285.5 393.32 3291.32 387.5 3298.5 387.5 3305.68 387.5 3311.5 393.32 3311.5 400.5Z"
         stroke="#000000"
         stroke-width="3.4375"
         stroke-linejoin="round"
         stroke-miterlimit="10"
         fill="none"
         id="path143" /><path
         d="M3352.5 406.5C3352.5 413.68 3346.68 419.5 3339.5 419.5 3332.32 419.5 3326.5 413.68 3326.5 406.5 3326.5 399.321 3332.32 393.5 3339.5 393.5 3346.68 393.5 3352.5 399.321 3352.5 406.5Z"
         stroke="#000000"
         stroke-width="3.4375"
         stroke-linejoin="round"
         stroke-miterlimit="10"
         fill="none"
         id="path144" /><path
         d="M3366.5 409.5C3366.5 416.679 3360.68 422.5 3353.5 422.5 3346.32 422.5 3340.5 416.679 3340.5 409.5 3340.5 402.32 3346.32 396.5 3353.5 396.5 3360.68 396.5 3366.5 402.32 3366.5 409.5Z"
         stroke="#000000"
         stroke-width="3.4375"
         stroke-linejoin="round"
         stroke-miterlimit="10"
         fill="none"
         id="path145" /><path
         d="M3420.5 417.5C3420.5 424.68 3414.68 430.5 3407.5 430.5 3400.32 430.5 3394.5 424.68 3394.5 417.5 3394.5 410.321 3400.32 404.5 3407.5 404.5 3414.68 404.5 3420.5 410.321 3420.5 417.5Z"
         stroke="#000000"
         stroke-width="3.4375"
         stroke-linejoin="round"
         stroke-miterlimit="10"
         fill="none"
         id="path146" /><path
         d="M3434.5 418.5C3434.5 425.679 3428.68 431.5 3421.5 431.5 3414.32 431.5 3408.5 425.679 3408.5 418.5 3408.5 411.32 3414.32 405.5 3421.5 405.5 3428.68 405.5 3434.5 411.32 3434.5 418.5Z"
         stroke="#000000"
         stroke-width="3.4375"
         stroke-linejoin="round"
         stroke-miterlimit="10"
         fill="none"
         id="path147" /><path
         d="M3475.5 425.5C3475.5 432.68 3469.68 438.5 3462.5 438.5 3455.32 438.5 3449.5 432.68 3449.5 425.5 3449.5 418.321 3455.32 412.5 3462.5 412.5 3469.68 412.5 3475.5 418.321 3475.5 425.5Z"
         stroke="#000000"
         stroke-width="3.4375"
         stroke-linejoin="round"
         stroke-miterlimit="10"
         fill="none"
         id="path148" /><path
         d="M3515.5 430.5C3515.5 437.679 3509.68 443.5 3502.5 443.5 3495.32 443.5 3489.5 437.679 3489.5 430.5 3489.5 423.32 3495.32 417.5 3502.5 417.5 3509.68 417.5 3515.5 423.32 3515.5 430.5Z"
         stroke="#000000"
         stroke-width="3.4375"
         stroke-linejoin="round"
         stroke-miterlimit="10"
         fill="none"
         id="path149" /></g><g
       id="g150"><path
         d="M273.5 2431.5 296.51 2376.5 317.5 2376.5"
         stroke="#A6A6A6"
         stroke-width="3.4375"
         stroke-linejoin="round"
         stroke-miterlimit="10"
         fill="none"
         id="path150" /></g><g
       id="g151"><path
         d="M287.5 2138.5 314.51 2110.5 335.5 2110.5"
         stroke="#A6A6A6"
         stroke-width="3.4375"
         stroke-linejoin="round"
         stroke-miterlimit="10"
         fill="none"
         id="path151" /></g><g
       id="g152"><path
         d="M301.5 1684.5 319.511 1652.5 340.5 1652.5"
         stroke="#A6A6A6"
         stroke-width="3.4375"
         stroke-linejoin="round"
         stroke-miterlimit="10"
         fill="none"
         id="path152" /></g><g
       id="g153"><path
         d="M301.5 1751.5 305.51 1788.5 326.5 1788.5"
         stroke="#A6A6A6"
         stroke-width="3.4375"
         stroke-linejoin="round"
         stroke-miterlimit="10"
         fill="none"
         id="path153" /></g><g
       id="g154"><path
         d="M314.5 562.5 313.5 516.5"
         stroke="#A6A6A6"
         stroke-width="3.4375"
         stroke-linejoin="round"
         stroke-miterlimit="10"
         fill="none"
         id="path154" /></g><g
       id="g155"><path
         d="M341.5 1022.5 346.512 1087.5 367.5 1087.5"
         stroke="#A6A6A6"
         stroke-width="3.4375"
         stroke-linejoin="round"
         stroke-miterlimit="10"
         fill="none"
         id="path155" /></g><g
       id="g156"><path
         d="M355.5 950.5 373.512 918.5 394.5 918.5"
         stroke="#A6A6A6"
         stroke-width="3.4375"
         stroke-linejoin="round"
         stroke-miterlimit="10"
         fill="none"
         id="path156" /></g><g
       id="g157"><path
         d="M423.5 402.5 409.514 297.5 388.5 297.5"
         stroke="#A6A6A6"
         stroke-width="3.4375"
         stroke-linejoin="round"
         stroke-miterlimit="10"
         fill="none"
         id="path157" /></g><g
       id="g158"><path
         d="M478.5 324.5 409.5 237.5"
         stroke="#A6A6A6"
         stroke-width="3.4375"
         stroke-linejoin="round"
         stroke-miterlimit="10"
         fill="none"
         id="path158" /></g><g
       id="g159"><path
         d="M1105.5 107.5 1190.5 213.5"
         stroke="#A6A6A6"
         stroke-width="3.4375"
         stroke-linejoin="round"
         stroke-miterlimit="10"
         fill="none"
         id="path159" /></g><g
       id="g160"><path
         d="M3463.5 426.5 3403.5 362.5"
         stroke="#A6A6A6"
         stroke-width="3.4375"
         stroke-linejoin="round"
         stroke-miterlimit="10"
         fill="none"
         id="path160" /></g><g
       id="g161"><path
         d="M3503.5 431.5 3427.5 541.5"
         stroke="#A6A6A6"
         stroke-width="3.4375"
         stroke-linejoin="round"
         stroke-miterlimit="10"
         fill="none"
         id="path161" /></g><g
       id="g162"><rect
         x="317"
         y="2331"
         width="102"
         height="92.0002"
         fill="#FFFFFF"
         id="rect161" /></g><g
       id="g163"><text
         fill="#404040"
         font-family="'Aptos Narrow', 'Aptos Narrow_MSFontService', sans-serif"
         font-weight="400"
         font-stretch="semi-condensed"
         font-size="64px"
         transform="translate(331.087,2398)"
         id="text162"><tspan
   style="font-size:65%;baseline-shift:super"
   id="tspan222">1</tspan>H</text></g><g
       id="g164"><rect
         x="336"
         y="2065"
         width="101"
         height="92.0002"
         fill="#FFFFFF"
         id="rect163" /></g><g
       id="g165"><text
         fill="#404040"
         font-family="'Aptos Narrow', 'Aptos Narrow_MSFontService', sans-serif"
         font-weight="400"
         font-stretch="semi-condensed"
         font-size="64px"
         transform="translate(349.3,2131)"
         id="text164"><tspan
   style="font-size:65%;baseline-shift:super"
   id="tspan221">2</tspan>H</text></g><g
       id="g166"><rect
         x="340"
         y="1607"
         width="101"
         height="92.0001"
         fill="#FFFFFF"
         id="rect165" /></g><g
       id="g167"><text
         fill="#404040"
         font-family="'Aptos Narrow', 'Aptos Narrow_MSFontService', sans-serif"
         font-weight="400"
         font-stretch="semi-condensed"
         font-size="64px"
         transform="translate(353.763,1674)"
         id="text166"><tspan
   style="font-size:65%;baseline-shift:super"
   id="tspan219">3</tspan>H</text></g><g
       id="g168"><rect
         x="326"
         y="1743"
         width="133"
         height="91.9998"
         fill="#FFFFFF"
         id="rect167" /></g><g
       id="g169"><text
         fill="#404040"
         font-family="'Aptos Narrow', 'Aptos Narrow_MSFontService', sans-serif"
         font-weight="400"
         font-stretch="semi-condensed"
         font-size="64px"
         transform="translate(340.012,1809)"
         id="text168"><tspan
   style="font-size:65%;baseline-shift:super"
   id="tspan220">3</tspan>He</text></g><g
       id="g170"><rect
         x="247"
         y="425"
         width="133"
         height="92.0001"
         fill="#FFFFFF"
         id="rect169" /></g><g
       id="g171"><text
         fill="#404040"
         font-family="'Aptos Narrow', 'Aptos Narrow_MSFontService', sans-serif"
         font-weight="400"
         font-stretch="semi-condensed"
         font-size="64px"
         transform="translate(261.219,492)"
         id="text170"><tspan
   style="font-size:65%;baseline-shift:super"
   id="tspan211">4</tspan>He</text></g><g
       id="g172"><rect
         x="367"
         y="1041"
         width="104"
         height="92.0001"
         fill="#FFFFFF"
         id="rect171" /></g><g
       id="g173"><text
         fill="#404040"
         font-family="'Aptos Narrow', 'Aptos Narrow_MSFontService', sans-serif"
         font-weight="400"
         font-stretch="semi-condensed"
         font-size="64px"
         transform="translate(380.901,1108)"
         id="text172"><tspan
   style="font-size:65%;baseline-shift:super"
   id="tspan218">6</tspan>Li</text></g><g
       id="g174"><rect
         x="395"
         y="872"
         width="103"
         height="91.9998"
         fill="#FFFFFF"
         id="rect173" /></g><g
       id="g175"><text
         fill="#404040"
         font-family="'Aptos Narrow', 'Aptos Narrow_MSFontService', sans-serif"
         font-weight="400"
         font-stretch="semi-condensed"
         font-size="64px"
         transform="translate(408.28,939)"
         id="text174"><tspan
   style="font-size:65%;baseline-shift:super"
   id="tspan217">7</tspan>Li</text></g><g
       id="g176"><rect
         x="256"
         y="251"
         width="133"
         height="92.0001"
         fill="#FFFFFF"
         id="rect175" /></g><g
       id="g177"><text
         fill="#404040"
         font-family="'Aptos Narrow', 'Aptos Narrow_MSFontService', sans-serif"
         font-weight="400"
         font-stretch="semi-condensed"
         font-size="64px"
         transform="translate(269.29,318)"
         id="text176"><tspan
   style="font-size:65%;baseline-shift:super"
   id="tspan212">12</tspan>C</text></g><g
       id="g178"><rect
         x="342"
         y="145"
         width="136"
         height="91.9998"
         fill="#FFFFFF"
         id="rect177" /></g><g
       id="g179"><text
         fill="#404040"
         font-family="'Aptos Narrow', 'Aptos Narrow_MSFontService', sans-serif"
         font-weight="400"
         font-stretch="semi-condensed"
         font-size="64px"
         transform="translate(356,212)"
         id="text178"><tspan
   style="font-size:65%;baseline-shift:super"
   id="tspan213">16</tspan>O</text></g><g
       id="g180"><rect
         x="1117"
         y="213"
         width="148"
         height="91.9998"
         fill="#FFFFFF"
         id="rect179" /></g><g
       id="g181"><text
         fill="#404040"
         font-family="'Aptos Narrow', 'Aptos Narrow_MSFontService', sans-serif"
         font-weight="400"
         font-stretch="semi-condensed"
         font-size="64px"
         transform="translate(1130.4,280)"
         id="text180"><tspan
   style="font-size:65%;baseline-shift:super"
   id="tspan214">62</tspan>Ni</text></g><g
       id="g182"><rect
         x="3322"
         y="270"
         width="164"
         height="92.0001"
         fill="#FFFFFF"
         id="rect181" /></g><g
       id="g183"><text
         fill="#404040"
         font-family="'Aptos Narrow', 'Aptos Narrow_MSFontService', sans-serif"
         font-weight="400"
         font-stretch="semi-condensed"
         font-size="64px"
         transform="translate(3335.29,337)"
         id="text182"><tspan
   style="font-size:65%;baseline-shift:super"
   id="tspan215">235</tspan>U</text></g><g
       id="g184"><rect
         x="3345"
         y="541"
         width="164"
         height="91.9998"
         fill="#FFFFFF"
         id="rect183" /></g><g
       id="g185"><text
         fill="#404040"
         font-family="'Aptos Narrow', 'Aptos Narrow_MSFontService', sans-serif"
         font-weight="400"
         font-stretch="semi-condensed"
         font-size="64px"
         transform="translate(3358.32,608)"
         id="text184"><tspan
   style="font-size:65%;baseline-shift:super"
   id="tspan216">238</tspan>U</text></g><g
       id="g186"><text
         fill="#595959"
         font-family="Aptos Narrow,Aptos Narrow_MSFontService,sans-serif"
         font-weight="400"
         font-stretch="semi-condensed"
         font-size="50"
         transform="matrix(1 0 0 1 149.371 2445)"
         id="text185">0.0</text></g><g
       id="g187"><text
         fill="#595959"
         font-family="Aptos Narrow,Aptos Narrow_MSFontService,sans-serif"
         font-weight="400"
         font-stretch="semi-condensed"
         font-size="50"
         transform="matrix(1 0 0 1 149.371 2181)"
         id="text186">1.0</text></g><g
       id="g188"><text
         fill="#595959"
         font-family="Aptos Narrow,Aptos Narrow_MSFontService,sans-serif"
         font-weight="400"
         font-stretch="semi-condensed"
         font-size="50"
         transform="matrix(1 0 0 1 149.371 1917)"
         id="text187">2.0</text></g><g
       id="g189"><text
         fill="#595959"
         font-family="Aptos Narrow,Aptos Narrow_MSFontService,sans-serif"
         font-weight="400"
         font-stretch="semi-condensed"
         font-size="50"
         transform="matrix(1 0 0 1 149.371 1653)"
         id="text188">3.0</text></g><g
       id="g190"><text
         fill="#595959"
         font-family="Aptos Narrow,Aptos Narrow_MSFontService,sans-serif"
         font-weight="400"
         font-stretch="semi-condensed"
         font-size="50"
         transform="matrix(1 0 0 1 149.371 1388)"
         id="text189">4.0</text></g><g
       id="g191"><text
         fill="#595959"
         font-family="Aptos Narrow,Aptos Narrow_MSFontService,sans-serif"
         font-weight="400"
         font-stretch="semi-condensed"
         font-size="50"
         transform="matrix(1 0 0 1 149.371 1124)"
         id="text190">5.0</text></g><g
       id="g192"><text
         fill="#595959"
         font-family="Aptos Narrow,Aptos Narrow_MSFontService,sans-serif"
         font-weight="400"
         font-stretch="semi-condensed"
         font-size="50"
         transform="matrix(1 0 0 1 149.371 860)"
         id="text191">6.0</text></g><g
       id="g193"><text
         fill="#595959"
         font-family="Aptos Narrow,Aptos Narrow_MSFontService,sans-serif"
         font-weight="400"
         font-stretch="semi-condensed"
         font-size="50"
         transform="matrix(1 0 0 1 149.371 596)"
         id="text192">7.0</text></g><g
       id="g194"><text
         fill="#595959"
         font-family="Aptos Narrow,Aptos Narrow_MSFontService,sans-serif"
         font-weight="400"
         font-stretch="semi-condensed"
         font-size="50"
         transform="matrix(1 0 0 1 149.371 331)"
         id="text193">8.0</text></g><g
       id="g195"><text
         fill="#595959"
         font-family="Aptos Narrow,Aptos Narrow_MSFontService,sans-serif"
         font-weight="400"
         font-stretch="semi-condensed"
         font-size="50"
         transform="matrix(1 0 0 1 149.371 67)"
         id="text194">9.0</text></g><g
       id="g196"><text
         fill="#595959"
         font-family="Aptos Narrow,Aptos Narrow_MSFontService,sans-serif"
         font-weight="400"
         font-stretch="semi-condensed"
         font-size="50"
         transform="matrix(1 0 0 1 247.39 2510)"
         id="text195">0</text></g><g
       id="g197"><text
         fill="#595959"
         font-family="Aptos Narrow,Aptos Narrow_MSFontService,sans-serif"
         font-weight="400"
         font-stretch="semi-condensed"
         font-size="50"
         transform="matrix(1 0 0 1 507.203 2510)"
         id="text196">20</text></g><g
       id="g198"><text
         fill="#595959"
         font-family="Aptos Narrow,Aptos Narrow_MSFontService,sans-serif"
         font-weight="400"
         font-stretch="semi-condensed"
         font-size="50"
         transform="matrix(1 0 0 1 779.793 2510)"
         id="text197">40</text></g><g
       id="g199"><text
         fill="#595959"
         font-family="Aptos Narrow,Aptos Narrow_MSFontService,sans-serif"
         font-weight="400"
         font-stretch="semi-condensed"
         font-size="50"
         transform="matrix(1 0 0 1 1052.38 2510)"
         id="text198">60</text></g><g
       id="g200"><text
         fill="#595959"
         font-family="Aptos Narrow,Aptos Narrow_MSFontService,sans-serif"
         font-weight="400"
         font-stretch="semi-condensed"
         font-size="50"
         transform="matrix(1 0 0 1 1324.97 2510)"
         id="text199">80</text></g><g
       id="g201"><text
         fill="#595959"
         font-family="Aptos Narrow,Aptos Narrow_MSFontService,sans-serif"
         font-weight="400"
         font-stretch="semi-condensed"
         font-size="50"
         transform="matrix(1 0 0 1 1584.79 2510)"
         id="text200">100</text></g><g
       id="g202"><text
         fill="#595959"
         font-family="Aptos Narrow,Aptos Narrow_MSFontService,sans-serif"
         font-weight="400"
         font-stretch="semi-condensed"
         font-size="50"
         transform="matrix(1 0 0 1 1857.38 2510)"
         id="text201">120</text></g><g
       id="g203"><text
         fill="#595959"
         font-family="Aptos Narrow,Aptos Narrow_MSFontService,sans-serif"
         font-weight="400"
         font-stretch="semi-condensed"
         font-size="50"
         transform="matrix(1 0 0 1 2129.97 2510)"
         id="text202">140</text></g><g
       id="g204"><text
         fill="#595959"
         font-family="Aptos Narrow,Aptos Narrow_MSFontService,sans-serif"
         font-weight="400"
         font-stretch="semi-condensed"
         font-size="50"
         transform="matrix(1 0 0 1 2402.55 2510)"
         id="text203">160</text></g><g
       id="g205"><text
         fill="#595959"
         font-family="Aptos Narrow,Aptos Narrow_MSFontService,sans-serif"
         font-weight="400"
         font-stretch="semi-condensed"
         font-size="50"
         transform="matrix(1 0 0 1 2675.14 2510)"
         id="text204">180</text></g><g
       id="g206"><text
         fill="#595959"
         font-family="Aptos Narrow,Aptos Narrow_MSFontService,sans-serif"
         font-weight="400"
         font-stretch="semi-condensed"
         font-size="50"
         transform="matrix(1 0 0 1 2947.73 2510)"
         id="text205">200</text></g><g
       id="g207"><text
         fill="#595959"
         font-family="Aptos Narrow,Aptos Narrow_MSFontService,sans-serif"
         font-weight="400"
         font-stretch="semi-condensed"
         font-size="50"
         transform="matrix(1 0 0 1 3220.32 2510)"
         id="text206">220</text></g><g
       id="g208"><text
         fill="#595959"
         font-family="Aptos Narrow,Aptos Narrow_MSFontService,sans-serif"
         font-weight="400"
         font-stretch="semi-condensed"
         font-size="50"
         transform="matrix(1 0 0 1 3492.91 2510)"
         id="text207">240</text></g><g
       id="g209"><text
         fill="#595959"
         font-family="Aptos Narrow,Aptos Narrow_MSFontService,sans-serif"
         font-weight="400"
         font-stretch="semi-condensed"
         font-size="64"
         transform="matrix(6.12323e-17 -1 1 6.12323e-17 117.288 1772)"
         id="text208">Average binding energy per nucleon (MeV)</text></g><g
       id="g210"><text
         fill="#595959"
         font-family="Aptos Narrow,Aptos Narrow_MSFontService,sans-serif"
         font-weight="400"
         font-stretch="semi-condensed"
         font-size="64"
         transform="matrix(1 0 0 1 1498.9 2599)"
         id="text209">Number of nucleons in nucleus</text></g><rect
       x="0.499836"
       y="0.499836"
       width="3620"
       height="2674"
       stroke="#D9D9D9"
       stroke-width="3.4375"
       stroke-linejoin="round"
       stroke-miterlimit="10"
       fill="none"
       id="rect210" /></g></svg>
