<svg width="248mm" height="55mm" version="1.1" viewBox="0 0 248 55" xmlns="http://www.w3.org/2000/svg" xmlns:xlink="http://www.w3.org/1999/xlink">
 <rect width="248" height="55" fill="#fff"/>
 <g fill="none" stroke="#000" stroke-width="1.5">
  <path d="m242 18h-17m-38 0h-9m-86 0h-19m-38 0h-29"/>
  <path d="m175 18h-46" stroke-dasharray="3"/>
 <path id="a" d="m35 18h4c0-8 10-8 10 0 2e-6-8 10-8 10 0 0-8 10-8 10 0h4"/>
 <use transform="translate(152)" xlink:href="#a"/>
 <use transform="translate(57)" xlink:href="#a"/>
  <circle cx="242" cy="18" r="3" fill="#fff"/>
  <circle cx="6" cy="18" r="3" fill="#fff"/>
 </g>
 <g font-family="Times" font-size="18px">
  <g font-size="25px" font-style="italic">
   <text x="103" y="50">L</text>
   <text x="43" y="50">L</text>
   <text x="196" y="50">L</text>
  </g>
  <text x="120" y="53">2</text>
  <text x="60" y="53">1</text>
  <text x="213" y="53">n</text>
 </g>

</svg>
