<?xml version="1.0" encoding="UTF-8" standalone="no"?>
<!-- Created with Inkscape (http://www.inkscape.org/) -->
<svg xmlns:dc="http://purl.org/dc/elements/1.1/" xmlns:cc="http://creativecommons.org/ns#" xmlns:rdf="http://www.w3.org/1999/02/22-rdf-syntax-ns#" xmlns:svg="http://www.w3.org/2000/svg" xmlns="http://www.w3.org/2000/svg" xmlns:xlink="http://www.w3.org/1999/xlink" xmlns:sodipodi="http://sodipodi.sourceforge.net/DTD/sodipodi-0.dtd" xmlns:inkscape="http://www.inkscape.org/namespaces/inkscape" width="900" height="600" viewBox="0 0 900 600" version="1.1" id="svg8" inkscape:version="0.92.2 5c3e80d, 2017-08-06" sodipodi:docname="2013 Atmospheric absorption of electromagnetic waves VERSION THREE.svg" inkscape:export-filename="/Users/ray/Documents/YT/WIKIPEDIA misc topics/20200520 Atmospheric absorption of millimeter waves/20200526 Atnospheric absorption of electromagnetic waves VERSION THREE.png" inkscape:export-xdpi="288" inkscape:export-ydpi="288" enable-background="new">
  <defs id="defs2">
    <linearGradient inkscape:collect="always" id="linearGradient1113">
      <stop style="stop-color:#ffffff;stop-opacity:1" offset="0" id="stop1109"/>
      <stop style="stop-color:#84b8c9;stop-opacity:1" offset="1" id="stop1111"/>
    </linearGradient>
    <linearGradient id="linearGradient1105" inkscape:collect="always">
      <stop id="stop1101" offset="0" style="stop-color:#ffffff;stop-opacity:1"/>
      <stop style="stop-color:#f5f5f5;stop-opacity:1" offset="0.14488634" id="stop1107"/>
      <stop id="stop1103" offset="1" style="stop-color:#d3d3d3;stop-opacity:1"/>
    </linearGradient>
    <linearGradient inkscape:collect="always" xlink:href="#linearGradient1105" id="linearGradient1099" gradientUnits="userSpaceOnUse" gradientTransform="translate(68,138.24998)" x1="410.94528" y1="470.64676" x2="410.94528" y2="120.39801"/>
    <linearGradient inkscape:collect="always" xlink:href="#linearGradient1113" id="linearGradient1115" x1="773.13434" y1="411.94031" x2="775.12439" y2="78.606964" gradientUnits="userSpaceOnUse"/>
  </defs>
  <sodipodi:namedview id="base" pagecolor="#ffffff" bordercolor="#666666" borderopacity="1.0" inkscape:pageopacity="0.0" inkscape:pageshadow="2" inkscape:zoom="1.005" inkscape:cx="450" inkscape:cy="300" inkscape:document-units="px" inkscape:current-layer="layer1" showgrid="false" units="px" inkscape:window-width="1450" inkscape:window-height="852" inkscape:window-x="40" inkscape:window-y="1" inkscape:window-maximized="0"/>
  <metadata id="metadata5">
    <rdf:RDF>
      <cc:Work rdf:about="">
        <dc:format>image/svg+xml</dc:format>
        <dc:type rdf:resource="http://purl.org/dc/dcmitype/StillImage"/>
        <dc:title/>
      </cc:Work>
    </rdf:RDF>
  </metadata>
  <g inkscape:label="Content" inkscape:groupmode="layer" id="layer1" transform="translate(0,-138.24998)" style="display:inline">
    <g id="g910">
      <switch style="font-style:italic;font-variant:normal;font-weight:normal;font-stretch:normal;font-size:26.66666603px;line-height:1.20000005;font-family:'Liberation Sans', Arial, Helvetica, sans-serif;-inkscape-font-specification:'Liberation Sans, Arial, Helvetica, sans-serif Italic';text-align:center;letter-spacing:0px;word-spacing:0px;text-anchor:middle;fill:#000000;fill-opacity:1;stroke:none"><text id="text986" y="670.49219" x="156.03876" style="font-style:italic;font-variant:normal;font-weight:normal;font-stretch:normal;font-size:26.66666603px;line-height:1.20000005;font-family:'Liberation Sans', Arial, Helvetica, sans-serif;-inkscape-font-specification:'Liberation Sans, Arial, Helvetica, sans-serif Italic';text-align:center;letter-spacing:0px;word-spacing:0px;text-anchor:middle;fill:#000000;fill-opacity:1;stroke:none" xml:space="preserve"><tspan style="font-style:normal;font-variant:normal;font-weight:normal;font-stretch:normal;font-size:26.66666603px;line-height:1.20000005;font-family:'Liberation Sans', Arial, Helvetica, sans-serif;-inkscape-font-specification:'Liberation Sans, Arial, Helvetica, sans-serif';text-align:center;text-anchor:middle" y="670.49219" x="156.03876" id="tspan984" sodipodi:role="line">10 GHz</tspan><tspan id="tspan994" style="font-style:normal;font-variant:normal;font-weight:normal;font-stretch:normal;font-size:26.66666603px;line-height:1.20000005;font-family:'Liberation Sans', Arial, Helvetica, sans-serif;-inkscape-font-specification:'Liberation Sans, Arial, Helvetica, sans-serif';text-align:center;text-anchor:middle" y="702.55695" x="156.03876" sodipodi:role="line">3 cm</tspan></text></switch>
      <switch style="font-style:italic;font-variant:normal;font-weight:normal;font-stretch:normal;font-size:26.66666603px;line-height:1.20000005;font-family:'Liberation Sans', Arial, Helvetica, sans-serif;-inkscape-font-specification:'Liberation Sans, Arial, Helvetica, sans-serif Italic';text-align:center;letter-spacing:0px;word-spacing:0px;text-anchor:middle;fill:#000000;fill-opacity:1;stroke:none"><text xml:space="preserve" style="font-style:italic;font-variant:normal;font-weight:normal;font-stretch:normal;font-size:26.66666603px;line-height:1.20000005;font-family:'Liberation Sans', Arial, Helvetica, sans-serif;-inkscape-font-specification:'Liberation Sans, Arial, Helvetica, sans-serif Italic';text-align:center;letter-spacing:0px;word-spacing:0px;text-anchor:middle;fill:#000000;fill-opacity:1;stroke:none" x="292.61688" y="670.49219" id="text990"><tspan sodipodi:role="line" id="tspan988" x="292.61688" y="670.49219" style="font-style:normal;font-variant:normal;font-weight:normal;font-stretch:normal;font-size:26.66666603px;line-height:1.20000005;font-family:'Liberation Sans', Arial, Helvetica, sans-serif;-inkscape-font-specification:'Liberation Sans, Arial, Helvetica, sans-serif';text-align:center;text-anchor:middle">100 GHz</tspan><tspan id="tspan992" sodipodi:role="line" x="292.61688" y="702.55695" style="font-style:normal;font-variant:normal;font-weight:normal;font-stretch:normal;font-size:26.66666603px;line-height:1.20000005;font-family:'Liberation Sans', Arial, Helvetica, sans-serif;-inkscape-font-specification:'Liberation Sans, Arial, Helvetica, sans-serif';text-align:center;text-anchor:middle">3 mm</tspan></text></switch>
      <switch style="font-style:italic;font-variant:normal;font-weight:normal;font-stretch:normal;font-size:26.66666603px;line-height:1.20000005;font-family:'Liberation Sans', Arial, Helvetica, sans-serif;-inkscape-font-specification:'Liberation Sans, Arial, Helvetica, sans-serif Italic';text-align:center;letter-spacing:0px;word-spacing:0px;text-anchor:middle;fill:#000000;fill-opacity:1;stroke:none"><text id="text1000" y="670.49219" x="422.61688" style="font-style:italic;font-variant:normal;font-weight:normal;font-stretch:normal;font-size:26.66666603px;line-height:1.20000005;font-family:'Liberation Sans', Arial, Helvetica, sans-serif;-inkscape-font-specification:'Liberation Sans, Arial, Helvetica, sans-serif Italic';text-align:center;letter-spacing:0px;word-spacing:0px;text-anchor:middle;fill:#000000;fill-opacity:1;stroke:none" xml:space="preserve"><tspan style="font-style:normal;font-variant:normal;font-weight:normal;font-stretch:normal;font-size:26.66666603px;line-height:1.20000005;font-family:'Liberation Sans', Arial, Helvetica, sans-serif;-inkscape-font-specification:'Liberation Sans, Arial, Helvetica, sans-serif';text-align:center;text-anchor:middle" y="670.49219" x="422.61688" id="tspan996" sodipodi:role="line">1 THz</tspan><tspan style="font-style:normal;font-variant:normal;font-weight:normal;font-stretch:normal;font-size:26.66666603px;line-height:1.20000005;font-family:'Liberation Sans', Arial, Helvetica, sans-serif;-inkscape-font-specification:'Liberation Sans, Arial, Helvetica, sans-serif';text-align:center;text-anchor:middle" y="702.55695" x="422.61688" sodipodi:role="line" id="tspan998">0.3 mm</tspan></text></switch>
      <switch style="font-style:italic;font-variant:normal;font-weight:normal;font-stretch:normal;font-size:26.66666603px;line-height:1.20000005;font-family:'Liberation Sans', Arial, Helvetica, sans-serif;-inkscape-font-specification:'Liberation Sans, Arial, Helvetica, sans-serif Italic';text-align:center;letter-spacing:0px;word-spacing:0px;text-anchor:middle;fill:#000000;fill-opacity:1;stroke:none"><text xml:space="preserve" style="font-style:italic;font-variant:normal;font-weight:normal;font-stretch:normal;font-size:26.66666603px;line-height:1.20000005;font-family:'Liberation Sans', Arial, Helvetica, sans-serif;-inkscape-font-specification:'Liberation Sans, Arial, Helvetica, sans-serif Italic';text-align:center;letter-spacing:0px;word-spacing:0px;text-anchor:middle;fill:#000000;fill-opacity:1;stroke:none" x="560.61688" y="670.49219" id="text1006"><tspan sodipodi:role="line" id="tspan1002" x="560.61688" y="670.49219" style="font-style:normal;font-variant:normal;font-weight:normal;font-stretch:normal;font-size:26.66666603px;line-height:1.20000005;font-family:'Liberation Sans', Arial, Helvetica, sans-serif;-inkscape-font-specification:'Liberation Sans, Arial, Helvetica, sans-serif';text-align:center;text-anchor:middle">10 THz</tspan><tspan id="tspan1004" sodipodi:role="line" x="560.61688" y="702.55695" style="font-style:normal;font-variant:normal;font-weight:normal;font-stretch:normal;font-size:26.66666603px;line-height:1.20000005;font-family:'Liberation Sans', Arial, Helvetica, sans-serif;-inkscape-font-specification:'Liberation Sans, Arial, Helvetica, sans-serif';text-align:center;text-anchor:middle">30 μm</tspan></text></switch>
      <switch style="font-style:italic;font-variant:normal;font-weight:normal;font-stretch:normal;font-size:26.66666603px;line-height:1.20000005;font-family:'Liberation Sans', Arial, Helvetica, sans-serif;-inkscape-font-specification:'Liberation Sans, Arial, Helvetica, sans-serif Italic';text-align:center;letter-spacing:0px;word-spacing:0px;text-anchor:middle;fill:#000000;fill-opacity:1;stroke:none"><text id="text1012" y="670.49219" x="702.61688" style="font-style:italic;font-variant:normal;font-weight:normal;font-stretch:normal;font-size:26.66666603px;line-height:1.20000005;font-family:'Liberation Sans', Arial, Helvetica, sans-serif;-inkscape-font-specification:'Liberation Sans, Arial, Helvetica, sans-serif Italic';text-align:center;letter-spacing:0px;word-spacing:0px;text-anchor:middle;fill:#000000;fill-opacity:1;stroke:none" xml:space="preserve"><tspan style="font-style:normal;font-variant:normal;font-weight:normal;font-stretch:normal;font-size:26.66666603px;line-height:1.20000005;font-family:'Liberation Sans', Arial, Helvetica, sans-serif;-inkscape-font-specification:'Liberation Sans, Arial, Helvetica, sans-serif';text-align:center;text-anchor:middle" y="670.49219" x="702.61688" id="tspan1008" sodipodi:role="line">100 THz</tspan><tspan style="font-style:normal;font-variant:normal;font-weight:normal;font-stretch:normal;font-size:26.66666603px;line-height:1.20000005;font-family:'Liberation Sans', Arial, Helvetica, sans-serif;-inkscape-font-specification:'Liberation Sans, Arial, Helvetica, sans-serif';text-align:center;text-anchor:middle" y="702.55695" x="702.61688" sodipodi:role="line" id="tspan1010">3 μm</tspan></text></switch>
      <switch style="font-style:italic;font-variant:normal;font-weight:normal;font-stretch:normal;font-size:26.66666603px;line-height:1.20000005;font-family:'Liberation Sans', Arial, Helvetica, sans-serif;-inkscape-font-specification:'Liberation Sans, Arial, Helvetica, sans-serif Italic';text-align:center;letter-spacing:0px;word-spacing:0px;text-anchor:middle;fill:#000000;fill-opacity:1;stroke:none"><text xml:space="preserve" style="font-style:italic;font-variant:normal;font-weight:normal;font-stretch:normal;font-size:26.66666603px;line-height:1.20000005;font-family:'Liberation Sans', Arial, Helvetica, sans-serif;-inkscape-font-specification:'Liberation Sans, Arial, Helvetica, sans-serif Italic';text-align:center;letter-spacing:0px;word-spacing:0px;text-anchor:middle;fill:#000000;fill-opacity:1;stroke:none" x="825.61688" y="670.49219" id="text1018"><tspan sodipodi:role="line" id="tspan1014" x="825.61688" y="670.49219" style="font-style:normal;font-variant:normal;font-weight:normal;font-stretch:normal;font-size:26.66666603px;line-height:1.20000005;font-family:'Liberation Sans', Arial, Helvetica, sans-serif;-inkscape-font-specification:'Liberation Sans, Arial, Helvetica, sans-serif';text-align:center;text-anchor:middle">1000 THz</tspan><tspan id="tspan1016" sodipodi:role="line" x="825.61688" y="702.55695" style="font-style:normal;font-variant:normal;font-weight:normal;font-stretch:normal;font-size:26.66666603px;line-height:1.20000005;font-family:'Liberation Sans', Arial, Helvetica, sans-serif;-inkscape-font-specification:'Liberation Sans, Arial, Helvetica, sans-serif';text-align:center;text-anchor:middle">0.3 μm</tspan></text></switch>
    </g>
    <switch style="font-style:normal;font-variant:normal;font-weight:normal;font-stretch:normal;font-size:37.33333206px;line-height:1;font-family:'Liberation Sans', Arial, Helvetica, sans-serif;-inkscape-font-specification:'Liberation Sans, Arial, Helvetica, sans-serif';text-align:center;letter-spacing:0px;word-spacing:0px;text-anchor:middle;fill:#000000;fill-opacity:1;stroke:none"><text xml:space="preserve" style="font-style:normal;font-variant:normal;font-weight:normal;font-stretch:normal;font-size:37.33333206px;line-height:1;font-family:'Liberation Sans', Arial, Helvetica, sans-serif;-inkscape-font-specification:'Liberation Sans, Arial, Helvetica, sans-serif';text-align:center;letter-spacing:0px;word-spacing:0px;text-anchor:middle;fill:#000000;fill-opacity:1;stroke:none" x="-396.85696" y="60.603405" id="text1022-ca" transform="rotate(-90)" systemLanguage="ca"><tspan sodipodi:role="line" id="tspan1020-ca" x="-396.85696" y="60.603405">Atenuació (dB/km)</tspan></text><text xml:space="preserve" style="font-style:normal;font-variant:normal;font-weight:normal;font-stretch:normal;font-size:37.33333206px;line-height:1;font-family:'Liberation Sans', Arial, Helvetica, sans-serif;-inkscape-font-specification:'Liberation Sans, Arial, Helvetica, sans-serif';text-align:center;letter-spacing:0px;word-spacing:0px;text-anchor:middle;fill:#000000;fill-opacity:1;stroke:none" x="-396.85696" y="60.603405" id="text1022" transform="rotate(-90)"><tspan sodipodi:role="line" id="tspan1020" x="-396.85696" y="60.603405">Attenuation (dB/km)</tspan></text></switch>
    <g id="g1080" transform="translate(68)">
      <switch style="font-style:normal;font-variant:normal;font-weight:normal;font-stretch:normal;font-size:26.66666603px;line-height:1;font-family:'Liberation Sans', Arial, Helvetica, sans-serif;-inkscape-font-specification:'Liberation Sans, Arial, Helvetica, sans-serif';text-align:end;letter-spacing:0px;word-spacing:0px;text-anchor:end;fill:#000000;fill-opacity:1;stroke:none"><text id="text1026" y="621.87683" x="71.648285" style="font-style:normal;font-variant:normal;font-weight:normal;font-stretch:normal;font-size:26.66666603px;line-height:1;font-family:'Liberation Sans', Arial, Helvetica, sans-serif;-inkscape-font-specification:'Liberation Sans, Arial, Helvetica, sans-serif';text-align:end;letter-spacing:0px;word-spacing:0px;text-anchor:end;fill:#000000;fill-opacity:1;stroke:none" xml:space="preserve"><tspan y="621.87683" x="71.648285" id="tspan1024" sodipodi:role="line">0.01</tspan></text></switch>
      <switch style="font-style:normal;font-variant:normal;font-weight:normal;font-stretch:normal;font-size:26.66666603px;line-height:1;font-family:'Liberation Sans', Arial, Helvetica, sans-serif;-inkscape-font-specification:'Liberation Sans, Arial, Helvetica, sans-serif';text-align:end;letter-spacing:0px;word-spacing:0px;text-anchor:end;fill:#000000;fill-opacity:1;stroke:none"><text xml:space="preserve" style="font-style:normal;font-variant:normal;font-weight:normal;font-stretch:normal;font-size:26.66666603px;line-height:1;font-family:'Liberation Sans', Arial, Helvetica, sans-serif;-inkscape-font-specification:'Liberation Sans, Arial, Helvetica, sans-serif';text-align:end;letter-spacing:0px;word-spacing:0px;text-anchor:end;fill:#000000;fill-opacity:1;stroke:none" x="71.648285" y="534.0022" id="text1050"><tspan sodipodi:role="line" id="tspan1048" x="71.648285" y="534.0022">0.1</tspan></text></switch>
      <switch style="font-style:normal;font-variant:normal;font-weight:normal;font-stretch:normal;font-size:26.66666603px;line-height:1;font-family:'Liberation Sans', Arial, Helvetica, sans-serif;-inkscape-font-specification:'Liberation Sans, Arial, Helvetica, sans-serif';text-align:end;letter-spacing:0px;word-spacing:0px;text-anchor:end;fill:#000000;fill-opacity:1;stroke:none"><text id="text1054" y="449.12762" x="71.387863" style="font-style:normal;font-variant:normal;font-weight:normal;font-stretch:normal;font-size:26.66666603px;line-height:1;font-family:'Liberation Sans', Arial, Helvetica, sans-serif;-inkscape-font-specification:'Liberation Sans, Arial, Helvetica, sans-serif';text-align:end;letter-spacing:0px;word-spacing:0px;text-anchor:end;fill:#000000;fill-opacity:1;stroke:none" xml:space="preserve"><tspan y="449.12762" x="71.387863" id="tspan1052" sodipodi:role="line">1.0</tspan></text></switch>
      <switch style="font-style:normal;font-variant:normal;font-weight:normal;font-stretch:normal;font-size:26.66666603px;line-height:1;font-family:'Liberation Sans', Arial, Helvetica, sans-serif;-inkscape-font-specification:'Liberation Sans, Arial, Helvetica, sans-serif';text-align:end;letter-spacing:0px;word-spacing:0px;text-anchor:end;fill:#000000;fill-opacity:1;stroke:none"><text xml:space="preserve" style="font-style:normal;font-variant:normal;font-weight:normal;font-stretch:normal;font-size:26.66666603px;line-height:1;font-family:'Liberation Sans', Arial, Helvetica, sans-serif;-inkscape-font-specification:'Liberation Sans, Arial, Helvetica, sans-serif';text-align:end;letter-spacing:0px;word-spacing:0px;text-anchor:end;fill:#000000;fill-opacity:1;stroke:none" x="71.387863" y="363.25296" id="text1058"><tspan sodipodi:role="line" id="tspan1056" x="71.387863" y="363.25296">10</tspan></text></switch>
      <switch style="font-style:normal;font-variant:normal;font-weight:normal;font-stretch:normal;font-size:26.66666603px;line-height:1;font-family:'Liberation Sans', Arial, Helvetica, sans-serif;-inkscape-font-specification:'Liberation Sans, Arial, Helvetica, sans-serif';text-align:end;letter-spacing:0px;word-spacing:0px;text-anchor:end;fill:#000000;fill-opacity:1;stroke:none"><text id="text1062" y="278.37836" x="71.387863" style="font-style:normal;font-variant:normal;font-weight:normal;font-stretch:normal;font-size:26.66666603px;line-height:1;font-family:'Liberation Sans', Arial, Helvetica, sans-serif;-inkscape-font-specification:'Liberation Sans, Arial, Helvetica, sans-serif';text-align:end;letter-spacing:0px;word-spacing:0px;text-anchor:end;fill:#000000;fill-opacity:1;stroke:none" xml:space="preserve"><tspan y="278.37836" x="71.387863" id="tspan1060" sodipodi:role="line">100</tspan></text></switch>
      <switch style="font-style:normal;font-variant:normal;font-weight:normal;font-stretch:normal;font-size:26.66666603px;line-height:1;font-family:'Liberation Sans', Arial, Helvetica, sans-serif;-inkscape-font-specification:'Liberation Sans, Arial, Helvetica, sans-serif';text-align:end;letter-spacing:0px;word-spacing:0px;text-anchor:end;fill:#000000;fill-opacity:1;stroke:none"><text xml:space="preserve" style="font-style:normal;font-variant:normal;font-weight:normal;font-stretch:normal;font-size:26.66666603px;line-height:1;font-family:'Liberation Sans', Arial, Helvetica, sans-serif;-inkscape-font-specification:'Liberation Sans, Arial, Helvetica, sans-serif';text-align:end;letter-spacing:0px;word-spacing:0px;text-anchor:end;fill:#000000;fill-opacity:1;stroke:none" x="71.387863" y="200.50371" id="text1066"><tspan sodipodi:role="line" id="tspan1064" x="71.387863" y="200.50371">1000</tspan></text></switch>
    </g>
    <rect style="display:inline;opacity:1;fill:url(#linearGradient1115);fill-opacity:1;stroke:#696969;stroke-width:2;stroke-linecap:round;stroke-linejoin:round;stroke-miterlimit:4;stroke-dasharray:none;stroke-dashoffset:0;stroke-opacity:1;paint-order:normal" id="rect1016" width="670.10791" height="421.39771" x="156.1487" y="54.080799" ry="8.6793508e-14" transform="translate(0,138.24998)"/>
    <path sodipodi:nodetypes="ccssssssssssssssssssssssssssssssssssssssssssssssssssssssssssssssssssssssssssssssssssssssssssssssssssssscc" inkscape:connector-curvature="0" id="path1097" d="m 156.1487,609.7484 c -0.10313,-12.5335 0.1517,-23.12181 0.1517,-23.12181 29.49073,-7.45014 35.30934,-83.02349 50.1307,-83.02349 8.29293,0 2.35548,10.10282 16.88614,10.02614 33.06182,-0.17447 24.28781,-169.56491 36.05892,-169.56491 11.1758,0 9.16909,136.32034 24.80151,136.32034 13.7611,0 8.77265,-63.85069 13.01639,-63.85069 3.40119,0 4.61722,5.98051 8.01841,5.98051 14.22231,0 9.74212,-100.08551 19.24566,-100.08551 8.5618,0 4.2003,55.222 17.34096,55.222 16.973,0 9.4893,-62.78558 16.07951,-62.78558 8.38516,0 3.22399,43.09505 8.79486,43.06058 7.63802,-0.0473 5.18108,-53.08672 9.85025,-53.08672 4.32809,0 3.23642,10.64363 7.56358,10.55383 5.96982,-0.12389 1.39157,-108.34911 5.9805,-108.34911 3.52705,0 1.7549,51.607 4.04564,51.607 1.93213,0 1.93302,-19.59728 2.81435,-19.59728 3.9431,0 1.39393,67.36863 4.22153,67.36863 3.2747,0 3.3889,-89.24747 4.00609,-98.94218 0.0192,-0.30134 2.17394,-1.60101 2.38841,-0.0612 0.44886,3.2225 0.36907,94.01787 3.98344,94.01787 6.17018,0 3.65766,-92.28568 7.91537,-92.28568 1.80015,0 -0.0196,9.99901 0.87949,10.02615 1.09311,0.033 0.0718,-8.26717 1.23128,-8.26717 3.45117,0 -0.40579,33.59636 2.99025,33.59636 3.32699,0 0.58985,-11.77394 3.60589,-11.78511 2.60056,-0.01 -0.10157,10.20204 2.37462,10.20204 3.89729,0 0.47435,-35.88303 2.53485,-35.88303 2.00313,0 -0.82673,12.57665 1.338,12.57665 3.04692,0 -0.37197,-22.77869 2.63535,-22.77869 2.97078,0 -0.16404,52.41737 1.75897,52.41737 3.01144,0 2.96393,-7.69406 3.75894,-12.05426 0.31082,-1.70471 0.32897,-2.9525 1.34208,-2.9525 1.02129,0 1.28154,1.08613 1.58166,2.924 0.58986,3.6122 1.57071,9.86803 3.16756,9.86803 2.34787,0 1.23774,-52.31341 3.86974,-52.31341 2.88189,0 -1.01305,50.13071 1.9347,49.95481 2.8049,-0.16737 1.76243,-47.84404 4.04581,-47.84404 3.44628,0 -1.59495,45.31605 1.93486,45.38148 2.01034,0.0373 -0.25465,-46.29979 3.69385,-46.26097 2.95664,0.0291 -0.83015,41.98326 2.46256,41.6841 1.36896,-0.12438 2.12787,-30.15015 3.37892,-34.26738 1.08793,-3.5804 0.48605,-6.18544 1.5462,-6.18544 1.14808,0 0.93155,2.40206 1.6838,6.02569 1.31528,6.33575 0.85048,29.75413 2.482,29.75413 3.76128,0 1.26542,-12.33951 3.294,-11.6819 3.83677,1.24378 1.73772,14.77537 3.33,14.77537 2.63943,0 0.50581,-3.86974 2.05069,-3.86974 2.03497,0 -0.61443,26.87289 2.05931,25.3292 2.25373,-1.30119 0.12421,-7.21179 2.68992,-7.21179 2.35152,0 0.75594,22.51484 3.51794,22.51484 3.9993,0 5.04665,-76.86708 7.03589,-76.86708 4.23157,0 0.41519,42.39123 3.16615,42.39123 3.71371,0 0.76373,-41.86353 3.51795,-41.86353 0.78571,0 0.14187,7.03588 1.05538,7.03588 1.26428,0 -0.35932,-8.09127 1.05538,-8.09127 1.70624,0 -0.0773,36.91079 2.28639,36.91079 3.75173,0 2.38186,-36.73489 5.1013,-36.73489 2.16438,0 -1.30031,46.74696 1.2277,46.78866 1.85516,0.0306 0.36964,-4.92512 2.29024,-4.92512 2.59364,0 0.54832,12.66459 2.28666,12.66459 1.20731,0 2.20884,-2.50897 3.41615,-2.50897 2.52772,0 -0.79035,15.56735 2.21256,15.52537 4.04911,-0.0566 2.58845,-47.14045 6.5082,-47.14045 2.79828,0 0.59267,45.73327 3.20719,45.73327 5.19837,0 0.0171,-17.94152 3.6528,-17.94152 3.51432,0 -1.04097,16.18255 3.34205,16.18255 2.90907,0 2.38761,-62.79531 4.92512,-62.79531 2.42754,0 -0.38592,75.25183 1.41878,75.25183 1.47582,0 1.53515,-76.48311 4.20993,-76.48311 3.01829,0 -2.2383,90.76296 0.16832,90.76296 2.43233,0 -2.21087,-11.43332 1.714,-11.43332 1.28042,0 -0.6097,37.38752 0.77531,37.38752 1.56121,0 1.98672,-3.66753 3.49474,-3.26346 2.04966,0.54921 -0.003,68.06028 2.64689,72.29464 0.96629,1.54393 0.28498,4.39655 2.10637,4.39655 1.73051,0 0.49909,-11.78512 2.81435,-11.78512 1.95161,0 0.33722,32.17871 1.58308,45.02969 0.36897,3.80587 7.10839,7.1249 7.347,10.78096 0.24466,3.74861 0.0654,5.303 0.30672,8.73835 0.41399,5.89222 6.05963,6.93753 6.94575,11.79655 1.125,6.16888 1.6289,37.45995 5.45281,37.45995 4.80611,0 1.71186,-47.66815 7.03589,-47.66815 5.59059,0 7.31386,36.4754 11.46904,66.89959 3.0627,22.4251 7.6455,41.2772 10.51811,41.2772 3.28956,0 2.51062,-5.62418 5.10102,-5.80461 2.30091,-0.16026 1.99582,4.22153 4.39743,4.22153 11.21706,0 4.14535,-153.49616 9.14665,-153.55826 5.25227,-0.0652 3.13237,40.10456 5.80461,40.10456 3.97567,0 1.85804,-44.32609 7.38769,-44.32609 6.11128,0 3.92397,106.24191 9.14665,106.24191 7.50106,0 -1.47885,-173.78644 5.98051,-173.78644 5.53716,0 10.27334,175.18959 15.83074,175.18959 7.11473,0 4.83221,-78.97382 9.14666,-78.97382 2.94477,0 4.04246,152.67878 8.79486,152.67878 7.66796,0 5.02475,-113.4537 9.49845,-113.4537 6.65833,0 6.17277,111.0705 8.17878,112.35676 1.75923,1.12801 0.93369,7.67501 2.37505,7.60514 5.90685,-0.28632 0.77887,-108.5299 5.51477,-108.5299 5.08582,0 1.44743,109.67271 6.46766,109.67271 7.30188,0 0.57144,-100.21998 8.45771,-100.21998 3.70275,0 5.90938,51.87763 11.69155,93.7811 0.38819,2.81325 3.10689,4.97512 7.71144,4.97512 h 66.66667 c 0,0 0.27032,8.57692 0.52567,31.47341" style="fill:url(#linearGradient1099);fill-opacity:1;stroke:#000000;stroke-width:2.5;stroke-linecap:round;stroke-linejoin:round;stroke-miterlimit:4;stroke-dasharray:none;stroke-opacity:1"/>
    <g id="g982" transform="translate(68)" style="fill:#ff0000;stroke:#696969">
      <path style="fill:#ff0000;stroke:#696969;stroke-width:1.50000191;stroke-linecap:butt;stroke-linejoin:miter;stroke-miterlimit:4;stroke-dasharray:none;stroke-opacity:1" d="m 102.14377,192.15898 h -24.024" id="path892" inkscape:connector-curvature="0"/>
      <path style="fill:#ff0000;stroke:#696969;stroke-width:1.5;stroke-linecap:butt;stroke-linejoin:miter;stroke-miterlimit:4;stroke-dasharray:none;stroke-opacity:1" d="M 101.14869,269.47088 H 77.12475" id="path896" inkscape:connector-curvature="0"/>
      <path inkscape:connector-curvature="0" id="path898" d="M 101.14869,524.5059 H 77.12475" style="fill:#ff0000;stroke:#696969;stroke-width:1.5;stroke-linecap:butt;stroke-linejoin:miter;stroke-miterlimit:4;stroke-dasharray:none;stroke-opacity:1"/>
      <path style="fill:#ff0000;stroke:#696969;stroke-width:1.5;stroke-linecap:butt;stroke-linejoin:miter;stroke-miterlimit:4;stroke-dasharray:none;stroke-opacity:1" d="M 101.14869,439.49424 H 77.12475" id="path900" inkscape:connector-curvature="0"/>
      <path inkscape:connector-curvature="0" id="path902" d="M 101.14869,354.48257 H 77.12475" style="fill:#ff0000;stroke:#696969;stroke-width:1.5;stroke-linecap:butt;stroke-linejoin:miter;stroke-miterlimit:4;stroke-dasharray:none;stroke-opacity:1"/>
      <path style="fill:#ff0000;stroke:#696969;stroke-width:1.5;stroke-linecap:butt;stroke-linejoin:miter;stroke-miterlimit:4;stroke-dasharray:none;stroke-opacity:1" d="M 101.14869,613.5059 H 77.12475" id="path974" inkscape:connector-curvature="0"/>
    </g>
    <g id="g967" transform="translate(68,-2)" style="fill:#ff0000;stroke:#696969">
      <path inkscape:connector-curvature="0" id="path838" d="m 87.967,603.77804 v 24.02394" style="fill:#ff0000;stroke:#696969;stroke-width:1.5;stroke-linecap:butt;stroke-linejoin:miter;stroke-miterlimit:4;stroke-dasharray:none;stroke-opacity:1"/>
      <path style="fill:#ff0000;stroke:#696969;stroke-width:1.5;stroke-linecap:butt;stroke-linejoin:miter;stroke-miterlimit:4;stroke-dasharray:none;stroke-opacity:1" d="m 757.94964,603.77827 v 24.02394" id="path840" inkscape:connector-curvature="0"/>
      <path inkscape:connector-curvature="0" id="path842" d="m 224.76354,603.77827 v 24.02394" style="fill:#ff0000;stroke:#696969;stroke-width:1.5;stroke-linecap:butt;stroke-linejoin:miter;stroke-miterlimit:4;stroke-dasharray:none;stroke-opacity:1"/>
      <path style="fill:#ff0000;stroke:#696969;stroke-width:1.5;stroke-linecap:butt;stroke-linejoin:miter;stroke-miterlimit:4;stroke-dasharray:none;stroke-opacity:1" d="m 634.15313,603.77827 v 24.02394" id="path844" inkscape:connector-curvature="0"/>
      <path inkscape:connector-curvature="0" id="path846" d="m 492.35662,603.77827 v 24.02394" style="fill:#ff0000;stroke:#696969;stroke-width:1.5;stroke-linecap:butt;stroke-linejoin:miter;stroke-miterlimit:4;stroke-dasharray:none;stroke-opacity:1"/>
      <path style="fill:#ff0000;stroke:#696969;stroke-width:1.5;stroke-linecap:butt;stroke-linejoin:miter;stroke-miterlimit:4;stroke-dasharray:none;stroke-opacity:1" d="m 353.56008,603.77827 v 24.02394" id="path848" inkscape:connector-curvature="0"/>
    </g>
    <g aria-label="H2O" style="font-style:normal;font-variant:normal;font-weight:normal;font-stretch:normal;font-size:37.33333206px;line-height:1;font-family:'Liberation Sans', Arial, Helvetica, sans-serif;-inkscape-font-specification:'Liberation Sans, Arial, Helvetica, sans-serif';text-align:center;letter-spacing:0px;word-spacing:0px;text-anchor:middle;fill:#0000ff;fill-opacity:1;stroke:#0000ff" id="text1063">
      <path d="m 456.18657,437.26968 v -11.90364 h -13.89062 v 11.90364 h -3.48177 v -25.68489 h 3.48177 v 10.86458 h 13.89062 v -10.86458 h 3.48178 v 25.68489 z" style="fill:#0000ff;stroke:#0000ff" id="path1193"/>
      <path d="m 464.07199,445.27968 v -1.65364 q 0.66406,-1.52344 1.61458,-2.68229 0.96355,-1.17188 2.01823,-2.10938 1.05469,-0.95052 2.08334,-1.75781 1.04166,-0.80729 1.875,-1.61458 0.83333,-0.8073 1.34114,-1.69271 0.52084,-0.88542 0.52084,-2.00521 0,-1.51042 -0.88542,-2.34375 -0.88542,-0.83333 -2.46094,-0.83333 -1.49739,0 -2.47396,0.82031 -0.96354,0.80729 -1.13281,2.27864 l -2.39583,-0.22135 q 0.26041,-2.20052 1.86198,-3.5026 1.61458,-1.30209 4.14062,-1.30209 2.77344,0 4.25781,1.31511 1.4974,1.30208 1.4974,3.71093 0,1.06771 -0.49479,2.1224 -0.48177,1.05469 -1.44531,2.10938 -0.96355,1.05468 -3.6849,3.26822 -1.4974,1.22396 -2.38281,2.21355 -0.88542,0.97656 -1.27604,1.88802 h 9.57031 v 1.99218 z" style="font-size:26.66666603px;fill:#0000ff;stroke:#0000ff" id="path1195"/>
      <path d="m 504.8272,424.30875 q 0,4.02864 -1.54948,7.05468 -1.53125,3.02605 -4.41146,4.64844 -2.88021,1.6224 -6.79948,1.6224 -3.95573,0 -6.83594,-1.60417 -2.86198,-1.60417 -4.375,-4.63021 -1.51302,-3.04427 -1.51302,-7.09114 0,-6.16146 3.3724,-9.625 3.37239,-3.48177 9.38802,-3.48177 3.91927,0 6.79948,1.5677 2.88021,1.54948 4.39323,4.52084 1.53125,2.97135 1.53125,7.01823 z m -3.55469,0 q 0,-4.79427 -2.40625,-7.52865 -2.38802,-2.73437 -6.76302,-2.73437 -4.41146,0 -6.81771,2.69791 -2.40625,2.69792 -2.40625,7.56511 0,4.83073 2.42448,7.67448 2.44271,2.82552 6.76302,2.82552 4.44792,0 6.81771,-2.73438 2.38802,-2.7526 2.38802,-7.76562 z" style="fill:#0000ff;stroke:#0000ff" id="path1197"/>
    </g>
    <g aria-label="CO2" style="font-style:normal;font-variant:normal;font-weight:normal;font-stretch:normal;font-size:37.33333206px;line-height:1;font-family:'Liberation Sans', Arial, Helvetica, sans-serif;-inkscape-font-specification:'Liberation Sans, Arial, Helvetica, sans-serif';text-align:center;letter-spacing:0px;word-spacing:0px;text-anchor:middle;fill:#000000;fill-opacity:1;stroke:#000000" id="text1067">
      <path d="m 448.56546,473.10765 q -4.26562,0 -6.63542,2.7526 -2.36979,2.73438 -2.36979,7.51042 0,4.72135 2.46094,7.60156 2.47917,2.86198 6.6901,2.86198 5.39584,0 8.11198,-5.34115 l 2.84375,1.42188 q -1.58593,3.31771 -4.46614,5.04948 -2.86198,1.73177 -6.65365,1.73177 -3.88281,0 -6.72656,-1.60417 -2.82552,-1.6224 -4.32031,-4.61198 -1.47657,-3.00781 -1.47657,-7.10937 0,-6.14323 3.31771,-9.625 3.31771,-3.48177 9.1875,-3.48177 4.10156,0 6.85417,1.60416 2.7526,1.60417 4.04687,4.75782 l -3.29948,1.09375 q -0.89322,-2.24219 -2.8802,-3.42709 -1.96875,-1.18489 -4.6849,-1.18489 z" style="" id="path1186"/>
      <path d="m 488.35973,483.37067 q 0,4.02864 -1.54948,7.05468 -1.53125,3.02605 -4.41146,4.64844 -2.8802,1.6224 -6.79948,1.6224 -3.95572,0 -6.83593,-1.60417 -2.86198,-1.60417 -4.375,-4.63021 -1.51302,-3.04427 -1.51302,-7.09114 0,-6.16146 3.37239,-9.625 3.3724,-3.48177 9.38802,-3.48177 3.91927,0 6.79948,1.5677 2.88021,1.54948 4.39323,4.52084 1.53125,2.97135 1.53125,7.01823 z m -3.55469,0 q 0,-4.79427 -2.40625,-7.52865 -2.38802,-2.73437 -6.76302,-2.73437 -4.41146,0 -6.81771,2.69791 -2.40625,2.69792 -2.40625,7.56511 0,4.83073 2.42448,7.67448 2.44271,2.82552 6.76302,2.82552 4.44792,0 6.81771,-2.73438 2.38802,-2.7526 2.38802,-7.76562 z" style="" id="path1188"/>
      <path d="m 491.46911,503.5016 v -1.65364 q 0.66406,-1.52344 1.61458,-2.68229 0.96354,-1.17188 2.01823,-2.10938 1.05469,-0.95052 2.08333,-1.75781 1.04167,-0.80729 1.875,-1.61458 0.83334,-0.8073 1.34115,-1.69271 0.52083,-0.88542 0.52083,-2.00521 0,-1.51042 -0.88541,-2.34375 -0.88542,-0.83333 -2.46094,-0.83333 -1.4974,0 -2.47396,0.82031 -0.96354,0.80729 -1.13281,2.27864 l -2.39584,-0.22135 q 0.26042,-2.20052 1.86198,-3.5026 1.61459,-1.30209 4.14063,-1.30209 2.77344,0 4.25781,1.31511 1.4974,1.30208 1.4974,3.71093 0,1.06771 -0.4948,2.1224 -0.48177,1.05469 -1.44531,2.10938 -0.96354,1.05468 -3.68489,3.26822 -1.4974,1.22396 -2.38282,2.21355 -0.88541,0.97656 -1.27604,1.88802 h 9.57031 v 1.99218 z" style="font-size:26.66666603px;fill:#000000;stroke:#000000" id="path1190"/>
    </g>
    <g aria-label="O2" style="font-style:normal;font-variant:normal;font-weight:normal;font-stretch:normal;font-size:37.33333206px;line-height:1;font-family:'Liberation Sans', Arial, Helvetica, sans-serif;-inkscape-font-specification:'Liberation Sans, Arial, Helvetica, sans-serif';text-align:center;letter-spacing:0px;word-spacing:0px;text-anchor:middle;fill:#228b22;fill-opacity:1;stroke:#2e8b57;stroke-width:1;stroke-miterlimit:4;stroke-dasharray:none" id="text1071">
      <path d="m 464.93396,539.5426 q 0,4.02865 -1.54948,7.05469 -1.53125,3.02604 -4.41146,4.64844 -2.88021,1.62239 -6.79948,1.62239 -3.95573,0 -6.83593,-1.60416 -2.86198,-1.60417 -4.375,-4.63021 -1.51302,-3.04427 -1.51302,-7.09115 0,-6.16146 3.37239,-9.625 3.3724,-3.48177 9.38802,-3.48177 3.91927,0 6.79948,1.56771 2.88021,1.54948 4.39323,4.52083 1.53125,2.97136 1.53125,7.01823 z m -3.55469,0 q 0,-4.79427 -2.40625,-7.52864 -2.38802,-2.73438 -6.76302,-2.73438 -4.41146,0 -6.81771,2.69792 -2.40625,2.69792 -2.40625,7.5651 0,4.83073 2.42448,7.67448 2.44271,2.82552 6.76302,2.82552 4.44792,0 6.81771,-2.73437 2.38802,-2.75261 2.38802,-7.76563 z" style="" id="path1181"/>
      <path d="m 468.04333,562.61354 v -1.65365 q 0.66407,-1.52344 1.61459,-2.68229 0.96354,-1.17188 2.01823,-2.10938 1.05468,-0.95052 2.08333,-1.75781 1.04167,-0.80729 1.875,-1.61458 0.83333,-0.80729 1.34115,-1.69271 0.52083,-0.88542 0.52083,-2.00521 0,-1.51042 -0.88542,-2.34375 -0.88541,-0.83333 -2.46093,-0.83333 -1.4974,0 -2.47396,0.82031 -0.96354,0.80729 -1.13282,2.27865 l -2.39583,-0.22136 q 0.26042,-2.20052 1.86198,-3.5026 1.61458,-1.30209 4.14063,-1.30209 2.77343,0 4.25781,1.31511 1.49739,1.30208 1.49739,3.71094 0,1.0677 -0.49479,2.12239 -0.48177,1.05469 -1.44531,2.10938 -0.96354,1.05468 -3.6849,3.26823 -1.49739,1.22395 -2.38281,2.21354 -0.88542,0.97656 -1.27604,1.88802 h 9.57031 v 1.99219 z" style="font-size:26.66666603px;stroke:#2e8b57;stroke-width:1;stroke-miterlimit:4;stroke-dasharray:none" id="path1183"/>
    </g>
    <path style="fill:#ffffff;stroke:#000000;stroke-width:3;stroke-linecap:butt;stroke-linejoin:miter;stroke-miterlimit:4;stroke-dasharray:none;stroke-opacity:1" d="m 390.45339,467.80152 h 31.84079 l -15.95875,32.22135 z" id="path1089" inkscape:connector-curvature="0" sodipodi:nodetypes="cccc"/>
    <path style="opacity:1;fill:#ffffff;fill-opacity:1;stroke:#008000;stroke-width:3;stroke-linecap:round;stroke-linejoin:round;stroke-miterlimit:4;stroke-dasharray:none;stroke-dashoffset:0;stroke-opacity:1;paint-order:normal" d="m 420.11749,543.66461 a 13.741206,13.741271 0 0 1 -13.73311,13.74127 13.741206,13.741271 0 0 1 -13.74929,-13.72508 13.741206,13.741271 0 0 1 13.71691,-13.75744 13.741206,13.741271 0 0 1 13.76545,13.70887" id="path1091"/>
    <path style="opacity:1;fill:#ffffff;fill-opacity:1;stroke:#0000ff;stroke-width:3.00275803;stroke-linecap:round;stroke-linejoin:round;stroke-miterlimit:4;stroke-dasharray:none;stroke-dashoffset:0;stroke-opacity:1;paint-order:normal" d="m 391.94989,412.04736 h 27.99724 c 0,0 0,0 0,0 v 27.99725 c 0,0 0,0 0,0 h -27.99724 c 0,0 0,0 0,0 v -27.99725 c 0,0 0,0 0,0 z" id="rect1095"/>
    <path style="opacity:1;fill:#ffffff;fill-opacity:1;stroke:#0000ff;stroke-width:1.93726325;stroke-linecap:round;stroke-linejoin:round;stroke-miterlimit:4;stroke-dasharray:none;stroke-dashoffset:0;stroke-opacity:1;paint-order:normal" inkscape:transform-center-x="-50.072221" inkscape:transform-center-y="61.627349" d="m 195.34251,479.04697 h 18.06274 c 0,0 0,0 0,0 v 18.06273 c 0,0 0,0 0,0 h -18.06274 c 0,0 0,0 0,0 v -18.06273 c 0,0 0,0 0,0 z" id="rect1097"/>
    <path style="opacity:1;fill:#ffffff;fill-opacity:1;stroke:#0000ff;stroke-width:1.93726325;stroke-linecap:round;stroke-linejoin:round;stroke-miterlimit:4;stroke-dasharray:none;stroke-dashoffset:0;stroke-opacity:1;paint-order:normal" inkscape:transform-center-x="-50.072221" inkscape:transform-center-y="61.627349" d="m 315.74051,294.96738 h 18.06274 c 0,0 0,0 0,0 v 18.06273 c 0,0 0,0 0,0 h -18.06274 c 0,0 0,0 0,0 v -18.06273 c 0,0 0,0 0,0 z" id="rect1099"/>
    <path style="opacity:1;fill:#ffffff;fill-opacity:1;stroke:#0000ff;stroke-width:1.93726325;stroke-linecap:round;stroke-linejoin:round;stroke-miterlimit:4;stroke-dasharray:none;stroke-dashoffset:0;stroke-opacity:1;paint-order:normal" inkscape:transform-center-x="-50.072221" inkscape:transform-center-y="61.627349" d="m 366.74051,196.96738 h 18.06274 c 0,0 0,0 0,0 v 18.06273 c 0,0 0,0 0,0 h -18.06274 c 0,0 0,0 0,0 v -18.06273 c 0,0 0,0 0,0 z" id="rect1101"/>
    <path style="opacity:1;fill:#ffffff;fill-opacity:1;stroke:#0000ff;stroke-width:1.93726325;stroke-linecap:round;stroke-linejoin:round;stroke-miterlimit:4;stroke-dasharray:none;stroke-dashoffset:0;stroke-opacity:1;paint-order:normal" inkscape:transform-center-x="-50.072221" inkscape:transform-center-y="61.627349" d="m 629.42706,367.12161 h 18.06274 c 0,0 0,0 0,0 v 18.06274 c 0,0 0,0 0,0 h -18.06274 c 0,0 0,0 0,0 v -18.06274 c 0,0 0,0 0,0 z" id="rect1103"/>
    <path style="opacity:1;fill:#ffffff;fill-opacity:1;stroke:#0000ff;stroke-width:1.93726325;stroke-linecap:round;stroke-linejoin:round;stroke-miterlimit:4;stroke-dasharray:none;stroke-dashoffset:0;stroke-opacity:1;paint-order:normal" inkscape:transform-center-x="-50.072221" inkscape:transform-center-y="61.627349" d="m 680.42706,395.12161 h 18.06274 c 0,0 0,0 0,0 v 18.06274 c 0,0 0,0 0,0 h -18.06274 c 0,0 0,0 0,0 v -18.06274 c 0,0 0,0 0,0 z" id="rect1105"/>
    <path style="opacity:1;fill:#ffffff;fill-opacity:1;stroke:#0000ff;stroke-width:1.93726325;stroke-linecap:round;stroke-linejoin:round;stroke-miterlimit:4;stroke-dasharray:none;stroke-dashoffset:0;stroke-opacity:1;paint-order:normal" inkscape:transform-center-x="-50.072221" inkscape:transform-center-y="61.627349" d="m 718.42706,443.12161 h 18.06274 c 0,0 0,0 0,0 v 18.06274 c 0,0 0,0 0,0 h -18.06274 c 0,0 0,0 0,0 v -18.06274 c 0,0 0,0 0,0 z" id="rect1107"/>
    <path sodipodi:nodetypes="cccc" inkscape:connector-curvature="0" id="path1109" d="m 653.39736,290.75481 h 21.70808 l -10.88019,21.96753 z" style="fill:#ffffff;stroke:#000000;stroke-width:2.04530811;stroke-linecap:butt;stroke-linejoin:miter;stroke-miterlimit:4;stroke-dasharray:none;stroke-opacity:1"/>
    <path style="fill:#ffffff;stroke:#000000;stroke-width:2.04530811;stroke-linecap:butt;stroke-linejoin:miter;stroke-miterlimit:4;stroke-dasharray:none;stroke-opacity:1" d="m 677.59917,367.15408 h 21.70808 l -10.88019,21.96753 z" id="path1111" inkscape:connector-curvature="0" sodipodi:nodetypes="cccc"/>
    <path style="opacity:1;fill:#ffffff;fill-opacity:1;stroke:#008000;stroke-width:2.01754618;stroke-linecap:round;stroke-linejoin:round;stroke-miterlimit:4;stroke-dasharray:none;stroke-dashoffset:0;stroke-opacity:1;paint-order:normal" d="m 267.36254,326.64102 a 9.2411728,9.2412167 0 0 1 -9.23573,9.24122 9.2411728,9.2412167 0 0 1 -9.24661,-9.23033 9.2411728,9.2412167 0 0 1 9.22484,-9.25209 9.2411728,9.2412167 0 0 1 9.25748,9.21943" id="path1113"/>
    <path style="opacity:1;fill:#ffffff;fill-opacity:1;stroke:#008000;stroke-width:2.01754618;stroke-linecap:round;stroke-linejoin:round;stroke-miterlimit:4;stroke-dasharray:none;stroke-dashoffset:0;stroke-opacity:1;paint-order:normal" d="m 304.36254,401.64102 a 9.2411728,9.2412167 0 0 1 -9.23573,9.24122 9.2411728,9.2412167 0 0 1 -9.24661,-9.23033 9.2411728,9.2412167 0 0 1 9.22484,-9.25209 9.2411728,9.2412167 0 0 1 9.25748,9.21943" id="path1115"/>
    <path style="opacity:1;fill:#ffffff;fill-opacity:1;stroke:#008000;stroke-width:2.01754618;stroke-linecap:round;stroke-linejoin:round;stroke-miterlimit:4;stroke-dasharray:none;stroke-dashoffset:0;stroke-opacity:1;paint-order:normal" d="m 631.33114,518.039 a 9.2411728,9.2412167 0 0 1 -9.23573,9.24122 9.2411728,9.2412167 0 0 1 -9.24661,-9.23033 9.2411728,9.2412167 0 0 1 9.22484,-9.25209 9.2411728,9.2412167 0 0 1 9.25747,9.21943" id="path1117"/>
    <path sodipodi:nodetypes="cccc" inkscape:connector-curvature="0" id="path1211" d="m 586.19921,407.15408 h 21.70808 l -10.88019,21.96753 z" style="fill:#ffffff;stroke:#000000;stroke-width:2.04530811;stroke-linecap:butt;stroke-linejoin:miter;stroke-miterlimit:4;stroke-dasharray:none;stroke-opacity:1"/>
  </g>
</svg>
