<?xml version="1.0" encoding="UTF-8"?>
<svg xmlns="http://www.w3.org/2000/svg" xmlns:xlink="http://www.w3.org/1999/xlink" width="360pt" height="170pt" viewBox="0 0 360 170" version="1.1">
<g id="surface12">
<path style="fill:none;stroke-width:2;stroke-linecap:square;stroke-linejoin:miter;stroke:rgb(0%,0%,0%);stroke-opacity:1;stroke-miterlimit:3.25;" d="M 81.179688 19.894531 L 150.109375 19.894531 " transform="matrix(1,0,0,1,-74,-13)"/>
<path style="fill:none;stroke-width:2;stroke-linecap:square;stroke-linejoin:miter;stroke:rgb(0%,0%,0%);stroke-opacity:1;stroke-miterlimit:3.25;" d="M 356.890625 19.894531 L 425.820313 19.894531 " transform="matrix(1,0,0,1,-74,-13)"/>
<path style=" stroke:none;fill-rule:evenodd;fill:rgb(0%,30.000305%,69.999695%);fill-opacity:1;" d="M 205.347656 136.132813 C 205.347656 129.277344 202.625 122.703125 197.777344 117.855469 C 192.929688 113.007813 186.355469 110.285156 179.5 110.285156 C 172.644531 110.285156 166.070313 113.007813 161.222656 117.855469 C 156.375 122.703125 153.652344 129.277344 153.652344 136.132813 C 153.652344 142.988281 156.375 149.5625 161.222656 154.410156 C 166.070313 159.257813 172.644531 161.980469 179.5 161.980469 C 186.355469 161.980469 192.929688 159.257813 197.777344 154.410156 C 202.625 149.5625 205.347656 142.988281 205.347656 136.132813 Z M 205.347656 136.132813 "/>
<path style="fill:none;stroke-width:2;stroke-linecap:square;stroke-linejoin:miter;stroke:rgb(0%,0%,0%);stroke-opacity:1;stroke-miterlimit:3.25;" d="M 150.109375 19.894531 L 150.171875 20.082031 L 150.234375 20.273438 L 150.363281 20.652344 L 150.617188 21.410156 L 151.121094 22.921875 L 152.136719 25.921875 L 154.167969 31.832031 L 158.566406 44.230469 L 162.675781 55.304688 L 166.703125 65.683594 L 171.074219 76.414063 L 175.152344 85.925781 L 179.570313 95.6875 L 183.910156 104.722656 L 187.957031 112.65625 L 192.34375 120.722656 L 196.441406 127.75 L 200.457031 134.164063 L 204.816406 140.59375 L 208.882813 146.097656 L 213.289063 151.523438 L 217.617188 156.300781 L 221.652344 160.265625 L 226.027344 164.03125 L 226.09375 164.082031 L 226.15625 164.132813 L 226.285156 164.234375 L 226.539063 164.4375 L 227.050781 164.832031 L 228.070313 165.601563 L 230.113281 167.046875 L 230.253906 167.140625 L 230.390625 167.234375 L 230.667969 167.417969 L 231.222656 167.78125 L 232.328125 168.476563 L 232.398438 168.519531 L 232.464844 168.5625 L 232.605469 168.644531 L 232.878906 168.8125 L 233.433594 169.140625 L 234.539063 169.765625 L 234.609375 169.804688 L 234.675781 169.839844 L 234.8125 169.914063 L 235.085938 170.058594 L 235.628906 170.347656 L 236.714844 170.894531 L 236.78125 170.925781 L 236.851563 170.957031 L 236.984375 171.023438 L 237.257813 171.152344 L 237.800781 171.40625 L 238.886719 171.882813 L 239.011719 171.9375 L 239.140625 171.988281 L 239.394531 172.09375 L 239.902344 172.296875 L 240.914063 172.683594 L 241.039063 172.730469 L 241.167969 172.773438 L 241.421875 172.863281 L 241.925781 173.039063 L 242.941406 173.363281 L 243.011719 173.382813 L 243.078125 173.40625 L 243.214844 173.445313 L 243.492188 173.527344 L 244.039063 173.683594 L 244.109375 173.703125 L 244.175781 173.71875 L 244.316406 173.757813 L 244.589844 173.828125 L 245.140625 173.964844 L 245.207031 173.984375 L 245.277344 174 L 245.6875 174.09375 L 246.238281 174.214844 L 247.335938 174.429688 L 247.402344 174.441406 L 247.464844 174.453125 L 247.59375 174.476563 L 247.851563 174.519531 L 248.363281 174.597656 L 248.425781 174.609375 L 248.492188 174.617188 L 248.621094 174.636719 L 248.875 174.671875 L 249.390625 174.734375 L 249.515625 174.75 L 249.644531 174.765625 L 249.902344 174.792969 L 249.964844 174.800781 L 250.03125 174.804688 L 250.160156 174.820313 L 250.414063 174.84375 L 250.480469 174.847656 L 250.542969 174.855469 L 250.671875 174.863281 L 250.929688 174.886719 L 251.054688 174.894531 L 251.441406 174.917969 L 251.753906 174.9375 L 251.820313 174.941406 L 251.945313 174.945313 L 252.007813 174.949219 L 252.070313 174.949219 L 252.195313 174.957031 L 252.257813 174.957031 L 252.320313 174.960938 L 252.445313 174.964844 L 252.511719 174.964844 L 252.574219 174.96875 L 252.636719 174.96875 L 252.699219 174.972656 L 252.824219 174.972656 L 252.886719 174.976563 L 253.074219 174.976563 L 253.140625 174.980469 L 253.894531 174.980469 L 253.957031 174.976563 L 254.144531 174.976563 L 254.207031 174.972656 L 254.332031 174.972656 L 254.457031 174.96875 L 254.523438 174.964844 L 254.585938 174.964844 L 254.710938 174.960938 L 254.835938 174.953125 L 254.960938 174.949219 L 255.023438 174.945313 L 255.085938 174.945313 L 255.214844 174.9375 L 255.464844 174.925781 L 255.53125 174.921875 L 255.601563 174.917969 L 255.738281 174.90625 L 256.011719 174.890625 L 256.078125 174.882813 L 256.148438 174.878906 L 256.285156 174.867188 L 256.554688 174.84375 L 256.625 174.839844 L 256.691406 174.832031 L 256.828125 174.820313 L 257.101563 174.792969 L 257.648438 174.730469 L 257.714844 174.722656 L 257.785156 174.714844 L 257.921875 174.699219 L 258.191406 174.660156 L 258.738281 174.582031 L 258.808594 174.570313 L 258.875 174.5625 L 259.011719 174.539063 L 259.285156 174.496094 L 259.828125 174.398438 L 259.894531 174.386719 L 259.957031 174.375 L 260.085938 174.351563 L 260.847656 174.199219 L 260.910156 174.183594 L 260.976563 174.171875 L 261.101563 174.140625 L 261.355469 174.085938 L 261.867188 173.964844 L 261.992188 173.933594 L 262.121094 173.902344 L 262.375 173.835938 L 262.886719 173.703125 L 263.902344 173.410156 L 263.972656 173.390625 L 264.042969 173.367188 L 264.179688 173.328125 L 264.457031 173.238281 L 265.007813 173.058594 L 266.109375 172.671875 L 266.179688 172.648438 L 266.25 172.621094 L 266.386719 172.570313 L 266.664063 172.46875 L 267.214844 172.253906 L 268.316406 171.796875 L 268.386719 171.765625 L 268.453125 171.738281 L 268.589844 171.675781 L 268.859375 171.558594 L 269.402344 171.3125 L 270.484375 170.796875 L 272.652344 169.660156 L 272.777344 169.589844 L 272.90625 169.519531 L 273.15625 169.375 L 273.664063 169.082031 L 274.671875 168.476563 L 276.695313 167.175781 L 276.761719 167.128906 L 276.832031 167.082031 L 277.242188 166.800781 L 277.792969 166.421875 L 278.886719 165.628906 L 281.078125 163.945313 L 285.171875 160.429688 L 289.183594 156.507813 L 293.535156 151.726563 L 297.597656 146.769531 L 302 140.851563 L 306.113281 134.820313 L 310.144531 128.433594 L 314.515625 120.96875 L 318.597656 113.503906 L 323.019531 104.867188 L 327.359375 95.835938 L 331.410156 86.917969 L 335.800781 76.710938 L 339.902344 66.675781 L 343.921875 56.367188 L 348.28125 44.648438 L 352.351563 33.21875 L 352.632813 32.40625 L 352.917969 31.585938 L 353.484375 29.945313 L 354.621094 26.632813 L 354.691406 26.421875 L 354.761719 26.214844 L 354.90625 25.796875 L 355.1875 24.960938 L 355.757813 23.28125 L 356.039063 22.4375 L 356.324219 21.589844 L 356.464844 21.167969 L 356.609375 20.742188 L 356.679688 20.53125 L 356.75 20.316406 L 356.890625 19.894531 " transform="matrix(1,0,0,1,-74,-13)"/>
</g>
</svg>
