<?xml version="1.0" encoding="UTF-8"?>
<svg xmlns="http://www.w3.org/2000/svg" xmlns:xlink="http://www.w3.org/1999/xlink" width="360pt" height="222pt" viewBox="0 0 360 222" version="1.1">
<g id="surface16">
<path style="fill:none;stroke-width:2;stroke-linecap:square;stroke-linejoin:miter;stroke:rgb(0%,0%,0%);stroke-opacity:1;stroke-miterlimit:3.25;" d="M 81.179688 226.675781 L 150.109375 226.675781 " transform="matrix(1,0,0,1,-74,-13)"/>
<path style="fill:none;stroke-width:2;stroke-linecap:square;stroke-linejoin:miter;stroke:rgb(0%,0%,0%);stroke-opacity:1;stroke-miterlimit:3.25;" d="M 356.890625 226.675781 L 425.820313 226.675781 " transform="matrix(1,0,0,1,-74,-13)"/>
<path style=" stroke:none;fill-rule:evenodd;fill:rgb(0%,30.000305%,69.999695%);fill-opacity:1;" d="M 205.347656 32.742188 C 205.347656 25.886719 202.625 19.3125 197.777344 14.464844 C 192.929688 9.617188 186.355469 6.894531 179.5 6.894531 C 172.644531 6.894531 166.070313 9.617188 161.222656 14.464844 C 156.375 19.3125 153.652344 25.886719 153.652344 32.742188 C 153.652344 39.597656 156.375 46.171875 161.222656 51.019531 C 166.070313 55.867188 172.644531 58.589844 179.5 58.589844 C 186.355469 58.589844 192.929688 55.867188 197.777344 51.019531 C 202.625 46.171875 205.347656 39.597656 205.347656 32.742188 Z M 205.347656 32.742188 "/>
<path style="fill:none;stroke-width:2;stroke-linecap:square;stroke-linejoin:miter;stroke:rgb(0%,0%,0%);stroke-opacity:1;stroke-miterlimit:3.25;" d="M 150.109375 226.675781 L 150.171875 226.488281 L 150.234375 226.296875 L 150.363281 225.917969 L 150.617188 225.160156 L 151.121094 223.648438 L 152.136719 220.648438 L 154.167969 214.738281 L 158.566406 202.335938 L 162.675781 191.265625 L 166.703125 180.882813 L 171.074219 170.15625 L 175.152344 160.644531 L 179.570313 150.882813 L 183.910156 141.847656 L 187.957031 133.914063 L 192.34375 125.847656 L 196.441406 118.820313 L 200.457031 112.40625 L 204.816406 105.972656 L 208.882813 100.46875 L 213.289063 95.046875 L 217.617188 90.269531 L 221.652344 86.304688 L 226.027344 82.539063 L 226.09375 82.488281 L 226.15625 82.4375 L 226.285156 82.335938 L 226.539063 82.132813 L 227.050781 81.738281 L 228.070313 80.96875 L 230.113281 79.523438 L 230.253906 79.429688 L 230.390625 79.335938 L 230.667969 79.152344 L 231.222656 78.789063 L 232.328125 78.09375 L 232.398438 78.050781 L 232.464844 78.007813 L 232.605469 77.921875 L 232.878906 77.757813 L 233.433594 77.429688 L 234.539063 76.804688 L 234.609375 76.765625 L 234.675781 76.730469 L 235.085938 76.507813 L 235.628906 76.222656 L 236.714844 75.675781 L 236.78125 75.644531 L 236.851563 75.609375 L 236.984375 75.546875 L 237.257813 75.417969 L 237.800781 75.164063 L 238.886719 74.6875 L 239.011719 74.632813 L 239.140625 74.582031 L 239.394531 74.476563 L 239.902344 74.273438 L 240.914063 73.886719 L 241.039063 73.839844 L 241.167969 73.796875 L 241.421875 73.707031 L 241.925781 73.53125 L 242.941406 73.207031 L 243.011719 73.183594 L 243.078125 73.164063 L 243.214844 73.125 L 243.492188 73.042969 L 244.039063 72.886719 L 244.109375 72.867188 L 244.175781 72.851563 L 244.316406 72.8125 L 244.589844 72.742188 L 245.140625 72.601563 L 245.207031 72.585938 L 245.277344 72.570313 L 245.414063 72.539063 L 245.6875 72.472656 L 246.238281 72.355469 L 247.335938 72.140625 L 247.402344 72.128906 L 247.464844 72.117188 L 247.59375 72.09375 L 247.851563 72.050781 L 248.363281 71.972656 L 248.425781 71.960938 L 248.492188 71.953125 L 248.621094 71.933594 L 248.875 71.898438 L 249.390625 71.832031 L 249.453125 71.828125 L 249.515625 71.820313 L 249.644531 71.804688 L 249.902344 71.777344 L 249.964844 71.769531 L 250.03125 71.761719 L 250.160156 71.75 L 250.414063 71.726563 L 250.480469 71.722656 L 250.542969 71.714844 L 250.671875 71.703125 L 250.929688 71.683594 L 251.054688 71.675781 L 251.183594 71.667969 L 251.441406 71.648438 L 251.503906 71.648438 L 251.753906 71.632813 L 251.820313 71.628906 L 251.945313 71.625 L 252.070313 71.617188 L 252.195313 71.613281 L 252.257813 71.609375 L 252.320313 71.609375 L 252.445313 71.605469 L 252.511719 71.601563 L 252.636719 71.601563 L 252.699219 71.597656 L 252.761719 71.597656 L 252.824219 71.59375 L 253.011719 71.59375 L 253.074219 71.589844 L 253.894531 71.589844 L 253.957031 71.59375 L 254.144531 71.59375 L 254.207031 71.597656 L 254.332031 71.597656 L 254.457031 71.601563 L 254.523438 71.605469 L 254.585938 71.605469 L 254.710938 71.609375 L 254.773438 71.613281 L 254.835938 71.613281 L 254.960938 71.621094 L 255.023438 71.621094 L 255.085938 71.625 L 255.214844 71.632813 L 255.464844 71.644531 L 255.53125 71.648438 L 255.601563 71.652344 L 255.738281 71.660156 L 256.011719 71.679688 L 256.078125 71.683594 L 256.148438 71.691406 L 256.285156 71.703125 L 256.554688 71.722656 L 256.625 71.730469 L 256.691406 71.738281 L 256.828125 71.75 L 257.101563 71.777344 L 257.648438 71.839844 L 257.714844 71.847656 L 257.785156 71.855469 L 257.921875 71.871094 L 258.191406 71.910156 L 258.738281 71.988281 L 258.808594 71.996094 L 258.875 72.007813 L 259.011719 72.03125 L 259.285156 72.074219 L 259.828125 72.171875 L 259.894531 72.183594 L 259.957031 72.195313 L 260.085938 72.21875 L 260.339844 72.265625 L 260.847656 72.371094 L 260.910156 72.386719 L 260.976563 72.398438 L 261.101563 72.425781 L 261.355469 72.484375 L 261.867188 72.605469 L 261.992188 72.636719 L 262.121094 72.667969 L 262.375 72.730469 L 262.886719 72.867188 L 263.902344 73.160156 L 264.042969 73.199219 L 264.179688 73.242188 L 264.457031 73.328125 L 265.007813 73.511719 L 266.109375 73.894531 L 266.179688 73.921875 L 266.25 73.945313 L 266.386719 74 L 266.664063 74.101563 L 267.214844 74.316406 L 268.316406 74.773438 L 268.386719 74.804688 L 268.453125 74.832031 L 268.589844 74.890625 L 268.859375 75.011719 L 269.402344 75.257813 L 270.484375 75.773438 L 272.652344 76.910156 L 272.777344 76.980469 L 272.90625 77.050781 L 273.15625 77.195313 L 273.664063 77.488281 L 274.671875 78.09375 L 276.695313 79.394531 L 276.761719 79.441406 L 276.832031 79.488281 L 276.96875 79.578125 L 277.242188 79.765625 L 277.792969 80.148438 L 278.886719 80.9375 L 281.078125 82.625 L 285.171875 86.140625 L 289.183594 90.0625 L 293.535156 94.84375 L 297.597656 99.800781 L 302 105.71875 L 306.113281 111.75 L 310.144531 118.136719 L 314.515625 125.601563 L 318.597656 133.066406 L 323.019531 141.703125 L 327.359375 150.734375 L 331.410156 159.652344 L 335.800781 169.859375 L 339.902344 179.894531 L 343.921875 190.203125 L 348.28125 201.917969 L 352.351563 213.351563 L 352.632813 214.164063 L 352.917969 214.984375 L 353.484375 216.625 L 354.621094 219.9375 L 354.691406 220.148438 L 354.761719 220.355469 L 354.90625 220.773438 L 355.1875 221.609375 L 355.757813 223.289063 L 356.039063 224.132813 L 356.324219 224.976563 L 356.394531 225.191406 L 356.464844 225.402344 L 356.609375 225.828125 L 356.75 226.25 L 356.820313 226.464844 L 356.890625 226.675781 " transform="matrix(1,0,0,1,-74,-13)"/>
</g>
</svg>
