<?xml version="1.0" encoding="UTF-8" standalone="no"?>
<!-- Created with Inkscape (http://www.inkscape.org/) -->
<svg
   xmlns:dc="http://purl.org/dc/elements/1.1/"
   xmlns:cc="http://web.resource.org/cc/"
   xmlns:rdf="http://www.w3.org/1999/02/22-rdf-syntax-ns#"
   xmlns:svg="http://www.w3.org/2000/svg"
   xmlns="http://www.w3.org/2000/svg"
   xmlns:sodipodi="http://inkscape.sourceforge.net/DTD/sodipodi-0.dtd"
   xmlns:inkscape="http://www.inkscape.org/namespaces/inkscape"
   id="svg2"
   sodipodi:version="0.32"
   inkscape:version="0.43"
   width="387"
   height="391"
   sodipodi:docbase="/home/estar"
   sodipodi:docname="ArealVelocity.svg"
   version="1.0">
  <metadata
     id="metadata7">
    <rdf:RDF>
      <cc:Work
         rdf:about="">
        <dc:format>image/svg+xml</dc:format>
        <dc:type
           rdf:resource="http://purl.org/dc/dcmitype/StillImage" />
        <dc:title>Areal velocity</dc:title>
        <dc:date>July 29, 2006</dc:date>
        <dc:creator>
          <cc:Agent>
            <dc:title>[[en:User:Xyzzy n]]</dc:title>
          </cc:Agent>
        </dc:creator>
        <dc:subject>
          <rdf:Bag>
            <rdf:li>Areal</rdf:li>
            <rdf:li>velocity</rdf:li>
          </rdf:Bag>
        </dc:subject>
        <dc:description>This is a trace of [[en:User:AugPi]]’s http://en.wikipedia.org/wiki/Image:ArealVelocity.PNG</dc:description>
        <cc:license
           rdf:resource="http://creativecommons.org/licenses/GPL/2.0/" />
      </cc:Work>
      <cc:License
         rdf:about="http://creativecommons.org/licenses/GPL/2.0/">
        <cc:permits
           rdf:resource="http://web.resource.org/cc/Reproduction" />
        <cc:permits
           rdf:resource="http://web.resource.org/cc/Distribution" />
        <cc:requires
           rdf:resource="http://web.resource.org/cc/Notice" />
        <cc:permits
           rdf:resource="http://web.resource.org/cc/DerivativeWorks" />
        <cc:requires
           rdf:resource="http://web.resource.org/cc/ShareAlike" />
        <cc:requires
           rdf:resource="http://web.resource.org/cc/SourceCode" />
      </cc:License>
    </rdf:RDF>
  </metadata>
  <defs
     id="defs5" />
  <sodipodi:namedview
     inkscape:window-height="798"
     inkscape:window-width="1278"
     inkscape:pageshadow="2"
     inkscape:pageopacity="0.0"
     borderopacity="1.0"
     bordercolor="#666666"
     pagecolor="#ffffff"
     id="base"
     inkscape:zoom="1.6086957"
     inkscape:cx="193.5"
     inkscape:cy="195.5"
     inkscape:window-x="0"
     inkscape:window-y="0"
     inkscape:current-layer="layer3" />
  <g
     inkscape:groupmode="layer"
     id="layer2"
     inkscape:label="lines"
     style="display:inline"
     sodipodi:insensitive="true">
    <path
       style="color:#000000;fill:none;fill-opacity:1;fill-rule:evenodd;stroke:#606060;stroke-width:1.5;stroke-linecap:round;stroke-linejoin:round;marker:none;marker-start:none;marker-mid:none;marker-end:none;stroke-miterlimit:4;stroke-dasharray:none;stroke-dashoffset:0;stroke-opacity:1;visibility:visible;display:inline;overflow:visible"
       d="M 74.594597,192.7027 L 150.43243,29.837835 L 150.43243,156.02703 L 74.594597,318.89189 L 74.594597,192.7027 z "
       id="rect2187"
       sodipodi:nodetypes="ccccc" />
    <path
       sodipodi:nodetypes="cccc"
       id="path2190"
       d="M 74.595,192.7027 L 150.43283,156.02703 L 74.595,318.89189 L 74.595,192.7027 z "
       style="color:#000000;fill:#c9d070;fill-opacity:1;fill-rule:evenodd;stroke:#404040;stroke-width:1.5;stroke-linecap:round;stroke-linejoin:round;marker:none;marker-start:none;marker-mid:none;marker-end:none;stroke-miterlimit:4;stroke-dasharray:none;stroke-dashoffset:0;stroke-opacity:1;visibility:visible;display:inline;overflow:visible" />
    <path
       style="color:#000000;fill:none;fill-opacity:1;fill-rule:evenodd;stroke:#000000;stroke-width:2;stroke-linecap:butt;stroke-linejoin:miter;marker:none;marker-start:none;marker-mid:none;marker-end:none;stroke-miterlimit:4;stroke-dashoffset:0;stroke-opacity:1;visibility:visible;display:inline;overflow:visible"
       d="M 148.7247,159.63224 C 148.7247,159.63224 74.594597,318.89189 74.594597,318.89189 L 74.594597,198.1876"
       id="path2194"
       sodipodi:nodetypes="ccc" />
    <path
       sodipodi:type="star"
       style="opacity:1;color:#000000;fill:#000000;fill-opacity:1;fill-rule:evenodd;stroke:#000000;stroke-width:1.5;stroke-linecap:round;stroke-linejoin:miter;marker:none;marker-start:none;marker-mid:none;marker-end:none;stroke-miterlimit:4;stroke-dasharray:none;stroke-dashoffset:0;stroke-opacity:1;visibility:visible;display:inline;overflow:visible"
       id="path2196"
       sodipodi:sides="3"
       sodipodi:cx="74.713188"
       sodipodi:cy="197.79327"
       sodipodi:r1="5.7262106"
       sodipodi:r2="2.8631053"
       sodipodi:arg1="0.52359878"
       sodipodi:arg2="1.5707963"
       inkscape:flatsided="true"
       inkscape:rounded="0"
       inkscape:randomized="0"
       d="M 79.672232,200.65638 L 69.754144,200.65638 L 74.713188,192.06706 L 79.672232,200.65638 z "
       transform="matrix(1,0,0,2.076805,-9.882697e-2,-202.1674)" />
    <path
       transform="matrix(0.907317,0.420446,-0.873185,1.884321,248.6102,-233.6504)"
       d="M 79.672232,200.65638 L 69.754144,200.65638 L 74.713188,192.06706 L 79.672232,200.65638 z "
       inkscape:randomized="0"
       inkscape:rounded="0"
       inkscape:flatsided="true"
       sodipodi:arg2="1.5707963"
       sodipodi:arg1="0.52359878"
       sodipodi:r2="2.8631053"
       sodipodi:r1="5.7262106"
       sodipodi:cy="197.79327"
       sodipodi:cx="74.713188"
       sodipodi:sides="3"
       id="path2198"
       style="opacity:1;color:#000000;fill:#000000;fill-opacity:1;fill-rule:evenodd;stroke:#000000;stroke-width:1.5;stroke-linecap:round;stroke-linejoin:miter;marker:none;marker-start:none;marker-mid:none;marker-end:none;stroke-miterlimit:4;stroke-dasharray:none;stroke-dashoffset:0;stroke-opacity:1;visibility:visible;display:inline;overflow:visible"
       sodipodi:type="star" />
    <path
       style="fill:none;fill-opacity:0.75;fill-rule:evenodd;stroke:#3c00ff;stroke-width:2;stroke-linecap:butt;stroke-linejoin:miter;stroke-miterlimit:4;stroke-dasharray:none;stroke-opacity:1"
       d="M 362.40541,183.37838 C 351.21622,195.81081 329.23126,204.06585 307.7027,198.29729 C 228.57728,177.0957 122.66503,88.866605 26.108108,256.1081"
       id="path2192"
       sodipodi:nodetypes="csc" />
  </g>
  <g
     inkscape:groupmode="layer"
     id="layer3"
     inkscape:label="text">
    <path
       style="font-size:16px;font-style:normal;font-variant:normal;font-weight:normal;font-stretch:normal;text-align:center;line-height:100%;writing-mode:lr-tb;text-anchor:middle;fill:#000000;fill-opacity:1;stroke:none;stroke-width:1px;stroke-linecap:butt;stroke-linejoin:miter;stroke-opacity:1;display:inline;font-family:cmmi10"
       d="M 66.330238,334.43243 C 66.226071,334.43243 66.173988,334.36212 66.173988,334.2215 C 66.215654,333.98712 66.283363,333.86993 66.377113,333.86993 C 66.809404,333.86993 67.181799,333.784 67.494301,333.61212 C 67.812007,333.44025 68.085444,333.17462 68.314613,332.81525 C 68.335444,332.79441 68.345861,332.784 68.345863,332.784 L 74.056801,323.15118 C 74.140126,323.03661 74.241688,322.97932 74.361488,322.97931 L 74.572426,322.97931 C 74.603667,322.97932 74.634917,322.98713 74.666176,323.00275 C 74.697417,323.01317 74.723458,323.03401 74.744301,323.06525 C 74.770333,323.0913 74.783354,323.11995 74.783363,323.15118 L 75.752113,333.48712 C 75.752103,333.534 75.775541,333.60431 75.822426,333.69806 C 75.926582,333.81264 76.325019,333.86993 77.017738,333.86993 C 77.127102,333.86993 77.181789,333.94025 77.181801,334.08087 C 77.145331,334.2215 77.114081,334.31525 77.088051,334.36212 C 77.067206,334.409 77.00731,334.43243 76.908363,334.43243 L 72.908363,334.43243 C 72.809398,334.43243 72.759919,334.36212 72.759926,334.2215 C 72.81721,333.98712 72.887523,333.86993 72.970863,333.86993 C 73.814605,333.86993 74.262521,333.72671 74.314613,333.44025 L 74.072426,330.79962 L 70.127113,330.79962 L 68.845863,332.94806 C 68.767735,333.06264 68.728673,333.19546 68.728676,333.3465 C 68.728673,333.534 68.817214,333.66941 68.994301,333.75275 C 69.176589,333.83087 69.37711,333.86993 69.595863,333.86993 C 69.700026,333.86993 69.752109,333.94025 69.752113,334.08087 C 69.715651,334.23191 69.687005,334.32827 69.666176,334.36993 C 69.645338,334.4116 69.585443,334.43243 69.486488,334.43243 L 66.330238,334.43243 M 70.439613,330.23712 L 74.009926,330.23712 L 73.533363,325.05743 L 70.439613,330.23712"
       id="text2200" />
    <path
       style="font-size:16px;font-style:normal;font-variant:normal;font-weight:normal;font-stretch:normal;text-align:center;line-height:100%;writing-mode:lr-tb;text-anchor:middle;fill:#000000;fill-opacity:1;stroke:none;stroke-width:1px;stroke-linecap:butt;stroke-linejoin:miter;stroke-opacity:1;display:inline;font-family:cmmi10"
       d="M 62.616135,189.59459 C 62.511967,189.59459 62.459884,189.52428 62.459885,189.38365 C 62.465092,189.35761 62.475509,189.31334 62.491135,189.25084 C 62.506759,189.18834 62.527592,189.13626 62.553635,189.09459 C 62.579676,189.05292 62.618738,189.03209 62.670822,189.03209 C 62.972904,189.03209 63.235925,189.02428 63.459885,189.00865 C 63.683841,188.99303 63.873945,188.96438 64.030197,188.92271 C 64.155195,188.87584 64.256757,188.73261 64.334885,188.49303 L 66.522385,179.70396 C 66.543213,179.59981 66.55363,179.52689 66.553635,179.48521 C 66.55363,179.37064 66.49113,179.30554 66.366135,179.2899 C 66.163005,179.24825 65.777589,179.22741 65.209885,179.2274 C 65.105715,179.22741 65.053631,179.1571 65.053635,179.01646 C 65.05884,178.99043 65.069256,178.94616 65.084885,178.88365 C 65.100506,178.81595 65.12134,178.76387 65.147385,178.7274 C 65.178631,178.68575 65.21509,178.66491 65.25676,178.6649 L 70.991135,178.6649 C 71.340083,178.66491 71.683833,178.70918 72.022385,178.79771 C 72.366124,178.88106 72.681228,179.01647 72.967697,179.20396 C 73.259352,179.39147 73.488519,179.62585 73.655197,179.90709 C 73.82706,180.18314 73.912998,180.50606 73.91301,180.87584 C 73.912998,181.27689 73.808831,181.64928 73.60051,181.99303 C 73.397373,182.33678 73.131748,182.63626 72.803635,182.89146 C 72.480707,183.14668 72.129145,183.35762 71.748947,183.52428 C 71.373938,183.68574 70.980709,183.80553 70.56926,183.88365 C 70.860917,183.88366 71.155188,183.94095 71.452072,184.05553 C 71.754146,184.17012 72.022374,184.32637 72.25676,184.52428 C 72.491124,184.7222 72.678624,184.95918 72.81926,185.23521 C 72.965082,185.51126 73.037998,185.80813 73.03801,186.12584 C 73.037998,186.76647 72.81404,187.3524 72.366135,187.88365 C 71.918208,188.4149 71.353104,188.83417 70.670822,189.14146 C 69.993731,189.44355 69.337481,189.59459 68.702072,189.59459 L 62.616135,189.59459 M 65.561447,188.90709 C 65.561443,188.99042 65.743735,189.03209 66.108322,189.03209 L 68.397385,189.03209 C 68.918211,189.03209 69.41821,188.88886 69.897385,188.6024 C 70.376543,188.31074 70.759355,187.92532 71.045822,187.44615 C 71.337479,186.96699 71.483312,186.46699 71.483322,185.94615 C 71.483312,185.62845 71.415604,185.32897 71.280197,185.04771 C 71.149979,184.76126 70.959876,184.5373 70.709885,184.37584 C 70.459876,184.20918 70.173418,184.12584 69.85051,184.12584 L 66.733322,184.12584 L 65.623947,188.55553 C 65.582277,188.70136 65.561443,188.81855 65.561447,188.90709 M 66.842697,183.70396 L 69.272385,183.70396 C 69.782793,183.70397 70.277585,183.57376 70.75676,183.31334 C 71.241125,183.05293 71.634354,182.69876 71.936447,182.25084 C 72.243728,181.80293 72.397374,181.32897 72.397385,180.82896 C 72.397374,180.36543 72.251541,179.98262 71.959885,179.68053 C 71.673416,179.37845 71.301021,179.22741 70.842697,179.2274 L 68.647385,179.2274 C 68.36092,179.22741 68.168212,179.25345 68.06926,179.30553 C 67.970295,179.35762 67.886962,179.51387 67.81926,179.77428 L 66.842697,183.70396"
       id="text2204" />
    <path
       style="font-size:16px;font-style:normal;font-variant:normal;font-weight:normal;font-stretch:normal;text-align:center;line-height:100%;writing-mode:lr-tb;text-anchor:middle;fill:#000000;fill-opacity:1;stroke:none;stroke-width:1px;stroke-linecap:butt;stroke-linejoin:miter;stroke-opacity:1;display:inline;font-family:cmmi10"
       d="M 154.01247,168.11446 C 154.01246,168.75508 154.13486,169.32019 154.37965,169.80977 C 154.62965,170.29414 154.98903,170.67435 155.45778,170.95039 C 155.93173,171.22123 156.48902,171.35664 157.12965,171.35664 C 157.80152,171.35664 158.44736,171.18477 159.06715,170.84102 C 159.69215,170.49727 160.2234,170.03894 160.6609,169.46602 C 161.1036,168.8879 161.40569,168.27592 161.56715,167.63008 C 161.58798,167.56759 161.62964,167.53634 161.69215,167.53633 L 161.88747,167.53633 C 161.92912,167.53634 161.96298,167.55196 161.98903,167.58321 C 162.01506,167.60925 162.02808,167.6405 162.02809,167.67696 C 162.02808,167.68738 162.02287,167.703 162.01247,167.72383 C 161.83016,168.46342 161.476,169.15873 160.94997,169.80977 C 160.42912,170.4556 159.80412,170.96862 159.07497,171.34883 C 158.34579,171.72904 157.59579,171.91914 156.82497,171.91914 C 155.99163,171.91914 155.24423,171.73164 154.58278,171.35664 C 153.92132,170.98164 153.40569,170.46081 153.0359,169.79414 C 152.67132,169.12748 152.48903,168.37488 152.48903,167.53633 C 152.48903,166.6405 152.68955,165.75509 153.09059,164.88008 C 153.49163,163.99988 154.03069,163.21863 154.70778,162.53633 C 155.38486,161.84884 156.15569,161.30197 157.02028,160.89571 C 157.89006,160.48947 158.77027,160.28634 159.6609,160.28633 C 160.01506,160.28634 160.3536,160.34103 160.67653,160.45039 C 160.99944,160.55457 161.29892,160.71603 161.57497,160.93477 C 161.851,161.15353 162.07756,161.40613 162.25465,161.69258 L 163.52028,160.31758 C 163.52027,160.29676 163.54631,160.28634 163.5984,160.28633 L 163.69215,160.28633 C 163.73381,160.28634 163.76766,160.30457 163.79372,160.34102 C 163.81975,160.37749 163.83277,160.41395 163.83278,160.45039 L 162.74684,164.77071 C 162.74683,164.84363 162.70516,164.88009 162.62184,164.88008 L 162.33278,164.88008 C 162.24944,164.88009 162.20777,164.82019 162.20778,164.70039 C 162.24944,164.46603 162.27027,164.18478 162.27028,163.85664 C 162.27027,163.33582 162.18173,162.84624 162.00465,162.38789 C 161.82756,161.92436 161.55152,161.55197 161.17653,161.27071 C 160.80673,160.98947 160.3536,160.84884 159.81715,160.84883 C 158.94735,160.84884 158.15048,161.06759 157.42653,161.50508 C 156.70257,161.94259 156.08798,162.51811 155.58278,163.23164 C 155.08278,163.93998 154.69476,164.72905 154.41872,165.59883 C 154.14788,166.46342 154.01246,167.30196 154.01247,168.11446"
       id="text2208" />
    <path
       style="font-size:16px;font-style:normal;font-variant:normal;font-weight:normal;font-stretch:normal;text-align:center;line-height:100%;writing-mode:lr-tb;text-anchor:middle;fill:#000000;fill-opacity:1;stroke:none;stroke-width:1px;stroke-linecap:butt;stroke-linejoin:miter;stroke-opacity:1;display:inline;font-family:cmmi10"
       d="M 144.72931,26.729731 C 144.62514,26.729731 144.57306,26.659418 144.57306,26.518793 C 144.57827,26.492752 144.58868,26.448481 144.60431,26.385981 C 144.61993,26.318273 144.64077,26.266189 144.66681,26.229731 C 144.69806,26.188064 144.73452,26.167231 144.77618,26.167231 C 145.42722,26.167231 145.88295,26.130773 146.14337,26.057856 C 146.27879,26.010981 146.37774,25.867752 146.44025,25.628168 L 148.63556,16.839106 C 148.65639,16.734949 148.6668,16.662032 148.66681,16.620356 C 148.6668,16.505782 148.6043,16.440678 148.47931,16.425043 C 148.27618,16.383387 147.89076,16.362553 147.32306,16.362543 C 147.21889,16.362553 147.16681,16.292241 147.16681,16.151606 C 147.17201,16.125575 147.18243,16.081304 147.19806,16.018793 C 147.21368,15.951096 147.23451,15.899012 147.26056,15.862543 C 147.29181,15.820887 147.32826,15.800054 147.36993,15.800043 L 153.11993,15.800043 C 153.86472,15.800054 154.51576,15.982346 155.07306,16.346918 C 155.63034,16.706303 156.05742,17.193282 156.35431,17.807856 C 156.65117,18.417239 156.79961,19.091717 156.79962,19.831293 C 156.79961,20.649008 156.63034,21.466715 156.29181,22.284418 C 155.95326,23.10213 155.4793,23.849525 154.86993,24.526606 C 154.26055,25.20369 153.56524,25.740148 152.784,26.135981 C 152.00274,26.531814 151.20066,26.729731 150.37775,26.729731 L 144.72931,26.729731 M 147.7215,26.042231 C 147.72149,26.125565 147.90378,26.167231 148.26837,26.167231 L 150.12775,26.167231 C 150.72149,26.167231 151.29441,26.044835 151.8465,25.800043 C 152.39857,25.555253 152.89076,25.219315 153.32306,24.792231 C 153.72409,24.391191 154.07826,23.86515 154.38556,23.214106 C 154.69284,22.563068 154.92982,21.883381 155.0965,21.175043 C 155.26836,20.466716 155.3543,19.815675 155.35431,19.221918 C 155.3543,18.789634 155.28919,18.39901 155.159,18.050043 C 155.03399,17.701094 154.8543,17.401615 154.61993,17.151606 C 154.39076,16.901615 154.10169,16.708907 153.75275,16.573481 C 153.40378,16.432866 153.01055,16.362553 152.57306,16.362543 L 150.81525,16.362543 C 150.52357,16.362553 150.33087,16.388595 150.23712,16.440668 C 150.14337,16.487553 150.05743,16.643803 149.97931,16.909418 L 147.79181,25.690668 C 147.74493,25.820877 147.72149,25.938065 147.7215,26.042231"
       id="text2212" />
    <path
       style="font-size:16px;font-style:normal;font-variant:normal;font-weight:normal;font-stretch:normal;text-align:end;line-height:100%;writing-mode:lr-tb;text-anchor:end;fill:#000000;fill-opacity:1;stroke:none;stroke-width:1px;stroke-linecap:butt;stroke-linejoin:miter;stroke-opacity:1;display:inline;font-family:cmmi10"
       d="M 45.078125,274.48334 C 45.078124,274.42084 45.083332,274.37396 45.09375,274.34271 L 46.289062,269.56927 C 46.367185,269.27241 46.406247,269.01199 46.40625,268.78802 C 46.406247,268.3297 46.249998,268.10053 45.9375,268.10052 C 45.604165,268.10053 45.356769,268.30105 45.195312,268.70209 C 45.033853,269.09793 44.877603,269.60053 44.726562,270.2099 C 44.726562,270.24115 44.710937,270.2672 44.679688,270.28802 C 44.648437,270.30365 44.619791,270.31147 44.59375,270.31146 L 44.40625,270.31146 C 44.369791,270.31147 44.338541,270.29324 44.3125,270.25677 C 44.286458,270.21511 44.273437,270.17865 44.273438,270.1474 C 44.38802,269.68386 44.497395,269.29063 44.601562,268.96771 C 44.710937,268.6448 44.877603,268.35053 45.101562,268.0849 C 45.330728,267.81928 45.614582,267.68647 45.953125,267.68646 C 46.322914,267.68647 46.645831,267.79324 46.921875,268.00677 C 47.203122,268.22032 47.377601,268.50157 47.445312,268.85052 C 47.716142,268.49636 48.023433,268.21511 48.367188,268.00677 C 48.716141,267.79324 49.096349,267.68647 49.507812,267.68646 C 49.846348,267.68647 50.143223,267.78543 50.398438,267.98334 C 50.658847,268.18126 50.789056,268.44949 50.789062,268.78802 C 50.789056,269.05886 50.703118,269.29584 50.53125,269.49896 C 50.364577,269.69688 50.140619,269.79584 49.859375,269.79584 C 49.687494,269.79584 49.541661,269.74376 49.421875,269.63959 C 49.307286,269.53022 49.249995,269.38959 49.25,269.21771 C 49.249995,268.98334 49.335932,268.77501 49.507812,268.59271 C 49.679682,268.40522 49.877598,268.31147 50.101562,268.31146 C 49.929681,268.17084 49.721348,268.10053 49.476562,268.10052 C 49.018224,268.10053 48.619787,268.26459 48.28125,268.59271 C 47.942704,268.91563 47.638017,269.32709 47.367188,269.82709 L 46.226562,274.40521 C 46.190102,274.55105 46.106769,274.67605 45.976562,274.78021 C 45.85156,274.88438 45.710936,274.93646 45.554688,274.93646 C 45.424478,274.93646 45.312499,274.8948 45.21875,274.81146 C 45.124999,274.72813 45.078124,274.61875 45.078125,274.48334 M 55.867188,278.72552 C 55.273433,278.25677 54.760413,277.71771 54.328125,277.10834 C 53.901039,276.50417 53.549477,275.85834 53.273438,275.17084 C 53.002602,274.48334 52.799477,273.76459 52.664062,273.01459 C 52.528644,272.26459 52.460936,271.51199 52.460938,270.75677 C 52.460936,269.99115 52.528644,269.23334 52.664062,268.48334 C 52.799477,267.73334 53.005206,267.01199 53.28125,266.31927 C 53.562497,265.62658 53.919268,264.97814 54.351562,264.37396 C 54.78385,263.76981 55.289058,263.24116 55.867188,262.78802 C 55.867183,262.7672 55.893224,262.75679 55.945312,262.75677 L 56.09375,262.75677 C 56.124995,262.75679 56.153641,262.77241 56.179688,262.80365 C 56.205724,262.8297 56.218745,262.86095 56.21875,262.8974 C 56.218745,262.94429 56.208328,262.97814 56.1875,262.99896 C 55.666662,263.50939 55.231767,264.05626 54.882812,264.63959 C 54.539059,265.22293 54.260413,265.84533 54.046875,266.50677 C 53.838539,267.16303 53.687497,267.84532 53.59375,268.55365 C 53.499997,269.25678 53.453122,269.99115 53.453125,270.75677 C 53.453122,274.1474 54.359372,276.72292 56.171875,278.48334 C 56.20312,278.51458 56.218745,278.55885 56.21875,278.61615 C 56.218745,278.64219 56.20312,278.67083 56.171875,278.70209 C 56.145828,278.73854 56.119786,278.75677 56.09375,278.75677 L 55.945312,278.75677 C 55.893224,278.75677 55.867183,278.74635 55.867188,278.72552 M 58.117188,273.4599 C 58.117187,273.30365 58.132811,273.15521 58.164062,273.01459 L 59.320312,268.42084 L 57.640625,268.42084 C 57.53125,268.42084 57.476562,268.35053 57.476562,268.2099 C 57.518229,267.97553 57.588541,267.85834 57.6875,267.85834 L 59.460938,267.85834 L 60.101562,265.24896 C 60.143226,265.10835 60.226559,264.98856 60.351562,264.88959 C 60.476559,264.79064 60.617184,264.74116 60.773438,264.74115 C 60.90885,264.74116 61.020829,264.78283 61.109375,264.86615 C 61.203121,264.94428 61.249996,265.05106 61.25,265.18646 C 61.249996,265.21772 61.247392,265.24376 61.242188,265.26459 C 61.242183,265.28022 61.239579,265.29845 61.234375,265.31927 L 60.59375,267.85834 L 62.242188,267.85834 C 62.351557,267.85834 62.406245,267.92866 62.40625,268.06927 C 62.401036,268.09532 62.39062,268.13959 62.375,268.20209 C 62.35937,268.26459 62.338536,268.31668 62.3125,268.35834 C 62.286453,268.40001 62.247391,268.42084 62.195312,268.42084 L 60.453125,268.42084 L 59.304688,273.04584 C 59.22656,273.34792 59.187498,273.60834 59.1875,273.82709 C 59.187498,274.28542 59.343748,274.51459 59.65625,274.51459 C 60.124997,274.51459 60.539059,274.29584 60.898438,273.85834 C 61.263017,273.41563 61.541662,272.93126 61.734375,272.40521 C 61.776037,272.34271 61.817704,272.31146 61.859375,272.31146 L 62.054688,272.31146 C 62.096349,272.31146 62.130203,272.32709 62.15625,272.35834 C 62.182287,272.38438 62.195307,272.41563 62.195312,272.45209 C 62.195307,272.47292 62.190099,272.48855 62.179688,272.49896 C 61.945308,273.1448 61.604162,273.71251 61.15625,274.20209 C 60.70833,274.69167 60.195309,274.93646 59.617188,274.93646 C 59.19531,274.93646 58.83854,274.79844 58.546875,274.5224 C 58.260416,274.24636 58.117187,273.89219 58.117188,273.4599 M 63.820312,278.75677 C 63.726562,278.75677 63.679687,278.7099 63.679688,278.61615 C 63.679687,278.56927 63.690103,278.53542 63.710938,278.51459 C 65.533851,276.73334 66.445309,274.1474 66.445312,270.75677 C 66.445309,267.36616 65.544268,264.79064 63.742188,263.03021 C 63.70052,263.00418 63.679687,262.95991 63.679688,262.8974 C 63.679687,262.86095 63.692707,262.8297 63.71875,262.80365 C 63.749999,262.77241 63.783853,262.75679 63.820312,262.75677 L 63.96875,262.75677 C 63.999999,262.75679 64.02604,262.7672 64.046875,262.78802 C 64.812498,263.3922 65.450518,264.12658 65.960938,264.99115 C 66.47135,265.85574 66.843746,266.77762 67.078125,267.75677 C 67.317704,268.73595 67.437495,269.73595 67.4375,270.75677 C 67.437495,271.51199 67.372391,272.25678 67.242188,272.99115 C 67.117183,273.72032 66.914058,274.43907 66.632812,275.1474 C 66.356767,275.86094 66.005205,276.51719 65.578125,277.11615 C 65.151039,277.72031 64.640623,278.25677 64.046875,278.72552 C 64.02604,278.74635 63.999999,278.75677 63.96875,278.75677 L 63.820312,278.75677"
       id="text2216" />
    <path
       style="font-size:16px;font-style:normal;font-variant:normal;font-weight:normal;font-stretch:normal;text-align:start;line-height:100%;writing-mode:lr-tb;text-anchor:start;fill:#000000;fill-opacity:1;stroke:none;stroke-width:1px;stroke-linecap:butt;stroke-linejoin:miter;stroke-opacity:1;display:inline;font-family:cmmi10"
       d="M 123.69385,242.78062 C 123.69385,242.71812 123.69905,242.67125 123.70947,242.64 L 124.90479,237.86656 C 124.98291,237.56969 125.02197,237.30928 125.02197,237.08531 C 125.02197,236.62698 124.86572,236.39782 124.55322,236.39781 C 124.21989,236.39782 123.97249,236.59834 123.81104,236.99937 C 123.64958,237.39521 123.49333,237.89782 123.34229,238.50719 C 123.34228,238.53844 123.32666,238.56448 123.29541,238.58531 C 123.26416,238.60094 123.23551,238.60875 123.20947,238.60875 L 123.02197,238.60875 C 122.98551,238.60875 122.95426,238.59052 122.92822,238.55406 C 122.90218,238.5124 122.88916,238.47594 122.88916,238.44469 C 123.00374,237.98115 123.11312,237.58792 123.21729,237.265 C 123.32666,236.94209 123.49333,236.64782 123.71729,236.38219 C 123.94645,236.11657 124.2303,235.98376 124.56885,235.98375 C 124.93864,235.98376 125.26155,236.09053 125.5376,236.30406 C 125.81884,236.51761 125.99332,236.79886 126.06104,237.14781 C 126.33186,236.79365 126.63916,236.5124 126.98291,236.30406 C 127.33186,236.09053 127.71207,235.98376 128.12354,235.98375 C 128.46207,235.98376 128.75895,236.08271 129.01416,236.28062 C 129.27457,236.47855 129.40478,236.74678 129.40479,237.08531 C 129.40478,237.35615 129.31884,237.59313 129.14697,237.79625 C 128.9803,237.99417 128.75634,238.09313 128.4751,238.09312 C 128.30322,238.09313 128.15738,238.04105 128.0376,237.93687 C 127.92301,237.8275 127.86572,237.68688 127.86572,237.515 C 127.86572,237.28063 127.95165,237.0723 128.12354,236.89 C 128.2954,236.70251 128.49332,236.60876 128.71729,236.60875 C 128.5454,236.46813 128.33707,236.39782 128.09229,236.39781 C 127.63395,236.39782 127.23551,236.56188 126.89697,236.89 C 126.55843,237.21292 126.25374,237.62438 125.98291,238.12437 L 124.84229,242.7025 C 124.80582,242.84833 124.72249,242.97333 124.59229,243.0775 C 124.46728,243.18167 124.32666,243.23375 124.17041,243.23375 C 124.0402,243.23375 123.92822,243.19208 123.83447,243.10875 C 123.74072,243.02542 123.69385,242.91604 123.69385,242.78062 M 134.48291,247.02281 C 133.88916,246.55406 133.37614,246.015 132.94385,245.40562 C 132.51676,244.80146 132.1652,244.15562 131.88916,243.46812 C 131.61832,242.78062 131.4152,242.06188 131.27979,241.31187 C 131.14437,240.56188 131.07666,239.80927 131.07666,239.05406 C 131.07666,238.28844 131.14437,237.53063 131.27979,236.78062 C 131.4152,236.03063 131.62093,235.30928 131.89697,234.61656 C 132.17822,233.92386 132.53499,233.27543 132.96729,232.67125 C 133.39957,232.06709 133.90478,231.53845 134.48291,231.08531 C 134.48291,231.06449 134.50895,231.05407 134.56104,231.05406 L 134.70947,231.05406 C 134.74072,231.05407 134.76936,231.0697 134.79541,231.10094 C 134.82145,231.12699 134.83447,231.15824 134.83447,231.19469 C 134.83447,231.24157 134.82405,231.27543 134.80322,231.29625 C 134.28238,231.80668 133.84749,232.35355 133.49854,232.93687 C 133.15478,233.52022 132.87614,234.14261 132.6626,234.80406 C 132.45426,235.46032 132.30322,236.14261 132.20947,236.85094 C 132.11572,237.55407 132.06885,238.28844 132.06885,239.05406 C 132.06885,242.44469 132.97509,245.02021 134.7876,246.78062 C 134.81884,246.81187 134.83447,246.85614 134.83447,246.91344 C 134.83447,246.93947 134.81884,246.96812 134.7876,246.99937 C 134.76155,247.03583 134.73551,247.05406 134.70947,247.05406 L 134.56104,247.05406 C 134.50895,247.05406 134.48291,247.04364 134.48291,247.02281 M 136.73291,241.75719 C 136.73291,241.60094 136.74853,241.4525 136.77979,241.31187 L 137.93604,236.71812 L 136.25635,236.71812 C 136.14697,236.71813 136.09228,236.64782 136.09229,236.50719 C 136.13395,236.27282 136.20426,236.15563 136.30322,236.15562 L 138.07666,236.15562 L 138.71729,233.54625 C 138.75895,233.40563 138.84228,233.28584 138.96729,233.18687 C 139.09228,233.08793 139.23291,233.03845 139.38916,233.03844 C 139.52457,233.03845 139.63655,233.08011 139.7251,233.16344 C 139.81884,233.24157 139.86572,233.34834 139.86572,233.48375 C 139.86572,233.51501 139.86311,233.54105 139.85791,233.56187 C 139.85791,233.57751 139.8553,233.59574 139.8501,233.61656 L 139.20947,236.15562 L 140.85791,236.15562 C 140.96728,236.15563 141.02197,236.22594 141.02197,236.36656 C 141.01676,236.39261 141.00634,236.43688 140.99072,236.49937 C 140.97509,236.56188 140.95426,236.61396 140.92822,236.65562 C 140.90218,236.6973 140.86311,236.71813 140.81104,236.71812 L 139.06885,236.71812 L 137.92041,241.34312 C 137.84228,241.64521 137.80322,241.90563 137.80322,242.12437 C 137.80322,242.58271 137.95947,242.81187 138.27197,242.81187 C 138.74072,242.81187 139.15478,242.59312 139.51416,242.15562 C 139.87874,241.71292 140.15738,241.22854 140.3501,240.7025 C 140.39176,240.64 140.43343,240.60875 140.4751,240.60875 L 140.67041,240.60875 C 140.71207,240.60875 140.74593,240.62438 140.77197,240.65562 C 140.79801,240.68167 140.81103,240.71292 140.81104,240.74937 C 140.81103,240.77021 140.80582,240.78583 140.79541,240.79625 C 140.56103,241.44208 140.21988,242.00979 139.77197,242.49937 C 139.32405,242.98896 138.81103,243.23375 138.23291,243.23375 C 137.81103,243.23375 137.45426,243.09573 137.1626,242.81969 C 136.87614,242.54365 136.73291,242.18948 136.73291,241.75719 M 142.6001,239.37437 C 142.51155,239.37438 142.43864,239.34052 142.38135,239.27281 C 142.32406,239.20511 142.29541,239.13219 142.29541,239.05406 C 142.29541,238.97594 142.32406,238.90302 142.38135,238.83531 C 142.43864,238.76761 142.51155,238.73375 142.6001,238.73375 L 147.30322,238.73375 L 147.30322,234.015 C 147.30322,233.93168 147.33447,233.86397 147.39697,233.81187 C 147.45947,233.75459 147.53499,233.72595 147.62354,233.72594 C 147.70165,233.72595 147.77457,233.75459 147.84229,233.81187 C 147.90999,233.86397 147.94384,233.93168 147.94385,234.015 L 147.94385,238.73375 L 152.64697,238.73375 C 152.72509,238.73375 152.79279,238.76761 152.8501,238.83531 C 152.90738,238.90302 152.93602,238.97594 152.93604,239.05406 C 152.93602,239.13219 152.90738,239.20511 152.8501,239.27281 C 152.79279,239.34052 152.72509,239.37438 152.64697,239.37437 L 147.94385,239.37437 L 147.94385,244.09312 C 147.94384,244.17646 147.90999,244.24416 147.84229,244.29625 C 147.77457,244.35354 147.70165,244.38219 147.62354,244.38219 C 147.53499,244.38219 147.45947,244.35354 147.39697,244.29625 C 147.33447,244.24416 147.30322,244.17646 147.30322,244.09312 L 147.30322,239.37437 L 142.6001,239.37437 M 155.11572,243.05406 C 155.02718,243.05406 154.95426,243.02281 154.89697,242.96031 C 154.83968,242.89781 154.81103,242.82229 154.81104,242.73375 C 154.81103,242.68167 154.82666,242.62437 154.85791,242.56187 L 160.69385,231.74156 C 160.76155,231.64782 160.85269,231.60095 160.96729,231.60094 C 161.09228,231.60095 161.18342,231.64782 161.24072,231.74156 L 167.08447,242.56187 C 167.11571,242.62437 167.13133,242.68167 167.13135,242.73375 C 167.13133,242.82229 167.10269,242.89781 167.04541,242.96031 C 166.98811,243.02281 166.9204,243.05406 166.84229,243.05406 L 155.11572,243.05406 M 155.65479,242.41344 L 166.27979,242.41344 L 160.96729,232.59312 L 155.65479,242.41344 M 169.04541,241.75719 C 169.04541,241.60094 169.06103,241.4525 169.09229,241.31187 L 170.24854,236.71812 L 168.56885,236.71812 C 168.45947,236.71813 168.40478,236.64782 168.40479,236.50719 C 168.44645,236.27282 168.51676,236.15563 168.61572,236.15562 L 170.38916,236.15562 L 171.02979,233.54625 C 171.07145,233.40563 171.15478,233.28584 171.27979,233.18687 C 171.40478,233.08793 171.54541,233.03845 171.70166,233.03844 C 171.83707,233.03845 171.94905,233.08011 172.0376,233.16344 C 172.13134,233.24157 172.17822,233.34834 172.17822,233.48375 C 172.17822,233.51501 172.17561,233.54105 172.17041,233.56187 C 172.17041,233.57751 172.1678,233.59574 172.1626,233.61656 L 171.52197,236.15562 L 173.17041,236.15562 C 173.27978,236.15563 173.33447,236.22594 173.33447,236.36656 C 173.32926,236.39261 173.31884,236.43688 173.30322,236.49937 C 173.28759,236.56188 173.26676,236.61396 173.24072,236.65562 C 173.21468,236.6973 173.17561,236.71813 173.12354,236.71812 L 171.38135,236.71812 L 170.23291,241.34312 C 170.15478,241.64521 170.11572,241.90563 170.11572,242.12437 C 170.11572,242.58271 170.27197,242.81187 170.58447,242.81187 C 171.05322,242.81187 171.46728,242.59312 171.82666,242.15562 C 172.19124,241.71292 172.46988,241.22854 172.6626,240.7025 C 172.70426,240.64 172.74593,240.60875 172.7876,240.60875 L 172.98291,240.60875 C 173.02457,240.60875 173.05843,240.62438 173.08447,240.65562 C 173.11051,240.68167 173.12353,240.71292 173.12354,240.74937 C 173.12353,240.77021 173.11832,240.78583 173.10791,240.79625 C 172.87353,241.44208 172.53238,242.00979 172.08447,242.49937 C 171.63655,242.98896 171.12353,243.23375 170.54541,243.23375 C 170.12353,243.23375 169.76676,243.09573 169.4751,242.81969 C 169.18864,242.54365 169.04541,242.18948 169.04541,241.75719 M 174.74854,247.05406 C 174.65478,247.05406 174.60791,247.00718 174.60791,246.91344 C 174.60791,246.86656 174.61833,246.8327 174.63916,246.81187 C 176.46207,245.03062 177.37353,242.44469 177.37354,239.05406 C 177.37353,235.66344 176.47249,233.08793 174.67041,231.3275 C 174.62874,231.30147 174.60791,231.2572 174.60791,231.19469 C 174.60791,231.15824 174.62093,231.12699 174.64697,231.10094 C 174.67822,231.0697 174.71208,231.05407 174.74854,231.05406 L 174.89697,231.05406 C 174.92822,231.05407 174.95426,231.06449 174.9751,231.08531 C 175.74072,231.68949 176.37874,232.42386 176.88916,233.28844 C 177.39957,234.15303 177.77197,235.0749 178.00635,236.05406 C 178.24593,237.03323 178.36572,238.03323 178.36572,239.05406 C 178.36572,239.80927 178.30061,240.55406 178.17041,241.28844 C 178.04541,242.0176 177.84228,242.73635 177.56104,243.44469 C 177.28499,244.15823 176.93343,244.81448 176.50635,245.41344 C 176.07926,246.0176 175.56885,246.55406 174.9751,247.02281 C 174.95426,247.04364 174.92822,247.05406 174.89697,247.05406 L 174.74854,247.05406"
       id="text2224" />
    <path
       style="font-size:16px;font-style:normal;font-variant:normal;font-weight:normal;font-stretch:normal;text-align:end;line-height:100%;writing-mode:lr-tb;text-anchor:end;fill:#000000;fill-opacity:1;stroke:none;stroke-width:1px;stroke-linecap:butt;stroke-linejoin:miter;stroke-opacity:1;display:inline;font-family:cmmi10"
       d="M 44.49873,265.38947 C 44.415393,265.38947 44.345081,265.35822 44.287792,265.29572 C 44.235706,265.23323 44.209664,265.1577 44.209667,265.06915 C 44.209664,264.99104 44.235706,264.92073 44.287792,264.85822 C 44.345081,264.79052 44.415393,264.75666 44.49873,264.75665 L 50.162792,264.75665 C 49.881534,264.37646 49.740909,264.06135 49.740917,263.81134 C 49.740909,263.7176 49.772159,263.64208 49.834667,263.58478 C 49.902367,263.52229 49.977888,263.49104 50.06123,263.49103 C 50.238304,263.49104 50.345075,263.57437 50.381542,263.74103 C 50.4857,264.19937 50.738304,264.55354 51.139355,264.80353 C 51.243511,264.87125 51.295595,264.95979 51.295605,265.06915 C 51.295595,265.19937 51.243511,265.29052 51.139355,265.34259 C 50.535179,265.64468 50.0482,266.04572 49.678417,266.54572 C 49.636742,266.61864 49.556013,266.6551 49.43623,266.65509 C 49.358097,266.6551 49.28518,266.62385 49.21748,266.56134 C 49.149764,266.49885 49.115909,266.42333 49.115917,266.33478 C 49.115909,266.14208 49.373722,265.82697 49.889355,265.38947 L 44.49873,265.38947"
       id="text2254" />
    <path
       style="font-size:16px;font-style:normal;font-variant:normal;font-weight:normal;font-stretch:normal;text-align:end;line-height:100%;writing-mode:lr-tb;text-anchor:end;fill:#000000;fill-opacity:1;stroke:none;stroke-width:1px;stroke-linecap:butt;stroke-linejoin:miter;stroke-opacity:1;display:inline;font-family:cmmi10"
       d="M 122.95055,233.91013 C 122.86721,233.91014 122.7969,233.87889 122.73961,233.81638 C 122.68752,233.75389 122.66148,233.67836 122.66148,233.58981 C 122.66148,233.5117 122.68752,233.44139 122.73961,233.37888 C 122.7969,233.31118 122.86721,233.27732 122.95055,233.27731 L 128.61461,233.27731 C 128.33335,232.89712 128.19273,232.58201 128.19273,232.332 C 128.19273,232.23826 128.22398,232.16274 128.28648,232.10544 C 128.35418,232.04295 128.4297,232.0117 128.51305,232.01169 C 128.69012,232.0117 128.79689,232.09503 128.83336,232.26169 C 128.93752,232.72003 129.19012,233.0742 129.59117,233.32419 C 129.69533,233.39191 129.74741,233.48045 129.74742,233.58981 C 129.74741,233.72003 129.69533,233.81118 129.59117,233.86325 C 128.987,234.16534 128.50002,234.56638 128.13023,235.06638 C 128.08856,235.1393 128.00783,235.17576 127.88805,235.17575 C 127.80991,235.17576 127.737,235.14451 127.6693,235.082 C 127.60158,235.01951 127.56773,234.94399 127.56773,234.85544 C 127.56773,234.66274 127.82554,234.34763 128.34117,233.91013 L 122.95055,233.91013"
       id="text2258" />
  </g>
</svg>
