<?xml version="1.0" encoding="utf-8"?>
<!-- Generator: Adobe Illustrator 18.0.0, SVG Export Plug-In . SVG Version: 6.00 Build 0)  -->
<!DOCTYPE svg PUBLIC "-//W3C//DTD SVG 1.1//EN" "http://www.w3.org/Graphics/SVG/1.1/DTD/svg11.dtd">
<svg xmlns="http://www.w3.org/2000/svg" xmlns:xlink="http://www.w3.org/1999/xlink" version="1.1" id="Layer_1" x="0px" y="0px" viewBox="0 0 443.3 217.6" enable-background="new 0 0 443.3 217.6" xml:space="preserve">
<circle fill="none" stroke="#000000" stroke-miterlimit="10" cx="61.5" cy="131.4" r="49.1"/>
<g>
	<circle fill="#50B848" stroke="#000000" stroke-miterlimit="10" cx="12.3" cy="131.4" r="5.2"/>
	<line fill="#50B848" stroke="#000000" stroke-miterlimit="10" x1="8.8" y1="131.4" x2="15.8" y2="131.4"/>
</g>
<g>
	<circle fill="#50B848" stroke="#000000" stroke-miterlimit="10" cx="110.6" cy="131.4" r="5.2"/>
	<g>
		<line fill="#50B848" stroke="#000000" stroke-miterlimit="10" x1="107.1" y1="131.4" x2="114.1" y2="131.4"/>
	</g>
</g>
<circle fill="#A8DEED" stroke="#000000" stroke-miterlimit="10" cx="48.2" cy="131.4" r="7.6"/>
<circle fill="#A8DEED" stroke="#000000" stroke-miterlimit="10" cx="74.9" cy="131.9" r="7.6"/>
<g>
	<circle fill="#F8BDCC" stroke="#000000" stroke-miterlimit="10" cx="61.5" cy="123.8" r="7.6"/>
	<line fill="#F8BDCC" stroke="#000000" stroke-miterlimit="10" x1="55.8" y1="123.8" x2="67.3" y2="123.8"/>
	<line fill="#F8BDCC" stroke="#000000" stroke-miterlimit="10" x1="61.5" y1="129.6" x2="61.5" y2="118.1"/>
</g>
<g>
	<circle fill="#F8BDCC" stroke="#000000" stroke-miterlimit="10" cx="61.5" cy="139.5" r="7.6"/>
	<line fill="#F8BDCC" stroke="#000000" stroke-miterlimit="10" x1="55.8" y1="139.5" x2="67.3" y2="139.5"/>
	<line fill="#F8BDCC" stroke="#000000" stroke-miterlimit="10" x1="61.5" y1="145.2" x2="61.5" y2="133.7"/>
</g>
<line fill="none" stroke="#000000" stroke-miterlimit="10" x1="80" y1="126.2" x2="114.1" y2="68.6"/>
<line fill="none" stroke="#000000" stroke-miterlimit="10" x1="102.4" y1="195.2" x2="66.4" y2="145.2"/>
<line fill="none" stroke="#000000" stroke-miterlimit="10" x1="115.8" y1="131.4" x2="151" y2="123.8"/>
<switch><text transform="matrix(1 0 0 1 120.4764 69.524)" font-family="'ArialMT'" font-size="12" id="trsvg10-id" systemLanguage="id"><tspan id="trsvg1-id">Neutron</tspan></text><text transform="matrix(1 0 0 1 120.4764 69.524)" font-family="'ArialMT'" font-size="12" id="trsvg10-bn" systemLanguage="bn"><tspan id="trsvg1-bn">নিউট্রন</tspan></text><text transform="matrix(1 0 0 1 120.4764 69.524)" font-family="'ArialMT'" font-size="12" id="trsvg10-yue" systemLanguage="yue"><tspan id="trsvg1-yue">中子</tspan></text><text transform="matrix(1 0 0 1 120.4764 69.524)" font-family="'ArialMT'" font-size="12" id="trsvg10"><tspan id="trsvg1">Neutrons</tspan></text></switch>
<switch><text transform="matrix(1 0 0 1 156.6668 125.2379)" font-family="'ArialMT'" font-size="12" id="trsvg11-id" systemLanguage="id"><tspan id="trsvg2-id">Elektron</tspan></text><text transform="matrix(1 0 0 1 156.6668 125.2379)" font-family="'ArialMT'" font-size="12" id="trsvg11-bn" systemLanguage="bn"><tspan id="trsvg2-bn">ইলেকট্রন</tspan></text><text transform="matrix(1 0 0 1 156.6668 125.2379)" font-family="'ArialMT'" font-size="12" id="trsvg11-yue" systemLanguage="yue"><tspan id="trsvg2-yue">電子</tspan></text><text transform="matrix(1 0 0 1 156.6668 125.2379)" font-family="'ArialMT'" font-size="12" id="trsvg11"><tspan id="trsvg2">Electrons</tspan></text></switch>
<switch><text transform="matrix(1 0 0 1 109.5237 195.2384)" id="trsvg12-id" systemLanguage="id"><tspan x="0" y="0" font-family="'ArialMT'" font-size="12" id="trsvg3-id">Proton, dalam atom netral jumlahnya sama</tspan><tspan x="0" y="14.4" font-family="'ArialMT'" font-size="12" id="trsvg4-id">dengan jumlah elektron</tspan></text><text transform="matrix(1 0 0 1 109.5237 195.2384)" id="trsvg12-bn" systemLanguage="bn"><tspan x="0" y="0" font-family="'ArialMT'" font-size="12" id="trsvg3-bn">প্রোটন - নিরপেক্ষ পরমাণুতে এটি</tspan><tspan x="0" y="14.4" font-family="'ArialMT'" font-size="12" id="trsvg4-bn">ইলেকট্রন সংখ্যার সমান</tspan></text><text transform="matrix(1 0 0 1 109.5237 195.2384)" id="trsvg12-yue" systemLanguage="yue"><tspan x="0" y="0" font-family="'ArialMT'" font-size="12" id="trsvg3-yue">質子 - 喺中性原子入面呢個係一樣嘅,</tspan><tspan x="0" y="14.4" font-family="'ArialMT'" font-size="12" id="trsvg4-yue">同樣作為電子嘅數量</tspan></text><text transform="matrix(1 0 0 1 109.5237 195.2384)" id="trsvg12"><tspan x="0" y="0" font-family="'ArialMT'" font-size="12" id="trsvg3">Protons - in a neutral atom this is the same</tspan><tspan x="0" y="14.4" font-family="'ArialMT'" font-size="12" id="trsvg4">as the number of electrons</tspan></text></switch>
<switch><text transform="matrix(1 0 0 1 348.0954 131.4154)" font-family="'ArialMT'" font-size="72" id="trsvg13-id" systemLanguage="id"><tspan id="trsvg5-id">He</tspan></text><text transform="matrix(1 0 0 1 348.0954 131.4154)" font-family="'ArialMT'" font-size="72" id="trsvg13-bn" systemLanguage="bn"><tspan id="trsvg5-bn">He</tspan></text><text transform="matrix(1 0 0 1 348.0954 131.4154)" font-family="'ArialMT'" font-size="72" id="trsvg13"><tspan id="trsvg5">He</tspan></text></switch>
<switch><text transform="matrix(1 0 0 1 331.9051 92.1691)" font-family="'ArialMT'" font-size="21" id="trsvg14-id" systemLanguage="id"><tspan id="trsvg6-id">4</tspan></text><text transform="matrix(1 0 0 1 331.9051 92.1691)" font-family="'ArialMT'" font-size="21" id="trsvg14-bn" systemLanguage="bn"><tspan id="trsvg6-bn">৪</tspan></text><text transform="matrix(1 0 0 1 331.9051 92.1691)" font-family="'ArialMT'" font-size="21" id="trsvg14"><tspan id="trsvg6">4</tspan></text></switch>
<switch><text transform="matrix(1 0 0 1 331.9052 136.5879)" font-family="'ArialMT'" font-size="21" id="trsvg15-id" systemLanguage="id"><tspan id="trsvg7-id">2</tspan></text><text transform="matrix(1 0 0 1 331.9052 136.5879)" font-family="'ArialMT'" font-size="21" id="trsvg15-bn" systemLanguage="bn"><tspan id="trsvg7-bn">২</tspan></text><text transform="matrix(1 0 0 1 331.9052 136.5879)" font-family="'ArialMT'" font-size="21" id="trsvg15"><tspan id="trsvg7">2</tspan></text></switch>
<line fill="none" stroke="#000000" stroke-miterlimit="10" x1="328.6" y1="139.5" x2="144.8" y2="180.6"/>
<line fill="none" stroke="#000000" stroke-miterlimit="10" x1="331.9" y1="77.1" x2="279" y2="38.1"/>
<switch><text transform="matrix(1 0 0 1 180.0002 16.6665)" id="trsvg16-id" systemLanguage="id"><tspan x="0" y="0" font-family="'ArialMT'" font-size="12" id="trsvg8-id">Nomor atom, ini adalah jumlah</tspan><tspan x="0" y="14.4" font-family="'ArialMT'" font-size="12" id="trsvg9-id">proton dan neutron</tspan></text><text transform="matrix(1 0 0 1 180.0002 16.6665)" id="trsvg16-bn" systemLanguage="bn"><tspan x="0" y="0" font-family="'ArialMT'" font-size="12" id="trsvg8-bn">পারমাণবিক / ভর সংখ্যা - এটি প্রোটন ও </tspan><tspan x="0" y="14.4" font-family="'ArialMT'" font-size="12" id="trsvg9-bn">নিউট্রন সংখ্যার যোগফল</tspan></text><text transform="matrix(1 0 0 1 180.0002 16.6665)" id="trsvg16-yue" systemLanguage="yue"><tspan x="0" y="0" font-family="'ArialMT'" font-size="12" id="trsvg8-yue">原子 / 質量數 - 呢個係質子</tspan><tspan x="0" y="14.4" font-family="'ArialMT'" font-size="12" id="trsvg9-yue">同埋中子嘅和</tspan></text><text transform="matrix(1 0 0 1 180.0002 16.6665)" id="trsvg16"><tspan x="0" y="0" font-family="'ArialMT'" font-size="12" id="trsvg8">Atomic / mass number - this is the sum</tspan><tspan x="0" y="14.4" font-family="'ArialMT'" font-size="12" id="trsvg9">of the protons and neutrons</tspan></text></switch>
</svg>
