<?xml version="1.0" encoding="UTF-8" standalone="no"?>
<svg  width="1200" height="675" xmlns="http://www.w3.org/2000/svg" font-family="Liberation Sans,sans-serif" font-size="40" text-anchor="middle" fill="black">

<rect width="1200" height="675" x="0" y="0" fill="#f8f8f8"/>
<rect width="1022" height="540" x="128" y="50" fill="#fdfffd"/>

<path stroke="none" fill="#fcfcff" d="
M128,320 L142.6,330 157.2,511 171.8,486 186.4,493 201,486 215.6,522 230.2,460 244.8,470 259.4,519 274,521 288.6,496 303.2,486 317.8,430 332.4,394 347,364 361.6,322 376.2,303 390.8,304 405.4,231 420,243 434.6,221 449.2,268 463.8,257 478.4,313 493,282 507.6,317 522.2,308 536.8,364 551.4,370 566,381 580.6,429 595.2,405 609.8,379 624.4,364 639,322 653.6,369 668.2,366 682.8,381 697.4,439 712,438 726.6,414 741.2,437 755.8,465 770.4,442 785,447 799.6,476 814.2,440 828.8,479 843.4,446 858,437 872.6,453 887.2,446 901.8,434 916.4,488 931,479 945.6,493 960.2,494 974.8,457 989.4,496 1004,508 1018.6,486 1033.2,481 1047.8,505 1062.4,474 1077,509
V590 H128
"/>

<path stroke="none" fill="#fee" d="
M128,590 L142.6,590 259.4,590 274,574 288.6,590 303.2,588 317.8,590 332.4,590 347,588 361.6,590 376.2,588 390.8,590 405.4,590 420,590 434.6,589 449.2,589 463.8,590 478.4,589 493,589 507.6,589 522.2,588 536.8,589 551.4,589 566,581 580.6,590 595.2,590 609.8,590 624.4,589 639,589 653.6,586 668.2,586 682.8,568 697.4,562 712,561 726.6,574 741.2,581 755.8,584 770.4,583 785,572 799.6,583 814.2,555 828.8,582 843.4,569 858,569 872.6,570 887.2,542 901.8,535 916.4,512 931,540 945.6,464 960.2,497 974.8,440 989.4,476 1004,422 1018.6,479 1033.2,467 1047.8,423 1062.4,458 1077,338
V590 H128
"/>

<path stroke="#ddd" stroke-width="3" d="
M118,50 h10
M118,104 h1032
M118,158 h1032
M118,212 h1032
M118,266 h1032
M118,320 h1032
M118,374 h1032
M118,428 h1032
M118,482 h1032
M118,536 h1032
M118,590 h10
"/>

<g font-size="35" transform="translate(64,0)">
<text y="62">100%</text>
<text y="332">50%</text>
<text y="602">0%</text>
</g>

<path stroke="black" stroke-width="0.25" d="
M128,50 v550
M274,50 v550
M420,50 v550
M566,50 v550
M712,50 v550
M858,50 v550
M1004,50 v550
M1150,50 v550
"/>

<g font-size="35" transform="translate(0,640)">
<text x="128">1960</text>
<text x="274">1970</text>
<text x="420">1980</text>
<text x="566">1990</text>
<text x="712">2000</text>
<text x="858">2010</text>
<text x="1004">2020</text>
<text x="1150">2030</text>
</g>

   <g stroke-width="5" fill="none" stroke-linecap="round" stroke-linejoin="round">

<path id="US" stroke="#27b" d="
M128,320 L142.6,330 157.2,511 171.8,486 186.4,493 201,486 215.6,522 230.2,460 244.8,470 259.4,519 274,521 288.6,496 303.2,486 317.8,430 332.4,394 347,364 361.6,322 376.2,303 390.8,304 405.4,231 420,243 434.6,221 449.2,268 463.8,257 478.4,313 493,282 507.6,317 522.2,308 536.8,364 551.4,370 566,381 580.6,429 595.2,405 609.8,379 624.4,364 639,322 653.6,369 668.2,366 682.8,381 697.4,439 712,438 726.6,414 741.2,437 755.8,465 770.4,442 785,447 799.6,476 814.2,440 828.8,479 843.4,446 858,437 872.6,453 887.2,446 901.8,434 916.4,488 931,479 945.6,493 960.2,494 974.8,457 989.4,496 1004,508 1018.6,486 1033.2,481 1047.8,505 1062.4,474 1077,509
"/>

<path id="CHINA" stroke="#d02" d="
M128,590 L142.6,590 244.8,590 259.4,590 274,574 288.6,590 303.2,588 317.8,590 332.4,590 347,588 361.6,590 376.2,588 390.8,590 405.4,590 420,590 434.6,589 449.2,589 463.8,590 478.4,589 493,589 507.6,589 522.2,588 536.8,589 551.4,589 566,581 580.6,590 595.2,590 609.8,590 624.4,589 639,589 653.6,586 668.2,586 682.8,568 697.4,562 712,561 726.6,574 741.2,581 755.8,584 770.4,583 785,572 799.6,583 814.2,555 828.8,582 843.4,569 858,569 872.6,570 887.2,542 901.8,535 916.4,512 931,540 945.6,464 960.2,497 974.8,440 989.4,476 1004,422 1018.6,479 1033.2,467 1047.8,423 1062.4,458 1077,338
"/>

   </g>

<g transform="translate(639,97)" font-size="50">
<text>Authors publishing in the journal</text>
<text y="54" font-style="italic">Nuclear Fusion</text>
</g>

<g font-size="45">
<text x="605" y="308" fill="#27b" text-anchor="start">US</text>
<text x="1050" y="364" fill="#d02" text-anchor="end">China</text>
</g>

         <!-- Cover edges of plot area -->
<rect width="1022" height="540" x="128" y="50" stroke="#888888" stroke-width="1" fill="none"/>

</svg>
