<svg width="300" height="532" xmlns="http://www.w3.org/2000/svg">
<defs>
<marker id="arrow" orient="auto" overflow="visible"><path d="M3.7 0-5.4-3.8-3.7 0-5.4 3.8Z" fill="#FFF"/></marker>
<linearGradient id="lgSpectrum" x1="100%" y1="100%">
<stop offset="0" stop-color="#4F104D"/>
<stop offset=".0878" stop-color="#780078"/>
<stop offset=".1386" stop-color="#620683"/>
<stop offset=".1634" stop-color="#63009A"/>
<stop offset=".2104" stop-color="#1E01B1"/>
<stop offset=".2564" stop-color="#0323C3"/>
<stop offset=".3193" stop-color="#009793"/>
<stop offset=".3586" stop-color="#1DD51D"/>
<stop offset=".3883" stop-color="#32EF0A"/>
<stop offset=".4082" stop-color="#3FED04"/>
<stop offset=".4377" stop-color="#78FA02"/>
<stop offset=".4798" stop-color="#E3FF00"/>
<stop offset=".5203" stop-color="#FBFD03"/>
<stop offset=".5535" stop-color="#FF0"/>
<stop offset=".5693" stop-color="#FDF600"/>
<stop offset=".5995" stop-color="#FAD726"/>
<stop offset=".5995" stop-color="#F9D71B"/>
<stop offset=".6361" stop-color="#FE8503"/>
<stop offset=".6712" stop-color="#FE2704"/>
<stop offset=".7234" stop-color="#F00001"/>
<stop offset=".8083" stop-color="#DC0101"/>
<stop offset=".8649" stop-color="#C80106"/>
<stop offset=".9244" stop-color="#AE0100"/>
<stop offset="1" stop-color="#8A0702"/>
</linearGradient>
</defs>
<rect width="300" height="532" fill="url(#lgSpectrum)"/>
<rect x="95" width="110" height="532"/>
<g fill="none" stroke="#FFF" stroke-width="2.2" stroke-linecap="round" marker-end="url(#arrow)">
<path d="m103.8 528.29 84.77-22.62"/>
<path d="m103.8 476.45 84.77-22.62"/>
<path d="m103.8 403.47 84.77-22.62"/>
<path d="m103.8 356.04 84.77-22.62"/>
<path d="m103.8 340.8l 84.77-22.62"/>
<path d="m103.8 244.47 84.77-22.62"/>
<path d="m103.8 142.21 84.77-22.62"/>
</g>
<g fill="none" stroke="#000">
<path d="M0 245.5h95m-95 95h95M0 458.59h95M0 353.52h95m-95 2h95M0 402.38h95M0 471.5h95m-95 3h95m-95 6h95m-95 37h95m-95-19h95m-95-3h95m-95-3h95m-95 39h95m-95-19h95m-95 10h95m-95-39h95M0 142.5h95M0 .5h95M205 112.64h95M205 218.5h95m-95 98.09h95M205 329.5h95m-95 2h95m-95 48h95m-95 72h95m-95 3h95m-95 7h95m-95 38h95m-95-20h95m-95-4h95m-95-3h95m-95 53h95m-95-32h95m-95 10h95m-95-39h95M205 .5h95"/>
<path d="M0 526h95M0 486h95M205 531h95M205 523h95M205 520h95M205 507h95M205 467h95" stroke-width="2"/>
</g>
</svg>