<?xml version="1.0" encoding="UTF-8" standalone="no"?>
<!-- Created with Inkscape (http://www.inkscape.org/) -->
<svg
   xmlns:dc="http://purl.org/dc/elements/1.1/"
   xmlns:cc="http://creativecommons.org/ns#"
   xmlns:rdf="http://www.w3.org/1999/02/22-rdf-syntax-ns#"
   xmlns:svg="http://www.w3.org/2000/svg"
   xmlns="http://www.w3.org/2000/svg"
   xmlns:xlink="http://www.w3.org/1999/xlink"
   xmlns:sodipodi="http://sodipodi.sourceforge.net/DTD/sodipodi-0.dtd"
   xmlns:inkscape="http://www.inkscape.org/namespaces/inkscape"
   version="1.0"
   width="228.7027"
   height="454.61179"
   id="svg2"
   sodipodi:version="0.32"
   inkscape:version="0.46"
   sodipodi:docname="Stokes_sphere.svg"
   inkscape:output_extension="org.inkscape.output.svg.inkscape">
  <metadata
     id="metadata94">
    <rdf:RDF>
      <cc:Work
         rdf:about="">
        <dc:format>image/svg+xml</dc:format>
        <dc:type
           rdf:resource="http://purl.org/dc/dcmitype/StillImage" />
      </cc:Work>
    </rdf:RDF>
  </metadata>
  <sodipodi:namedview
     inkscape:window-height="672"
     inkscape:window-width="640"
     inkscape:pageshadow="2"
     inkscape:pageopacity="0.0"
     guidetolerance="10.0"
     gridtolerance="10.0"
     objecttolerance="10.0"
     borderopacity="1.0"
     bordercolor="#666666"
     pagecolor="#ffffff"
     id="base"
     showgrid="false"
     inkscape:zoom="0.39822298"
     inkscape:cx="547.22711"
     inkscape:cy="51.502251"
     inkscape:window-x="632"
     inkscape:window-y="275"
     inkscape:current-layer="svg2" />
  <defs
     id="defs4">
    <inkscape:perspective
       sodipodi:type="inkscape:persp3d"
       inkscape:vp_x="0 : 290.03851 : 1"
       inkscape:vp_y="0 : 1000 : 0"
       inkscape:vp_z="403.23999 : 290.03851 : 1"
       inkscape:persp3d-origin="201.62 : 193.35901 : 1"
       id="perspective96" />
    <marker
       refX="0"
       refY="0"
       orient="auto"
       style="overflow:visible"
       id="Arrow2Mend">
      <path
         d="M 8.7185878,4.0337352 L -2.2072895,0.016013256 L 8.7185884,-4.0017078 C 6.97309,-1.6296469 6.9831476,1.6157441 8.7185878,4.0337352 z"
         transform="scale(-0.6,-0.6)"
         style="font-size:12px;fill-rule:evenodd;stroke-width:0.625;stroke-linejoin:round"
         id="path5429" />
    </marker>
    <marker
       refX="0"
       refY="0"
       orient="auto"
       style="overflow:visible"
       id="Arrow1Lend">
      <path
         d="M 0,0 L 5,-5 L -12.5,0 L 5,5 L 0,0 z"
         transform="matrix(-0.8,0,0,-0.8,-10,0)"
         style="fill-rule:evenodd;stroke:#000000;stroke-width:1pt;marker-start:none"
         id="path5405" />
    </marker>
    <marker
       refX="0"
       refY="0"
       orient="auto"
       style="overflow:visible"
       id="Arrow1Mend">
      <path
         d="M 0,0 L 5,-5 L -12.5,0 L 5,5 L 0,0 z"
         transform="matrix(-0.4,0,0,-0.4,-4,0)"
         style="fill-rule:evenodd;stroke:#000000;stroke-width:1pt;marker-start:none"
         id="path5411" />
    </marker>
    <marker
       refX="0"
       refY="0"
       orient="auto"
       style="overflow:visible"
       id="Arrow2Lend">
      <path
         d="M 8.7185878,4.0337352 L -2.2072895,0.016013256 L 8.7185884,-4.0017078 C 6.97309,-1.6296469 6.9831476,1.6157441 8.7185878,4.0337352 z"
         transform="matrix(-1.1,0,0,-1.1,-1.1,0)"
         style="font-size:12px;fill-rule:evenodd;stroke-width:0.625;stroke-linejoin:round"
         id="path5423" />
    </marker>
    <linearGradient
       id="linearGradient3440">
      <stop
         style="stop-color:#ff9026;stop-opacity:1"
         offset="0"
         id="stop4424" />
      <stop
         style="stop-color:#ff4426;stop-opacity:0.96875"
         offset="1"
         id="stop3444" />
    </linearGradient>
    <radialGradient
       cx="562.38672"
       cy="171.14503"
       r="31.847366"
       fx="562.38672"
       fy="171.14503"
       id="radialGradient3448"
       xlink:href="#linearGradient3440"
       gradientUnits="userSpaceOnUse"
       gradientTransform="matrix(-0.3977215,0.4047611,-0.2710425,-0.2663285,830.42284,-37.600873)" />
    <radialGradient
       inkscape:collect="always"
       xlink:href="#linearGradient3440"
       id="radialGradient2504"
       gradientUnits="userSpaceOnUse"
       gradientTransform="matrix(-0.532678,0.5357286,-0.3630138,-0.3525037,552.90646,32.29479)"
       cx="562.38672"
       cy="171.14503"
       fx="562.38672"
       fy="171.14503"
       r="31.847366" />
    <inkscape:perspective
       id="perspective2554"
       inkscape:persp3d-origin="372.04724 : 350.78739 : 1"
       inkscape:vp_z="744.09448 : 526.18109 : 1"
       inkscape:vp_y="0 : 1000 : 0"
       inkscape:vp_x="0 : 526.18109 : 1"
       sodipodi:type="inkscape:persp3d" />
  </defs>
  <g
     id="g2619"
     transform="translate(-87.911476,-65.471803)">
    <path
       d="M 245.03272,290.31368 C 245.03863,313.87498 225.94008,332.97832 202.37877,332.97832 C 178.81748,332.97832 159.71893,313.87498 159.72484,290.31368 C 159.71893,266.75238 178.81748,247.64904 202.37877,247.64904 C 225.94008,247.64904 245.03863,266.75238 245.03272,290.31368 L 245.03272,290.31368 z"
       style="fill:url(#radialGradient2504);fill-opacity:1"
       id="path2461" />
    <g
       transform="translate(-185.65965,-234.83735)"
       id="g2437">
      <path
         d="M 384.03125,567.53125 L 384.03125,675.4375 L 390.75,675.4375 L 390.75,567.53125 L 384.03125,567.53125 z"
         style="fill:#000000;fill-opacity:1;fill-rule:evenodd;stroke:none;stroke-width:6.74470901;stroke-linecap:butt;stroke-linejoin:miter;stroke-miterlimit:4;stroke-dasharray:none;stroke-opacity:1"
         id="path4428" />
      <path
         d="M 403.71386,640.16308 L 387.45484,684.3782 L 371.19583,640.16307 C 380.79514,647.2268 393.92867,647.1861 403.71386,640.16308 z"
         style="font-size:12px;fill-rule:evenodd;stroke-width:0.625;stroke-linejoin:round"
         id="path2443" />
    </g>
    <g
       transform="translate(-185.65965,-234.83735)"
       id="g2429">
      <path
         d="M 384.15625,374.6875 L 384.15625,482.625 L 390.90625,482.625 L 390.90625,374.6875 L 384.15625,374.6875 z"
         style="fill:#000000;fill-opacity:1;fill-rule:evenodd;stroke:none;stroke-width:6.74470901;stroke-linecap:butt;stroke-linejoin:miter;stroke-miterlimit:4;stroke-dasharray:none;stroke-opacity:1"
         id="path5603" />
      <path
         d="M 371.19583,409.98158 L 387.45485,365.76646 L 403.71386,409.98159 C 394.11455,402.91786 380.98102,402.95856 371.19583,409.98158 z"
         style="font-size:12px;fill-rule:evenodd;stroke-width:0.625;stroke-linejoin:round"
         id="path2435" />
    </g>
    <g
       transform="translate(207.12454,-347.81967)"
       id="g6616">
      <text
         x="-23.226706"
         y="447.65085"
         style="font-size:48px;font-style:normal;font-variant:normal;font-weight:normal;font-stretch:normal;text-align:start;line-height:125%;writing-mode:lr-tb;text-anchor:start;fill:#000000;fill-opacity:1;stroke:none;stroke-width:1px;stroke-linecap:butt;stroke-linejoin:miter;stroke-opacity:1;font-family:Arial"
         id="text6604"
         xml:space="preserve"
         sodipodi:linespacing="125%"><tspan
           x="-23.226706"
           y="447.65085"
           id="tspan6606">F</tspan></text>
      <text
         x="-3.1497355"
         y="466.86816"
         style="font-size:32px;font-style:normal;font-variant:normal;font-weight:normal;font-stretch:normal;text-align:start;line-height:100%;writing-mode:lr-tb;text-anchor:start;fill:#000000;fill-opacity:1;stroke:none;stroke-width:1px;stroke-linecap:butt;stroke-linejoin:miter;stroke-opacity:1;font-family:Arial"
         id="text6608"
         xml:space="preserve"
         sodipodi:linespacing="100%"><tspan
           x="-3.1497355"
           y="466.86816"
           id="tspan6610">d</tspan></text>
    </g>
    <g
       transform="translate(200.3001,-71.80916)"
       id="g6622">
      <text
         x="-13.76553"
         y="566.9599"
         style="font-size:48px;font-style:normal;font-variant:normal;font-weight:normal;font-stretch:normal;text-align:start;line-height:125%;writing-mode:lr-tb;text-anchor:start;fill:#000000;fill-opacity:1;stroke:none;stroke-width:1px;stroke-linecap:butt;stroke-linejoin:miter;stroke-opacity:1;font-family:Arial"
         id="text6596"
         xml:space="preserve"
         sodipodi:linespacing="125%"><tspan
           x="-13.76553"
           y="566.9599"
           id="tspan6598">F</tspan></text>
      <text
         x="5.1912441"
         y="585.15839"
         style="font-size:32px;font-style:normal;font-variant:normal;font-weight:normal;font-stretch:normal;text-align:start;line-height:100%;writing-mode:lr-tb;text-anchor:start;fill:#000000;fill-opacity:1;stroke:none;stroke-width:1px;stroke-linecap:butt;stroke-linejoin:miter;stroke-opacity:1;font-family:Arial"
         id="text6612"
         xml:space="preserve"
         sodipodi:linespacing="100%"><tspan
           x="5.1912441"
           y="585.15839"
           id="tspan6614">g</tspan></text>
    </g>
    <g
       transform="matrix(0.1802207,0,0,0.1802207,174.88281,232.13609)"
       id="g2611">
      <path
         style="fill:#000000"
         d="M -218.50705,1122.7666 C -224.56937,1107.5925 -239.11783,1065.0423 -247.48417,1038.0166 C -316.67009,814.52596 -342.24101,561.92926 -325.48359,267.51656 C -314.92576,82.025165 -282.6644,-137.61374 -235.4834,-345.21454 C -233.57956,-353.59164 -232.02187,-360.75194 -232.02187,-361.12644 C -232.02187,-361.50084 -234.38437,-359.22674 -237.27187,-356.07274 C -242.10611,-350.79244 -242.67394,-350.45184 -244.44209,-351.77194 C -246.27953,-353.14374 -245.96402,-353.85704 -237.1227,-368.31851 C -221.45297,-393.94909 -203.17306,-421.05502 -202.63348,-419.46003 C -202.35875,-418.6479 -200.54485,-411.83591 -198.6026,-404.32226 C -196.66035,-396.80862 -193.30739,-386.00862 -191.15157,-380.32226 L -187.23191,-369.98344 L -189.52683,-367.60623 L -191.82175,-365.22902 L -195.41085,-367.96656 C -198.10633,-370.0225 -199.12554,-370.36541 -199.50434,-369.34377 C -200.56104,-366.4938 -214.4718,-301.40964 -221.59605,-265.98344 C -259.68452,-76.583935 -281.4702,94.690465 -290.60073,276.51656 C -292.75237,319.36446 -293.63105,444.92306 -292.10533,491.51656 C -285.01847,707.94066 -253.63695,905.72186 -196.07542,1096.7427 C -191.64597,1111.4421 -188.02187,1123.7046 -188.02187,1123.9927 C -188.02187,1124.2808 -194.72373,1124.5166 -202.91488,1124.5166 C -216.16569,1124.5166 -217.88499,1124.3236 -218.50705,1122.7666 z"
         id="path2593" />
      <path
         style="fill:#000000"
         d="M 490.97813,1120.9295 C 490.97813,1120.5779 492.97973,1113.9287 495.42623,1106.1535 C 520.15543,1027.5598 543.22063,932.08216 559.43443,841.19406 C 604.32673,589.54496 608.67013,316.24346 572.42933,23.516565 C 563.05313,-52.218035 550.35923,-134.17594 536.88383,-205.98344 C 524.69613,-270.92944 503.75433,-370.9017 501.92453,-372.8731 C 501.45643,-373.37746 499.70473,-372.58976 497.88003,-371.05431 L 494.66113,-368.34586 L 492.33313,-370.67389 L 490.00513,-373.00192 L 492.91313,-380.49268 C 496.69553,-390.23593 502.45533,-409.30312 504.01173,-417.23344 C 504.68633,-420.67094 505.53813,-423.48344 505.90453,-423.48344 C 506.73893,-423.48344 529.94063,-388.46641 540.90283,-370.66228 C 547.51353,-359.92574 548.87483,-357.06384 547.91903,-355.91224 C 546.12313,-353.74834 545.44443,-354.07064 540.36693,-359.49884 C 537.78673,-362.25734 535.54133,-364.37992 535.37713,-364.21573 C 535.21293,-364.05154 538.66723,-347.73504 543.05343,-327.95694 C 642.94863,122.49066 660.75083,525.98616 595.37873,858.01656 C 577.46353,949.00916 555.20553,1028.8257 524.26803,1113.0166 L 521.32833,1121.0166 L 506.15323,1121.2926 C 497.80693,1121.4445 490.97813,1121.2811 490.97813,1120.9295 z"
         id="path2591" />
      <path
         style="fill:#000000"
         d="M -298.08594,1115.8481 C -327.8209,1037.6392 -356.06832,935.53076 -373.42415,843.51656 C -392.24323,743.74476 -402.61703,649.16686 -408.1944,526.51656 C -409.76116,492.06236 -409.74674,367.48766 -408.17165,330.01656 C -400.39086,144.91306 -380.00121,-24.962735 -341.91684,-221.98344 C -334.60302,-259.81984 -315.11136,-351.96454 -311.45609,-365.98344 C -311.14347,-367.18243 -313.06188,-365.71802 -316.24604,-362.32704 C -320.87809,-357.39414 -321.77902,-356.83274 -323.28967,-357.93734 C -324.24238,-358.63394 -325.02187,-359.49504 -325.02187,-359.85094 C -325.02187,-362.08324 -283.24606,-427.04096 -282.37233,-426.16723 C -282.12731,-425.92221 -280.59901,-420.60562 -278.97611,-414.35259 C -277.35322,-408.09956 -273.9008,-396.7599 -271.30407,-389.15336 L -266.58275,-375.32327 L -269.01554,-373.48821 C -271.41438,-371.67877 -271.4981,-371.69256 -275.01291,-374.47634 L -278.57748,-377.29954 L -283.87989,-353.14144 C -375.80987,65.696465 -396.07864,433.64806 -345.94233,773.51656 C -330.19559,880.26196 -306.12582,988.44666 -275.92693,1088.21 C -271.46395,1102.9536 -267.58206,1115.8041 -267.30051,1116.7666 C -266.82893,1118.3788 -267.98128,1118.5166 -281.92999,1118.5166 L -297.07137,1118.5166 L -298.08594,1115.8481 z"
         id="path2587" />
      <path
         style="fill:#000000"
         d="M 570.97813,1114.539 C 570.97813,1114.0012 574.30733,1102.6387 578.37633,1089.289 C 661.10293,817.87546 691.53473,519.28276 669.41643,196.01656 C 657.72853,25.195065 630.96503,-156.32304 589.42883,-346.48344 C 585.88483,-362.70844 582.74663,-377.00967 582.45493,-378.26396 L 581.92473,-380.54447 L 578.60703,-378.01396 C 574.62853,-374.97943 573.80933,-374.90749 571.55813,-377.39499 C 569.90853,-379.21779 569.99693,-379.7568 573.46073,-389.00504 C 576.69583,-397.64227 582.51663,-417.39267 584.43263,-426.23344 C 584.82003,-428.02094 585.45623,-429.48344 585.84643,-429.48344 C 586.73903,-429.48344 605.87463,-400.66434 617.71803,-381.48344 C 629.87013,-361.80264 629.41123,-362.78564 627.03943,-361.51624 C 625.36123,-360.61814 624.39133,-361.19644 620.37553,-365.4897 C 617.79053,-368.25321 615.51073,-370.3494 615.30923,-370.14791 C 615.10773,-369.94641 618.74933,-352.50194 623.40153,-331.38254 C 696.75973,1.6373645 725.39813,303.63106 709.45103,576.01656 C 698.18823,768.39206 663.10573,946.39136 605.82923,1101.7666 L 600.76053,1115.5166 L 585.86933,1115.5166 C 576.83553,1115.5166 570.97813,1115.132 570.97813,1114.539 z"
         id="path2585" />
      <path
         style="fill:#000000"
         d="M -371.39331,1107.5463 C -375.69718,1096.7899 -389.64876,1056.513 -395.99744,1036.5166 C -484.73794,757.01056 -505.31135,423.21366 -457.50916,38.508565 C -442.17433,-84.903935 -417.23901,-226.56144 -388.47619,-353.66764 C -386.02632,-364.49391 -384.02187,-373.62739 -384.02187,-373.96424 C -384.02187,-374.30109 -386.46478,-371.96821 -389.45057,-368.78007 C -394.55256,-363.33224 -394.98257,-363.08464 -396.59598,-364.66457 C -398.21377,-366.24882 -397.66013,-367.40148 -386.98975,-384.66457 C -372.45233,-408.18395 -356.24416,-432.48344 -355.09377,-432.48344 C -354.60091,-432.48344 -353.87737,-430.57094 -353.48591,-428.23344 C -352.40374,-421.77168 -345.52469,-398.79727 -342.16398,-390.42085 L -339.18,-382.98344 L -341.50088,-380.60623 L -343.82175,-378.22902 L -347.41085,-380.96656 C -350.10207,-383.01925 -351.12414,-383.36379 -351.49634,-382.34377 C -353.59514,-376.592 -374.06956,-278.22964 -383.00247,-230.98344 C -416.12012,-55.823635 -434.04054,94.481965 -443.09265,273.01656 C -444.77171,306.13266 -445.44282,440.94126 -444.12066,479.51656 C -437.85317,662.37676 -415.88485,823.31596 -374.84653,987.01656 C -367.44606,1016.5368 -350.2303,1078.0268 -343.06915,1100.5166 C -341.40542,1105.7416 -340.03917,1110.3541 -340.03303,1110.7666 C -340.02689,1111.1791 -346.72301,1111.5166 -354.91329,1111.5166 L -369.80471,1111.5166 L -371.39331,1107.5463 z"
         id="path2583" />
      <path
         style="fill:#000000"
         d="M 643.97813,1108.065 C 643.97813,1107.788 647.30973,1096.6387 651.38163,1083.289 C 727.57483,833.48906 760.03493,555.69496 746.93793,265.51656 C 738.28663,73.836465 711.22093,-128.14944 666.47233,-334.98344 C 662.42663,-353.68344 658.34083,-372.58344 657.39283,-376.98344 C 656.44483,-381.38344 655.31593,-385.38379 654.88403,-385.8731 C 654.44783,-386.36728 652.66793,-385.55876 650.88003,-384.05431 L 647.66113,-381.34586 L 645.33313,-383.67389 L 643.00513,-386.00192 L 645.96633,-393.62798 C 649.40033,-402.47156 656.40323,-426.02995 657.44213,-432.23344 C 657.83363,-434.57094 658.45183,-436.47279 658.81603,-436.45977 C 659.85263,-436.42272 680.76663,-404.63842 694.61383,-382.05554 C 700.19483,-372.95372 701.66773,-369.81439 700.83053,-368.80554 C 699.00793,-366.60948 697.67503,-367.25577 693.12123,-372.54366 C 690.72493,-375.32625 688.59473,-377.43338 688.38753,-377.22618 C 688.18033,-377.01899 691.34243,-361.80464 695.41433,-343.41644 C 743.50823,-126.23124 772.57963,77.559465 782.92253,270.01656 C 785.85703,324.62056 786.42873,348.97396 786.43223,419.51656 C 786.43573,493.52586 785.78053,518.57616 782.41703,573.01656 C 770.30203,769.10566 736.25233,939.76836 677.27273,1100.0166 L 674.32833,1108.0166 L 659.15323,1108.2926 C 650.80693,1108.4445 643.97813,1108.342 643.97813,1108.065 z"
         id="path2581" />
    </g>
  </g>
</svg>
