<svg viewBox="0 -163 745 326" version="1.1" xmlns="http://www.w3.org/2000/svg" xmlns:xlink="http://www.w3.org/1999/xlink">
	<defs>
		<radialGradient id="grad" cx="28%" cy="28%" r="144%">
			<stop offset="0"	stop-color="#FFF"/>
			<stop offset="10%"	stop-color="#EDABD7"/>
			<stop offset="45%"	stop-color="#54123E"/>
		</radialGradient>
	</defs>
	<rect y="-163" width="745" height="326" fill="#FFC"/>
	<g id="l2">
		<g id="l1">
			<path d="M236.27 1.9c26.08 3.71 98.64 12.45 123.73 14M234.63 4.9c22.41 16.62 86.25 45.04 114.64 56.37M230.47 6C254 38.73 301.2 81.42 325.63 98.17m-97.9-90.8c11.79 40.21 44.14 89.96 67.7 120.26M225.63 8c-.24 44.37 14.25 98.78 32 138.73M222 6.73C203.63 49.2 209.99 112.16 216.63 158" fill="none" stroke="#DA0069"/>
			<path d="M297.25 9.46l-8.23 1.59.56-4.96Zm-3.89 27.35-8.31-1.08 2.1-4.54Zm-10.67 25.9-7.6-3.53 3.36-3.7ZM266.66 86.69l-6.48-5.32 4.18-2.74Zm-23.38 22.02-4.92-6.78 4.74-1.6Zm-31.37 11.04-3-7.82 4.98-.32Z" fill="#DA0069"/>
		</g>
		<use xlink:href="#l1" transform="scale(1 -1)"/>
	</g>
	<use x="-380" xlink:href="#l2" transform="scale(-1 1)"/>
	<g id="pos">
		<circle cx="155" r="12" fill="url(#grad)"/>
		<path d="m148 0h14m-7-7v14" stroke="#FF0" stroke-width="2" fill="none"/>
	</g>
	<use x="70" xlink:href="#pos"/>
	<g stroke="#DA0069" fill="none">
		<path d="m428 0H716"/>
		<g id="r2">
			<path id="r1" d="M648.63 2.85c29.88 8.15 52.26 18.82 73.63 37.18M647.53 5.5c21.14 12.82 59.36 43.52 73.46 69.17M645.78 7.78c30.9 31.76 51.57 77.09 54.37 111.63M643.5 9.53c20.52 34.86 32.57 85.94 24.91 121.09"/>
			<use xlink:href="#r1" transform="scale(1 -1)"/>
		</g>
		<use x="-1142" xlink:href="#r2" transform="scale(-1 1)"/>
		<g id="r3">
			<path d="M514.63 2.85C553 14.5 589 14.5 627.37 2.85M513.53 5.5C552 30 590 30 628.47 5.5M511.78 7.78C549 48 593 48 630.22 7.78M509.5 9.53C543 75 599 75 632.5 9.53m-125.65 1.1C538 104 604 104 635.15 10.63M504 11c20 133 114 133 134 0m-136.85-.37C466 204 676 204 640.85 10.63"/>
			<path d="M566.5 0l8-2.5v5Zm0 12 8-2.5v5Zm0 12 8-2.5v5Zm0 14 8-2.5v5Zm0 20 8-2.5v5Zm0 22.5 8-2.5v5Zm0 30 8-2.5v5Zm0 45 8-2.5v5ZM528 0l8-2.5v5Zm-.79 6.12 8.35-.75-1.06 4.89Zm-2.3 5.7 8.31 1.09-2.1 4.53Zm-3.69 4.95 7.88 2.88-3.04 3.97Zm-5.08 3.94 6.54 5.26-4.16 2.78Zm-4.6 2.1 5.45 6.37-4.6 1.97Zm-5.02 1.09 4.16 7.28-4.89 1.07Zm-7.2-.34 1.54 8.24-4.97-.59Zm-6.86-2.5-1.16 8.3-4.52-2.14Zm-4.92-3.56-3.01 7.82-3.92-3.11Zm-3.88-4.73-5.01 6.71-2.93-4.05Zm-2.7-6.03-6.75 4.96-1.63-4.73ZM480 0l-8 2.5v-5ZM670 0l-8 2.5v-5Zm-1.35 9.17-8.38-.21 1.61-4.73Zm-3.76 8.16-7.96-2.63 2.91-4.06Zm-5.38 6.34-7.03-4.56 3.85-3.19Zm-6.37 4.51-5.74-6.11 4.5-2.18Zm-9.34 3.26-3.36-7.68 4.97-.54Zm-9.79.25-.6-8.36 4.87 1.15Zm-6.41-1.46.86-8.33 4.59 1.97Zm-6.1-2.83 2.43-8.02 4.14 2.81Zm-6.81-5.55 4.82-6.86 3.04 3.96Zm-4.72-6.47 6.19-5.64 2.11 4.53Zm-2.98-7.51 7.31-4.1 1.04 4.89ZM606 0l8-2.5v5Z" fill="#DA0069" stroke="none"/>
		</g>
		<use xlink:href="#r3" transform="scale(1 -1)"/>
	</g>
	<use x="483" xlink:href="#pos"/>
	<circle cx="504" r="12" fill="url(#grad)"/>
	<line x1="497" x2="511" stroke="#FF0" stroke-width="2"/>
</svg>