<svg xmlns="http://www.w3.org/2000/svg" viewBox="0 0 1000 820" font-family="-apple-system,BlinkMacSystemFont,'Segoe UI',Roboto,sans-serif">
  <style>
    :root{
      --bg:#ffffff;--panel:#f3f5f8;--ink:#1f2933;--muted:#5a6675;--edge:#8895a5;
      --c1:#2563eb;--c1b:#dbeafe;--c2:#0891b2;--c2b:#cffafe;
      --c3:#7c3aed;--c3b:#ede9fe;--c5:#059669;--c5b:#d6f3e7;--c6:#d97706;--c6b:#fef0d6;
    }
    @media (prefers-color-scheme:dark){
      :root{
        --bg:#1b1d22;--panel:#24272f;--ink:#e8eaed;--muted:#9aa5b1;--edge:#566072;
        --c1:#60a5fa;--c1b:#1d3354;--c2:#22d3ee;--c2b:#0e3a44;
        --c3:#a78bfa;--c3b:#332457;--c5:#34d399;--c5b:#0f3d2e;--c6:#fbbf24;--c6b:#3f2f0c;
      }
    }
    .ink{fill:var(--ink)} .muted{fill:var(--muted)}
    .title{font-size:22px;font-weight:700}
    .tier{font-size:11px;font-weight:700;fill:var(--muted);letter-spacing:.08em}
    .st{font-size:13px;font-weight:700;fill:var(--muted);letter-spacing:.04em}
    .li{font-size:12.5px;fill:var(--ink)}
    .ls{font-size:11px;fill:var(--muted)}
    .edge{stroke:var(--edge);stroke-width:1.6;fill:none}
  </style>
  <defs>
    <marker id="ah" viewBox="0 0 10 10" refX="8" refY="5" markerWidth="7" markerHeight="7" orient="auto-start-reverse">
      <path d="M0 0L10 5L0 10z" fill="var(--edge)"/>
    </marker>
  </defs>
  <rect width="1000" height="820" fill="var(--bg)"/>
  <!-- body -->
  <text x="40" y="38" class="title ink">Fields MOC — knowledge flow</text>
  <text x="40" y="60" class="tier">EVERY PAGE SITS ON THIS FLOW AND LINKS ALONG IT</text>

  <!-- spine -->
  <path class="edge" d="M190 119 L190 731" marker-end="url(#ah)"/>

  <!-- band 1: foundation -->
  <line class="edge" x1="190" y1="119" x2="200" y2="119"/>
  <rect x="200" y="92" width="760" height="54" rx="12" fill="var(--c1b)" stroke="var(--c1)"/>
  <text x="180" y="123" text-anchor="end" class="st">foundation</text>
  <text x="216" y="123" class="li">From-Weight-to-Gravitational-Field-Strength</text>

  <!-- band 2: physical quantity -->
  <line class="edge" x1="190" y1="187" x2="200" y2="187"/>
  <rect x="200" y="160" width="760" height="54" rx="12" fill="var(--c2b)" stroke="var(--c2)"/>
  <text x="180" y="191" text-anchor="end" class="st">physical quantity</text>
  <text x="216" y="191" class="li">Charge, Electric-Field-Strength, Gravitational-Field-Strength, Magnetic-Flux-Density, Weight, Magnetic-Flux …</text>

  <!-- band 3: concept -->
  <line class="edge" x1="190" y1="255" x2="200" y2="255"/>
  <rect x="200" y="228" width="760" height="54" rx="12" fill="var(--c3b)" stroke="var(--c3)"/>
  <text x="180" y="259" text-anchor="end" class="st">concept</text>
  <text x="216" y="259" class="li">Gravitational-Field, Electric-Field, Uniform-Electric-Field, Magnetic-Field, Electromagnetic-Induction …</text>

  <!-- band 4: law / result -->
  <line class="edge" x1="190" y1="323" x2="200" y2="323"/>
  <rect x="200" y="296" width="760" height="54" rx="12" fill="var(--c5b)" stroke="var(--c5)"/>
  <text x="180" y="327" text-anchor="end" class="st">law / result</text>
  <text x="216" y="327" class="li">Coulombs-Law, Newtons-Law-of-Gravitation, Keplers-Third-Law, Faradays-Law, Lenzs-Law …</text>

  <!-- band 5: method -->
  <line class="edge" x1="190" y1="391" x2="200" y2="391"/>
  <rect x="200" y="364" width="760" height="54" rx="12" fill="var(--c6b)" stroke="var(--c6)"/>
  <text x="180" y="395" text-anchor="end" class="st">method</text>
  <text x="216" y="395" class="li">Using-Keplers-Third-Law, Applying-Faradays-Law</text>

  <!-- band 6: representation -->
  <line class="edge" x1="190" y1="459" x2="200" y2="459"/>
  <rect x="200" y="432" width="760" height="54" rx="12" fill="var(--c1b)" stroke="var(--c1)"/>
  <text x="180" y="463" text-anchor="end" class="st">representation</text>
  <text x="216" y="463" class="li">Electric-Field-Line-Diagram, Gravitational-Field-Line-Diagram, Magnetic-Field-Line-Diagram</text>

  <!-- band 7: experiment -->
  <line class="edge" x1="190" y1="527" x2="200" y2="527"/>
  <rect x="200" y="500" width="760" height="54" rx="12" fill="var(--c2b)" stroke="var(--c2)"/>
  <text x="180" y="531" text-anchor="end" class="st">experiment</text>
  <text x="216" y="531" class="li">Investigating-Electromagnetic-Induction</text>

  <!-- band 8: application -->
  <line class="edge" x1="190" y1="595" x2="200" y2="595"/>
  <rect x="200" y="568" width="760" height="54" rx="12" fill="var(--c3b)" stroke="var(--c3)"/>
  <text x="180" y="599" text-anchor="end" class="st">application</text>
  <text x="216" y="599" class="li">Satellites-and-Geostationary-Orbits, Transformers, The-DC-Motor, Particle-Accelerators</text>

  <!-- band 9: problem type -->
  <line class="edge" x1="190" y1="663" x2="200" y2="663"/>
  <rect x="200" y="636" width="760" height="54" rx="12" fill="var(--c5b)" stroke="var(--c5)"/>
  <text x="180" y="667" text-anchor="end" class="st">problem type</text>
  <text x="216" y="667" class="li">Gravitational-Field-Problem</text>

  <!-- band 10: frontier edge -->
  <line class="edge" x1="190" y1="731" x2="200" y2="731"/>
  <rect x="200" y="704" width="760" height="54" rx="12" fill="var(--c6b)" stroke="var(--c6)" stroke-dasharray="6 4"/>
  <text x="180" y="735" text-anchor="end" class="st">frontier edge</text>
  <text x="216" y="735" class="li">Relativity-Map, Cosmology-Map</text>

  <text x="500" y="788" text-anchor="middle" class="ls">Gravitational, electric and magnetic fields share one structure from quantity to application.</text>
</svg>
