<svg xmlns="http://www.w3.org/2000/svg" viewBox="0 0 1000 684" font-family="-apple-system,BlinkMacSystemFont,'Segoe UI',Roboto,sans-serif">
  <style>
    :root{
      --bg:#ffffff;--panel:#f3f5f8;--ink:#1f2933;--muted:#5a6675;--edge:#8895a5;
      --c1:#2563eb;--c1b:#dbeafe;--c2:#0891b2;--c2b:#cffafe;
      --c3:#7c3aed;--c3b:#ede9fe;--c5:#059669;--c5b:#d6f3e7;--c6:#d97706;--c6b:#fef0d6;
    }
    @media (prefers-color-scheme:dark){
      :root{
        --bg:#1b1d22;--panel:#24272f;--ink:#e8eaed;--muted:#9aa5b1;--edge:#566072;
        --c1:#60a5fa;--c1b:#1d3354;--c2:#22d3ee;--c2b:#0e3a44;
        --c3:#a78bfa;--c3b:#332457;--c5:#34d399;--c5b:#0f3d2e;--c6:#fbbf24;--c6b:#3f2f0c;
      }
    }
    .ink{fill:var(--ink)} .muted{fill:var(--muted)}
    .title{font-size:22px;font-weight:700}
    .tier{font-size:11px;font-weight:700;fill:var(--muted);letter-spacing:.08em}
    .st{font-size:13px;font-weight:700;fill:var(--muted);letter-spacing:.04em}
    .li{font-size:12.5px;fill:var(--ink)}
    .ls{font-size:11px;fill:var(--muted)}
    .edge{stroke:var(--edge);stroke-width:1.6;fill:none}
  </style>
  <defs>
    <marker id="ah" viewBox="0 0 10 10" refX="8" refY="5" markerWidth="7" markerHeight="7" orient="auto-start-reverse">
      <path d="M0 0L10 5L0 10z" fill="var(--edge)"/>
    </marker>
  </defs>
  <rect width="1000" height="684" fill="var(--bg)"/>
  <!-- body -->
  <text x="40" y="38" class="title ink">Thermal Physics MOC — knowledge flow</text>
  <text x="40" y="60" class="tier">EVERY PAGE SITS ON THIS FLOW AND LINKS ALONG IT</text>

  <!-- spine -->
  <path class="edge" d="M190 119 L190 595" marker-end="url(#ah)"/>

  <!-- band 1: everyday intuition -->
  <line class="edge" x1="190" y1="119" x2="200" y2="119"/>
  <rect x="200" y="92" width="760" height="54" rx="12" fill="var(--c1b)" stroke="var(--c1)"/>
  <text x="180" y="123" text-anchor="end" class="st">everyday intuition</text>
  <text x="216" y="123" class="li">Why-Ice-Floats, Why-Metal-Feels-Colder-Than-Wood</text>

  <!-- band 2: physical quantity -->
  <line class="edge" x1="190" y1="187" x2="200" y2="187"/>
  <rect x="200" y="160" width="760" height="54" rx="12" fill="var(--c2b)" stroke="var(--c2)"/>
  <text x="180" y="191" text-anchor="end" class="st">physical quantity</text>
  <text x="216" y="191" class="li">Pressure, Density, Specific-Heat-Capacity, Specific-Latent-Heat, Boltzmann-Constant</text>

  <!-- band 3: concept -->
  <line class="edge" x1="190" y1="255" x2="200" y2="255"/>
  <rect x="200" y="228" width="760" height="54" rx="12" fill="var(--c3b)" stroke="var(--c3)"/>
  <text x="180" y="259" text-anchor="end" class="st">concept</text>
  <text x="216" y="259" class="li">Temperature, Internal-Energy, States-of-Matter, Kinetic-Theory-of-Gases, Absolute-Zero</text>

  <!-- band 4: law / result -->
  <line class="edge" x1="190" y1="323" x2="200" y2="323"/>
  <rect x="200" y="296" width="760" height="54" rx="12" fill="var(--c5b)" stroke="var(--c5)"/>
  <text x="180" y="327" text-anchor="end" class="st">law / result</text>
  <text x="216" y="327" class="li">Ideal-Gas-Equation</text>

  <!-- band 5: model -->
  <line class="edge" x1="190" y1="391" x2="200" y2="391"/>
  <rect x="200" y="364" width="760" height="54" rx="12" fill="var(--c6b)" stroke="var(--c6)"/>
  <text x="180" y="395" text-anchor="end" class="st">model</text>
  <text x="216" y="395" class="li">Ideal-Gas-Model</text>

  <!-- band 6: method -->
  <line class="edge" x1="190" y1="459" x2="200" y2="459"/>
  <rect x="200" y="432" width="760" height="54" rx="12" fill="var(--c1b)" stroke="var(--c1)"/>
  <text x="180" y="463" text-anchor="end" class="st">method</text>
  <text x="216" y="463" class="li">Applying-the-Ideal-Gas-Equation</text>

  <!-- band 7: experiment -->
  <line class="edge" x1="190" y1="527" x2="200" y2="527"/>
  <rect x="200" y="500" width="760" height="54" rx="12" fill="var(--c2b)" stroke="var(--c2)"/>
  <text x="180" y="531" text-anchor="end" class="st">experiment</text>
  <text x="216" y="531" class="li">Measuring-Specific-Heat-Capacity</text>

  <!-- band 8: mistake pattern -->
  <line class="edge" x1="190" y1="595" x2="200" y2="595"/>
  <rect x="200" y="568" width="760" height="54" rx="12" fill="var(--c3b)" stroke="var(--c3)"/>
  <text x="180" y="599" text-anchor="end" class="st">mistake pattern</text>
  <text x="216" y="599" class="li">Confusing-Heat-and-Temperature</text>

  <text x="500" y="652" text-anchor="middle" class="ls">Everyday warmth becomes kinetic theory, the ideal gas law, and its measurement.</text>
</svg>
